<svg width="441" height="97" viewBox="0 0 441 97" fill="none" xmlns="http://www.w3.org/2000/svg">
<path d="M111 32.618L112.545 37.3733L112.657 37.7188H113.021H118.021L113.976 40.6577L113.682 40.8713L113.794 41.2168L115.339 45.9721L111.294 43.0331L111 42.8196L110.706 43.0331L106.661 45.9721L108.206 41.2168L108.318 40.8713L108.024 40.6577L103.979 37.7188H108.979H109.343L109.455 37.3733L111 32.618Z" fill="#1C1C1C" stroke="black"/>
<path d="M253 78.9999L255.021 85.2188H261.56L256.269 89.0622L258.29 95.2811L253 91.4376L247.71 95.2811L249.731 89.0622L244.44 85.2188H250.979L253 78.9999Z" fill="#1C1C1C"/>
<path d="M432 54.9999L434.021 61.2188H440.56L435.269 65.0622L437.29 71.2811L432 67.4376L426.71 71.2811L428.731 65.0622L423.44 61.2188H429.979L432 54.9999Z" fill="#1C1C1C"/>
<path d="M349 -6.10352e-05L351.021 6.21879H357.56L352.269 10.0622L354.29 16.2811L349 12.4376L343.71 16.2811L345.731 10.0622L340.44 6.21879H346.979L349 -6.10352e-05Z" fill="#1C1C1C"/>
<path d="M315 51.4999L348.5 8.49994L432 65.4999L358.5 87.9999L315 51.4999ZM315 51.4999L251 87.9999H100.5L113 37.4999M113 37.4999L21 8.49994L1.5 75.4999L113 37.4999Z" stroke="black"/>
<circle cx="2.5" cy="74.4999" r="2.5" fill="#1C1C1C"/>
<circle cx="100.5" cy="88.4999" r="2.5" fill="#1C1C1C"/>
<circle cx="358.5" cy="87.4999" r="2.5" fill="#1C1C1C"/>
<circle cx="23" cy="7.99994" r="4" fill="#1C1C1C"/>
<circle cx="317" cy="52.9999" r="4" fill="#1C1C1C"/>
</svg>
