<svg width="444" height="88" viewBox="0 0 444 88" fill="none" xmlns="http://www.w3.org/2000/svg">
<path d="M1 64.9999L64 8.99994L128.5 42.9999L191.5 35.4999L279 80.9999L305 54.9999M305 54.9999L351 8.99994L439.5 30.4999L386.5 80.9999L305 54.9999Z" stroke="black"/>
<path d="M63 -6.10352e-05L65.0206 6.21879H71.5595L66.2694 10.0622L68.2901 16.2811L63 12.4376L57.7099 16.2811L59.7306 10.0622L54.4405 6.21879H60.9794L63 -6.10352e-05Z" fill="#1C1C1C"/>
<path d="M128 31.9999L130.021 38.2188H136.56L131.269 42.0622L133.29 48.2811L128 44.4376L122.71 48.2811L124.731 42.0622L119.44 38.2188H125.979L128 31.9999Z" fill="#1C1C1C"/>
<path d="M306 44.9999L308.021 51.2188H314.56L309.269 55.0622L311.29 61.2811L306 57.4376L300.71 61.2811L302.731 55.0622L297.44 51.2188H303.979L306 44.9999Z" fill="#1C1C1C"/>
<path d="M385 69.9999L387.021 76.2188H393.56L388.269 80.0622L390.29 86.2811L385 82.4376L379.71 86.2811L381.731 80.0622L376.44 76.2188H382.979L385 69.9999Z" fill="#1C1C1C"/>
<circle cx="351.5" cy="8.49994" r="2.5" fill="#1C1C1C"/>
<circle cx="190.5" cy="36.4999" r="2.5" fill="#1C1C1C"/>
<circle cx="440" cy="29.9999" r="4" fill="#1C1C1C"/>
<circle cx="279" cy="79.9999" r="4" fill="#1C1C1C"/>
<circle cx="4" cy="62.9999" r="4" fill="#1C1C1C"/>
</svg>
