<svg width="468" height="90" viewBox="0 0 468 90" fill="none" xmlns="http://www.w3.org/2000/svg">
<path d="M467 20.4999L405.5 10.4999L327 33.4999M327 33.4999L420 58.4999M327 33.4999L252.5 47.4999L217 80.4999M327 33.4999L219 10.4999L59.5 33.4999L3.5 3.49988" stroke="#1C1C1C"/>
<path d="M329 24.9999L331.021 31.2187H337.56L332.269 35.0622L334.29 41.281L329 37.4376L323.71 41.281L325.731 35.0622L320.44 31.2187H326.979L329 24.9999Z" fill="#1C1C1C"/>
<path d="M218 71.9999L220.021 78.2187H226.56L221.269 82.0622L223.29 88.281L218 84.4376L212.71 88.281L214.731 82.0622L209.44 78.2187H215.979L218 71.9999Z" fill="#1C1C1C"/>
<path d="M62 22.9999L64.0206 29.2187H70.5595L65.2694 33.0622L67.2901 39.281L62 35.4376L56.7099 39.281L58.7306 33.0622L53.4405 29.2187H59.9794L62 22.9999Z" fill="#1C1C1C"/>
<circle cx="218.5" cy="10.4999" r="2.5" fill="#1C1C1C"/>
<circle cx="419" cy="58.9999" r="4" fill="#1C1C1C"/>
<circle cx="4" cy="3.99988" r="4" fill="#1C1C1C"/>
<circle cx="464" cy="20.9999" r="4" fill="#1C1C1C"/>
</svg>
