<svg width="422" height="87" viewBox="0 0 422 87" fill="none" xmlns="http://www.w3.org/2000/svg">
<path d="M80 68.9999L82.0206 75.2187H88.5595L83.2694 79.0622L85.2901 85.281L80 81.4376L74.7099 85.281L76.7306 79.0622L71.4405 75.2187H77.9794L80 68.9999Z" fill="#1C1C1C"/>
<path d="M221 14.9999L223.021 21.2187H229.56L224.269 25.0622L226.29 31.281L221 27.4376L215.71 31.281L217.731 25.0622L212.44 21.2187H218.979L221 14.9999Z" fill="#1C1C1C"/>
<path d="M389 55.9999L391.021 62.2187H397.56L392.269 66.0622L394.29 72.281L389 68.4376L383.71 72.281L385.731 66.0622L380.44 62.2187H386.979L389 55.9999Z" fill="#1C1C1C"/>
<circle cx="62.5" cy="5.49988" r="2.5" fill="#1C1C1C"/>
<circle cx="139.5" cy="50.4999" r="2.5" fill="#1C1C1C"/>
<circle cx="4" cy="76.9999" r="4" fill="#1C1C1C"/>
<circle cx="288" cy="3.99988" r="4" fill="#1C1C1C"/>
<circle cx="418" cy="25.9999" r="4" fill="#1C1C1C"/>
<circle cx="269" cy="66.9999" r="4" fill="#1C1C1C"/>
<path d="M62.4298 4.99988L4 78.9999H80.4082M62.4298 4.99988L80.4082 78.9999M62.4298 4.99988L222.238 24.9681L289.157 4.99988M80.4082 78.9999L138.838 50.8094L267.184 67.2538L357.076 42.5872L420 24.9681L387.539 67.2538" stroke="#1C1C1C"/>
</svg>
