<svg width="378" height="295" viewBox="0 0 378 295" fill="none" xmlns="http://www.w3.org/2000/svg">
<g filter="url(#filter0_d_1_182)">
<path fill-rule="evenodd" clip-rule="evenodd" d="M248.48 101L282.164 71.685L265.585 45.8497L352 2L294.748 54.9479L328.386 80.9764L320.169 101H329C351.091 101 369 118.909 369 141V246C369 268.091 351.091 286 329 286H42C19.9086 286 2 268.091 2 246V141C2 118.909 19.9086 101 42 101H248.48Z" fill="white"/>
<path d="M282.164 71.685L283.149 72.8165L284.127 71.9657L283.427 70.8749L282.164 71.685ZM248.48 101V102.5H249.041L249.464 102.132L248.48 101ZM265.585 45.8497L264.906 44.5121L263.426 45.2631L264.322 46.6599L265.585 45.8497ZM352 2L353.018 3.10124L351.321 0.662358L352 2ZM294.748 54.9479L293.73 53.8467L292.429 55.0498L293.83 56.1342L294.748 54.9479ZM328.386 80.9764L329.774 81.5459L330.208 80.4891L329.304 79.7901L328.386 80.9764ZM320.169 101L318.781 100.431L317.932 102.5H320.169V101ZM281.18 70.5535L247.495 99.8685L249.464 102.132L283.149 72.8165L281.18 70.5535ZM264.322 46.6599L280.902 72.4952L283.427 70.8749L266.847 45.0396L264.322 46.6599ZM351.321 0.662358L264.906 44.5121L266.263 47.1874L352.679 3.33764L351.321 0.662358ZM295.767 56.0492L353.018 3.10124L350.982 0.898756L293.73 53.8467L295.767 56.0492ZM329.304 79.7901L295.666 53.7616L293.83 56.1342L327.469 82.1627L329.304 79.7901ZM321.557 101.569L329.774 81.5459L326.999 80.4069L318.781 100.431L321.557 101.569ZM320.169 102.5H329V99.5H320.169V102.5ZM329 102.5C350.263 102.5 367.5 119.737 367.5 141H370.5C370.5 118.08 351.92 99.5 329 99.5V102.5ZM367.5 141V246H370.5V141H367.5ZM367.5 246C367.5 267.263 350.263 284.5 329 284.5V287.5C351.92 287.5 370.5 268.92 370.5 246H367.5ZM329 284.5H42V287.5H329V284.5ZM42 284.5C20.737 284.5 3.5 267.263 3.5 246H0.5C0.5 268.92 19.0802 287.5 42 287.5V284.5ZM3.5 246V141H0.5V246H3.5ZM3.5 141C3.5 119.737 20.737 102.5 42 102.5V99.5C19.0802 99.5 0.5 118.08 0.5 141H3.5ZM42 102.5H248.48V99.5H42V102.5Z" fill="black"/>
</g>
<path d="M167.382 159V151.35L164.61 156.912H163.026L160.254 151.35V159H157.302V146.22H160.506L163.818 152.898L167.148 146.22H170.334V159H167.382ZM184.947 159V149.55H187.827V159H184.947ZM184.947 148.47V145.86H187.827V148.47H184.947ZM195.919 158.496C195.523 158.664 195.067 158.82 194.551 158.964C194.047 159.108 193.537 159.18 193.021 159.18C192.661 159.18 192.319 159.132 191.995 159.036C191.683 158.952 191.407 158.814 191.167 158.622C190.927 158.418 190.735 158.154 190.591 157.83C190.459 157.506 190.393 157.116 190.393 156.66V151.728H189.187V149.55H190.393V146.544H193.273V149.55H195.199V151.728H193.273V155.67C193.273 155.982 193.351 156.21 193.507 156.354C193.663 156.486 193.861 156.552 194.101 156.552C194.317 156.552 194.539 156.516 194.767 156.444C194.995 156.372 195.193 156.294 195.361 156.21L195.919 158.496ZM197.113 160.422C197.353 160.506 197.575 160.566 197.779 160.602C197.995 160.638 198.187 160.656 198.355 160.656C198.703 160.656 198.973 160.536 199.165 160.296C199.357 160.056 199.531 159.624 199.687 159L196.087 149.55H199.057L201.253 156.534L203.143 149.55H205.843L202.243 160.53C201.991 161.31 201.541 161.94 200.893 162.42C200.245 162.912 199.477 163.158 198.589 163.158C198.349 163.158 198.103 163.134 197.851 163.086C197.611 163.05 197.365 162.984 197.113 162.888V160.422ZM207.278 152.592V149.658H209.618V152.592H207.278ZM207.278 159V156.066H209.618V159H207.278ZM66.9343 175.22H77.6803V188H74.7283V177.812H69.9043V188H66.9343V175.22ZM85.9649 188.18C85.2449 188.18 84.6209 188.03 84.0929 187.73C83.5649 187.43 83.1569 187.01 82.8689 186.47V191.834H79.9889V178.55H82.4909V180.08C82.8389 179.54 83.2709 179.12 83.7869 178.82C84.3149 178.52 84.9389 178.37 85.6589 178.37C86.2949 178.37 86.8769 178.496 87.4049 178.748C87.9449 179 88.4069 179.348 88.7909 179.792C89.1869 180.224 89.4929 180.74 89.7089 181.34C89.9369 181.928 90.0509 182.564 90.0509 183.248C90.0509 183.956 89.9489 184.61 89.7449 185.21C89.5409 185.81 89.2589 186.332 88.8989 186.776C88.5389 187.208 88.1069 187.55 87.6029 187.802C87.0989 188.054 86.5529 188.18 85.9649 188.18ZM84.9929 185.75C85.3049 185.75 85.5869 185.684 85.8389 185.552C86.1029 185.408 86.3309 185.222 86.5229 184.994C86.7149 184.766 86.8589 184.502 86.9549 184.202C87.0629 183.89 87.1169 183.566 87.1169 183.23C87.1169 182.882 87.0569 182.564 86.9369 182.276C86.8289 181.976 86.6729 181.718 86.4689 181.502C86.2769 181.286 86.0369 181.118 85.7489 180.998C85.4729 180.878 85.1729 180.818 84.8489 180.818C84.4529 180.818 84.0689 180.938 83.6969 181.178C83.3369 181.406 83.0609 181.718 82.8689 182.114V184.058C83.0609 184.538 83.3489 184.94 83.7329 185.264C84.1289 185.588 84.5489 185.75 84.9929 185.75ZM96.0021 188.18C95.2101 188.18 94.4961 188.054 93.8601 187.802C93.2361 187.538 92.7021 187.184 92.2581 186.74C91.8261 186.296 91.4961 185.786 91.2681 185.21C91.0401 184.622 90.9261 184.01 90.9261 183.374C90.9261 182.69 91.0401 182.048 91.2681 181.448C91.4961 180.836 91.8261 180.302 92.2581 179.846C92.6901 179.39 93.2181 179.03 93.8421 178.766C94.4781 178.502 95.1981 178.37 96.0021 178.37C96.8061 178.37 97.5201 178.502 98.1441 178.766C98.7681 179.03 99.2961 179.39 99.7281 179.846C100.16 180.29 100.484 180.806 100.7 181.394C100.928 181.982 101.042 182.6 101.042 183.248C101.042 183.416 101.036 183.584 101.024 183.752C101.012 183.908 100.994 184.046 100.97 184.166H93.9861C94.0341 184.802 94.2621 185.288 94.6701 185.624C95.0901 185.948 95.5641 186.11 96.0921 186.11C96.5121 186.11 96.9141 186.008 97.2981 185.804C97.6941 185.6 97.9581 185.324 98.0901 184.976L100.538 185.66C100.166 186.404 99.5901 187.01 98.8101 187.478C98.0301 187.946 97.0941 188.18 96.0021 188.18ZM98.0001 182.384C97.9401 181.784 97.7241 181.31 97.3521 180.962C96.9801 180.614 96.5181 180.44 95.9661 180.44C95.4021 180.44 94.9341 180.62 94.5621 180.98C94.2021 181.328 93.9921 181.796 93.9321 182.384H98.0001ZM108.449 178.55C108.809 178.55 109.133 178.616 109.421 178.748C109.709 178.88 109.955 179.06 110.159 179.288C110.363 179.504 110.519 179.762 110.627 180.062C110.747 180.35 110.807 180.65 110.807 180.962C110.807 181.382 110.693 181.796 110.465 182.204C110.249 182.6 109.889 182.9 109.385 183.104C109.949 183.272 110.393 183.548 110.717 183.932C111.053 184.304 111.221 184.826 111.221 185.498C111.221 186.386 110.897 187.028 110.249 187.424C109.601 187.808 108.713 188 107.585 188H102.383V178.55H108.449ZM107.045 182.438C107.321 182.438 107.543 182.366 107.711 182.222C107.879 182.066 107.963 181.832 107.963 181.52C107.963 181.268 107.885 181.058 107.729 180.89C107.573 180.71 107.357 180.62 107.081 180.62H105.263V182.438H107.045ZM107.405 185.93C107.669 185.93 107.885 185.84 108.053 185.66C108.233 185.48 108.323 185.252 108.323 184.976C108.323 184.676 108.239 184.436 108.071 184.256C107.903 184.076 107.681 183.986 107.405 183.986H105.263V185.93H107.405ZM118.695 188.18C117.975 188.18 117.351 188.03 116.823 187.73C116.295 187.43 115.887 187.01 115.599 186.47V191.834H112.719V178.55H115.221V180.08C115.569 179.54 116.001 179.12 116.517 178.82C117.045 178.52 117.669 178.37 118.389 178.37C119.025 178.37 119.607 178.496 120.135 178.748C120.675 179 121.137 179.348 121.521 179.792C121.917 180.224 122.223 180.74 122.439 181.34C122.667 181.928 122.781 182.564 122.781 183.248C122.781 183.956 122.679 184.61 122.475 185.21C122.271 185.81 121.989 186.332 121.629 186.776C121.269 187.208 120.837 187.55 120.333 187.802C119.829 188.054 119.283 188.18 118.695 188.18ZM117.723 185.75C118.035 185.75 118.317 185.684 118.569 185.552C118.833 185.408 119.061 185.222 119.253 184.994C119.445 184.766 119.589 184.502 119.685 184.202C119.793 183.89 119.847 183.566 119.847 183.23C119.847 182.882 119.787 182.564 119.667 182.276C119.559 181.976 119.403 181.718 119.199 181.502C119.007 181.286 118.767 181.118 118.479 180.998C118.203 180.878 117.903 180.818 117.579 180.818C117.183 180.818 116.799 180.938 116.427 181.178C116.067 181.406 115.791 181.718 115.599 182.114V184.058C115.791 184.538 116.079 184.94 116.463 185.264C116.859 185.588 117.279 185.75 117.723 185.75ZM126.897 188.18C126.429 188.18 125.991 188.108 125.583 187.964C125.187 187.808 124.845 187.598 124.557 187.334C124.269 187.058 124.041 186.74 123.873 186.38C123.705 186.008 123.621 185.606 123.621 185.174C123.621 184.706 123.717 184.28 123.909 183.896C124.113 183.512 124.395 183.182 124.755 182.906C125.115 182.63 125.541 182.414 126.033 182.258C126.525 182.102 127.071 182.024 127.671 182.024C128.067 182.024 128.451 182.06 128.823 182.132C129.195 182.192 129.519 182.288 129.795 182.42V181.988C129.795 180.896 129.165 180.35 127.905 180.35C127.389 180.35 126.897 180.44 126.429 180.62C125.961 180.788 125.469 181.046 124.953 181.394L124.107 179.594C124.731 179.186 125.379 178.88 126.051 178.676C126.723 178.472 127.437 178.37 128.193 178.37C129.621 178.37 130.725 178.706 131.505 179.378C132.285 180.05 132.675 181.034 132.675 182.33V184.76C132.675 185.048 132.717 185.252 132.801 185.372C132.897 185.48 133.059 185.546 133.287 185.57V188C133.035 188.06 132.807 188.096 132.603 188.108C132.399 188.132 132.213 188.144 132.045 188.144C131.505 188.144 131.097 188.042 130.821 187.838C130.545 187.622 130.371 187.322 130.299 186.938L130.245 186.506C129.825 187.046 129.321 187.46 128.733 187.748C128.157 188.036 127.545 188.18 126.897 188.18ZM127.743 186.11C128.055 186.11 128.355 186.056 128.643 185.948C128.943 185.84 129.189 185.696 129.381 185.516C129.657 185.3 129.795 185.072 129.795 184.832V183.932C129.543 183.836 129.267 183.764 128.967 183.716C128.679 183.656 128.409 183.626 128.157 183.626C127.629 183.626 127.191 183.746 126.843 183.986C126.507 184.226 126.339 184.538 126.339 184.922C126.339 185.27 126.471 185.558 126.735 185.786C126.999 186.002 127.335 186.11 127.743 186.11ZM139.501 188H136.639V181.052H133.795V178.55H142.327V181.052H139.501V188ZM146.466 183.878L150.588 178.55H152.658V188H149.778V182.834L145.71 188H143.604V178.55H146.466V183.878ZM159.664 188H156.802V181.052H153.958V178.55H162.49V181.052H159.664V188ZM167.791 188.18C166.999 188.18 166.285 188.054 165.649 187.802C165.025 187.538 164.491 187.184 164.047 186.74C163.615 186.296 163.285 185.786 163.057 185.21C162.829 184.622 162.715 184.01 162.715 183.374C162.715 182.69 162.829 182.048 163.057 181.448C163.285 180.836 163.615 180.302 164.047 179.846C164.479 179.39 165.007 179.03 165.631 178.766C166.267 178.502 166.987 178.37 167.791 178.37C168.595 178.37 169.309 178.502 169.933 178.766C170.557 179.03 171.085 179.39 171.517 179.846C171.949 180.29 172.273 180.806 172.489 181.394C172.717 181.982 172.831 182.6 172.831 183.248C172.831 183.416 172.825 183.584 172.813 183.752C172.801 183.908 172.783 184.046 172.759 184.166H165.775C165.823 184.802 166.051 185.288 166.459 185.624C166.879 185.948 167.353 186.11 167.881 186.11C168.301 186.11 168.703 186.008 169.087 185.804C169.483 185.6 169.747 185.324 169.879 184.976L172.327 185.66C171.955 186.404 171.379 187.01 170.599 187.478C169.819 187.946 168.883 188.18 167.791 188.18ZM169.789 182.384C169.729 181.784 169.513 181.31 169.141 180.962C168.769 180.614 168.307 180.44 167.755 180.44C167.191 180.44 166.723 180.62 166.351 180.98C165.991 181.328 165.781 181.796 165.721 182.384H169.789ZM177.78 183.266C177.78 182.618 177.894 182 178.122 181.412C178.35 180.812 178.68 180.29 179.112 179.846C179.544 179.39 180.072 179.03 180.696 178.766C181.332 178.502 182.052 178.37 182.856 178.37C183.948 178.37 184.866 178.604 185.61 179.072C186.354 179.528 186.912 180.128 187.284 180.872L184.476 181.718C184.104 181.118 183.558 180.818 182.838 180.818C182.238 180.818 181.734 181.04 181.326 181.484C180.93 181.928 180.732 182.522 180.732 183.266C180.732 183.638 180.786 183.98 180.894 184.292C181.002 184.592 181.152 184.85 181.344 185.066C181.536 185.282 181.758 185.45 182.01 185.57C182.274 185.69 182.55 185.75 182.838 185.75C183.198 185.75 183.528 185.666 183.828 185.498C184.128 185.318 184.35 185.09 184.494 184.814L187.302 185.678C186.954 186.41 186.396 187.01 185.628 187.478C184.872 187.946 183.948 188.18 182.856 188.18C182.064 188.18 181.35 188.048 180.714 187.784C180.09 187.508 179.556 187.148 179.112 186.704C178.68 186.248 178.35 185.726 178.122 185.138C177.894 184.538 177.78 183.914 177.78 183.266ZM194.705 178.55C195.065 178.55 195.389 178.616 195.677 178.748C195.965 178.88 196.211 179.06 196.415 179.288C196.619 179.504 196.775 179.762 196.883 180.062C197.003 180.35 197.063 180.65 197.063 180.962C197.063 181.382 196.949 181.796 196.721 182.204C196.505 182.6 196.145 182.9 195.641 183.104C196.205 183.272 196.649 183.548 196.973 183.932C197.309 184.304 197.477 184.826 197.477 185.498C197.477 186.386 197.153 187.028 196.505 187.424C195.857 187.808 194.969 188 193.841 188H188.639V178.55H194.705ZM193.301 182.438C193.577 182.438 193.799 182.366 193.967 182.222C194.135 182.066 194.219 181.832 194.219 181.52C194.219 181.268 194.141 181.058 193.985 180.89C193.829 180.71 193.613 180.62 193.337 180.62H191.519V182.438H193.301ZM193.661 185.93C193.925 185.93 194.141 185.84 194.309 185.66C194.489 185.48 194.579 185.252 194.579 184.976C194.579 184.676 194.495 184.436 194.327 184.256C194.159 184.076 193.937 183.986 193.661 183.986H191.519V185.93H193.661ZM203.439 188.18C202.635 188.18 201.915 188.048 201.279 187.784C200.655 187.52 200.127 187.166 199.695 186.722C199.263 186.266 198.933 185.744 198.705 185.156C198.489 184.556 198.381 183.932 198.381 183.284C198.381 182.636 198.489 182.018 198.705 181.43C198.933 180.83 199.263 180.308 199.695 179.864C200.127 179.408 200.655 179.048 201.279 178.784C201.915 178.508 202.635 178.37 203.439 178.37C204.243 178.37 204.957 178.508 205.581 178.784C206.205 179.048 206.733 179.408 207.165 179.864C207.597 180.308 207.927 180.83 208.155 181.43C208.383 182.018 208.497 182.636 208.497 183.284C208.497 183.932 208.383 184.556 208.155 185.156C207.939 185.744 207.615 186.266 207.183 186.722C206.751 187.166 206.217 187.52 205.581 187.784C204.957 188.048 204.243 188.18 203.439 188.18ZM201.333 183.284C201.333 184.028 201.531 184.628 201.927 185.084C202.323 185.528 202.827 185.75 203.439 185.75C203.739 185.75 204.015 185.69 204.267 185.57C204.519 185.45 204.735 185.282 204.915 185.066C205.107 184.85 205.257 184.592 205.365 184.292C205.473 183.98 205.527 183.644 205.527 183.284C205.527 182.54 205.329 181.946 204.933 181.502C204.537 181.046 204.039 180.818 203.439 180.818C203.139 180.818 202.857 180.878 202.593 180.998C202.341 181.118 202.119 181.286 201.927 181.502C201.747 181.718 201.603 181.982 201.495 182.294C201.387 182.594 201.333 182.924 201.333 183.284ZM217.738 174.86C217.726 175.664 217.438 176.306 216.874 176.786C216.31 177.266 215.572 177.506 214.66 177.506C213.748 177.506 213.01 177.266 212.446 176.786C211.882 176.306 211.588 175.664 211.564 174.86H213.094C213.106 175.28 213.244 175.616 213.508 175.868C213.772 176.12 214.156 176.246 214.66 176.246C215.14 176.246 215.506 176.126 215.758 175.886C216.022 175.646 216.172 175.304 216.208 174.86H217.738ZM212.824 183.878L216.946 178.55H219.016V188H216.136V182.834L212.068 188H209.962V178.55H212.824V183.878ZM229.97 177.938C229.322 178.07 228.8 178.346 228.404 178.766C228.02 179.174 227.762 179.774 227.63 180.566C227.966 180.146 228.392 179.816 228.908 179.576C229.424 179.336 230.024 179.216 230.708 179.216C231.272 179.216 231.806 179.33 232.31 179.558C232.814 179.774 233.258 180.08 233.642 180.476C234.026 180.86 234.326 181.316 234.542 181.844C234.77 182.36 234.884 182.912 234.884 183.5C234.884 184.136 234.77 184.742 234.542 185.318C234.326 185.882 234.008 186.38 233.588 186.812C233.168 187.232 232.646 187.568 232.022 187.82C231.398 188.06 230.69 188.18 229.898 188.18C228.266 188.18 227.03 187.7 226.19 186.74C225.35 185.768 224.93 184.352 224.93 182.492C224.93 181.376 225.032 180.416 225.236 179.612C225.452 178.808 225.764 178.13 226.172 177.578C226.592 177.014 227.114 176.564 227.738 176.228C228.374 175.892 229.118 175.634 229.97 175.454L233.75 174.68L233.84 177.128L229.97 177.938ZM227.9 183.464C227.9 184.16 228.086 184.718 228.458 185.138C228.842 185.558 229.334 185.768 229.934 185.768C230.522 185.768 231.002 185.564 231.374 185.156C231.746 184.736 231.932 184.19 231.932 183.518C231.932 182.942 231.74 182.468 231.356 182.096C230.984 181.724 230.498 181.538 229.898 181.538C229.31 181.538 228.83 181.718 228.458 182.078C228.086 182.438 227.9 182.9 227.9 183.464ZM239.261 183.878L243.383 178.55H245.453V188H242.573V182.834L238.505 188H236.399V178.55H239.261V183.878ZM247.022 179.594C247.55 179.174 248.114 178.868 248.714 178.676C249.326 178.472 249.938 178.37 250.55 178.37C250.982 178.37 251.39 178.424 251.774 178.532C252.17 178.628 252.518 178.778 252.818 178.982C253.118 179.186 253.358 179.45 253.538 179.774C253.718 180.086 253.808 180.458 253.808 180.89C253.808 181.358 253.676 181.79 253.412 182.186C253.148 182.57 252.776 182.81 252.296 182.906C252.968 183.074 253.472 183.374 253.808 183.806C254.144 184.226 254.312 184.736 254.312 185.336C254.312 185.756 254.21 186.14 254.006 186.488C253.814 186.836 253.544 187.136 253.196 187.388C252.86 187.64 252.452 187.838 251.972 187.982C251.504 188.114 251 188.18 250.46 188.18C249.668 188.18 248.936 188.06 248.264 187.82C247.604 187.58 247.088 187.25 246.716 186.83L248.03 184.994C248.234 185.246 248.516 185.444 248.876 185.588C249.236 185.732 249.626 185.804 250.046 185.804C250.502 185.804 250.862 185.726 251.126 185.57C251.402 185.402 251.54 185.15 251.54 184.814C251.54 184.466 251.402 184.202 251.126 184.022C250.862 183.83 250.364 183.734 249.632 183.734H248.822V182.24H249.596C250.16 182.24 250.58 182.144 250.856 181.952C251.144 181.748 251.288 181.49 251.288 181.178C251.288 180.914 251.186 180.722 250.982 180.602C250.79 180.47 250.538 180.404 250.226 180.404C249.902 180.404 249.548 180.476 249.164 180.62C248.792 180.752 248.462 180.944 248.174 181.196L247.022 179.594ZM258.597 181.916H261.783V178.55H264.645V188H261.783V184.4H258.597V188H255.735V178.55H258.597V181.916ZM271.186 188.18C270.394 188.18 269.68 188.054 269.044 187.802C268.42 187.538 267.886 187.184 267.442 186.74C267.01 186.296 266.68 185.786 266.452 185.21C266.224 184.622 266.11 184.01 266.11 183.374C266.11 182.69 266.224 182.048 266.452 181.448C266.68 180.836 267.01 180.302 267.442 179.846C267.874 179.39 268.402 179.03 269.026 178.766C269.662 178.502 270.382 178.37 271.186 178.37C271.99 178.37 272.704 178.502 273.328 178.766C273.952 179.03 274.48 179.39 274.912 179.846C275.344 180.29 275.668 180.806 275.884 181.394C276.112 181.982 276.226 182.6 276.226 183.248C276.226 183.416 276.22 183.584 276.208 183.752C276.196 183.908 276.178 184.046 276.154 184.166H269.17C269.218 184.802 269.446 185.288 269.854 185.624C270.274 185.948 270.748 186.11 271.276 186.11C271.696 186.11 272.098 186.008 272.482 185.804C272.878 185.6 273.142 185.324 273.274 184.976L275.722 185.66C275.35 186.404 274.774 187.01 273.994 187.478C273.214 187.946 272.278 188.18 271.186 188.18ZM273.184 182.384C273.124 181.784 272.908 181.31 272.536 180.962C272.164 180.614 271.702 180.44 271.15 180.44C270.586 180.44 270.118 180.62 269.746 180.98C269.386 181.328 269.176 181.796 269.116 182.384H273.184ZM276.973 183.266C276.973 182.618 277.087 182 277.315 181.412C277.543 180.812 277.873 180.29 278.305 179.846C278.737 179.39 279.265 179.03 279.889 178.766C280.525 178.502 281.245 178.37 282.049 178.37C283.141 178.37 284.059 178.604 284.803 179.072C285.547 179.528 286.105 180.128 286.477 180.872L283.669 181.718C283.297 181.118 282.751 180.818 282.031 180.818C281.431 180.818 280.927 181.04 280.519 181.484C280.123 181.928 279.925 182.522 279.925 183.266C279.925 183.638 279.979 183.98 280.087 184.292C280.195 184.592 280.345 184.85 280.537 185.066C280.729 185.282 280.951 185.45 281.203 185.57C281.467 185.69 281.743 185.75 282.031 185.75C282.391 185.75 282.721 185.666 283.021 185.498C283.321 185.318 283.543 185.09 283.687 184.814L286.495 185.678C286.147 186.41 285.589 187.01 284.821 187.478C284.065 187.946 283.141 188.18 282.049 188.18C281.257 188.18 280.543 188.048 279.907 187.784C279.283 187.508 278.749 187.148 278.305 186.704C277.873 186.248 277.543 185.726 277.315 185.138C277.087 184.538 276.973 183.914 276.973 183.266ZM298.1 178.55C298.46 178.55 298.784 178.616 299.072 178.748C299.36 178.88 299.606 179.06 299.81 179.288C300.014 179.504 300.17 179.762 300.278 180.062C300.398 180.35 300.458 180.65 300.458 180.962C300.458 181.382 300.344 181.796 300.116 182.204C299.9 182.6 299.54 182.9 299.036 183.104C299.6 183.272 300.044 183.548 300.368 183.932C300.704 184.304 300.872 184.826 300.872 185.498C300.872 186.386 300.548 187.028 299.9 187.424C299.252 187.808 298.364 188 297.236 188H292.034V178.55H298.1ZM296.696 182.438C296.972 182.438 297.194 182.366 297.362 182.222C297.53 182.066 297.614 181.832 297.614 181.52C297.614 181.268 297.536 181.058 297.38 180.89C297.224 180.71 297.008 180.62 296.732 180.62H294.914V182.438H296.696ZM297.056 185.93C297.32 185.93 297.536 185.84 297.704 185.66C297.884 185.48 297.974 185.252 297.974 184.976C297.974 184.676 297.89 184.436 297.722 184.256C297.554 184.076 297.332 183.986 297.056 183.986H294.914V185.93H297.056ZM31.1078 212.266C31.1078 211.618 31.2218 211 31.4498 210.412C31.6778 209.812 32.0078 209.29 32.4398 208.846C32.8718 208.39 33.3998 208.03 34.0238 207.766C34.6598 207.502 35.3798 207.37 36.1838 207.37C37.2758 207.37 38.1938 207.604 38.9378 208.072C39.6818 208.528 40.2398 209.128 40.6118 209.872L37.8038 210.718C37.4318 210.118 36.8858 209.818 36.1658 209.818C35.5658 209.818 35.0618 210.04 34.6538 210.484C34.2578 210.928 34.0598 211.522 34.0598 212.266C34.0598 212.638 34.1138 212.98 34.2218 213.292C34.3298 213.592 34.4798 213.85 34.6718 214.066C34.8638 214.282 35.0858 214.45 35.3378 214.57C35.6018 214.69 35.8778 214.75 36.1658 214.75C36.5258 214.75 36.8558 214.666 37.1558 214.498C37.4558 214.318 37.6778 214.09 37.8218 213.814L40.6298 214.678C40.2818 215.41 39.7238 216.01 38.9558 216.478C38.1998 216.946 37.2758 217.18 36.1838 217.18C35.3918 217.18 34.6778 217.048 34.0418 216.784C33.4178 216.508 32.8838 216.148 32.4398 215.704C32.0078 215.248 31.6778 214.726 31.4498 214.138C31.2218 213.538 31.1078 212.914 31.1078 212.266ZM40.9984 214.516C41.3224 214.504 41.5864 214.45 41.7904 214.354C42.0064 214.246 42.1804 214.054 42.3124 213.778C42.4564 213.49 42.5704 213.1 42.6544 212.608C42.7504 212.104 42.8464 211.444 42.9424 210.628L43.2664 207.55H50.3224V217H47.4424V210.016H45.7684L45.6244 211.078C45.4684 212.242 45.2824 213.208 45.0664 213.976C44.8624 214.732 44.5864 215.338 44.2384 215.794C43.9024 216.25 43.4764 216.574 42.9604 216.766C42.4564 216.958 41.8264 217.06 41.0704 217.072L40.9984 214.516ZM56.8381 217.18C56.0461 217.18 55.3321 217.054 54.6961 216.802C54.0721 216.538 53.5381 216.184 53.0941 215.74C52.6621 215.296 52.3321 214.786 52.1041 214.21C51.8761 213.622 51.7621 213.01 51.7621 212.374C51.7621 211.69 51.8761 211.048 52.1041 210.448C52.3321 209.836 52.6621 209.302 53.0941 208.846C53.5261 208.39 54.0541 208.03 54.6781 207.766C55.3141 207.502 56.0341 207.37 56.8381 207.37C57.6421 207.37 58.3561 207.502 58.9801 207.766C59.6041 208.03 60.1321 208.39 60.5641 208.846C60.9961 209.29 61.3201 209.806 61.5361 210.394C61.7641 210.982 61.8781 211.6 61.8781 212.248C61.8781 212.416 61.8721 212.584 61.8601 212.752C61.8481 212.908 61.8301 213.046 61.8061 213.166H54.8221C54.8701 213.802 55.0981 214.288 55.5061 214.624C55.9261 214.948 56.4001 215.11 56.9281 215.11C57.3481 215.11 57.7501 215.008 58.1341 214.804C58.5301 214.6 58.7941 214.324 58.9261 213.976L61.3741 214.66C61.0021 215.404 60.4261 216.01 59.6461 216.478C58.8661 216.946 57.9301 217.18 56.8381 217.18ZM58.8361 211.384C58.7761 210.784 58.5601 210.31 58.1881 209.962C57.8161 209.614 57.3541 209.44 56.8021 209.44C56.2381 209.44 55.7701 209.62 55.3981 209.98C55.0381 210.328 54.8281 210.796 54.7681 211.384H58.8361ZM62.1641 214.498H62.6501C62.9261 214.474 63.1541 214.408 63.3341 214.3C63.5261 214.18 63.6881 213.976 63.8201 213.688C63.9521 213.4 64.0601 213.01 64.1441 212.518C64.2281 212.026 64.3121 211.396 64.3961 210.628L64.7201 207.55H71.7581V214.498H73.1081V219.538H70.5341V217H64.6481V219.538H62.1641V214.498ZM68.8961 214.498V210.016H67.2041L67.0781 211.078C66.9821 211.858 66.8561 212.518 66.7001 213.058C66.5441 213.598 66.3461 214.078 66.1061 214.498H68.8961ZM74.8834 218.422C75.0874 218.518 75.2794 218.578 75.4594 218.602C75.6514 218.638 75.8134 218.656 75.9454 218.656C76.2214 218.656 76.4494 218.536 76.6294 218.296C76.8214 218.068 76.9714 217.636 77.0794 217L73.4794 207.55H76.4494L78.6454 214.534L80.5354 207.55H83.2354L79.7614 218.188C79.4254 219.208 78.9634 219.958 78.3754 220.438C77.7874 220.918 77.0794 221.158 76.2514 221.158C76.0114 221.158 75.7714 221.134 75.5314 221.086C75.3034 221.05 75.0874 220.984 74.8834 220.888V218.422ZM88.487 210.934C88.607 210.382 88.799 209.89 89.063 209.458C89.339 209.014 89.669 208.642 90.053 208.342C90.437 208.03 90.869 207.79 91.349 207.622C91.841 207.454 92.369 207.37 92.933 207.37C93.617 207.37 94.235 207.49 94.787 207.73C95.351 207.97 95.831 208.312 96.227 208.756C96.623 209.188 96.929 209.71 97.145 210.322C97.361 210.934 97.469 211.606 97.469 212.338C97.469 213.106 97.355 213.79 97.127 214.39C96.899 214.99 96.581 215.5 96.173 215.92C95.765 216.328 95.285 216.64 94.733 216.856C94.181 217.072 93.575 217.18 92.915 217.18C91.715 217.18 90.725 216.844 89.945 216.172C89.165 215.488 88.667 214.576 88.451 213.436H87.263V217H84.383V207.55H87.263V210.934H88.487ZM91.097 212.284C91.097 213.088 91.259 213.688 91.583 214.084C91.919 214.468 92.357 214.66 92.897 214.66C93.461 214.66 93.905 214.462 94.229 214.066C94.553 213.658 94.715 213.052 94.715 212.248C94.715 211.444 94.547 210.85 94.211 210.466C93.887 210.082 93.455 209.89 92.915 209.89C92.351 209.89 91.907 210.094 91.583 210.502C91.259 210.898 91.097 211.492 91.097 212.284ZM98.9381 207.55H101.8V214.498H104.212V207.55H107.092V214.498H109.486V207.55H112.366V214.498H113.842V219.538H111.25V217H98.9381V207.55ZM119.645 217.18C118.853 217.18 118.139 217.054 117.503 216.802C116.879 216.538 116.345 216.184 115.901 215.74C115.469 215.296 115.139 214.786 114.911 214.21C114.683 213.622 114.569 213.01 114.569 212.374C114.569 211.69 114.683 211.048 114.911 210.448C115.139 209.836 115.469 209.302 115.901 208.846C116.333 208.39 116.861 208.03 117.485 207.766C118.121 207.502 118.841 207.37 119.645 207.37C120.449 207.37 121.163 207.502 121.787 207.766C122.411 208.03 122.939 208.39 123.371 208.846C123.803 209.29 124.127 209.806 124.343 210.394C124.571 210.982 124.685 211.6 124.685 212.248C124.685 212.416 124.679 212.584 124.667 212.752C124.655 212.908 124.637 213.046 124.613 213.166H117.629C117.677 213.802 117.905 214.288 118.313 214.624C118.733 214.948 119.207 215.11 119.735 215.11C120.155 215.11 120.557 215.008 120.941 214.804C121.337 214.6 121.601 214.324 121.733 213.976L124.181 214.66C123.809 215.404 123.233 216.01 122.453 216.478C121.673 216.946 120.737 217.18 119.645 217.18ZM121.643 211.384C121.583 210.784 121.367 210.31 120.995 209.962C120.623 209.614 120.161 209.44 119.609 209.44C119.045 209.44 118.577 209.62 118.205 209.98C117.845 210.328 117.635 210.796 117.575 211.384H121.643ZM132.578 209.998H128.888V217H126.026V207.55H132.578V209.998ZM137.785 217.18C136.981 217.18 136.261 217.048 135.625 216.784C135.001 216.52 134.473 216.166 134.041 215.722C133.609 215.266 133.279 214.744 133.051 214.156C132.835 213.556 132.727 212.932 132.727 212.284C132.727 211.636 132.835 211.018 133.051 210.43C133.279 209.83 133.609 209.308 134.041 208.864C134.473 208.408 135.001 208.048 135.625 207.784C136.261 207.508 136.981 207.37 137.785 207.37C138.589 207.37 139.303 207.508 139.927 207.784C140.551 208.048 141.079 208.408 141.511 208.864C141.943 209.308 142.273 209.83 142.501 210.43C142.729 211.018 142.843 211.636 142.843 212.284C142.843 212.932 142.729 213.556 142.501 214.156C142.285 214.744 141.961 215.266 141.529 215.722C141.097 216.166 140.563 216.52 139.927 216.784C139.303 217.048 138.589 217.18 137.785 217.18ZM135.679 212.284C135.679 213.028 135.877 213.628 136.273 214.084C136.669 214.528 137.173 214.75 137.785 214.75C138.085 214.75 138.361 214.69 138.613 214.57C138.865 214.45 139.081 214.282 139.261 214.066C139.453 213.85 139.603 213.592 139.711 213.292C139.819 212.98 139.873 212.644 139.873 212.284C139.873 211.54 139.675 210.946 139.279 210.502C138.883 210.046 138.385 209.818 137.785 209.818C137.485 209.818 137.203 209.878 136.939 209.998C136.687 210.118 136.465 210.286 136.273 210.502C136.093 210.718 135.949 210.982 135.841 211.294C135.733 211.594 135.679 211.924 135.679 212.284ZM154.394 207.55H157.472L153.782 212.122L157.778 217H154.466L151.73 213.634H151.352V217H148.508V207.55H151.352V211.096H151.676L154.394 207.55ZM164.574 217.18C163.854 217.18 163.23 217.03 162.702 216.73C162.174 216.43 161.766 216.01 161.478 215.47V220.834H158.598V207.55H161.1V209.08C161.448 208.54 161.88 208.12 162.396 207.82C162.924 207.52 163.548 207.37 164.268 207.37C164.904 207.37 165.486 207.496 166.014 207.748C166.554 208 167.016 208.348 167.4 208.792C167.796 209.224 168.102 209.74 168.318 210.34C168.546 210.928 168.66 211.564 168.66 212.248C168.66 212.956 168.558 213.61 168.354 214.21C168.15 214.81 167.868 215.332 167.508 215.776C167.148 216.208 166.716 216.55 166.212 216.802C165.708 217.054 165.162 217.18 164.574 217.18ZM163.602 214.75C163.914 214.75 164.196 214.684 164.448 214.552C164.712 214.408 164.94 214.222 165.132 213.994C165.324 213.766 165.468 213.502 165.564 213.202C165.672 212.89 165.726 212.566 165.726 212.23C165.726 211.882 165.666 211.564 165.546 211.276C165.438 210.976 165.282 210.718 165.078 210.502C164.886 210.286 164.646 210.118 164.358 209.998C164.082 209.878 163.782 209.818 163.458 209.818C163.062 209.818 162.678 209.938 162.306 210.178C161.946 210.406 161.67 210.718 161.478 211.114V213.058C161.67 213.538 161.958 213.94 162.342 214.264C162.738 214.588 163.158 214.75 163.602 214.75ZM170.227 218.422C170.431 218.518 170.623 218.578 170.803 218.602C170.995 218.638 171.157 218.656 171.289 218.656C171.565 218.656 171.793 218.536 171.973 218.296C172.165 218.068 172.315 217.636 172.423 217L168.823 207.55H171.793L173.989 214.534L175.879 207.55H178.579L175.105 218.188C174.769 219.208 174.307 219.958 173.719 220.438C173.131 220.918 172.423 221.158 171.595 221.158C171.355 221.158 171.115 221.134 170.875 221.086C170.647 221.05 170.431 220.984 170.227 220.888V218.422ZM188.385 217H185.523V210.052H182.607V217H179.745V207.55H188.385V217ZM193.294 210.916H196.48V207.55H199.342V217H196.48V213.4H193.294V217H190.432V207.55H193.294V210.916ZM205.865 217.18C205.061 217.18 204.341 217.048 203.705 216.784C203.081 216.52 202.553 216.166 202.121 215.722C201.689 215.266 201.359 214.744 201.131 214.156C200.915 213.556 200.807 212.932 200.807 212.284C200.807 211.636 200.915 211.018 201.131 210.43C201.359 209.83 201.689 209.308 202.121 208.864C202.553 208.408 203.081 208.048 203.705 207.784C204.341 207.508 205.061 207.37 205.865 207.37C206.669 207.37 207.383 207.508 208.007 207.784C208.631 208.048 209.159 208.408 209.591 208.864C210.023 209.308 210.353 209.83 210.581 210.43C210.809 211.018 210.923 211.636 210.923 212.284C210.923 212.932 210.809 213.556 210.581 214.156C210.365 214.744 210.041 215.266 209.609 215.722C209.177 216.166 208.643 216.52 208.007 216.784C207.383 217.048 206.669 217.18 205.865 217.18ZM203.759 212.284C203.759 213.028 203.957 213.628 204.353 214.084C204.749 214.528 205.253 214.75 205.865 214.75C206.165 214.75 206.441 214.69 206.693 214.57C206.945 214.45 207.161 214.282 207.341 214.066C207.533 213.85 207.683 213.592 207.791 213.292C207.899 212.98 207.953 212.644 207.953 212.284C207.953 211.54 207.755 210.946 207.359 210.502C206.963 210.046 206.465 209.818 205.865 209.818C205.565 209.818 205.283 209.878 205.019 209.998C204.767 210.118 204.545 210.286 204.353 210.502C204.173 210.718 204.029 210.982 203.921 211.294C203.813 211.594 203.759 211.924 203.759 212.284ZM218.939 209.998H215.249V217H212.387V207.55H218.939V209.998ZM224.146 217.18C223.342 217.18 222.622 217.048 221.986 216.784C221.362 216.52 220.834 216.166 220.402 215.722C219.97 215.266 219.64 214.744 219.412 214.156C219.196 213.556 219.088 212.932 219.088 212.284C219.088 211.636 219.196 211.018 219.412 210.43C219.64 209.83 219.97 209.308 220.402 208.864C220.834 208.408 221.362 208.048 221.986 207.784C222.622 207.508 223.342 207.37 224.146 207.37C224.95 207.37 225.664 207.508 226.288 207.784C226.912 208.048 227.44 208.408 227.872 208.864C228.304 209.308 228.634 209.83 228.862 210.43C229.09 211.018 229.204 211.636 229.204 212.284C229.204 212.932 229.09 213.556 228.862 214.156C228.646 214.744 228.322 215.266 227.89 215.722C227.458 216.166 226.924 216.52 226.288 216.784C225.664 217.048 224.95 217.18 224.146 217.18ZM222.04 212.284C222.04 213.028 222.238 213.628 222.634 214.084C223.03 214.528 223.534 214.75 224.146 214.75C224.446 214.75 224.722 214.69 224.974 214.57C225.226 214.45 225.442 214.282 225.622 214.066C225.814 213.85 225.964 213.592 226.072 213.292C226.18 212.98 226.234 212.644 226.234 212.284C226.234 211.54 226.036 210.946 225.64 210.502C225.244 210.046 224.746 209.818 224.146 209.818C223.846 209.818 223.564 209.878 223.3 209.998C223.048 210.118 222.826 210.286 222.634 210.502C222.454 210.718 222.31 210.982 222.202 211.294C222.094 211.594 222.04 211.924 222.04 212.284ZM243.51 217H240.648V210.052H237.732V217H234.87V207.55H243.51V217ZM244.711 214.516C245.035 214.504 245.299 214.45 245.503 214.354C245.719 214.246 245.893 214.054 246.025 213.778C246.169 213.49 246.283 213.1 246.367 212.608C246.463 212.104 246.559 211.444 246.655 210.628L246.979 207.55H254.035V217H251.155V210.016H249.481L249.337 211.078C249.181 212.242 248.995 213.208 248.779 213.976C248.575 214.732 248.299 215.338 247.951 215.794C247.615 216.25 247.189 216.574 246.673 216.766C246.169 216.958 245.539 217.06 244.783 217.072L244.711 214.516ZM258.715 217.18C258.247 217.18 257.809 217.108 257.401 216.964C257.005 216.808 256.663 216.598 256.375 216.334C256.087 216.058 255.859 215.74 255.691 215.38C255.523 215.008 255.439 214.606 255.439 214.174C255.439 213.706 255.535 213.28 255.727 212.896C255.931 212.512 256.213 212.182 256.573 211.906C256.933 211.63 257.359 211.414 257.851 211.258C258.343 211.102 258.889 211.024 259.489 211.024C259.885 211.024 260.269 211.06 260.641 211.132C261.013 211.192 261.337 211.288 261.613 211.42V210.988C261.613 209.896 260.983 209.35 259.723 209.35C259.207 209.35 258.715 209.44 258.247 209.62C257.779 209.788 257.287 210.046 256.771 210.394L255.925 208.594C256.549 208.186 257.197 207.88 257.869 207.676C258.541 207.472 259.255 207.37 260.011 207.37C261.439 207.37 262.543 207.706 263.323 208.378C264.103 209.05 264.493 210.034 264.493 211.33V213.76C264.493 214.048 264.535 214.252 264.619 214.372C264.715 214.48 264.877 214.546 265.105 214.57V217C264.853 217.06 264.625 217.096 264.421 217.108C264.217 217.132 264.031 217.144 263.863 217.144C263.323 217.144 262.915 217.042 262.639 216.838C262.363 216.622 262.189 216.322 262.117 215.938L262.063 215.506C261.643 216.046 261.139 216.46 260.551 216.748C259.975 217.036 259.363 217.18 258.715 217.18ZM259.561 215.11C259.873 215.11 260.173 215.056 260.461 214.948C260.761 214.84 261.007 214.696 261.199 214.516C261.475 214.3 261.613 214.072 261.613 213.832V212.932C261.361 212.836 261.085 212.764 260.785 212.716C260.497 212.656 260.227 212.626 259.975 212.626C259.447 212.626 259.009 212.746 258.661 212.986C258.325 213.226 258.157 213.538 258.157 213.922C258.157 214.27 258.289 214.558 258.553 214.786C258.817 215.002 259.153 215.11 259.561 215.11ZM269.495 210.916H272.681V207.55H275.543V217H272.681V213.4H269.495V217H266.633V207.55H269.495V210.916ZM282.084 217.18C281.292 217.18 280.578 217.054 279.942 216.802C279.318 216.538 278.784 216.184 278.34 215.74C277.908 215.296 277.578 214.786 277.35 214.21C277.122 213.622 277.008 213.01 277.008 212.374C277.008 211.69 277.122 211.048 277.35 210.448C277.578 209.836 277.908 209.302 278.34 208.846C278.772 208.39 279.3 208.03 279.924 207.766C280.56 207.502 281.28 207.37 282.084 207.37C282.888 207.37 283.602 207.502 284.226 207.766C284.85 208.03 285.378 208.39 285.81 208.846C286.242 209.29 286.566 209.806 286.782 210.394C287.01 210.982 287.124 211.6 287.124 212.248C287.124 212.416 287.118 212.584 287.106 212.752C287.094 212.908 287.076 213.046 287.052 213.166H280.068C280.116 213.802 280.344 214.288 280.752 214.624C281.172 214.948 281.646 215.11 282.174 215.11C282.594 215.11 282.996 215.008 283.38 214.804C283.776 214.6 284.04 214.324 284.172 213.976L286.62 214.66C286.248 215.404 285.672 216.01 284.892 216.478C284.112 216.946 283.176 217.18 282.084 217.18ZM284.082 211.384C284.022 210.784 283.806 210.31 283.434 209.962C283.062 209.614 282.6 209.44 282.048 209.44C281.484 209.44 281.016 209.62 280.644 209.98C280.284 210.328 280.074 210.796 280.014 211.384H284.082ZM293.011 217H290.149V210.052H287.305V207.55H295.837V210.052H293.011V217ZM299.976 210.916H303.162V207.55H306.024V217H303.162V213.4H299.976V217H297.114V207.55H299.976V210.916ZM312.547 217.18C311.743 217.18 311.023 217.048 310.387 216.784C309.763 216.52 309.235 216.166 308.803 215.722C308.371 215.266 308.041 214.744 307.813 214.156C307.597 213.556 307.489 212.932 307.489 212.284C307.489 211.636 307.597 211.018 307.813 210.43C308.041 209.83 308.371 209.308 308.803 208.864C309.235 208.408 309.763 208.048 310.387 207.784C311.023 207.508 311.743 207.37 312.547 207.37C313.351 207.37 314.065 207.508 314.689 207.784C315.313 208.048 315.841 208.408 316.273 208.864C316.705 209.308 317.035 209.83 317.263 210.43C317.491 211.018 317.605 211.636 317.605 212.284C317.605 212.932 317.491 213.556 317.263 214.156C317.047 214.744 316.723 215.266 316.291 215.722C315.859 216.166 315.325 216.52 314.689 216.784C314.065 217.048 313.351 217.18 312.547 217.18ZM310.441 212.284C310.441 213.028 310.639 213.628 311.035 214.084C311.431 214.528 311.935 214.75 312.547 214.75C312.847 214.75 313.123 214.69 313.375 214.57C313.627 214.45 313.843 214.282 314.023 214.066C314.215 213.85 314.365 213.592 314.473 213.292C314.581 212.98 314.635 212.644 314.635 212.284C314.635 211.54 314.437 210.946 314.041 210.502C313.645 210.046 313.147 209.818 312.547 209.818C312.247 209.818 311.965 209.878 311.701 209.998C311.449 210.118 311.227 210.286 311.035 210.502C310.855 210.718 310.711 210.982 310.603 211.294C310.495 211.594 310.441 211.924 310.441 212.284ZM325.621 209.998H321.931V217H319.069V207.55H325.621V209.998ZM330.828 217.18C330.024 217.18 329.304 217.048 328.668 216.784C328.044 216.52 327.516 216.166 327.084 215.722C326.652 215.266 326.322 214.744 326.094 214.156C325.878 213.556 325.77 212.932 325.77 212.284C325.77 211.636 325.878 211.018 326.094 210.43C326.322 209.83 326.652 209.308 327.084 208.864C327.516 208.408 328.044 208.048 328.668 207.784C329.304 207.508 330.024 207.37 330.828 207.37C331.632 207.37 332.346 207.508 332.97 207.784C333.594 208.048 334.122 208.408 334.554 208.864C334.986 209.308 335.316 209.83 335.544 210.43C335.772 211.018 335.886 211.636 335.886 212.284C335.886 212.932 335.772 213.556 335.544 214.156C335.328 214.744 335.004 215.266 334.572 215.722C334.14 216.166 333.606 216.52 332.97 216.784C332.346 217.048 331.632 217.18 330.828 217.18ZM328.722 212.284C328.722 213.028 328.92 213.628 329.316 214.084C329.712 214.528 330.216 214.75 330.828 214.75C331.128 214.75 331.404 214.69 331.656 214.57C331.908 214.45 332.124 214.282 332.304 214.066C332.496 213.85 332.646 213.592 332.754 213.292C332.862 212.98 332.916 212.644 332.916 212.284C332.916 211.54 332.718 210.946 332.322 210.502C331.926 210.046 331.428 209.818 330.828 209.818C330.528 209.818 330.246 209.878 329.982 209.998C329.73 210.118 329.508 210.286 329.316 210.502C329.136 210.718 328.992 210.982 328.884 211.294C328.776 211.594 328.722 211.924 328.722 212.284ZM109.867 238.998H106.177V246H103.315V236.55H109.867V238.998ZM113.999 241.878L118.121 236.55H120.191V246H117.311V240.834L113.243 246H111.137V236.55H113.999V241.878ZM128.799 238.998H125.109V246H122.247V236.55H128.799V238.998ZM132.504 246.18C132.036 246.18 131.598 246.108 131.19 245.964C130.794 245.808 130.452 245.598 130.164 245.334C129.876 245.058 129.648 244.74 129.48 244.38C129.312 244.008 129.228 243.606 129.228 243.174C129.228 242.706 129.324 242.28 129.516 241.896C129.72 241.512 130.002 241.182 130.362 240.906C130.722 240.63 131.148 240.414 131.64 240.258C132.132 240.102 132.678 240.024 133.278 240.024C133.674 240.024 134.058 240.06 134.43 240.132C134.802 240.192 135.126 240.288 135.402 240.42V239.988C135.402 238.896 134.772 238.35 133.512 238.35C132.996 238.35 132.504 238.44 132.036 238.62C131.568 238.788 131.076 239.046 130.56 239.394L129.714 237.594C130.338 237.186 130.986 236.88 131.658 236.676C132.33 236.472 133.044 236.37 133.8 236.37C135.228 236.37 136.332 236.706 137.112 237.378C137.892 238.05 138.282 239.034 138.282 240.33V242.76C138.282 243.048 138.324 243.252 138.408 243.372C138.504 243.48 138.666 243.546 138.894 243.57V246C138.642 246.06 138.414 246.096 138.21 246.108C138.006 246.132 137.82 246.144 137.652 246.144C137.112 246.144 136.704 246.042 136.428 245.838C136.152 245.622 135.978 245.322 135.906 244.938L135.852 244.506C135.432 245.046 134.928 245.46 134.34 245.748C133.764 246.036 133.152 246.18 132.504 246.18ZM133.35 244.11C133.662 244.11 133.962 244.056 134.25 243.948C134.55 243.84 134.796 243.696 134.988 243.516C135.264 243.3 135.402 243.072 135.402 242.832V241.932C135.15 241.836 134.874 241.764 134.574 241.716C134.286 241.656 134.016 241.626 133.764 241.626C133.236 241.626 132.798 241.746 132.45 241.986C132.114 242.226 131.946 242.538 131.946 242.922C131.946 243.27 132.078 243.558 132.342 243.786C132.606 244.002 132.942 244.11 133.35 244.11ZM143.284 239.916H146.47V236.55H149.332V246H146.47V242.4H143.284V246H140.422V236.55H143.284V239.916ZM156.341 246H153.479V239.052H150.635V236.55H159.167V239.052H156.341V246ZM162.914 246.18C162.446 246.18 162.008 246.108 161.6 245.964C161.204 245.808 160.862 245.598 160.574 245.334C160.286 245.058 160.058 244.74 159.89 244.38C159.722 244.008 159.638 243.606 159.638 243.174C159.638 242.706 159.734 242.28 159.926 241.896C160.13 241.512 160.412 241.182 160.772 240.906C161.132 240.63 161.558 240.414 162.05 240.258C162.542 240.102 163.088 240.024 163.688 240.024C164.084 240.024 164.468 240.06 164.84 240.132C165.212 240.192 165.536 240.288 165.812 240.42V239.988C165.812 238.896 165.182 238.35 163.922 238.35C163.406 238.35 162.914 238.44 162.446 238.62C161.978 238.788 161.486 239.046 160.97 239.394L160.124 237.594C160.748 237.186 161.396 236.88 162.068 236.676C162.74 236.472 163.454 236.37 164.21 236.37C165.638 236.37 166.742 236.706 167.522 237.378C168.302 238.05 168.692 239.034 168.692 240.33V242.76C168.692 243.048 168.734 243.252 168.818 243.372C168.914 243.48 169.076 243.546 169.304 243.57V246C169.052 246.06 168.824 246.096 168.62 246.108C168.416 246.132 168.23 246.144 168.062 246.144C167.522 246.144 167.114 246.042 166.838 245.838C166.562 245.622 166.388 245.322 166.316 244.938L166.262 244.506C165.842 245.046 165.338 245.46 164.75 245.748C164.174 246.036 163.562 246.18 162.914 246.18ZM163.76 244.11C164.072 244.11 164.372 244.056 164.66 243.948C164.96 243.84 165.206 243.696 165.398 243.516C165.674 243.3 165.812 243.072 165.812 242.832V241.932C165.56 241.836 165.284 241.764 164.984 241.716C164.696 241.656 164.426 241.626 164.174 241.626C163.646 241.626 163.208 241.746 162.86 241.986C162.524 242.226 162.356 242.538 162.356 242.922C162.356 243.27 162.488 243.558 162.752 243.786C163.016 244.002 163.352 244.11 163.76 244.11ZM181.586 238.998H177.896V246H175.034V236.55H181.586V238.998ZM185.291 246.18C184.823 246.18 184.385 246.108 183.977 245.964C183.581 245.808 183.239 245.598 182.951 245.334C182.663 245.058 182.435 244.74 182.267 244.38C182.099 244.008 182.015 243.606 182.015 243.174C182.015 242.706 182.111 242.28 182.303 241.896C182.507 241.512 182.789 241.182 183.149 240.906C183.509 240.63 183.935 240.414 184.427 240.258C184.919 240.102 185.465 240.024 186.065 240.024C186.461 240.024 186.845 240.06 187.217 240.132C187.589 240.192 187.913 240.288 188.189 240.42V239.988C188.189 238.896 187.559 238.35 186.299 238.35C185.783 238.35 185.291 238.44 184.823 238.62C184.355 238.788 183.863 239.046 183.347 239.394L182.501 237.594C183.125 237.186 183.773 236.88 184.445 236.676C185.117 236.472 185.831 236.37 186.587 236.37C188.015 236.37 189.119 236.706 189.899 237.378C190.679 238.05 191.069 239.034 191.069 240.33V242.76C191.069 243.048 191.111 243.252 191.195 243.372C191.291 243.48 191.453 243.546 191.681 243.57V246C191.429 246.06 191.201 246.096 190.997 246.108C190.793 246.132 190.607 246.144 190.439 246.144C189.899 246.144 189.491 246.042 189.215 245.838C188.939 245.622 188.765 245.322 188.693 244.938L188.639 244.506C188.219 245.046 187.715 245.46 187.127 245.748C186.551 246.036 185.939 246.18 185.291 246.18ZM186.137 244.11C186.449 244.11 186.749 244.056 187.037 243.948C187.337 243.84 187.583 243.696 187.775 243.516C188.051 243.3 188.189 243.072 188.189 242.832V241.932C187.937 241.836 187.661 241.764 187.361 241.716C187.073 241.656 186.803 241.626 186.551 241.626C186.023 241.626 185.585 241.746 185.237 241.986C184.901 242.226 184.733 242.538 184.733 242.922C184.733 243.27 184.865 243.558 185.129 243.786C185.393 244.002 185.729 244.11 186.137 244.11ZM192.364 243.516C192.688 243.504 192.952 243.45 193.156 243.354C193.372 243.246 193.546 243.054 193.678 242.778C193.822 242.49 193.936 242.1 194.02 241.608C194.116 241.104 194.212 240.444 194.308 239.628L194.632 236.55H201.688V246H198.808V239.016H197.134L196.99 240.078C196.834 241.242 196.648 242.208 196.432 242.976C196.228 243.732 195.952 244.338 195.604 244.794C195.268 245.25 194.842 245.574 194.326 245.766C193.822 245.958 193.192 246.06 192.436 246.072L192.364 243.516ZM206.367 246.18C205.899 246.18 205.461 246.108 205.053 245.964C204.657 245.808 204.315 245.598 204.027 245.334C203.739 245.058 203.511 244.74 203.343 244.38C203.175 244.008 203.091 243.606 203.091 243.174C203.091 242.706 203.187 242.28 203.379 241.896C203.583 241.512 203.865 241.182 204.225 240.906C204.585 240.63 205.011 240.414 205.503 240.258C205.995 240.102 206.541 240.024 207.141 240.024C207.537 240.024 207.921 240.06 208.293 240.132C208.665 240.192 208.989 240.288 209.265 240.42V239.988C209.265 238.896 208.635 238.35 207.375 238.35C206.859 238.35 206.367 238.44 205.899 238.62C205.431 238.788 204.939 239.046 204.423 239.394L203.577 237.594C204.201 237.186 204.849 236.88 205.521 236.676C206.193 236.472 206.907 236.37 207.663 236.37C209.091 236.37 210.195 236.706 210.975 237.378C211.755 238.05 212.145 239.034 212.145 240.33V242.76C212.145 243.048 212.187 243.252 212.271 243.372C212.367 243.48 212.529 243.546 212.757 243.57V246C212.505 246.06 212.277 246.096 212.073 246.108C211.869 246.132 211.683 246.144 211.515 246.144C210.975 246.144 210.567 246.042 210.291 245.838C210.015 245.622 209.841 245.322 209.769 244.938L209.715 244.506C209.295 245.046 208.791 245.46 208.203 245.748C207.627 246.036 207.015 246.18 206.367 246.18ZM207.213 244.11C207.525 244.11 207.825 244.056 208.113 243.948C208.413 243.84 208.659 243.696 208.851 243.516C209.127 243.3 209.265 243.072 209.265 242.832V241.932C209.013 241.836 208.737 241.764 208.437 241.716C208.149 241.656 207.879 241.626 207.627 241.626C207.099 241.626 206.661 241.746 206.313 241.986C205.977 242.226 205.809 242.538 205.809 242.922C205.809 243.27 205.941 243.558 206.205 243.786C206.469 244.002 206.805 244.11 207.213 244.11ZM220.172 236.55H223.25L219.56 241.122L223.556 246H220.244L217.508 242.634H217.13V246H214.286V236.55H217.13V240.096H217.454L220.172 236.55ZM229.326 246H226.464V239.052H223.62V236.55H232.152V239.052H229.326V246ZM236.29 241.878L240.412 236.55H242.482V246H239.602V240.834L235.534 246H233.428V236.55H236.29V241.878ZM250.424 236.55H253.502L249.812 241.122L253.808 246H250.496L247.76 242.634H247.382V246H244.538V236.55H247.382V240.096H247.706L250.424 236.55ZM257.49 241.878L261.612 236.55H263.682V246H260.802V240.834L256.734 246H254.628V236.55H257.49V241.878Z" fill="#1C1C1C"/>
<path d="M172.05 152.502C172.05 151.734 172.194 150.972 172.482 150.216C172.77 149.448 173.19 148.764 173.742 148.164C174.294 147.564 174.966 147.078 175.758 146.706C176.55 146.334 177.45 146.148 178.458 146.148C179.658 146.148 180.696 146.406 181.572 146.922C182.46 147.438 183.12 148.11 183.552 148.938L181.284 150.522C181.14 150.186 180.954 149.91 180.726 149.694C180.51 149.466 180.27 149.286 180.006 149.154C179.742 149.01 179.472 148.914 179.196 148.866C178.92 148.806 178.65 148.776 178.386 148.776C177.822 148.776 177.33 148.89 176.91 149.118C176.49 149.346 176.142 149.64 175.866 150C175.59 150.36 175.386 150.768 175.254 151.224C175.122 151.68 175.056 152.142 175.056 152.61C175.056 153.114 175.134 153.6 175.29 154.068C175.446 154.536 175.668 154.95 175.956 155.31C176.256 155.67 176.61 155.958 177.018 156.174C177.438 156.378 177.906 156.48 178.422 156.48C178.686 156.48 178.956 156.45 179.232 156.39C179.52 156.318 179.79 156.216 180.042 156.084C180.306 155.94 180.546 155.76 180.762 155.544C180.978 155.316 181.152 155.04 181.284 154.716L183.696 156.138C183.504 156.606 183.216 157.026 182.832 157.398C182.46 157.77 182.028 158.082 181.536 158.334C181.044 158.586 180.522 158.778 179.97 158.91C179.418 159.042 178.878 159.108 178.35 159.108C177.426 159.108 176.574 158.922 175.794 158.55C175.026 158.166 174.36 157.662 173.796 157.038C173.244 156.414 172.812 155.706 172.5 154.914C172.2 154.122 172.05 153.318 172.05 152.502Z" fill="#95DB3A"/>
<defs>
<filter id="filter0_d_1_182" x="0.5" y="0.662354" width="377" height="293.838" filterUnits="userSpaceOnUse" color-interpolation-filters="sRGB">
<feFlood flood-opacity="0" result="BackgroundImageFix"/>
<feColorMatrix in="SourceAlpha" type="matrix" values="0 0 0 0 0 0 0 0 0 0 0 0 0 0 0 0 0 0 127 0" result="hardAlpha"/>
<feOffset dx="7" dy="7"/>
<feColorMatrix type="matrix" values="0 0 0 0 0 0 0 0 0 0 0 0 0 0 0 0 0 0 1 0"/>
<feBlend mode="normal" in2="BackgroundImageFix" result="effect1_dropShadow_1_182"/>
<feBlend mode="normal" in="SourceGraphic" in2="effect1_dropShadow_1_182" result="shape"/>
</filter>
</defs>
</svg>
