<svg width="175" height="170" viewBox="0 0 175 170" fill="none" xmlns="http://www.w3.org/2000/svg">
<rect x="173.5" y="168.5" width="172" height="167" transform="rotate(-180 173.5 168.5)" fill="url(#paint0_linear_1_1362)" stroke="#1C1C1C" stroke-width="3"/>
<g clip-path="url(#clip0_1_1362)">
<path d="M87.4999 124C108.763 124 126 106.763 126 85.4999C126 64.237 108.763 47 87.4999 47C66.237 47 49 64.237 49 85.4999C49 106.763 66.237 124 87.4999 124Z" fill="#6D6D6D"/>
<path d="M104.742 76.5231C101.599 76.5231 99.0006 77.6367 96.9452 79.8631C96.3443 80.5141 95.8339 81.2403 95.4086 82.0371L81.4051 68.0337H74.4127L61.6562 100.785L84.7729 123.902C85.6739 123.965 86.5828 123.999 87.4998 123.999C106.445 123.999 122.194 110.315 125.402 92.2909L112.456 79.3447L112.451 79.3492C110.482 77.4672 107.914 76.5231 104.742 76.5231Z" fill="#404040"/>
<path d="M94.519 100.785H87.3253L84.4657 93.3454H71.3742L68.671 100.785H61.6562L74.4127 68.0337H81.4051L94.519 100.785ZM82.3435 87.8274L77.8308 75.674L73.4073 87.8274H82.3435Z" fill="#E9E9E9"/>
<path d="M109.434 93.2338L115.689 94.2838C114.885 96.5775 113.615 98.3239 111.88 99.5226C110.145 100.722 107.974 101.321 105.368 101.321C101.242 101.321 98.1887 99.9733 96.2081 97.2774C94.6442 95.1182 93.8623 92.3925 93.8623 89.1008C93.8623 85.1689 94.8901 82.0899 96.9453 79.8631C99.0006 77.6367 101.599 76.5231 104.742 76.5231C108.272 76.5231 111.057 77.6886 113.097 80.0193C115.138 82.3503 116.113 85.921 116.024 90.7316H100.296C100.341 92.5936 100.847 94.042 101.815 95.0768C102.784 96.1121 103.99 96.6294 105.435 96.6294C106.417 96.6294 107.244 96.3614 107.914 95.8251C108.585 95.2887 109.091 94.4253 109.434 93.2338ZM109.791 86.8891C109.746 85.0722 109.277 83.6909 108.384 82.7449C107.49 81.7993 106.403 81.3263 105.122 81.3263C103.752 81.3263 102.62 81.8255 101.726 82.823C100.833 83.821 100.393 85.1764 100.408 86.8889H109.791V86.8891Z" fill="#E9E9E9"/>
</g>
<defs>
<linearGradient id="paint0_linear_1_1362" x1="182.922" y1="234.655" x2="361.436" y2="282.957" gradientUnits="userSpaceOnUse">
<stop stop-color="#90D638"/>
<stop offset="0.815625" stop-color="#ACFA49"/>
</linearGradient>
<clipPath id="clip0_1_1362">
<rect width="77" height="77" fill="white" transform="translate(49 47)"/>
</clipPath>
</defs>
</svg>
