<svg width="175" height="170" viewBox="0 0 175 170" fill="none" xmlns="http://www.w3.org/2000/svg">
<rect x="173.5" y="168.5" width="172" height="167" transform="rotate(-180 173.5 168.5)" fill="url(#paint0_linear_1_1373)" stroke="#1C1C1C" stroke-width="3"/>
<path d="M46.9062 119.809H62.1671C62.5744 119.809 62.932 119.537 63.0412 119.144L67.4919 103.1H84.7698L89.5984 119.163C89.7137 119.547 90.0666 119.809 90.4671 119.809H106.307C106.31 119.809 106.313 119.809 106.314 119.809C106.815 119.809 107.221 119.403 107.221 118.902C107.221 118.768 107.193 118.641 107.14 118.527L86.987 53.5349C86.8694 53.1555 86.518 52.8966 86.1205 52.8966H66.8031C66.4042 52.8966 66.0523 53.157 65.9359 53.5382L46.0393 118.637C45.9559 118.912 46.0067 119.21 46.1775 119.441C46.3487 119.672 46.6186 119.809 46.9062 119.809ZM82.1079 90.2749H70.1233L73.6647 77.616C74.3077 75.3349 74.9156 72.6357 75.5035 70.0254C75.6381 69.4259 75.7705 68.8376 75.9018 68.2623C76.6798 71.3895 77.5354 74.7681 78.3932 77.6254L82.1079 90.2749Z" fill="#474747"/>
<path d="M113.929 70.7649C113.428 70.7649 113.022 71.1708 113.022 71.6717V118.902C113.022 119.403 113.428 119.809 113.929 119.809H128.61C129.111 119.809 129.517 119.403 129.517 118.902V71.6717C129.517 71.1708 129.111 70.7649 128.61 70.7649H113.929Z" fill="#474747"/>
<path d="M121.173 66.7825C126.288 66.7825 130 63.314 130 58.5148C129.889 53.614 126.299 50.1912 121.27 50.1912C118.703 50.1912 116.423 51.0769 114.851 52.6859C113.376 54.1947 112.59 56.2715 112.636 58.5351C112.589 60.7269 113.377 62.7664 114.855 64.2803C116.431 65.8939 118.675 66.7825 121.173 66.7825Z" fill="#474747"/>
<defs>
<linearGradient id="paint0_linear_1_1373" x1="182.922" y1="234.655" x2="361.436" y2="282.957" gradientUnits="userSpaceOnUse">
<stop stop-color="#90D638"/>
<stop offset="0.815625" stop-color="#ACFA49"/>
</linearGradient>
</defs>
</svg>
