<svg width="175" height="170" viewBox="0 0 175 170" fill="none" xmlns="http://www.w3.org/2000/svg">
<rect x="173.5" y="168.5" width="172" height="167" transform="rotate(-180 173.5 168.5)" fill="white" stroke="#1C1C1C" stroke-width="3" stroke-dasharray="10 10"/>
<g clip-path="url(#clip0_1_1352)">
<rect width="86" height="69" transform="translate(45 51)" fill="white"/>
<path fill-rule="evenodd" clip-rule="evenodd" d="M62.8625 51.0078C57.9554 51.0078 54.3244 55.3325 54.487 60.0226C54.6431 64.5285 54.4403 70.3642 52.9814 75.1233C51.5172 79.8958 49.0427 82.92 45 83.3082V87.6908C49.0427 88.0798 51.5172 91.1026 52.9812 95.8757C54.4403 100.635 54.6429 106.471 54.4869 110.976C54.3243 115.666 57.9553 119.991 62.8631 119.991H113.144C118.051 119.991 121.681 115.667 121.519 110.976C121.363 106.471 121.566 100.635 123.025 95.8757C124.489 91.1026 126.957 88.0786 131 87.6908V83.3082C126.957 82.9192 124.489 79.8964 123.025 75.1233C121.565 70.3649 121.363 64.5285 121.519 60.0226C121.681 55.3332 118.051 51.0078 113.144 51.0078H62.8618H62.8625ZM103.305 93.4716C103.305 99.9296 98.5212 103.846 90.5822 103.846H77.0678C76.6812 103.846 76.3104 103.692 76.0371 103.416C75.7637 103.141 75.6101 102.768 75.6101 102.379V68.6206C75.6101 68.2314 75.7637 67.858 76.0371 67.5828C76.3104 67.3075 76.6812 67.1529 77.0678 67.1529H90.5053C97.1251 67.1529 101.47 70.7636 101.47 76.3071C101.47 80.198 98.5469 83.6813 94.8236 84.2915V84.4945C99.8922 85.0543 103.305 88.5892 103.305 93.4716ZM89.1086 71.8056H81.4029V82.7655H87.893C92.9102 82.7655 95.6767 80.7311 95.6767 77.0949C95.6762 73.6872 93.2977 71.8056 89.1086 71.8056ZM81.4029 87.114V99.192H89.3921C94.616 99.192 97.3829 97.0814 97.3829 93.1149C97.3829 89.1484 94.5383 87.1134 89.0562 87.1134H81.4029V87.114Z" fill="#545454"/>
</g>
<defs>
<clipPath id="clip0_1_1352">
<rect width="86" height="69" fill="white" transform="translate(45 51)"/>
</clipPath>
</defs>
</svg>
