<svg width="175" height="170" viewBox="0 0 175 170" fill="none" xmlns="http://www.w3.org/2000/svg">
<rect x="173.5" y="168.5" width="172" height="167" transform="rotate(-180 173.5 168.5)" stroke="#1C1C1C" stroke-width="3" stroke-dasharray="10 10"/>
<g clip-path="url(#clip0_1_1324)">
<path d="M56.9578 121.404L49.9961 45.0057L124.995 45.0349L118.092 121.345L87.4371 129.977L56.9578 121.404ZM112.447 117.234L118.267 51.7999H87.5541L87.7881 123.97L112.447 117.234ZM84.6875 61.3934H77.2286L77.1408 100.555L62.6617 96.618L62.6909 105.57L84.6875 111.489V61.3934Z" fill="#5F5F5F"/>
<path d="M87.5547 51.7694H118.268L112.447 117.203L87.5547 123.939V51.7694ZM110.868 106.239L112.886 81.7745L97.968 83.4366V70.3731L113.88 70.3148L114.524 61.392L90.509 61.5087L90.8308 93.9924L105.339 91.5138L105.134 98.7454L90.509 102.624L90.6553 111.488L110.868 106.239Z" fill="#777777"/>
</g>
<defs>
<clipPath id="clip0_1_1324">
<rect width="75" height="85" fill="white" transform="translate(50 45)"/>
</clipPath>
</defs>
</svg>
