<svg width="242" height="40" viewBox="0 0 242 40" fill="none" xmlns="http://www.w3.org/2000/svg">
<path d="M9.096 27.144C7.832 27.144 6.68 26.896 5.64 26.4C4.6 25.904 3.712 25.256 2.976 24.456C2.24 23.64 1.664 22.712 1.248 21.672C0.848 20.632 0.648 19.56 0.648 18.456C0.648 17.336 0.856 16.256 1.272 15.216C1.704 14.176 2.296 13.264 3.048 12.48C3.816 11.68 4.72 11.048 5.76 10.584C6.8 10.104 7.936 9.864 9.168 9.864C10.432 9.864 11.584 10.112 12.624 10.608C13.664 11.104 14.552 11.76 15.288 12.576C16.024 13.392 16.592 14.32 16.992 15.36C17.392 16.4 17.592 17.456 17.592 18.528C17.592 19.648 17.376 20.728 16.944 21.768C16.528 22.808 15.944 23.728 15.192 24.528C14.44 25.312 13.544 25.944 12.504 26.424C11.464 26.904 10.328 27.144 9.096 27.144ZM4.656 18.504C4.656 19.16 4.752 19.8 4.944 20.424C5.136 21.032 5.416 21.576 5.784 22.056C6.168 22.536 6.64 22.92 7.2 23.208C7.76 23.496 8.4 23.64 9.12 23.64C9.872 23.64 10.528 23.488 11.088 23.184C11.648 22.88 12.112 22.488 12.48 22.008C12.848 21.512 13.12 20.96 13.296 20.352C13.488 19.728 13.584 19.096 13.584 18.456C13.584 17.8 13.488 17.168 13.296 16.56C13.104 15.936 12.816 15.392 12.432 14.928C12.048 14.448 11.576 14.072 11.016 13.8C10.472 13.512 9.84 13.368 9.12 13.368C8.368 13.368 7.712 13.52 7.152 13.824C6.608 14.112 6.144 14.496 5.76 14.976C5.392 15.456 5.112 16.008 4.92 16.632C4.744 17.24 4.656 17.864 4.656 18.504ZM26.6824 27H22.8664V17.736H19.0744V14.4H30.4504V17.736H26.6824V27ZM44.1527 27H40.3367V17.736H36.4487V27H32.6327V14.4H44.1527V27ZM55.3307 27.24C54.3707 27.24 53.5387 27.04 52.8347 26.64C52.1307 26.24 51.5867 25.68 51.2027 24.96V32.112H47.3627V14.4H50.6987V16.44C51.1627 15.72 51.7387 15.16 52.4267 14.76C53.1307 14.36 53.9627 14.16 54.9227 14.16C55.7707 14.16 56.5467 14.328 57.2507 14.664C57.9707 15 58.5867 15.464 59.0987 16.056C59.6267 16.632 60.0347 17.32 60.3227 18.12C60.6267 18.904 60.7787 19.752 60.7787 20.664C60.7787 21.608 60.6427 22.48 60.3707 23.28C60.0987 24.08 59.7227 24.776 59.2427 25.368C58.7627 25.944 58.1867 26.4 57.5147 26.736C56.8427 27.072 56.1147 27.24 55.3307 27.24ZM54.0347 24C54.4507 24 54.8267 23.912 55.1627 23.736C55.5147 23.544 55.8187 23.296 56.0747 22.992C56.3307 22.688 56.5227 22.336 56.6507 21.936C56.7947 21.52 56.8667 21.088 56.8667 20.64C56.8667 20.176 56.7867 19.752 56.6267 19.368C56.4827 18.968 56.2747 18.624 56.0027 18.336C55.7467 18.048 55.4267 17.824 55.0427 17.664C54.6747 17.504 54.2747 17.424 53.8427 17.424C53.3147 17.424 52.8027 17.584 52.3067 17.904C51.8267 18.208 51.4587 18.624 51.2027 19.152V21.744C51.4587 22.384 51.8427 22.92 52.3547 23.352C52.8827 23.784 53.4427 24 54.0347 24ZM66.7457 27.24C66.1217 27.24 65.5377 27.144 64.9937 26.952C64.4657 26.744 64.0097 26.464 63.6257 26.112C63.2417 25.744 62.9377 25.32 62.7137 24.84C62.4897 24.344 62.3777 23.808 62.3777 23.232C62.3777 22.608 62.5057 22.04 62.7617 21.528C63.0337 21.016 63.4097 20.576 63.8897 20.208C64.3697 19.84 64.9377 19.552 65.5937 19.344C66.2497 19.136 66.9777 19.032 67.7777 19.032C68.3057 19.032 68.8177 19.08 69.3137 19.176C69.8097 19.256 70.2417 19.384 70.6097 19.56V18.984C70.6097 17.528 69.7697 16.8 68.0897 16.8C67.4017 16.8 66.7457 16.92 66.1217 17.16C65.4977 17.384 64.8417 17.728 64.1537 18.192L63.0257 15.792C63.8577 15.248 64.7217 14.84 65.6177 14.568C66.5137 14.296 67.4657 14.16 68.4737 14.16C70.3777 14.16 71.8497 14.608 72.8897 15.504C73.9297 16.4 74.4497 17.712 74.4497 19.44V22.68C74.4497 23.064 74.5057 23.336 74.6177 23.496C74.7457 23.64 74.9617 23.728 75.2657 23.76V27C74.9297 27.08 74.6257 27.128 74.3537 27.144C74.0817 27.176 73.8337 27.192 73.6097 27.192C72.8897 27.192 72.3457 27.056 71.9777 26.784C71.6097 26.496 71.3777 26.096 71.2817 25.584L71.2097 25.008C70.6497 25.728 69.9777 26.28 69.1937 26.664C68.4257 27.048 67.6097 27.24 66.7457 27.24ZM67.8737 24.48C68.2897 24.48 68.6897 24.408 69.0737 24.264C69.4737 24.12 69.8017 23.928 70.0577 23.688C70.4257 23.4 70.6097 23.096 70.6097 22.776V21.576C70.2737 21.448 69.9057 21.352 69.5057 21.288C69.1217 21.208 68.7617 21.168 68.4257 21.168C67.7217 21.168 67.1377 21.328 66.6737 21.648C66.2257 21.968 66.0017 22.384 66.0017 22.896C66.0017 23.36 66.1777 23.744 66.5297 24.048C66.8817 24.336 67.3297 24.48 67.8737 24.48ZM85.8716 14.4C86.3516 14.4 86.7836 14.488 87.1676 14.664C87.5516 14.84 87.8796 15.08 88.1516 15.384C88.4236 15.672 88.6316 16.016 88.7756 16.416C88.9356 16.8 89.0156 17.2 89.0156 17.616C89.0156 18.176 88.8636 18.728 88.5596 19.272C88.2716 19.8 87.7916 20.2 87.1196 20.472C87.8716 20.696 88.4636 21.064 88.8956 21.576C89.3436 22.072 89.5676 22.768 89.5676 23.664C89.5676 24.848 89.1356 25.704 88.2716 26.232C87.4076 26.744 86.2236 27 84.7196 27H77.7836V14.4H85.8716ZM83.9996 19.584C84.3676 19.584 84.6636 19.488 84.8876 19.296C85.1116 19.088 85.2236 18.776 85.2236 18.36C85.2236 18.024 85.1196 17.744 84.9116 17.52C84.7036 17.28 84.4156 17.16 84.0476 17.16H81.6236V19.584H83.9996ZM84.4796 24.24C84.8316 24.24 85.1196 24.12 85.3436 23.88C85.5836 23.64 85.7036 23.336 85.7036 22.968C85.7036 22.568 85.5916 22.248 85.3676 22.008C85.1436 21.768 84.8476 21.648 84.4796 21.648H81.6236V24.24H84.4796ZM95.8609 21.504L101.357 14.4H104.117V27H100.277V20.112L94.8529 27H92.0449V14.4H95.8609V21.504ZM113.937 27H110.121V17.736H106.329V14.4H117.705V17.736H113.937V27ZM119.888 14.4H123.704V18.192H126.2C126.968 18.192 127.656 18.296 128.264 18.504C128.888 18.696 129.424 18.976 129.872 19.344C130.32 19.712 130.664 20.168 130.904 20.712C131.144 21.24 131.264 21.84 131.264 22.512C131.264 23.216 131.144 23.848 130.904 24.408C130.68 24.952 130.352 25.416 129.92 25.8C129.504 26.184 128.992 26.48 128.384 26.688C127.792 26.896 127.128 27 126.392 27H119.888V14.4ZM125.864 24.048C126.328 24.048 126.696 23.928 126.968 23.688C127.24 23.432 127.376 23.072 127.376 22.608C127.376 22.144 127.232 21.784 126.944 21.528C126.672 21.256 126.312 21.12 125.864 21.12H123.704V24.048H125.864ZM143.367 18.888H147.615V14.4H151.431V27H147.615V22.2H143.367V27H139.551V14.4H143.367V18.888ZM158.184 27.24C157.56 27.24 156.976 27.144 156.432 26.952C155.904 26.744 155.448 26.464 155.064 26.112C154.68 25.744 154.376 25.32 154.152 24.84C153.928 24.344 153.816 23.808 153.816 23.232C153.816 22.608 153.944 22.04 154.2 21.528C154.472 21.016 154.848 20.576 155.328 20.208C155.808 19.84 156.376 19.552 157.032 19.344C157.688 19.136 158.416 19.032 159.216 19.032C159.744 19.032 160.256 19.08 160.752 19.176C161.248 19.256 161.68 19.384 162.048 19.56V18.984C162.048 17.528 161.208 16.8 159.528 16.8C158.84 16.8 158.184 16.92 157.56 17.16C156.936 17.384 156.28 17.728 155.592 18.192L154.464 15.792C155.296 15.248 156.16 14.84 157.056 14.568C157.952 14.296 158.904 14.16 159.912 14.16C161.816 14.16 163.288 14.608 164.328 15.504C165.368 16.4 165.888 17.712 165.888 19.44V22.68C165.888 23.064 165.944 23.336 166.056 23.496C166.184 23.64 166.4 23.728 166.704 23.76V27C166.368 27.08 166.064 27.128 165.792 27.144C165.52 27.176 165.272 27.192 165.048 27.192C164.328 27.192 163.784 27.056 163.416 26.784C163.048 26.496 162.816 26.096 162.72 25.584L162.648 25.008C162.088 25.728 161.416 26.28 160.632 26.664C159.864 27.048 159.048 27.24 158.184 27.24ZM159.312 24.48C159.728 24.48 160.128 24.408 160.512 24.264C160.912 24.12 161.24 23.928 161.496 23.688C161.864 23.4 162.048 23.096 162.048 22.776V21.576C161.712 21.448 161.344 21.352 160.944 21.288C160.56 21.208 160.2 21.168 159.864 21.168C159.16 21.168 158.576 21.328 158.112 21.648C157.664 21.968 157.44 22.384 157.44 22.896C157.44 23.36 157.616 23.744 157.968 24.048C158.32 24.336 158.768 24.48 159.312 24.48ZM187.543 23.544V27H175.567V9.96H187.327V13.416H179.503V16.728H186.223V19.92H179.503V23.544H187.543ZM209.882 27H206.042V19.92C206.042 19.088 205.89 18.488 205.586 18.12C205.282 17.736 204.89 17.544 204.41 17.544C204.154 17.544 203.89 17.6 203.618 17.712C203.362 17.824 203.122 17.984 202.898 18.192C202.674 18.384 202.466 18.616 202.274 18.888C202.098 19.16 201.954 19.456 201.842 19.776V27H198.002V19.92C198.002 19.088 197.85 18.488 197.546 18.12C197.242 17.736 196.85 17.544 196.37 17.544C195.858 17.544 195.354 17.752 194.858 18.168C194.378 18.568 194.026 19.104 193.802 19.776V27H189.962V14.4H193.418V16.512C193.882 15.744 194.506 15.16 195.29 14.76C196.09 14.36 197.018 14.16 198.074 14.16C198.602 14.16 199.058 14.224 199.442 14.352C199.842 14.48 200.186 14.656 200.474 14.88C200.762 15.104 200.994 15.368 201.17 15.672C201.346 15.96 201.474 16.272 201.554 16.608C202.034 15.824 202.666 15.224 203.45 14.808C204.234 14.376 205.13 14.16 206.138 14.16C206.938 14.16 207.578 14.312 208.058 14.616C208.554 14.904 208.938 15.288 209.21 15.768C209.482 16.232 209.658 16.744 209.738 17.304C209.834 17.864 209.882 18.408 209.882 18.936V27ZM216.448 27.24C215.824 27.24 215.24 27.144 214.696 26.952C214.168 26.744 213.712 26.464 213.328 26.112C212.944 25.744 212.64 25.32 212.416 24.84C212.192 24.344 212.08 23.808 212.08 23.232C212.08 22.608 212.208 22.04 212.464 21.528C212.736 21.016 213.112 20.576 213.592 20.208C214.072 19.84 214.64 19.552 215.296 19.344C215.952 19.136 216.68 19.032 217.48 19.032C218.008 19.032 218.52 19.08 219.016 19.176C219.512 19.256 219.944 19.384 220.312 19.56V18.984C220.312 17.528 219.472 16.8 217.792 16.8C217.104 16.8 216.448 16.92 215.824 17.16C215.2 17.384 214.544 17.728 213.856 18.192L212.728 15.792C213.56 15.248 214.424 14.84 215.32 14.568C216.216 14.296 217.168 14.16 218.176 14.16C220.08 14.16 221.552 14.608 222.592 15.504C223.632 16.4 224.152 17.712 224.152 19.44V22.68C224.152 23.064 224.208 23.336 224.32 23.496C224.448 23.64 224.664 23.728 224.968 23.76V27C224.632 27.08 224.328 27.128 224.056 27.144C223.784 27.176 223.536 27.192 223.312 27.192C222.592 27.192 222.048 27.056 221.68 26.784C221.312 26.496 221.08 26.096 220.984 25.584L220.912 25.008C220.352 25.728 219.68 26.28 218.896 26.664C218.128 27.048 217.312 27.24 216.448 27.24ZM217.576 24.48C217.992 24.48 218.392 24.408 218.776 24.264C219.176 24.12 219.504 23.928 219.76 23.688C220.128 23.4 220.312 23.096 220.312 22.776V21.576C219.976 21.448 219.608 21.352 219.208 21.288C218.824 21.208 218.464 21.168 218.128 21.168C217.424 21.168 216.84 21.328 216.376 21.648C215.928 21.968 215.704 22.384 215.704 22.896C215.704 23.36 215.88 23.744 216.232 24.048C216.584 24.336 217.032 24.48 217.576 24.48ZM227.414 27V14.4H231.254V27H227.414ZM227.414 12.96V9.48H231.254V12.96H227.414ZM234.315 9.48H238.155V22.512C238.155 23.472 238.563 23.952 239.379 23.952C239.571 23.952 239.779 23.928 240.003 23.88C240.243 23.816 240.459 23.728 240.651 23.616L241.155 26.496C240.675 26.72 240.123 26.896 239.499 27.024C238.875 27.152 238.291 27.216 237.747 27.216C236.643 27.216 235.795 26.928 235.203 26.352C234.611 25.776 234.315 24.944 234.315 23.856V9.48Z" fill="#95DB3A"/>
<path d="M240.5 38.5H2.5" stroke="#95DB3A" stroke-width="3" stroke-dasharray="10 10"/>
</svg>
