<svg width="175" height="170" viewBox="0 0 175 170" fill="none" xmlns="http://www.w3.org/2000/svg">
<rect x="173.5" y="168.5" width="172" height="167" transform="rotate(-180 173.5 168.5)" stroke="#1C1C1C" stroke-width="3"/>
<g clip-path="url(#clip0_1_1341)">
<path d="M60.0785 115.759H56.18C56.0422 109.167 55.6625 102.97 55.0417 97.1625H55.0071L49.0716 115.759H46.1035L40.2034 97.1625H40.1695C39.7318 102.738 39.4561 108.937 39.3416 115.759H35.7881C36.0171 107.463 36.5926 99.6854 37.5125 92.4253H42.3443L47.9679 109.571H48.0026L53.6609 92.4253H58.2841C59.2965 100.929 59.8947 108.708 60.0785 115.759ZM76.9855 98.5435C75.3982 107.173 73.304 113.442 70.705 117.356C68.68 120.369 66.4615 121.877 64.0455 121.877C63.4014 121.877 62.6067 121.682 61.665 121.296V119.215C62.1253 119.281 62.6654 119.319 63.2862 119.319C64.4147 119.319 65.3217 119.008 66.0132 118.385C66.8404 117.626 67.254 116.772 67.254 115.828C67.254 115.181 66.9316 113.857 66.2882 111.852L62.01 98.5428H65.84L68.9106 108.497C69.6006 110.757 69.8884 112.335 69.7731 113.234C71.4523 108.742 72.6252 103.843 73.2934 98.542H76.9855V98.5435Z" fill="#7B7B7B"/>
<path d="M128.879 115.759H117.805V92.4254H121.53V112.887H128.879V115.759ZM114.906 116.323L110.624 114.206C111.004 113.894 111.367 113.556 111.694 113.164C113.514 111.022 114.422 107.855 114.422 103.66C114.422 95.9399 111.398 92.0782 105.348 92.0782C102.381 92.0782 100.067 93.0578 98.4122 95.0177C96.5936 97.161 95.6859 100.317 95.6859 104.49C95.6859 108.591 96.4904 111.6 98.1003 113.509C99.5731 115.238 101.793 116.104 104.762 116.104C105.869 116.104 106.886 115.968 107.811 115.694L113.386 118.945L114.906 116.323ZM101.035 111.09C100.092 109.57 99.6205 107.13 99.6205 103.764C99.6205 97.8893 101.402 94.9483 104.969 94.9483C106.834 94.9483 108.2 95.6516 109.074 97.0554C110.016 98.5776 110.49 100.996 110.49 104.315C110.49 110.238 108.706 113.2 105.142 113.2C103.276 113.201 101.91 112.5 101.035 111.09ZM94.0624 109.292C94.0624 111.271 93.3377 112.894 91.8898 114.166C90.4404 115.432 88.4968 116.067 86.0613 116.067C83.7832 116.067 81.5745 115.338 79.4365 113.887L80.4377 111.883C82.2773 112.806 83.943 113.265 85.4383 113.265C86.8418 113.265 87.9386 112.954 88.7341 112.335C89.5289 111.715 90.0027 110.845 90.0027 109.745C90.0027 108.358 89.0377 107.173 87.2674 106.181C85.6349 105.283 82.37 103.405 82.37 103.405C80.6004 102.113 79.7145 100.726 79.7145 98.441C79.7145 96.5497 80.3752 95.023 81.6973 93.8615C83.0209 92.6955 84.7287 92.1144 86.8222 92.1144C88.9842 92.1144 90.9497 92.6948 92.72 93.8434L91.822 95.8479C90.3078 95.2034 88.8132 94.8811 87.339 94.8811C86.1449 94.8811 85.2229 95.1686 84.5818 95.746C83.9354 96.321 83.5369 97.0569 83.5369 97.9595C83.5369 99.339 84.5223 100.539 86.3408 101.551C87.9951 102.451 91.3414 104.361 91.3414 104.361C93.1562 105.65 94.0624 107.025 94.0624 109.292Z" fill="#575757"/>
<path d="M130.59 83.0236C128.338 82.9662 126.594 83.1934 125.13 83.8137C124.708 83.9828 124.036 83.9828 123.977 84.5178C124.205 84.7442 124.232 85.1095 124.43 85.4219C124.767 85.9857 125.356 86.7441 125.893 87.1396C126.483 87.5924 127.075 88.0407 127.695 88.4354C128.79 89.1138 130.031 89.5085 131.097 90.1847C131.719 90.5779 132.337 91.0866 132.959 91.51C133.265 91.7356 133.461 92.1016 133.858 92.2428V92.1567C133.659 91.9032 133.602 91.5364 133.407 91.2541L132.562 90.4376C131.745 89.3387 130.731 88.3795 129.636 87.5917C128.735 86.9698 126.764 86.1245 126.399 85.0846L126.342 85.0272C126.961 84.9691 127.695 84.7442 128.284 84.5714C129.241 84.3186 130.114 84.3759 131.097 84.1231C131.549 84.0099 131.997 83.868 132.45 83.7284V83.4741C131.941 82.9662 131.578 82.2915 131.042 81.8115C129.61 80.5716 128.031 79.3588 126.399 78.3438C125.525 77.7785 124.401 77.4147 123.471 76.934C123.135 76.7642 122.57 76.6804 122.373 76.3982C121.868 75.7778 121.584 74.9613 121.218 74.227C120.405 72.6776 119.614 70.9584 118.912 69.32C118.405 68.2212 118.096 67.1239 117.476 66.1073C114.576 61.3151 111.426 58.4126 106.586 55.5636C105.545 54.9705 104.307 54.7176 102.985 54.4067L100.874 54.295C100.423 54.0973 99.972 53.5607 99.5788 53.3071C97.9727 52.2928 93.8376 50.0944 92.6564 52.997C91.8955 54.8316 93.7819 56.6353 94.4297 57.5658C94.9081 58.2118 95.5281 58.9469 95.8626 59.6804C96.0607 60.1597 96.1165 60.6683 96.3146 61.1747C96.7651 62.4154 97.1862 63.7957 97.7783 64.9534C98.0872 65.5436 98.4239 66.1639 98.8187 66.6982C99.0447 67.0107 99.4379 67.1488 99.5238 67.6582C99.1313 68.2197 99.1004 69.0672 98.8752 69.7721C97.8627 72.9576 98.2582 76.9038 99.6933 79.2449C100.142 79.9497 101.214 81.5014 102.646 80.9067C103.915 80.3995 103.634 78.7928 103.999 77.3838C104.082 77.0434 104.027 76.8201 104.196 76.5967V76.6518C104.588 77.4404 104.985 78.2004 105.349 78.9913C106.222 80.3716 107.742 81.81 109.008 82.7662C109.682 83.2764 110.217 84.1488 111.061 84.4605V84.3759H111.005C110.834 84.1231 110.584 84.0099 110.36 83.8137C109.852 83.3058 109.29 82.6855 108.896 82.1225C107.716 80.5429 106.672 78.7943 105.746 76.9899C105.292 76.1144 104.901 75.1575 104.536 74.2836C104.365 73.9462 104.365 73.4376 104.083 73.2678C103.66 73.8874 103.043 74.4239 102.734 75.1831C102.198 76.3974 102.142 77.891 101.943 79.4441L101.833 79.4984C100.936 79.2728 100.624 78.3438 100.284 77.5551C99.4409 75.5522 99.2993 72.3372 100.031 70.0264C100.227 69.4355 101.074 67.5744 100.736 67.0114C100.566 66.4718 100.003 66.1647 99.694 65.7398C99.3309 65.2055 98.9332 64.5293 98.68 63.9361C98.0051 62.3581 97.6653 60.6095 96.9383 59.0322C96.5986 58.2971 96.0087 57.5364 95.5311 56.8594C94.9947 56.0987 94.4049 55.5629 93.9808 54.661C93.8406 54.3509 93.644 53.8437 93.8693 53.5064C93.9243 53.28 94.0388 53.1954 94.2633 53.1388C94.6279 52.8302 95.6697 53.2226 96.0351 53.3924C97.0785 53.815 97.9508 54.2097 98.8217 54.8014C99.2157 55.0844 99.6383 55.6202 100.144 55.7614H100.736C101.635 55.9576 102.648 55.8157 103.494 56.0708C104.985 56.5508 106.335 57.2549 107.547 58.0148C111.233 60.3566 114.273 63.684 116.325 67.6582C116.661 68.3057 116.804 68.8989 117.112 69.5743C117.705 70.9569 118.438 72.3667 119.026 73.7198C119.617 75.0443 120.181 76.3967 121.025 77.497C121.446 78.0887 123.138 78.3989 123.897 78.709C124.458 78.9618 125.332 79.1867 125.838 79.4969C126.796 80.0878 127.75 80.7663 128.65 81.4161C129.098 81.7542 130.507 82.459 130.59 83.0236ZM101.884 58.5235C101.495 58.5195 101.108 58.5672 100.732 58.6654V58.722H100.786C101.013 59.1725 101.407 59.485 101.688 59.8782C101.915 60.3302 102.111 60.7785 102.334 61.2298L102.388 61.174C102.785 60.8925 102.982 60.4412 102.982 59.7642C102.811 59.565 102.785 59.3703 102.643 59.1725C102.477 58.8903 102.111 58.7499 101.884 58.5235Z" fill="#7B7B7B"/>
<path d="M136.236 115.756H136.819V112.897H135.944L135.231 114.848L134.456 112.897H133.613V115.756H134.164V113.581H134.195L135.007 115.756H135.427L136.236 113.581V115.756ZM131.539 115.756H132.156V113.381H132.963V112.896H130.697V113.381H131.537L131.539 115.756Z" fill="#575757"/>
</g>
<defs>
<clipPath id="clip0_1_1341">
<rect width="144" height="100" fill="white" transform="translate(16 35)"/>
</clipPath>
</defs>
</svg>
