<svg width="230" height="57" viewBox="0 0 230 57" fill="none" xmlns="http://www.w3.org/2000/svg">
<rect x="8" width="36" height="47" fill="#FAEA00"/>
<rect y="36.7708" width="230" height="2.65698" fill="#94DB3A"/>
<path d="M26.078 18.5054V31.2854H23.612V25.8314H17.816V31.2854H15.332V18.5054H17.816V23.6714H23.612V18.5054H26.078ZM27.7566 28.4954C27.7566 27.8834 27.9246 27.3494 28.2606 26.8934C28.6086 26.4254 29.0886 26.0654 29.7006 25.8134C30.3126 25.5614 31.0146 25.4354 31.8066 25.4354C32.2026 25.4354 32.6046 25.4714 33.0126 25.5434C33.4206 25.6034 33.7746 25.6934 34.0746 25.8134V25.3094C34.0746 24.7094 33.8946 24.2474 33.5346 23.9234C33.1866 23.5994 32.6646 23.4374 31.9686 23.4374C31.4526 23.4374 30.9606 23.5274 30.4926 23.7074C30.0246 23.8874 29.5326 24.1514 29.0166 24.4994L28.2426 22.9154C28.8666 22.5074 29.5026 22.2014 30.1506 21.9974C30.8106 21.7934 31.5006 21.6914 32.2206 21.6914C33.5646 21.6914 34.6086 22.0274 35.3526 22.6994C36.1086 23.3714 36.4866 24.3314 36.4866 25.5794V28.5854C36.4866 28.8494 36.5286 29.0354 36.6126 29.1434C36.6966 29.2394 36.8466 29.2994 37.0626 29.3234V31.2854C36.8466 31.3334 36.6486 31.3634 36.4686 31.3754C36.3006 31.3994 36.1566 31.4114 36.0366 31.4114C35.5566 31.4114 35.1906 31.3034 34.9386 31.0874C34.6866 30.8714 34.5366 30.6074 34.4886 30.2954L34.4346 29.8094C34.0146 30.3494 33.4986 30.7634 32.8866 31.0514C32.2866 31.3274 31.6686 31.4654 31.0326 31.4654C30.3966 31.4654 29.8326 31.3394 29.3406 31.0874C28.8486 30.8234 28.4586 30.4694 28.1706 30.0254C27.8946 29.5694 27.7566 29.0594 27.7566 28.4954ZM33.6246 28.9814C33.9246 28.6934 34.0746 28.4174 34.0746 28.1534V27.1994C33.4506 26.9474 32.8206 26.8214 32.1846 26.8214C31.5486 26.8214 31.0326 26.9594 30.6366 27.2354C30.2406 27.4994 30.0426 27.8534 30.0426 28.2974C30.0426 28.6574 30.1866 28.9814 30.4746 29.2694C30.7626 29.5574 31.1766 29.7014 31.7166 29.7014C32.0766 29.7014 32.4246 29.6354 32.7606 29.5034C33.1086 29.3714 33.3966 29.1974 33.6246 28.9814ZM43.9966 31.2854V27.9014C43.3246 28.2014 42.5446 28.3514 41.6566 28.3514C40.6606 28.3514 39.8806 28.0874 39.3166 27.5594C38.7526 27.0194 38.4706 26.2334 38.4706 25.2014V21.8534H40.8826V24.8774C40.8826 25.9694 41.3866 26.5154 42.3946 26.5154C42.6826 26.5154 42.9646 26.4854 43.2406 26.4254C43.5286 26.3654 43.7806 26.2814 43.9966 26.1734V21.8534H46.4266V31.2854H43.9966ZM47.9715 28.4954C47.9715 27.8834 48.1395 27.3494 48.4755 26.8934C48.8235 26.4254 49.3035 26.0654 49.9155 25.8134C50.5275 25.5614 51.2295 25.4354 52.0215 25.4354C52.4175 25.4354 52.8195 25.4714 53.2275 25.5434C53.6355 25.6034 53.9895 25.6934 54.2895 25.8134V25.3094C54.2895 24.7094 54.1095 24.2474 53.7495 23.9234C53.4015 23.5994 52.8795 23.4374 52.1835 23.4374C51.6675 23.4374 51.1755 23.5274 50.7075 23.7074C50.2395 23.8874 49.7475 24.1514 49.2315 24.4994L48.4575 22.9154C49.0815 22.5074 49.7175 22.2014 50.3655 21.9974C51.0255 21.7934 51.7155 21.6914 52.4355 21.6914C53.7795 21.6914 54.8235 22.0274 55.5675 22.6994C56.3235 23.3714 56.7015 24.3314 56.7015 25.5794V28.5854C56.7015 28.8494 56.7435 29.0354 56.8275 29.1434C56.9115 29.2394 57.0615 29.2994 57.2775 29.3234V31.2854C57.0615 31.3334 56.8635 31.3634 56.6835 31.3754C56.5155 31.3994 56.3715 31.4114 56.2515 31.4114C55.7715 31.4114 55.4055 31.3034 55.1535 31.0874C54.9015 30.8714 54.7515 30.6074 54.7035 30.2954L54.6495 29.8094C54.2295 30.3494 53.7135 30.7634 53.1015 31.0514C52.5015 31.3274 51.8835 31.4654 51.2475 31.4654C50.6115 31.4654 50.0475 31.3394 49.5555 31.0874C49.0635 30.8234 48.6735 30.4694 48.3855 30.0254C48.1095 29.5694 47.9715 29.0594 47.9715 28.4954ZM53.8395 28.9814C54.1395 28.6934 54.2895 28.4174 54.2895 28.1534V27.1994C53.6655 26.9474 53.0355 26.8214 52.3995 26.8214C51.7635 26.8214 51.2475 26.9594 50.8515 27.2354C50.4555 27.4994 50.2575 27.8534 50.2575 28.2974C50.2575 28.6574 50.4015 28.9814 50.6895 29.2694C50.9775 29.5574 51.3915 29.7014 51.9315 29.7014C52.2915 29.7014 52.6395 29.6354 52.9755 29.5034C53.3235 29.3714 53.6115 29.1974 53.8395 28.9814ZM61.028 31.2854V23.9594H58.04V21.8534H66.446V23.9594H63.44V31.2854H61.028ZM67.7972 31.2854V21.8534H70.2092V24.8234H72.3512C73.4792 24.8234 74.3432 25.1114 74.9432 25.6874C75.5432 26.2634 75.8432 27.0254 75.8432 27.9734C75.8432 28.9454 75.5552 29.7434 74.9792 30.3674C74.4152 30.9794 73.5932 31.2854 72.5132 31.2854H67.7972ZM70.2092 29.4494H72.1352C72.6272 29.4494 72.9872 29.3114 73.2152 29.0354C73.4432 28.7474 73.5572 28.3994 73.5572 27.9914C73.5572 27.5954 73.4492 27.2654 73.2332 27.0014C73.0172 26.7254 72.6452 26.5874 72.1172 26.5874H70.2092V29.4494ZM15.098 52.2854V42.8534H23.558V52.2854H21.146V44.9594H17.51V52.2854H15.098ZM31.4023 52.4654C30.6583 52.4654 30.0103 52.2974 29.4583 51.9614C28.9063 51.6254 28.4743 51.1814 28.1623 50.6294V56.1194H25.7503V42.8534H27.8563V44.4734C28.2043 43.9214 28.6543 43.4894 29.2063 43.1774C29.7703 42.8534 30.4063 42.6914 31.1143 42.6914C31.9663 42.6914 32.7223 42.9134 33.3823 43.3574C34.0423 43.7894 34.5643 44.3774 34.9483 45.1214C35.3323 45.8534 35.5243 46.6634 35.5243 47.5514C35.5243 48.4754 35.3443 49.3094 34.9843 50.0534C34.6363 50.7854 34.1503 51.3734 33.5263 51.8174C32.9143 52.2494 32.2063 52.4654 31.4023 52.4654ZM30.5923 50.4134C31.0843 50.4134 31.5103 50.2814 31.8703 50.0174C32.2423 49.7414 32.5303 49.3874 32.7343 48.9554C32.9503 48.5114 33.0583 48.0434 33.0583 47.5514C33.0583 47.0234 32.9443 46.5494 32.7163 46.1294C32.4883 45.6974 32.1763 45.3614 31.7803 45.1214C31.3963 44.8694 30.9523 44.7434 30.4483 44.7434C29.9923 44.7434 29.5363 44.8934 29.0803 45.1934C28.6243 45.4934 28.3183 45.8714 28.1623 46.3274V48.5414C28.3783 49.0694 28.7083 49.5134 29.1523 49.8734C29.5963 50.2334 30.0763 50.4134 30.5923 50.4134ZM41.5145 52.4654C40.4825 52.4654 39.5945 52.2434 38.8505 51.7994C38.1185 51.3434 37.5545 50.7434 37.1585 49.9994C36.7625 49.2554 36.5645 48.4514 36.5645 47.5874C36.5645 46.7114 36.7625 45.9014 37.1585 45.1574C37.5665 44.4134 38.1365 43.8194 38.8685 43.3754C39.6125 42.9194 40.4945 42.6914 41.5145 42.6914C42.5345 42.6914 43.4105 42.9194 44.1425 43.3754C44.8865 43.8194 45.4565 44.4134 45.8525 45.1574C46.2485 45.9014 46.4465 46.7114 46.4465 47.5874C46.4465 48.4514 46.2485 49.2554 45.8525 49.9994C45.4565 50.7434 44.8865 51.3434 44.1425 51.7994C43.4105 52.2434 42.5345 52.4654 41.5145 52.4654ZM39.0485 47.5874C39.0485 48.1394 39.1565 48.6314 39.3725 49.0634C39.5885 49.4834 39.8825 49.8134 40.2545 50.0534C40.6265 50.2934 41.0465 50.4134 41.5145 50.4134C41.9705 50.4134 42.3845 50.2934 42.7565 50.0534C43.1285 49.8014 43.4225 49.4654 43.6385 49.0454C43.8665 48.6134 43.9805 48.1214 43.9805 47.5694C43.9805 47.0294 43.8665 46.5494 43.6385 46.1294C43.4225 45.6974 43.1285 45.3614 42.7565 45.1214C42.3845 44.8694 41.9705 44.7434 41.5145 44.7434C41.0465 44.7434 40.6265 44.8694 40.2545 45.1214C39.8825 45.3614 39.5885 45.6974 39.3725 46.1294C39.1565 46.5494 39.0485 47.0354 39.0485 47.5874ZM47.3006 54.5714V50.1794H47.5526C47.8646 50.1794 48.1526 50.0594 48.4166 49.8194C48.6806 49.5794 48.8966 49.1474 49.0646 48.5234C49.2446 47.8994 49.3526 46.9994 49.3886 45.8234L49.4966 42.8534H56.5706V50.1794H57.8846V54.5714H55.7786V52.2854H49.4246V54.5714H47.3006ZM50.5946 50.1794H54.1586V44.8874H51.6026L51.5486 46.0574C51.5006 47.2574 51.3986 48.1754 51.2426 48.8114C51.0866 49.4474 50.8706 49.9034 50.5946 50.1794ZM59.4476 52.2854V42.8534H64.7036C65.3516 42.8534 65.8736 42.9614 66.2696 43.1774C66.6776 43.3934 66.9776 43.6754 67.1696 44.0234C67.3616 44.3714 67.4576 44.7434 67.4576 45.1394C67.4576 45.6674 67.3376 46.1294 67.0976 46.5254C66.8576 46.9214 66.4976 47.2274 66.0176 47.4434C66.5696 47.5874 67.0196 47.8514 67.3676 48.2354C67.7156 48.6194 67.8896 49.1174 67.8896 49.7294C67.8896 50.6174 67.5776 51.2654 66.9536 51.6734C66.3416 52.0814 65.5076 52.2854 64.4516 52.2854H59.4476ZM61.7336 46.7774H64.0916C64.4156 46.7774 64.6796 46.6634 64.8836 46.4354C65.0876 46.1954 65.1896 45.9134 65.1896 45.5894C65.1896 45.2774 65.0876 45.0194 64.8836 44.8154C64.6916 44.5994 64.4336 44.4914 64.1096 44.4914H61.7336V46.7774ZM61.7336 50.6474H64.3796C64.7156 50.6474 64.9916 50.5334 65.2076 50.3054C65.4356 50.0774 65.5496 49.7954 65.5496 49.4594C65.5496 49.1234 65.4416 48.8474 65.2256 48.6314C65.0096 48.4034 64.7336 48.2894 64.3976 48.2894H61.7336V50.6474ZM69.6429 52.2854V42.8714H72.0549V49.0634L76.2849 42.8534H78.4809V52.2854H76.0689V46.2374L71.8929 52.2854H69.6429ZM79.98 52.2854L83.292 47.4074L80.214 42.8534H82.896L85.308 46.4354H86.046V42.8534H88.53V46.4354H89.322L91.68 42.8534H94.38L91.302 47.4074L94.632 52.2854H91.878L89.322 48.5234H88.53V52.2854H86.064V48.5234H85.308L82.716 52.2854H79.98ZM100.472 52.4654C99.452 52.4654 98.57 52.2434 97.826 51.7994C97.094 51.3554 96.524 50.7674 96.116 50.0354C95.708 49.2914 95.504 48.4874 95.504 47.6234C95.504 46.7354 95.702 45.9194 96.098 45.1754C96.506 44.4194 97.082 43.8194 97.826 43.3754C98.57 42.9194 99.458 42.6914 100.49 42.6914C101.522 42.6914 102.404 42.9194 103.136 43.3754C103.868 43.8194 104.426 44.4134 104.81 45.1574C105.206 45.8894 105.404 46.6814 105.404 47.5334C105.404 47.8454 105.386 48.1154 105.35 48.3434H98.06C98.12 49.0754 98.39 49.6514 98.87 50.0714C99.362 50.4914 99.926 50.7014 100.562 50.7014C101.042 50.7014 101.492 50.5874 101.912 50.3594C102.344 50.1194 102.638 49.8074 102.794 49.4234L104.864 49.9994C104.516 50.7194 103.958 51.3134 103.19 51.7814C102.422 52.2374 101.516 52.4654 100.472 52.4654ZM98.006 46.8134H102.938C102.866 46.1054 102.596 45.5354 102.128 45.1034C101.672 44.6594 101.114 44.4374 100.454 44.4374C99.806 44.4374 99.248 44.6594 98.78 45.1034C98.324 45.5354 98.066 46.1054 98.006 46.8134ZM106.873 52.2854V42.8534H109.285V46.4534H113.101V42.8534H115.513V52.2854H113.101V48.4694H109.285V52.2854H106.873ZM117.719 52.2854V42.8714H120.131V49.0634L124.361 42.8534H126.557V52.2854H124.145V46.2374L119.969 52.2854H117.719ZM133.132 52.4654C132.112 52.4654 131.23 52.2434 130.486 51.7994C129.754 51.3554 129.184 50.7674 128.776 50.0354C128.368 49.2914 128.164 48.4874 128.164 47.6234C128.164 46.7354 128.362 45.9194 128.758 45.1754C129.166 44.4194 129.742 43.8194 130.486 43.3754C131.23 42.9194 132.118 42.6914 133.15 42.6914C134.182 42.6914 135.064 42.9194 135.796 43.3754C136.528 43.8194 137.086 44.4134 137.47 45.1574C137.866 45.8894 138.064 46.6814 138.064 47.5334C138.064 47.8454 138.046 48.1154 138.01 48.3434H130.72C130.78 49.0754 131.05 49.6514 131.53 50.0714C132.022 50.4914 132.586 50.7014 133.222 50.7014C133.702 50.7014 134.152 50.5874 134.572 50.3594C135.004 50.1194 135.298 49.8074 135.454 49.4234L137.524 49.9994C137.176 50.7194 136.618 51.3134 135.85 51.7814C135.082 52.2374 134.176 52.4654 133.132 52.4654ZM130.666 46.8134H135.598C135.526 46.1054 135.256 45.5354 134.788 45.1034C134.332 44.6594 133.774 44.4374 133.114 44.4374C132.466 44.4374 131.908 44.6594 131.44 45.1034C130.984 45.5354 130.726 46.1054 130.666 46.8134Z" fill="#333333"/>
<path d="M208 24.1423L212 26.6026L208 28.5708" stroke="#333333"/>
</svg>
