<svg width="288" height="239" viewBox="0 0 288 239" fill="none" xmlns="http://www.w3.org/2000/svg">
<g filter="url(#filter0_dd_1_1442)">
<path d="M47.424 97.176H48.424V96.176H47.424V97.176ZM47.424 111V112H48.424V111H47.424ZM5.952 111H4.952V112H5.952V111ZM5.952 97.176V96.176H4.952V97.176H5.952ZM19.584 97.176V98.176H20.584V97.176H19.584ZM19.584 72.696H20.584V69.696L18.784 72.096L19.584 72.696ZM16.896 75L16.362 74.1545L16.362 74.1545L16.896 75ZM12.768 77.208L12.3513 76.2989L12.3439 76.3023L12.3365 76.3059L12.768 77.208ZM8.256 78.936L8.49854 79.9061L8.51737 79.9014L8.536 79.896L8.256 78.936ZM4.032 79.512H3.032V80.512H4.032V79.512ZM4.032 65.304V64.304H3.032V65.304H4.032ZM8.064 64.344L8.43539 65.2725L8.45118 65.2662L8.46674 65.2593L8.064 64.344ZM12.864 61.752L12.3399 60.9003L12.3324 60.905L12.3249 60.9097L12.864 61.752ZM17.184 58.68L16.5593 57.8991L16.5495 57.907L16.5399 57.9151L17.184 58.68ZM19.584 56.184V55.184H18.966L18.6896 55.7368L19.584 56.184ZM35.232 56.184H36.232V55.184H35.232V56.184ZM35.232 97.176H34.232V98.176H35.232V97.176ZM46.424 97.176V111H48.424V97.176H46.424ZM47.424 110H5.952V112H47.424V110ZM6.952 111V97.176H4.952V111H6.952ZM5.952 98.176H19.584V96.176H5.952V98.176ZM20.584 97.176V72.696H18.584V97.176H20.584ZM18.784 72.096C18.3079 72.7309 17.5214 73.4223 16.362 74.1545L17.43 75.8455C18.7026 75.0417 19.7081 74.1971 20.384 73.296L18.784 72.096ZM16.362 74.1545C15.1895 74.895 13.8537 75.6104 12.3513 76.2989L13.1847 78.1171C14.7543 77.3976 16.1705 76.641 17.43 75.8455L16.362 74.1545ZM12.3365 76.3059C10.9124 76.987 9.45901 77.5435 7.976 77.976L8.536 79.896C10.125 79.4325 11.6796 78.837 13.1995 78.1101L12.3365 76.3059ZM8.01346 77.9659C6.53889 78.3345 5.21365 78.512 4.032 78.512V80.512C5.41035 80.512 6.90111 80.3055 8.49854 79.9061L8.01346 77.9659ZM5.032 79.512V65.304H3.032V79.512H5.032ZM4.032 66.304C5.29959 66.304 6.77827 65.9353 8.43539 65.2725L7.69261 63.4155C6.14973 64.0327 4.94041 64.304 4.032 64.304V66.304ZM8.46674 65.2593C10.1179 64.5328 11.7633 63.6437 13.4031 62.5943L12.3249 60.9097C10.7647 61.9083 9.21014 62.7472 7.66126 63.4287L8.46674 65.2593ZM13.3881 62.6037C15.0851 61.5594 16.5669 60.507 17.8281 59.4449L16.5399 57.9151C15.3691 58.901 13.9709 59.8966 12.3399 60.9003L13.3881 62.6037ZM17.8087 59.4609C19.0923 58.434 20.0516 57.4849 20.4784 56.6312L18.6896 55.7368C18.4764 56.1631 17.8357 56.878 16.5593 57.8991L17.8087 59.4609ZM19.584 57.184H35.232V55.184H19.584V57.184ZM34.232 56.184V97.176H36.232V56.184H34.232ZM35.232 98.176H47.424V96.176H35.232V98.176ZM54.9675 111H53.9675V112H54.9675V111ZM55.6395 102.936L54.6621 102.725L54.6593 102.737L54.6569 102.75L55.6395 102.936ZM58.0395 96.504L57.1747 96.0018L57.1695 96.011L58.0395 96.504ZM62.5515 91.032L63.219 91.7766L63.2205 91.7753L62.5515 91.032ZM69.7515 86.136L69.2819 85.2531L69.2809 85.2536L69.7515 86.136ZM77.2395 82.104L77.7204 82.9809L77.7298 82.9756L77.2395 82.104ZM82.1355 79.224L81.6015 78.3785L81.6015 78.3785L82.1355 79.224ZM84.6315 77.016L83.7994 76.4613L83.7935 76.4701L83.7878 76.4791L84.6315 77.016ZM82.0395 69.336L81.6137 70.2408L81.636 70.2513L81.6587 70.2607L82.0395 69.336ZM74.3595 69.048L74.6271 70.0115L74.6271 70.0115L74.3595 69.048ZM70.9995 70.488L70.4925 69.6261L70.4809 69.6329L70.4695 69.64L70.9995 70.488ZM68.0235 72.792L68.6784 73.5477L68.6923 73.5356L68.7058 73.5231L68.0235 72.792ZM65.1435 75.672L64.3838 76.3223L65.132 77.1964L65.8933 76.3336L65.1435 75.672ZM55.4475 64.344L54.7404 63.6369L54.086 64.2912L54.6878 64.9943L55.4475 64.344ZM59.5755 61.08L59.0427 60.2338L59.0354 60.2383L59.0282 60.243L59.5755 61.08ZM65.4315 58.2L65.7886 59.1341L65.8005 59.1295L65.8122 59.1247L65.4315 58.2ZM72.5355 56.088L72.7316 57.0686L72.7408 57.0667L72.7499 57.0647L72.5355 56.088ZM92.3115 57.336L91.9019 58.2483L91.913 58.2533L91.9243 58.258L92.3115 57.336ZM99.6075 63.096L98.7754 63.6507L98.7754 63.6507L99.6075 63.096ZM101.048 77.688L100.127 77.2984L100.123 77.3074L100.119 77.3166L101.048 77.688ZM98.4555 82.008L99.2174 82.6556L99.2174 82.6556L98.4555 82.008ZM94.7115 85.464L94.1233 84.6553L94.1143 84.6618L94.1055 84.6686L94.7115 85.464ZM90.6795 88.248L91.1267 89.1424L91.1673 89.1221L91.2059 89.0983L90.6795 88.248ZM86.3595 90.552L86.8235 91.4378L86.8397 91.4293L86.8556 91.4202L86.3595 90.552ZM82.6155 92.664L83.1011 93.5382L83.1193 93.5281L83.1369 93.5173L82.6155 92.664ZM79.3515 94.776L79.9429 95.5824L79.9515 95.576L79.3515 94.776ZM76.5675 97.176L75.8604 96.4689L74.1533 98.176H76.5675V97.176ZM103.159 97.176H104.159V96.176H103.159V97.176ZM103.159 111V112H104.159V111H103.159ZM55.9675 111C55.9675 108.04 56.1881 105.416 56.6221 103.122L54.6569 102.75C54.1949 105.192 53.9675 107.944 53.9675 111H55.9675ZM56.6169 103.147C57.1096 100.869 57.876 98.8209 58.9095 96.997L57.1695 96.011C56.027 98.0271 55.1934 100.267 54.6621 102.725L56.6169 103.147ZM58.9043 97.0061C59.9993 95.1203 61.4344 93.3766 63.219 91.7766L61.884 90.2874C59.9566 92.0154 58.3837 93.9197 57.1747 96.0019L58.9043 97.0061ZM63.2205 91.7753C65.0669 90.1135 67.3958 88.5257 70.2221 87.0184L69.2809 85.2536C66.3472 86.8183 63.8761 88.4945 61.8825 90.2887L63.2205 91.7753ZM70.2211 87.0189C73.2312 85.4178 75.7313 84.0716 77.7203 82.9808L76.7587 81.2272C74.7797 82.3124 72.2878 83.6542 69.2819 85.2531L70.2211 87.0189ZM77.7298 82.9756C79.7846 81.8197 81.4331 80.8504 82.6695 80.0695L81.6015 78.3785C80.4059 79.1336 78.7904 80.0843 76.7492 81.2324L77.7298 82.9756ZM82.6695 80.0695C83.9325 79.2718 84.9102 78.4407 85.4752 77.5529L83.7878 76.4791C83.4568 76.9993 82.7705 77.6402 81.6015 78.3785L82.6695 80.0695ZM85.4635 77.5707C86.0816 76.6437 86.3995 75.6196 86.3995 74.52H84.3995C84.3995 75.2124 84.2054 75.8523 83.7994 76.4613L85.4635 77.5707ZM86.3995 74.52C86.3995 73.1401 86.0705 71.8905 85.3767 70.8112L83.6943 71.8928C84.1525 72.6055 84.3995 73.4679 84.3995 74.52H86.3995ZM85.3767 70.8112C84.6786 69.7253 83.6767 68.9287 82.4202 68.4113L81.6587 70.2607C82.5783 70.6393 83.2404 71.1867 83.6943 71.8928L85.3767 70.8112ZM82.4653 68.4312C81.2077 67.8394 79.7083 67.568 78.0075 67.568V69.568C79.5067 69.568 80.6953 69.8086 81.6137 70.2408L82.4653 68.4312ZM78.0075 67.568C76.6434 67.568 75.3369 67.7386 74.0919 68.0845L74.6271 70.0115C75.6861 69.7174 76.8116 69.568 78.0075 69.568V67.568ZM74.0919 68.0845C72.8514 68.429 71.6513 68.9444 70.4925 69.6261L71.5065 71.3499C72.5237 70.7516 73.5636 70.307 74.6271 70.0115L74.0919 68.0845ZM70.4695 69.64C69.3866 70.3168 68.344 71.1249 67.3412 72.0609L68.7058 73.5231C69.623 72.6671 70.5644 71.9392 71.5295 71.336L70.4695 69.64ZM67.3686 72.0363C66.3705 72.9013 65.3791 73.8935 64.3937 75.0104L65.8933 76.3336C66.8279 75.2745 67.7565 74.3467 68.6784 73.5477L67.3686 72.0363ZM65.9032 75.0217L56.2072 63.6937L54.6878 64.9943L64.3838 76.3223L65.9032 75.0217ZM56.1546 65.0511C57.1822 64.0235 58.5006 62.9776 60.1227 61.917L59.0282 60.243C57.3224 61.3584 55.8888 62.4885 54.7404 63.6369L56.1546 65.0511ZM60.1083 61.9262C61.7737 60.8777 63.6655 59.9458 65.7886 59.1341L65.0744 57.2659C62.8455 58.1182 60.8333 59.1063 59.0427 60.2338L60.1083 61.9262ZM65.8122 59.1247C67.9226 58.2557 70.228 57.5693 72.7316 57.0686L72.3394 55.1074C69.723 55.6307 67.2924 56.3523 65.0507 57.2753L65.8122 59.1247ZM72.7499 57.0647C75.3002 56.5049 77.9481 56.224 80.6955 56.224V54.224C77.8109 54.224 75.0188 54.5191 72.3211 55.1113L72.7499 57.0647ZM80.6955 56.224C85.2079 56.224 88.9306 56.9142 91.9019 58.2483L92.7211 56.4237C89.4204 54.9418 85.3991 54.224 80.6955 54.224V56.224ZM91.9243 58.258C94.9723 59.5382 97.2367 61.3426 98.7754 63.6507L100.44 62.5413C98.6503 59.8574 96.0507 57.8218 92.6987 56.414L91.9243 58.258ZM98.7754 63.6507C100.316 65.9616 101.104 68.7068 101.104 71.928H103.104C103.104 68.3652 102.227 65.2224 100.44 62.5413L98.7754 63.6507ZM101.104 71.928C101.104 73.9969 100.769 75.7801 100.127 77.2984L101.968 78.0776C102.734 76.2679 103.104 74.2111 103.104 71.928H101.104ZM100.119 77.3166C99.5182 78.8187 98.7097 80.1649 97.6936 81.3604L99.2174 82.6556C100.377 81.2911 101.297 79.7573 101.976 78.0594L100.119 77.3166ZM97.6936 81.3603C96.6587 82.5778 95.4696 83.6762 94.1233 84.6553L95.2997 86.2727C96.7694 85.2038 98.0763 83.9982 99.2174 82.6556L97.6936 81.3603ZM94.1055 84.6686C92.7854 85.6743 91.4679 86.5838 90.1531 87.3977L91.2059 89.0983C92.5791 88.2482 93.9496 87.3017 95.3175 86.2594L94.1055 84.6686ZM90.2323 87.3536C88.6815 88.129 87.225 88.9056 85.8634 89.6838L86.8556 91.4202C88.182 90.6623 89.6055 89.903 91.1267 89.1424L90.2323 87.3536ZM85.8955 89.6662C84.5343 90.3792 83.267 91.0939 82.094 91.8107L83.1369 93.5173C84.268 92.8261 85.4967 92.1328 86.8235 91.4378L85.8955 89.6662ZM82.1299 91.7898C80.9393 92.4513 79.8129 93.1799 78.7515 93.976L79.9515 95.576C80.9381 94.8361 81.9877 94.1567 83.1011 93.5382L82.1299 91.7898ZM78.7601 93.9696C77.7566 94.7056 76.7901 95.5392 75.8604 96.4689L77.2746 97.8831C78.1369 97.0208 79.0264 96.2544 79.9429 95.5824L78.7601 93.9696ZM76.5675 98.176H103.159V96.176H76.5675V98.176ZM102.159 97.176V111H104.159V97.176H102.159ZM103.159 110H54.9675V112H103.159V110Z" fill="#95DB3A"/>
</g>
<path d="M0.24 186.688C0.672 186.672 1.024 186.6 1.296 186.472C1.584 186.328 1.816 186.072 1.992 185.704C2.184 185.32 2.336 184.8 2.448 184.144C2.576 183.472 2.704 182.592 2.832 181.504L3.264 177.4H12.672V190H8.832V180.688H6.6L6.408 182.104C6.2 183.656 5.952 184.944 5.664 185.968C5.392 186.976 5.024 187.784 4.56 188.392C4.112 189 3.544 189.432 2.856 189.688C2.184 189.944 1.344 190.08 0.336 190.096L0.24 186.688ZM21.8396 190.24C20.7836 190.24 19.8316 190.072 18.9836 189.736C18.1516 189.384 17.4396 188.912 16.8476 188.32C16.2716 187.728 15.8316 187.048 15.5276 186.28C15.2236 185.496 15.0716 184.68 15.0716 183.832C15.0716 182.92 15.2236 182.064 15.5276 181.264C15.8316 180.448 16.2716 179.736 16.8476 179.128C17.4236 178.52 18.1276 178.04 18.9596 177.688C19.8076 177.336 20.7676 177.16 21.8396 177.16C22.9116 177.16 23.8636 177.336 24.6956 177.688C25.5276 178.04 26.2316 178.52 26.8076 179.128C27.3836 179.72 27.8156 180.408 28.1036 181.192C28.4076 181.976 28.5596 182.8 28.5596 183.664C28.5596 183.888 28.5516 184.112 28.5356 184.336C28.5196 184.544 28.4956 184.728 28.4636 184.888H19.1516C19.2156 185.736 19.5196 186.384 20.0636 186.832C20.6236 187.264 21.2556 187.48 21.9596 187.48C22.5196 187.48 23.0556 187.344 23.5676 187.072C24.0956 186.8 24.4476 186.432 24.6236 185.968L27.8876 186.88C27.3916 187.872 26.6236 188.68 25.5836 189.304C24.5436 189.928 23.2956 190.24 21.8396 190.24ZM24.5036 182.512C24.4236 181.712 24.1356 181.08 23.6396 180.616C23.1436 180.152 22.5276 179.92 21.7916 179.92C21.0396 179.92 20.4156 180.16 19.9196 180.64C19.4396 181.104 19.1596 181.728 19.0796 182.512H24.5036ZM36.8889 190H33.0729V180.736H29.2809V177.4H40.6569V180.736H36.8889V190ZM54.8728 190.24C53.8008 190.24 52.8408 190.064 51.9928 189.712C51.1608 189.36 50.4568 188.888 49.8808 188.296C49.3048 187.688 48.8648 186.992 48.5608 186.208C48.2728 185.408 48.1288 184.576 48.1288 183.712C48.1288 182.848 48.2728 182.024 48.5608 181.24C48.8648 180.44 49.3048 179.744 49.8808 179.152C50.4568 178.544 51.1608 178.064 51.9928 177.712C52.8408 177.344 53.8008 177.16 54.8728 177.16C55.9448 177.16 56.8968 177.344 57.7288 177.712C58.5608 178.064 59.2648 178.544 59.8408 179.152C60.4168 179.744 60.8568 180.44 61.1608 181.24C61.4648 182.024 61.6168 182.848 61.6168 183.712C61.6168 184.576 61.4648 185.408 61.1608 186.208C60.8728 186.992 60.4408 187.688 59.8648 188.296C59.2888 188.888 58.5768 189.36 57.7288 189.712C56.8968 190.064 55.9448 190.24 54.8728 190.24ZM52.0648 183.712C52.0648 184.704 52.3288 185.504 52.8568 186.112C53.3848 186.704 54.0568 187 54.8728 187C55.2728 187 55.6408 186.92 55.9768 186.76C56.3128 186.6 56.6008 186.376 56.8408 186.088C57.0968 185.8 57.2968 185.456 57.4408 185.056C57.5848 184.64 57.6568 184.192 57.6568 183.712C57.6568 182.72 57.3928 181.928 56.8648 181.336C56.3368 180.728 55.6728 180.424 54.8728 180.424C54.4728 180.424 54.0968 180.504 53.7448 180.664C53.4088 180.824 53.1128 181.048 52.8568 181.336C52.6168 181.624 52.4248 181.976 52.2808 182.392C52.1368 182.792 52.0648 183.232 52.0648 183.712ZM75.5693 190H71.7533V180.736H67.8653V190H64.0493V177.4H75.5693V190ZM78.7792 177.4H82.5952V181.192H84.5872C85.3552 181.192 86.0432 181.296 86.6512 181.504C87.2752 181.696 87.8112 181.976 88.2592 182.344C88.7072 182.712 89.0512 183.168 89.2912 183.712C89.5312 184.24 89.6512 184.84 89.6512 185.512C89.6512 186.216 89.5312 186.848 89.2912 187.408C89.0672 187.952 88.7392 188.416 88.3072 188.8C87.8912 189.184 87.3792 189.48 86.7712 189.688C86.1792 189.896 85.5152 190 84.7792 190H78.7792V177.4ZM91.0912 177.4H94.9072V190H91.0912V177.4ZM84.2512 187.048C84.7152 187.048 85.0752 186.928 85.3312 186.688C85.6032 186.432 85.7392 186.072 85.7392 185.608C85.7392 185.144 85.6032 184.784 85.3312 184.528C85.0592 184.256 84.6992 184.12 84.2512 184.12H82.5952V187.048H84.2512ZM104.726 190H100.91V180.736H97.1184V177.4H108.494V180.736H104.726V190ZM113.97 190.24C113.346 190.24 112.762 190.144 112.218 189.952C111.69 189.744 111.234 189.464 110.85 189.112C110.466 188.744 110.162 188.32 109.938 187.84C109.714 187.344 109.602 186.808 109.602 186.232C109.602 185.608 109.73 185.04 109.986 184.528C110.258 184.016 110.634 183.576 111.114 183.208C111.594 182.84 112.162 182.552 112.818 182.344C113.474 182.136 114.202 182.032 115.002 182.032C115.53 182.032 116.042 182.08 116.538 182.176C117.034 182.256 117.466 182.384 117.834 182.56V181.984C117.834 180.528 116.994 179.8 115.314 179.8C114.626 179.8 113.97 179.92 113.346 180.16C112.722 180.384 112.066 180.728 111.378 181.192L110.25 178.792C111.082 178.248 111.946 177.84 112.842 177.568C113.738 177.296 114.69 177.16 115.698 177.16C117.602 177.16 119.074 177.608 120.114 178.504C121.154 179.4 121.674 180.712 121.674 182.44V185.68C121.674 186.064 121.73 186.336 121.842 186.496C121.97 186.64 122.186 186.728 122.49 186.76V190C122.154 190.08 121.85 190.128 121.578 190.144C121.306 190.176 121.058 190.192 120.834 190.192C120.114 190.192 119.57 190.056 119.202 189.784C118.834 189.496 118.602 189.096 118.506 188.584L118.434 188.008C117.874 188.728 117.202 189.28 116.418 189.664C115.65 190.048 114.834 190.24 113.97 190.24ZM115.098 187.48C115.514 187.48 115.914 187.408 116.298 187.264C116.698 187.12 117.026 186.928 117.282 186.688C117.65 186.4 117.834 186.096 117.834 185.776V184.576C117.498 184.448 117.13 184.352 116.73 184.288C116.346 184.208 115.986 184.168 115.65 184.168C114.946 184.168 114.362 184.328 113.898 184.648C113.45 184.968 113.226 185.384 113.226 185.896C113.226 186.36 113.402 186.744 113.754 187.048C114.106 187.336 114.554 187.48 115.098 187.48ZM9.336 228.24C8.376 228.24 7.544 228.04 6.84 227.64C6.136 227.24 5.592 226.68 5.208 225.96V233.112H1.368V215.4H4.704V217.44C5.168 216.72 5.744 216.16 6.432 215.76C7.136 215.36 7.968 215.16 8.928 215.16C9.776 215.16 10.552 215.328 11.256 215.664C11.976 216 12.592 216.464 13.104 217.056C13.632 217.632 14.04 218.32 14.328 219.12C14.632 219.904 14.784 220.752 14.784 221.664C14.784 222.608 14.648 223.48 14.376 224.28C14.104 225.08 13.728 225.776 13.248 226.368C12.768 226.944 12.192 227.4 11.52 227.736C10.848 228.072 10.12 228.24 9.336 228.24ZM8.04 225C8.456 225 8.832 224.912 9.168 224.736C9.52 224.544 9.824 224.296 10.08 223.992C10.336 223.688 10.528 223.336 10.656 222.936C10.8 222.52 10.872 222.088 10.872 221.64C10.872 221.176 10.792 220.752 10.632 220.368C10.488 219.968 10.28 219.624 10.008 219.336C9.752 219.048 9.432 218.824 9.048 218.664C8.68 218.504 8.28 218.424 7.848 218.424C7.32 218.424 6.808 218.584 6.312 218.904C5.832 219.208 5.464 219.624 5.208 220.152V222.744C5.464 223.384 5.848 223.92 6.36 224.352C6.888 224.784 7.448 225 8.04 225ZM20.751 228.24C20.127 228.24 19.543 228.144 18.999 227.952C18.471 227.744 18.015 227.464 17.631 227.112C17.247 226.744 16.943 226.32 16.719 225.84C16.495 225.344 16.383 224.808 16.383 224.232C16.383 223.608 16.511 223.04 16.767 222.528C17.039 222.016 17.415 221.576 17.895 221.208C18.375 220.84 18.943 220.552 19.599 220.344C20.255 220.136 20.983 220.032 21.783 220.032C22.311 220.032 22.823 220.08 23.319 220.176C23.815 220.256 24.247 220.384 24.615 220.56V219.984C24.615 218.528 23.775 217.8 22.095 217.8C21.407 217.8 20.751 217.92 20.127 218.16C19.503 218.384 18.847 218.728 18.159 219.192L17.031 216.792C17.863 216.248 18.727 215.84 19.623 215.568C20.519 215.296 21.471 215.16 22.479 215.16C24.383 215.16 25.855 215.608 26.895 216.504C27.935 217.4 28.455 218.712 28.455 220.44V223.68C28.455 224.064 28.511 224.336 28.623 224.496C28.751 224.64 28.967 224.728 29.271 224.76V228C28.935 228.08 28.631 228.128 28.359 228.144C28.087 228.176 27.839 228.192 27.615 228.192C26.895 228.192 26.351 228.056 25.983 227.784C25.615 227.496 25.383 227.096 25.287 226.584L25.215 226.008C24.655 226.728 23.983 227.28 23.199 227.664C22.431 228.048 21.615 228.24 20.751 228.24ZM21.879 225.48C22.295 225.48 22.695 225.408 23.079 225.264C23.479 225.12 23.807 224.928 24.063 224.688C24.431 224.4 24.615 224.096 24.615 223.776V222.576C24.279 222.448 23.911 222.352 23.511 222.288C23.127 222.208 22.767 222.168 22.431 222.168C21.727 222.168 21.143 222.328 20.679 222.648C20.231 222.968 20.007 223.384 20.007 223.896C20.007 224.36 20.183 224.744 20.535 225.048C20.887 225.336 21.335 225.48 21.879 225.48ZM38.0529 214.584C37.1889 214.76 36.4929 215.128 35.9649 215.688C35.4529 216.232 35.1089 217.032 34.9329 218.088C35.3809 217.528 35.9489 217.088 36.6369 216.768C37.3249 216.448 38.1249 216.288 39.0369 216.288C39.7889 216.288 40.5009 216.44 41.1729 216.744C41.8449 217.032 42.4369 217.44 42.9489 217.968C43.4609 218.48 43.8609 219.088 44.1489 219.792C44.4529 220.48 44.6049 221.216 44.6049 222C44.6049 222.848 44.4529 223.656 44.1489 224.424C43.8609 225.176 43.4369 225.84 42.8769 226.416C42.3169 226.976 41.6209 227.424 40.7889 227.76C39.9569 228.08 39.0129 228.24 37.9569 228.24C35.7809 228.24 34.1329 227.6 33.0129 226.32C31.8929 225.024 31.3329 223.136 31.3329 220.656C31.3329 219.168 31.4689 217.888 31.7409 216.816C32.0289 215.744 32.4449 214.84 32.9889 214.104C33.5489 213.352 34.2449 212.752 35.0769 212.304C35.9249 211.856 36.9169 211.512 38.0529 211.272L43.0929 210.24L43.2129 213.504L38.0529 214.584ZM35.2929 221.952C35.2929 222.88 35.5409 223.624 36.0369 224.184C36.5489 224.744 37.2049 225.024 38.0049 225.024C38.7889 225.024 39.4289 224.752 39.9249 224.208C40.4209 223.648 40.6689 222.92 40.6689 222.024C40.6689 221.256 40.4129 220.624 39.9009 220.128C39.4049 219.632 38.7569 219.384 37.9569 219.384C37.1729 219.384 36.5329 219.624 36.0369 220.104C35.5409 220.584 35.2929 221.2 35.2929 221.952ZM53.0569 228.24C51.9849 228.24 51.0249 228.064 50.1769 227.712C49.3449 227.36 48.6409 226.888 48.0649 226.296C47.4889 225.688 47.0489 224.992 46.7449 224.208C46.4569 223.408 46.3129 222.576 46.3129 221.712C46.3129 220.848 46.4569 220.024 46.7449 219.24C47.0489 218.44 47.4889 217.744 48.0649 217.152C48.6409 216.544 49.3449 216.064 50.1769 215.712C51.0249 215.344 51.9849 215.16 53.0569 215.16C54.1289 215.16 55.0809 215.344 55.9129 215.712C56.7449 216.064 57.4489 216.544 58.0249 217.152C58.6009 217.744 59.0409 218.44 59.3449 219.24C59.6489 220.024 59.8009 220.848 59.8009 221.712C59.8009 222.576 59.6489 223.408 59.3449 224.208C59.0569 224.992 58.6249 225.688 58.0489 226.296C57.4729 226.888 56.7609 227.36 55.9129 227.712C55.0809 228.064 54.1289 228.24 53.0569 228.24ZM50.2489 221.712C50.2489 222.704 50.5129 223.504 51.0409 224.112C51.5689 224.704 52.2409 225 53.0569 225C53.4569 225 53.8249 224.92 54.1609 224.76C54.4969 224.6 54.7849 224.376 55.0249 224.088C55.2809 223.8 55.4809 223.456 55.6249 223.056C55.7689 222.64 55.8409 222.192 55.8409 221.712C55.8409 220.72 55.5769 219.928 55.0489 219.336C54.5209 218.728 53.8569 218.424 53.0569 218.424C52.6569 218.424 52.2809 218.504 51.9289 218.664C51.5929 218.824 51.2969 219.048 51.0409 219.336C50.8009 219.624 50.6089 219.976 50.4649 220.392C50.3209 220.792 50.2489 221.232 50.2489 221.712ZM68.2239 228H64.4079V218.736H60.6159V215.4H71.9919V218.736H68.2239V228ZM74.1743 215.4H77.9903V219.192H79.9823C80.7503 219.192 81.4383 219.296 82.0463 219.504C82.6703 219.696 83.2063 219.976 83.6543 220.344C84.1023 220.712 84.4463 221.168 84.6863 221.712C84.9263 222.24 85.0463 222.84 85.0463 223.512C85.0463 224.216 84.9263 224.848 84.6863 225.408C84.4623 225.952 84.1343 226.416 83.7023 226.8C83.2863 227.184 82.7743 227.48 82.1663 227.688C81.5743 227.896 80.9103 228 80.1743 228H74.1743V215.4ZM86.4863 215.4H90.3023V228H86.4863V215.4ZM79.6463 225.048C80.1103 225.048 80.4703 224.928 80.7263 224.688C80.9983 224.432 81.1343 224.072 81.1343 223.608C81.1343 223.144 80.9983 222.784 80.7263 222.528C80.4543 222.256 80.0943 222.12 79.6463 222.12H77.9903V225.048H79.6463Z" fill="#95DB3A"/>
<rect y="147" width="262" height="1" fill="url(#paint0_linear_1_1442)"/>
<path d="M263 123L267.775 139.73L284.651 135.5L272.549 148L284.651 160.5L267.775 156.27L263 173L258.225 156.27L241.349 160.5L253.451 148L241.349 135.5L258.225 139.73L263 123Z" fill="url(#paint1_linear_1_1442)"/>
<defs>
<filter id="filter0_dd_1_1442" x="0.0322266" y="55.224" width="107.127" height="63.776" filterUnits="userSpaceOnUse" color-interpolation-filters="sRGB">
<feFlood flood-opacity="0" result="BackgroundImageFix"/>
<feColorMatrix in="SourceAlpha" type="matrix" values="0 0 0 0 0 0 0 0 0 0 0 0 0 0 0 0 0 0 127 0" result="hardAlpha"/>
<feOffset dy="4"/>
<feGaussianBlur stdDeviation="2"/>
<feComposite in2="hardAlpha" operator="out"/>
<feColorMatrix type="matrix" values="0 0 0 0 0 0 0 0 0 0 0 0 0 0 0 0 0 0 0.25 0"/>
<feBlend mode="normal" in2="BackgroundImageFix" result="effect1_dropShadow_1_1442"/>
<feColorMatrix in="SourceAlpha" type="matrix" values="0 0 0 0 0 0 0 0 0 0 0 0 0 0 0 0 0 0 127 0" result="hardAlpha"/>
<feOffset dy="4"/>
<feGaussianBlur stdDeviation="2"/>
<feComposite in2="hardAlpha" operator="out"/>
<feColorMatrix type="matrix" values="0 0 0 0 0 0 0 0 0 0 0 0 0 0 0 0 0 0 0.25 0"/>
<feBlend mode="normal" in2="effect1_dropShadow_1_1442" result="effect2_dropShadow_1_1442"/>
<feBlend mode="normal" in="SourceGraphic" in2="effect2_dropShadow_1_1442" result="shape"/>
</filter>
<linearGradient id="paint0_linear_1_1442" x1="11.8604" y1="147.38" x2="11.9209" y2="151.544" gradientUnits="userSpaceOnUse">
<stop stop-color="#ACFA49"/>
<stop offset="0.863856" stop-color="#90D638"/>
</linearGradient>
<linearGradient id="paint1_linear_1_1442" x1="240.263" y1="142.016" x2="291.464" y2="155.474" gradientUnits="userSpaceOnUse">
<stop stop-color="#ACFA49"/>
<stop offset="0.863856" stop-color="#90D638"/>
</linearGradient>
</defs>
</svg>
