<svg width="290" height="239" viewBox="0 0 290 239" fill="none" xmlns="http://www.w3.org/2000/svg">
<path d="M3.344 190V177.4H15.128V190H11.288V180.76H7.184V190H3.344ZM26.2289 190.24C25.2849 190.24 24.4529 190.04 23.7329 189.64C23.0289 189.224 22.4849 188.664 22.1009 187.96V195.112H18.2609V177.4H21.5969V179.44C22.0609 178.72 22.6449 178.16 23.3489 177.76C24.0529 177.36 24.8769 177.16 25.8209 177.16C26.9409 177.16 27.9409 177.456 28.8209 178.048C29.7169 178.624 30.4129 179.4 30.9089 180.376C31.4209 181.352 31.6769 182.448 31.6769 183.664C31.6769 184.912 31.4449 186.032 30.9809 187.024C30.5169 188.016 29.8689 188.8 29.0369 189.376C28.2209 189.952 27.2849 190.24 26.2289 190.24ZM24.9329 187C25.4769 187 25.9649 186.848 26.3969 186.544C26.8289 186.224 27.1649 185.816 27.4049 185.32C27.6449 184.808 27.7649 184.248 27.7649 183.64C27.7649 182.712 27.4769 181.944 26.9009 181.336C26.3409 180.728 25.6209 180.424 24.7409 180.424C24.2129 180.424 23.7009 180.584 23.2049 180.904C22.7249 181.208 22.3569 181.624 22.1009 182.152V184.744C22.3569 185.384 22.7409 185.92 23.2529 186.352C23.7809 186.784 24.3409 187 24.9329 187ZM40.0925 190.24C38.6525 190.24 37.4285 189.936 36.4205 189.328C35.4285 188.72 34.6685 187.92 34.1405 186.928C33.6125 185.936 33.3485 184.864 33.3485 183.712C33.3485 182.544 33.6125 181.464 34.1405 180.472C34.6685 179.48 35.4365 178.68 36.4445 178.072C37.4525 177.464 38.6685 177.16 40.0925 177.16C41.5165 177.16 42.7325 177.464 43.7405 178.072C44.7485 178.68 45.5165 179.48 46.0445 180.472C46.5725 181.464 46.8365 182.544 46.8365 183.712C46.8365 184.864 46.5725 185.936 46.0445 186.928C45.5165 187.92 44.7485 188.72 43.7405 189.328C42.7325 189.936 41.5165 190.24 40.0925 190.24ZM37.2845 183.712C37.2845 184.688 37.5485 185.48 38.0765 186.088C38.6205 186.696 39.2925 187 40.0925 187C40.8765 187 41.5325 186.696 42.0605 186.088C42.6045 185.48 42.8765 184.688 42.8765 183.712C42.8765 182.736 42.6045 181.944 42.0605 181.336C41.5325 180.728 40.8765 180.424 40.0925 180.424C39.2925 180.424 38.6205 180.728 38.0765 181.336C37.5485 181.944 37.2845 182.736 37.2845 183.712ZM55.2449 190.24C53.8209 190.24 52.6049 189.944 51.5969 189.352C50.5889 188.76 49.8129 187.976 49.2689 187C48.7409 186.024 48.4769 184.968 48.4769 183.832C48.4769 182.616 48.7409 181.504 49.2689 180.496C49.7969 179.488 50.5649 178.68 51.5729 178.072C52.5809 177.464 53.8049 177.16 55.2449 177.16C56.6689 177.16 57.8849 177.464 58.8929 178.072C59.9009 178.68 60.6609 179.48 61.1729 180.472C61.7009 181.464 61.9649 182.528 61.9649 183.664C61.9649 184.128 61.9329 184.536 61.8689 184.888H52.5569C52.6209 185.736 52.9249 186.384 53.4689 186.832C54.0289 187.264 54.6609 187.48 55.3649 187.48C55.9249 187.48 56.4609 187.344 56.9729 187.072C57.4849 186.8 57.8369 186.432 58.0289 185.968L61.2929 186.88C60.7969 187.872 60.0209 188.68 58.9649 189.304C57.9249 189.928 56.6849 190.24 55.2449 190.24ZM52.4609 182.536H57.9329C57.8529 181.736 57.5569 181.104 57.0449 180.64C56.5489 180.16 55.9329 179.92 55.1969 179.92C54.4609 179.92 53.8369 180.16 53.3249 180.64C52.8289 181.12 52.5409 181.752 52.4609 182.536ZM64.2093 190V177.4H68.0253V181.912H68.9373L72.0573 177.4H76.1853L71.8653 183.448L76.6413 190H72.2493L68.8653 185.248H68.0253V190H64.2093ZM81.8645 190V180.76H78.0485V177.4H89.5205V180.76H85.7045V190H81.8645ZM97.6297 190.24C96.1897 190.24 94.9657 189.936 93.9577 189.328C92.9657 188.72 92.2057 187.92 91.6777 186.928C91.1497 185.936 90.8857 184.864 90.8857 183.712C90.8857 182.544 91.1497 181.464 91.6777 180.472C92.2057 179.48 92.9737 178.68 93.9817 178.072C94.9897 177.464 96.2057 177.16 97.6297 177.16C99.0537 177.16 100.27 177.464 101.278 178.072C102.286 178.68 103.054 179.48 103.582 180.472C104.11 181.464 104.374 182.544 104.374 183.712C104.374 184.864 104.11 185.936 103.582 186.928C103.054 187.92 102.286 188.72 101.278 189.328C100.27 189.936 99.0537 190.24 97.6297 190.24ZM94.8217 183.712C94.8217 184.688 95.0857 185.48 95.6137 186.088C96.1577 186.696 96.8297 187 97.6297 187C98.4137 187 99.0697 186.696 99.5977 186.088C100.142 185.48 100.414 184.688 100.414 183.712C100.414 182.736 100.142 181.944 99.5977 181.336C99.0697 180.728 98.4137 180.424 97.6297 180.424C96.8297 180.424 96.1577 180.728 95.6137 181.336C95.0857 181.944 94.8217 182.736 94.8217 183.712ZM106.782 190V177.4H114.078C115.006 177.4 115.75 177.544 116.31 177.832C116.886 178.12 117.302 178.496 117.558 178.96C117.814 179.424 117.942 179.92 117.942 180.448C117.942 181.152 117.782 181.768 117.462 182.296C117.142 182.824 116.654 183.232 115.998 183.52C116.734 183.728 117.334 184.08 117.798 184.576C118.278 185.056 118.518 185.72 118.518 186.568C118.518 187.816 118.086 188.704 117.222 189.232C116.358 189.744 115.158 190 113.622 190H106.782ZM110.43 182.464H113.118C113.486 182.464 113.782 182.344 114.006 182.104C114.23 181.848 114.342 181.536 114.342 181.168C114.342 180.816 114.23 180.528 114.006 180.304C113.782 180.08 113.494 179.968 113.142 179.968H110.43V182.464ZM110.43 187.432H113.502C113.87 187.432 114.174 187.312 114.414 187.072C114.67 186.816 114.798 186.504 114.798 186.136C114.798 185.736 114.678 185.416 114.438 185.176C114.198 184.936 113.894 184.816 113.526 184.816H110.43V187.432ZM3.344 228V215.4H15.128V228H11.288V218.76H7.184V228H3.344ZM26.2289 228.24C25.2849 228.24 24.4529 228.04 23.7329 227.64C23.0289 227.224 22.4849 226.664 22.1009 225.96V233.112H18.2609V215.4H21.5969V217.44C22.0609 216.72 22.6449 216.16 23.3489 215.76C24.0529 215.36 24.8769 215.16 25.8209 215.16C26.9409 215.16 27.9409 215.456 28.8209 216.048C29.7169 216.624 30.4129 217.4 30.9089 218.376C31.4209 219.352 31.6769 220.448 31.6769 221.664C31.6769 222.912 31.4449 224.032 30.9809 225.024C30.5169 226.016 29.8689 226.8 29.0369 227.376C28.2209 227.952 27.2849 228.24 26.2289 228.24ZM24.9329 225C25.4769 225 25.9649 224.848 26.3969 224.544C26.8289 224.224 27.1649 223.816 27.4049 223.32C27.6449 222.808 27.7649 222.248 27.7649 221.64C27.7649 220.712 27.4769 219.944 26.9009 219.336C26.3409 218.728 25.6209 218.424 24.7409 218.424C24.2129 218.424 23.7009 218.584 23.2049 218.904C22.7249 219.208 22.3569 219.624 22.1009 220.152V222.744C22.3569 223.384 22.7409 223.92 23.2529 224.352C23.7809 224.784 24.3409 225 24.9329 225ZM34.1165 228V215.4H37.9565V222.888L42.8285 215.4H46.3325V228H42.4925V220.728L37.6445 228H34.1165ZM49.4793 228V215.4H53.3193V219.96H57.6153V215.4H61.4553V228H57.6153V223.128H53.3193V228H49.4793ZM70.6072 228.24C69.1672 228.24 67.9432 227.936 66.9352 227.328C65.9432 226.72 65.1832 225.92 64.6552 224.928C64.1272 223.936 63.8632 222.864 63.8632 221.712C63.8632 220.544 64.1272 219.464 64.6552 218.472C65.1832 217.48 65.9512 216.68 66.9592 216.072C67.9672 215.464 69.1832 215.16 70.6072 215.16C72.0312 215.16 73.2472 215.464 74.2552 216.072C75.2632 216.68 76.0312 217.48 76.5592 218.472C77.0872 219.464 77.3512 220.544 77.3512 221.712C77.3512 222.864 77.0872 223.936 76.5592 224.928C76.0312 225.92 75.2632 226.72 74.2552 227.328C73.2472 227.936 72.0312 228.24 70.6072 228.24ZM67.7992 221.712C67.7992 222.688 68.0632 223.48 68.5912 224.088C69.1352 224.696 69.8072 225 70.6072 225C71.3912 225 72.0472 224.696 72.5752 224.088C73.1192 223.48 73.3912 222.688 73.3912 221.712C73.3912 220.736 73.1192 219.944 72.5752 219.336C72.0472 218.728 71.3912 218.424 70.6072 218.424C69.8072 218.424 69.1352 218.728 68.5912 219.336C68.0632 219.944 67.7992 220.736 67.7992 221.712ZM85.7596 228.24C84.3516 228.24 83.1356 227.936 82.1116 227.328C81.1036 226.72 80.3276 225.92 79.7836 224.928C79.2556 223.936 78.9916 222.856 78.9916 221.688C78.9916 220.536 79.2556 219.464 79.7836 218.472C80.3276 217.48 81.1036 216.68 82.1116 216.072C83.1196 215.464 84.3356 215.16 85.7596 215.16C87.1996 215.16 88.4156 215.472 89.4076 216.096C90.4156 216.704 91.1676 217.504 91.6636 218.496L87.9196 219.624C87.4236 218.824 86.6956 218.424 85.7356 218.424C84.9516 218.424 84.2876 218.72 83.7436 219.312C83.1996 219.904 82.9276 220.696 82.9276 221.688C82.9276 222.68 83.1996 223.48 83.7436 224.088C84.2876 224.696 84.9516 225 85.7356 225C86.2156 225 86.6556 224.888 87.0556 224.664C87.4556 224.424 87.7516 224.12 87.9436 223.752L91.6876 224.904C91.2236 225.88 90.4796 226.68 89.4556 227.304C88.4476 227.928 87.2156 228.24 85.7596 228.24ZM93.1882 228L96.1642 223.176C95.4282 222.936 94.8602 222.52 94.4602 221.928C94.0762 221.336 93.8842 220.552 93.8842 219.576C93.8842 218.712 94.0762 217.968 94.4602 217.344C94.8602 216.704 95.4042 216.216 96.0922 215.88C96.7962 215.528 97.5962 215.352 98.4922 215.352H104.948V228H101.108V223.848H99.8362L97.3882 228H93.1882ZM99.0202 221.136H101.108V218.256H99.0682C98.6042 218.256 98.2362 218.384 97.9642 218.64C97.6922 218.896 97.5562 219.24 97.5562 219.672C97.5562 220.104 97.6762 220.456 97.9162 220.728C98.1722 221 98.5402 221.136 99.0202 221.136ZM125.038 231.096V228H108.118V215.4H111.958V224.664H115.438V215.4H119.278V224.664H122.758V215.4H126.598V224.664H128.398V231.096H125.038ZM130.84 228V215.4H134.68V222.888L139.552 215.4H143.056V228H139.216V220.728L134.368 228H130.84ZM148.891 215.4L151.123 218.952L151.363 219.408L151.603 218.952L153.835 215.4H157.795L153.571 221.664L157.891 228H153.931L151.579 224.472L151.363 224.016L151.147 224.472L148.795 228H144.835L149.155 221.736L144.931 215.4H148.891ZM165.772 228V215.4H177.556V228H173.716V218.76H169.612V228H165.772ZM188.657 228.24C187.713 228.24 186.881 228.04 186.161 227.64C185.457 227.224 184.913 226.664 184.529 225.96V233.112H180.689V215.4H184.025V217.44C184.489 216.72 185.073 216.16 185.777 215.76C186.481 215.36 187.305 215.16 188.249 215.16C189.369 215.16 190.369 215.456 191.249 216.048C192.145 216.624 192.841 217.4 193.337 218.376C193.849 219.352 194.105 220.448 194.105 221.664C194.105 222.912 193.873 224.032 193.409 225.024C192.945 226.016 192.297 226.8 191.465 227.376C190.649 227.952 189.713 228.24 188.657 228.24ZM187.361 225C187.905 225 188.393 224.848 188.825 224.544C189.257 224.224 189.593 223.816 189.833 223.32C190.073 222.808 190.193 222.248 190.193 221.64C190.193 220.712 189.905 219.944 189.329 219.336C188.769 218.728 188.049 218.424 187.169 218.424C186.641 218.424 186.129 218.584 185.633 218.904C185.153 219.208 184.785 219.624 184.529 220.152V222.744C184.785 223.384 185.169 223.92 185.681 224.352C186.209 224.784 186.769 225 187.361 225ZM196.545 228V215.4H200.385V222.888L205.257 215.4H208.761V228H204.921V220.728L200.073 228H196.545ZM218.34 228.24C216.148 228.24 214.476 227.6 213.324 226.32C212.188 225.024 211.62 223.096 211.62 220.536C211.62 218.536 211.86 216.928 212.34 215.712C212.82 214.496 213.548 213.56 214.524 212.904C215.516 212.248 216.756 211.76 218.244 211.44L223.668 210.216L223.716 213.24L218.268 214.56C217.196 214.848 216.3 215.328 215.58 216C214.876 216.672 214.468 217.624 214.356 218.856C214.852 218.104 215.516 217.504 216.348 217.056C217.196 216.608 218.228 216.384 219.444 216.384C220.532 216.384 221.5 216.624 222.348 217.104C223.196 217.584 223.86 218.248 224.34 219.096C224.82 219.928 225.06 220.896 225.06 222C225.06 223.2 224.804 224.272 224.292 225.216C223.78 226.144 223.02 226.88 222.012 227.424C221.02 227.968 219.796 228.24 218.34 228.24ZM218.34 225C219.172 225 219.844 224.744 220.356 224.232C220.868 223.72 221.124 223.04 221.124 222.192C221.124 221.392 220.868 220.736 220.356 220.224C219.86 219.696 219.188 219.432 218.34 219.432C217.54 219.432 216.876 219.688 216.348 220.2C215.82 220.696 215.556 221.36 215.556 222.192C215.556 223.04 215.804 223.72 216.3 224.232C216.812 224.744 217.492 225 218.34 225ZM227.458 228V215.4H231.298V219.168H233.338C234.858 219.168 236.026 219.56 236.842 220.344C237.674 221.128 238.09 222.168 238.09 223.464C238.09 224.808 237.698 225.904 236.914 226.752C236.146 227.584 235.034 228 233.578 228H227.458ZM239.986 228V215.4H243.826V228H239.986ZM231.298 225.096H232.954C233.482 225.096 233.874 224.944 234.13 224.64C234.386 224.336 234.514 223.952 234.514 223.488C234.514 223.04 234.386 222.664 234.13 222.36C233.89 222.056 233.49 221.904 232.93 221.904H231.298V225.096ZM246.153 228.192V224.784C246.665 224.784 247.097 224.648 247.449 224.376C247.801 224.088 248.081 223.568 248.289 222.816C248.497 222.064 248.633 220.968 248.697 219.528L248.865 215.4H258.825V228H254.985V218.76H252.273L252.225 219.936C252.113 222.064 251.833 223.728 251.385 224.928C250.937 226.128 250.281 226.968 249.417 227.448C248.569 227.928 247.481 228.176 246.153 228.192ZM262.004 228V215.4H265.844V219.168H268.556C270.076 219.168 271.244 219.56 272.06 220.344C272.892 221.128 273.308 222.168 273.308 223.464C273.308 224.808 272.924 225.904 272.156 226.752C271.388 227.584 270.268 228 268.796 228H262.004ZM265.844 225.096H268.172C268.7 225.096 269.092 224.944 269.348 224.64C269.604 224.336 269.732 223.952 269.732 223.488C269.732 223.04 269.604 222.664 269.348 222.36C269.108 222.056 268.708 221.904 268.148 221.904H265.844V225.096Z" fill="#95DB3A"/>
<path d="M47.424 97.176H48.424V96.176H47.424V97.176ZM47.424 111V112H48.424V111H47.424ZM5.952 111H4.952V112H5.952V111ZM5.952 97.176V96.176H4.952V97.176H5.952ZM19.584 97.176V98.176H20.584V97.176H19.584ZM19.584 72.696H20.584V69.696L18.784 72.096L19.584 72.696ZM16.896 75.096L17.43 75.9415L17.4455 75.9317L17.4607 75.9213L16.896 75.096ZM12.768 77.304L13.1667 78.2211L13.1757 78.2172L13.1847 78.2131L12.768 77.304ZM8.16 78.936L8.40254 79.9061L8.41613 79.9027L8.42963 79.899L8.16 78.936ZM4.032 79.512H3.032V80.512H4.032V79.512ZM4.032 65.304V64.304H3.032V65.304H4.032ZM7.968 64.248L7.57836 63.327L7.57179 63.3298L7.56526 63.3327L7.968 64.248ZM12.864 61.752L13.3785 62.6095L13.3909 62.6021L13.4031 62.5943L12.864 61.752ZM17.184 58.68L17.8087 59.4609L17.8087 59.4609L17.184 58.68ZM19.584 56.184V55.184H18.966L18.6896 55.7368L19.584 56.184ZM35.232 56.184H36.232V55.184H35.232V56.184ZM35.232 97.176H34.232V98.176H35.232V97.176ZM46.424 97.176V111H48.424V97.176H46.424ZM47.424 110H5.952V112H47.424V110ZM6.952 111V97.176H4.952V111H6.952ZM5.952 98.176H19.584V96.176H5.952V98.176ZM20.584 97.176V72.696H18.584V97.176H20.584ZM18.784 72.096C18.2988 72.7429 17.5 73.4711 16.3313 74.2707L17.4607 75.9213C18.724 75.0569 19.7172 74.1851 20.384 73.296L18.784 72.096ZM16.362 74.2505C15.1895 74.991 13.8537 75.7064 12.3513 76.3949L13.1847 78.2131C14.7543 77.4936 16.1705 76.737 17.43 75.9415L16.362 74.2505ZM12.3693 76.3869C10.9406 77.0081 9.44788 77.5369 7.89037 77.973L8.42963 79.899C10.0721 79.4391 11.6514 78.8799 13.1667 78.2211L12.3693 76.3869ZM7.91746 77.9659C6.43836 78.3356 5.14597 78.512 4.032 78.512V80.512C5.35003 80.512 6.80964 80.3044 8.40254 79.9061L7.91746 77.9659ZM5.032 79.512V65.304H3.032V79.512H5.032ZM4.032 66.304C5.25963 66.304 6.72113 65.8891 8.37074 65.1633L7.56526 63.3327C6.01487 64.0149 4.85237 64.304 4.032 64.304V66.304ZM8.35764 65.169C10.0661 64.4462 11.7397 63.5928 13.3785 62.6095L12.3495 60.8945C10.7883 61.8312 9.19793 62.6418 7.57836 63.327L8.35764 65.169ZM13.4031 62.5943C15.0281 61.5542 16.4973 60.5099 17.8087 59.4609L16.5593 57.8991C15.3107 58.898 13.8999 59.9018 12.3249 60.9097L13.4031 62.5943ZM17.8087 59.4609C19.0923 58.434 20.0516 57.4849 20.4784 56.6312L18.6896 55.7368C18.4764 56.1631 17.8357 56.878 16.5593 57.8991L17.8087 59.4609ZM19.584 57.184H35.232V55.184H19.584V57.184ZM34.232 56.184V97.176H36.232V56.184H34.232ZM35.232 98.176H47.424V96.176H35.232V98.176ZM104.312 97.464L105.225 97.8701L105.229 97.8627L104.312 97.464ZM99.0315 105.048L99.7175 105.776L99.7229 105.77L99.7283 105.765L99.0315 105.048ZM91.0635 110.136L91.4315 111.066L91.4399 111.063L91.4481 111.059L91.0635 110.136ZM70.4235 109.752L70.8484 108.847L70.4235 109.752ZM62.4555 103.416L63.2399 102.796L62.4555 103.416ZM57.4635 93.336L56.502 93.6107L56.5032 93.6148L57.4635 93.336ZM57.5595 63.768L56.595 63.5038L56.5926 63.5128L57.5595 63.768ZM62.9355 52.056L63.7414 52.6481L63.747 52.6403L62.9355 52.056ZM71.3835 44.76L70.9363 43.8656L71.3835 44.76ZM94.3275 44.856L93.8932 45.7568L93.8994 45.7597L94.3275 44.856ZM103.927 52.344L104.677 53.0056L105.248 52.3588L104.692 51.6994L103.927 52.344ZM95.2875 62.136L94.4995 62.7516L95.2407 63.7004L96.0373 62.7976L95.2875 62.136ZM73.3035 59.64L72.5353 58.9998L72.5307 59.0053L72.5263 59.0108L73.3035 59.64ZM69.8475 71.064L68.8478 71.038L68.7656 74.2046L70.6511 71.6592L69.8475 71.064ZM74.9355 67.032L74.5318 66.117L74.5217 66.1216L74.9355 67.032ZM91.8315 67.32L91.4601 68.2485L91.4671 68.2512L91.8315 67.32ZM99.4155 72.12L98.7194 72.8379L98.725 72.8434L98.7308 72.8488L99.4155 72.12ZM104.408 79.224L103.493 79.6282L103.496 79.6362L104.408 79.224ZM85.1115 98.136L84.7011 97.2241L85.1115 98.136ZM88.4715 95.832L89.1786 96.5391L89.19 96.5277L89.201 96.5159L88.4715 95.832ZM88.4715 80.76L87.7644 81.4671L87.7766 81.4793L87.7892 81.4911L88.4715 80.76ZM85.1115 78.552L84.7011 79.4639L84.7204 79.4726L84.7401 79.4805L85.1115 78.552ZM76.9515 78.552L77.3229 79.4805L77.3426 79.4726L77.3619 79.4639L76.9515 78.552ZM73.5915 80.76L74.2738 81.4911L74.2864 81.4793L74.2986 81.4671L73.5915 80.76ZM71.2875 84.024L70.3756 83.6136L70.3669 83.6329L70.359 83.6526L71.2875 84.024ZM71.3835 92.28L72.3026 91.8861L71.3835 92.28ZM73.6875 95.832L72.958 96.5159L72.969 96.5277L72.9804 96.5391L73.6875 95.832ZM105.231 88.056C105.231 91.252 104.618 94.2517 103.394 97.0653L105.229 97.8627C106.565 94.7883 107.231 91.516 107.231 88.056H105.231ZM103.398 97.0579C102.169 99.8223 100.482 102.244 98.3347 104.331L99.7283 105.765C102.061 103.5 103.894 100.866 105.225 97.8701L103.398 97.0579ZM98.3455 104.32C96.2002 106.343 93.6485 107.976 90.6789 109.213L91.4481 111.059C94.6225 109.736 97.3828 107.977 99.7175 105.776L98.3455 104.32ZM90.6954 109.206C87.7502 110.372 84.5482 110.96 81.0795 110.96V112.96C84.7788 112.96 88.2328 112.332 91.4315 111.066L90.6954 109.206ZM81.0795 110.96C77.237 110.96 73.8334 110.248 70.8484 108.847L69.9986 110.657C73.2856 112.2 76.986 112.96 81.0795 112.96V110.96ZM70.8484 108.847C67.8546 107.441 65.3211 105.428 63.2399 102.796L61.6711 104.036C63.9419 106.908 66.7204 109.119 69.9986 110.657L70.8484 108.847ZM63.2399 102.796C61.157 100.161 59.5461 96.9228 58.4238 93.0572L56.5032 93.6148C57.6849 97.6852 59.402 101.167 61.6711 104.036L63.2399 102.796ZM58.425 93.0613C57.3034 89.1358 56.7355 84.6548 56.7355 79.608H54.7355C54.7355 84.8012 55.3195 89.4722 56.502 93.6107L58.425 93.0613ZM56.7355 79.608C56.7355 73.7217 57.337 68.5303 58.5264 64.0232L56.5926 63.5128C55.35 68.2217 54.7355 73.5902 54.7355 79.608H56.7355ZM58.524 64.0322C59.7792 59.4505 61.5252 55.6646 63.7414 52.6481L62.1296 51.4639C59.7378 54.7194 57.8998 58.7416 56.595 63.5038L58.524 64.0322ZM63.747 52.6403C65.9623 49.5636 68.6561 47.2417 71.8307 45.6544L70.9363 43.8656C67.4549 45.6063 64.5167 48.1484 62.124 51.4717L63.747 52.6403ZM71.8307 45.6544C75.0042 44.0677 78.5922 43.264 82.6155 43.264V41.264C78.3188 41.264 74.4188 42.1243 70.9363 43.8656L71.8307 45.6544ZM82.6155 43.264C86.6986 43.264 90.4529 44.0981 93.8932 45.7568L94.7618 43.9552C91.034 42.1579 86.9804 41.264 82.6155 41.264V43.264ZM93.8994 45.7597C97.4106 47.4229 100.498 49.8276 103.163 52.9886L104.692 51.6994C101.853 48.3324 98.5404 45.7451 94.7556 43.9523L93.8994 45.7597ZM103.178 51.6824L94.5377 61.4744L96.0373 62.7976L104.677 53.0056L103.178 51.6824ZM96.0755 61.5204C94.3893 59.362 92.3577 57.667 89.9848 56.4467L89.0702 58.2253C91.1773 59.309 92.9857 60.814 94.4995 62.7516L96.0755 61.5204ZM89.9848 56.4467C87.601 55.2207 85.0439 54.608 82.3275 54.608V56.608C84.7311 56.608 86.974 57.1473 89.0702 58.2253L89.9848 56.4467ZM82.3275 54.608C78.2815 54.608 74.9818 56.064 72.5353 58.9998L74.0717 60.2802C76.1052 57.84 78.8215 56.608 82.3275 56.608V54.608ZM72.5263 59.0108C70.1637 61.9293 68.9792 65.981 68.8478 71.038L70.8472 71.09C70.9718 66.291 72.0913 62.7267 74.0807 60.2692L72.5263 59.0108ZM70.6511 71.6592C71.8221 70.0783 73.3793 68.8378 75.3493 67.9424L74.5217 66.1216C72.2677 67.1462 70.4329 68.5937 69.0439 70.4688L70.6511 71.6592ZM75.3391 67.9469C77.3668 67.0524 79.7213 66.592 82.4235 66.592V64.592C79.4937 64.592 76.8562 65.0916 74.5319 66.1171L75.3391 67.9469ZM82.4235 66.592C85.7002 66.592 88.7088 67.148 91.4601 68.2485L92.2029 66.3915C89.1942 65.188 85.9308 64.592 82.4235 64.592V66.592ZM91.4671 68.2512C94.2968 69.3585 96.7096 70.8891 98.7194 72.8379L100.112 71.4021C97.8974 69.2549 95.2542 67.5855 92.1959 66.3888L91.4671 68.2512ZM98.7308 72.8488C100.741 74.7376 102.329 76.9939 103.493 79.6282L105.322 78.8198C104.054 75.9501 102.314 73.4704 100.1 71.3912L98.7308 72.8488ZM103.496 79.6362C104.649 82.184 105.231 84.986 105.231 88.056H107.231C107.231 84.726 106.598 81.64 105.319 78.8118L103.496 79.6362ZM81.0795 100C82.6285 100 84.1124 99.6822 85.5219 99.0479L84.7011 97.2241C83.5506 97.7418 82.3465 98 81.0795 98V100ZM85.5219 99.0479C86.9086 98.4239 88.13 97.5877 89.1786 96.5391L87.7644 95.1249C86.893 95.9963 85.8744 96.6961 84.7011 97.2241L85.5219 99.0479ZM89.201 96.5159C90.2439 95.4035 91.0747 94.1204 91.6946 92.6739L89.8564 91.8861C89.3243 93.1276 88.6191 94.2125 87.742 95.1481L89.201 96.5159ZM91.6946 92.6739C92.3244 91.2046 92.6395 89.6625 92.6395 88.056H90.6395C90.6395 89.3935 90.3786 90.6674 89.8564 91.8861L91.6946 92.6739ZM92.6395 88.056C92.6395 86.507 92.3217 85.0231 91.6874 83.6136L89.8636 84.4344C90.3813 85.5849 90.6395 86.789 90.6395 88.056H92.6395ZM91.6874 83.6136C91.0607 82.221 90.2174 81.0216 89.1538 80.0289L87.7892 81.4911C88.6456 82.2903 89.3383 83.267 89.8636 84.4344L91.6874 83.6136ZM89.1786 80.0529C88.1213 78.9956 86.8866 78.185 85.4829 77.6235L84.7401 79.4805C85.8964 79.943 86.9017 80.6044 87.7644 81.4671L89.1786 80.0529ZM85.5219 77.6401C84.1124 77.0058 82.6285 76.688 81.0795 76.688V78.688C82.3465 78.688 83.5506 78.9462 84.7011 79.4639L85.5219 77.6401ZM81.0795 76.688C79.4731 76.688 77.9564 77.0032 76.5411 77.6401L77.3619 79.4639C78.5066 78.9488 79.7419 78.688 81.0795 78.688V76.688ZM76.5801 77.6235C75.1764 78.185 73.9417 78.9956 72.8844 80.0529L74.2986 81.4671C75.1613 80.6044 76.1666 79.943 77.3229 79.4805L76.5801 77.6235ZM72.9092 80.0289C71.8456 81.0216 71.0023 82.221 70.3756 83.6136L72.1994 84.4344C72.7247 83.267 73.4174 82.2903 74.2738 81.4911L72.9092 80.0289ZM70.359 83.6526C69.7988 85.0533 69.5195 86.5236 69.5195 88.056H71.5195C71.5195 86.7724 71.7522 85.5547 72.216 84.3954L70.359 83.6526ZM69.5195 88.056C69.5195 89.6625 69.8346 91.2046 70.4644 92.6739L72.3026 91.8861C71.7804 90.6674 71.5195 89.3935 71.5195 88.056H69.5195ZM70.4644 92.6739C71.0843 94.1204 71.9151 95.4035 72.958 96.5159L74.417 95.1481C73.5399 94.2125 72.8347 93.1276 72.3026 91.8861L70.4644 92.6739ZM72.9804 96.5391C74.029 97.5877 75.2504 98.4239 76.6371 99.0479L77.4579 97.2241C76.2846 96.6961 75.266 95.9963 74.3946 95.1249L72.9804 96.5391ZM76.6371 99.0479C78.0466 99.6822 79.5305 100 81.0795 100V98C79.8125 98 78.6084 97.7418 77.4579 97.2241L76.6371 99.0479ZM115.678 111H114.678V112H115.678V111ZM116.35 102.936L117.332 103.122L116.35 102.936ZM118.654 96.504L119.524 96.9971L119.531 96.9848L118.654 96.504ZM123.07 91.032L123.737 91.7766L123.07 91.032ZM130.078 86.136L129.594 85.2609L129.584 85.2665L130.078 86.136ZM137.566 82.008L137.097 81.1248L137.085 81.1312L137.566 82.008ZM142.366 79.128L141.801 78.3027L141.791 78.3099L141.78 78.3173L142.366 79.128ZM144.958 76.92L145.739 77.5447L145.753 77.5267L145.766 77.5082L144.958 76.92ZM143.806 70.2L143.158 70.9619L143.806 70.2ZM131.326 70.584L131.868 71.4243L131.877 71.4182L131.887 71.4119L131.326 70.584ZM125.566 75.672L124.809 76.326L125.56 77.194L126.317 76.3321L125.566 75.672ZM115.774 64.344L115.026 63.6796L114.444 64.3348L115.017 64.9979L115.774 64.344ZM125.758 58.104L126.115 59.0381L126.127 59.0335L126.138 59.0287L125.758 58.104ZM132.862 55.992L132.67 55.0105L132.666 55.0114L132.862 55.992ZM156.862 59.736L156.226 60.5076L156.232 60.5129L156.862 59.736ZM161.374 77.592L160.453 77.2024L160.446 77.2176L160.44 77.233L161.374 77.592ZM158.782 82.104L159.544 82.7516L159.551 82.7425L159.559 82.7332L158.782 82.104ZM155.134 85.56L155.715 86.3737L155.728 86.3648L155.74 86.3554L155.134 85.56ZM151.006 88.248L150.497 87.3871L150.491 87.3905L151.006 88.248ZM147.55 90.264L148.046 91.1322L147.55 90.264ZM143.518 92.664L144.032 93.5216L144.044 93.5143L143.518 92.664ZM139.87 95.064L140.446 95.881L140.455 95.8747L139.87 95.064ZM137.374 97.176L136.63 96.507L135.128 98.176H137.374V97.176ZM163.486 97.176H164.486V96.176H163.486V97.176ZM163.486 111V112H164.486V111H163.486ZM116.678 111C116.678 108.04 116.898 105.416 117.332 103.122L115.367 102.75C114.905 105.192 114.678 107.944 114.678 111H116.678ZM117.332 103.122C117.762 100.852 118.495 98.8131 119.524 96.997L117.784 96.011C116.637 98.0349 115.834 100.284 115.367 102.75L117.332 103.122ZM119.531 96.9848C120.559 95.1095 121.957 93.3727 123.737 91.7766L122.402 90.2874C120.471 92.0192 118.925 93.9305 117.777 96.0232L119.531 96.9848ZM123.737 91.7766C125.527 90.172 127.801 88.58 130.572 87.0055L129.584 85.2665C126.723 86.892 124.324 88.564 122.402 90.2874L123.737 91.7766ZM130.562 87.011C133.569 85.3474 136.064 83.972 138.047 82.8848L137.085 81.1312C135.099 82.22 132.602 83.5966 129.594 85.261L130.562 87.011ZM138.035 82.8911C140.102 81.7932 141.746 80.8088 142.951 79.9387L141.78 78.3173C140.681 79.1112 139.126 80.0468 137.097 81.1249L138.035 82.8911ZM142.93 79.9533C144.174 79.1024 145.134 78.3002 145.739 77.5447L144.177 76.2953C143.757 76.8198 142.989 77.4896 141.801 78.3027L142.93 79.9533ZM145.766 77.5082C146.407 76.628 146.726 75.6207 146.726 74.52H144.726C144.726 75.2113 144.533 75.804 144.149 76.3318L145.766 77.5082ZM146.726 74.52C146.726 72.4569 145.973 70.73 144.453 69.4381L143.158 70.9619C144.198 71.846 144.726 72.9991 144.726 74.52H146.726ZM144.453 69.4381C142.931 68.1439 140.843 67.568 138.334 67.568V69.568C140.561 69.568 142.121 70.0801 143.158 70.9619L144.453 69.4381ZM138.334 67.568C135.471 67.568 132.934 68.2866 130.765 69.7561L131.887 71.4119C133.685 70.1934 135.82 69.568 138.334 69.568V67.568ZM130.784 69.7437C128.709 71.0823 126.72 72.8433 124.815 75.0119L126.317 76.3321C128.123 74.2767 129.975 72.6457 131.868 71.4243L130.784 69.7437ZM126.322 75.018L116.53 63.69L115.017 64.9979L124.809 76.326L126.322 75.018ZM116.521 65.0084C117.466 63.9454 118.762 62.8833 120.435 61.8302L119.369 60.1378C117.585 61.2607 116.129 62.4386 115.026 63.6796L116.521 65.0084ZM120.435 61.8302C122.1 60.7817 123.992 59.8498 126.115 59.0381L125.401 57.1699C123.172 58.0222 121.16 59.0103 119.369 60.1378L120.435 61.8302ZM126.138 59.0287C128.249 58.1597 130.554 57.4733 133.058 56.9726L132.666 55.0114C130.049 55.5347 127.619 56.2563 125.377 57.1793L126.138 59.0287ZM133.053 56.9735C135.611 56.4744 138.267 56.224 141.022 56.224V54.224C138.145 54.224 135.361 54.4856 132.67 55.0105L133.053 56.9735ZM141.022 56.224C147.806 56.224 152.823 57.7021 156.226 60.5075L157.498 58.9645C153.604 55.7539 148.062 54.224 141.022 54.224V56.224ZM156.232 60.5129C159.691 63.316 161.43 67.0848 161.43 71.928H163.43C163.43 66.5312 161.456 62.172 157.491 58.9591L156.232 60.5129ZM161.43 71.928C161.43 73.9285 161.097 75.6807 160.453 77.2024L162.295 77.9816C163.059 76.1753 163.43 74.1515 163.43 71.928H161.43ZM160.44 77.233C159.837 78.8024 159.025 80.2147 158.005 81.4748L159.559 82.7332C160.715 81.3053 161.631 79.7096 162.307 77.951L160.44 77.233ZM158.02 81.4564C156.979 82.6813 155.815 83.7838 154.528 84.7646L155.74 86.3554C157.141 85.2882 158.409 84.0867 159.544 82.7516L158.02 81.4564ZM154.553 84.7463C153.232 85.6897 151.88 86.5699 150.497 87.3871L151.514 89.1089C152.948 88.2621 154.348 87.3503 155.715 86.3737L154.553 84.7463ZM150.491 87.3905C149.539 87.9618 148.394 88.6301 147.054 89.3958L148.046 91.1322C149.394 90.3619 150.552 89.6862 151.52 89.1055L150.491 87.3905ZM147.054 89.3958C145.699 90.1697 144.345 90.9757 142.991 91.8137L144.044 93.5143C145.378 92.6883 146.712 91.8943 148.046 91.1322L147.054 89.3958ZM143.003 91.8065C141.7 92.5884 140.46 93.4039 139.284 94.2533L140.455 95.8747C141.583 95.0601 142.775 94.2756 144.032 93.5215L143.003 91.8065ZM139.293 94.247C138.173 95.0374 137.276 95.7902 136.63 96.507L138.117 97.845C138.624 97.2818 139.39 96.6266 140.446 95.881L139.293 94.247ZM137.374 98.176H163.486V96.176H137.374V98.176ZM162.486 97.176V111H164.486V97.176H162.486ZM163.486 110H115.678V112H163.486V110Z" fill="#95DB3A"/>
<rect x="2" y="149" width="265" height="1" fill="url(#paint0_linear_1_1452)"/>
<path d="M265 126L269.775 142.73L286.651 138.5L274.549 151L286.651 163.5L269.775 159.27L265 176L260.225 159.27L243.349 163.5L255.451 151L243.349 138.5L260.225 142.73L265 126Z" fill="url(#paint1_linear_1_1452)"/>
<defs>
<linearGradient id="paint0_linear_1_1452" x1="13.9962" y1="149.38" x2="14.056" y2="153.545" gradientUnits="userSpaceOnUse">
<stop stop-color="#ACFA49"/>
<stop offset="0.863856" stop-color="#90D638"/>
</linearGradient>
<linearGradient id="paint1_linear_1_1452" x1="242.263" y1="145.016" x2="293.464" y2="158.474" gradientUnits="userSpaceOnUse">
<stop stop-color="#ACFA49"/>
<stop offset="0.863856" stop-color="#90D638"/>
</linearGradient>
</defs>
</svg>
