<svg width="288" height="239" viewBox="0 0 288 239" fill="none" xmlns="http://www.w3.org/2000/svg">
<path d="M10.104 180.664H5.184V190H1.368V177.4H10.104V180.664ZM17.5266 190.24C16.4546 190.24 15.4946 190.064 14.6466 189.712C13.8146 189.36 13.1106 188.888 12.5346 188.296C11.9586 187.688 11.5186 186.992 11.2146 186.208C10.9266 185.408 10.7826 184.576 10.7826 183.712C10.7826 182.848 10.9266 182.024 11.2146 181.24C11.5186 180.44 11.9586 179.744 12.5346 179.152C13.1106 178.544 13.8146 178.064 14.6466 177.712C15.4946 177.344 16.4546 177.16 17.5266 177.16C18.5986 177.16 19.5506 177.344 20.3826 177.712C21.2146 178.064 21.9186 178.544 22.4946 179.152C23.0706 179.744 23.5106 180.44 23.8146 181.24C24.1186 182.024 24.2706 182.848 24.2706 183.712C24.2706 184.576 24.1186 185.408 23.8146 186.208C23.5266 186.992 23.0946 187.688 22.5186 188.296C21.9426 188.888 21.2306 189.36 20.3826 189.712C19.5506 190.064 18.5986 190.24 17.5266 190.24ZM14.7186 183.712C14.7186 184.704 14.9826 185.504 15.5106 186.112C16.0386 186.704 16.7106 187 17.5266 187C17.9266 187 18.2946 186.92 18.6306 186.76C18.9666 186.6 19.2546 186.376 19.4946 186.088C19.7506 185.8 19.9506 185.456 20.0946 185.056C20.2386 184.64 20.3106 184.192 20.3106 183.712C20.3106 182.72 20.0466 181.928 19.5186 181.336C18.9906 180.728 18.3266 180.424 17.5266 180.424C17.1266 180.424 16.7506 180.504 16.3986 180.664C16.0626 180.824 15.7666 181.048 15.5106 181.336C15.2706 181.624 15.0786 181.976 14.9346 182.392C14.7906 182.792 14.7186 183.232 14.7186 183.712ZM32.6936 190H28.8776V180.736H25.0856V177.4H36.4616V180.736H32.6936V190ZM43.9866 190.24C42.9146 190.24 41.9546 190.064 41.1066 189.712C40.2746 189.36 39.5706 188.888 38.9946 188.296C38.4186 187.688 37.9786 186.992 37.6746 186.208C37.3866 185.408 37.2426 184.576 37.2426 183.712C37.2426 182.848 37.3866 182.024 37.6746 181.24C37.9786 180.44 38.4186 179.744 38.9946 179.152C39.5706 178.544 40.2746 178.064 41.1066 177.712C41.9546 177.344 42.9146 177.16 43.9866 177.16C45.0586 177.16 46.0106 177.344 46.8426 177.712C47.6746 178.064 48.3786 178.544 48.9546 179.152C49.5306 179.744 49.9706 180.44 50.2746 181.24C50.5786 182.024 50.7306 182.848 50.7306 183.712C50.7306 184.576 50.5786 185.408 50.2746 186.208C49.9866 186.992 49.5546 187.688 48.9786 188.296C48.4026 188.888 47.6906 189.36 46.8426 189.712C46.0106 190.064 45.0586 190.24 43.9866 190.24ZM41.1786 183.712C41.1786 184.704 41.4426 185.504 41.9706 186.112C42.4986 186.704 43.1706 187 43.9866 187C44.3866 187 44.7546 186.92 45.0906 186.76C45.4266 186.6 45.7146 186.376 45.9546 186.088C46.2106 185.8 46.4106 185.456 46.5546 185.056C46.6986 184.64 46.7706 184.192 46.7706 183.712C46.7706 182.72 46.5066 181.928 45.9786 181.336C45.4506 180.728 44.7866 180.424 43.9866 180.424C43.5866 180.424 43.2106 180.504 42.8586 180.664C42.5226 180.824 42.2266 181.048 41.9706 181.336C41.7306 181.624 41.5386 181.976 41.3946 182.392C41.2506 182.792 41.1786 183.232 41.1786 183.712ZM61.251 177.4C61.731 177.4 62.163 177.488 62.547 177.664C62.931 177.84 63.259 178.08 63.531 178.384C63.803 178.672 64.011 179.016 64.155 179.416C64.315 179.8 64.395 180.2 64.395 180.616C64.395 181.176 64.243 181.728 63.939 182.272C63.651 182.8 63.171 183.2 62.499 183.472C63.251 183.696 63.843 184.064 64.275 184.576C64.723 185.072 64.947 185.768 64.947 186.664C64.947 187.848 64.515 188.704 63.651 189.232C62.787 189.744 61.603 190 60.099 190H53.163V177.4H61.251ZM59.379 182.584C59.747 182.584 60.043 182.488 60.267 182.296C60.491 182.088 60.603 181.776 60.603 181.36C60.603 181.024 60.499 180.744 60.291 180.52C60.083 180.28 59.795 180.16 59.427 180.16H57.003V182.584H59.379ZM59.859 187.24C60.211 187.24 60.499 187.12 60.723 186.88C60.963 186.64 61.083 186.336 61.083 185.968C61.083 185.568 60.971 185.248 60.747 185.008C60.523 184.768 60.227 184.648 59.859 184.648H57.003V187.24H59.859ZM67.4243 177.4H71.2403V181.192H73.2323C74.0003 181.192 74.6883 181.296 75.2963 181.504C75.9203 181.696 76.4563 181.976 76.9043 182.344C77.3523 182.712 77.6963 183.168 77.9363 183.712C78.1763 184.24 78.2963 184.84 78.2963 185.512C78.2963 186.216 78.1763 186.848 77.9363 187.408C77.7123 187.952 77.3843 188.416 76.9523 188.8C76.5363 189.184 76.0243 189.48 75.4163 189.688C74.8243 189.896 74.1603 190 73.4243 190H67.4243V177.4ZM79.7363 177.4H83.5523V190H79.7363V177.4ZM72.8963 187.048C73.3603 187.048 73.7203 186.928 73.9763 186.688C74.2483 186.432 74.3843 186.072 74.3843 185.608C74.3843 185.144 74.2483 184.784 73.9763 184.528C73.7043 184.256 73.3443 184.12 72.8963 184.12H71.2403V187.048H72.8963ZM89.3874 177.4L91.6674 180.952L91.9074 181.408L92.1474 180.952L94.4034 177.4H98.3394L93.9714 183.712L98.4354 190H94.4994L92.1234 186.472L91.9074 186.016L91.6914 186.472L89.3154 190H85.3794L89.8434 183.712L85.4754 177.4H89.3874ZM114.309 190.24C113.349 190.24 112.517 190.04 111.813 189.64C111.109 189.24 110.565 188.68 110.181 187.96V195.112H106.341V177.4H109.677V179.44C110.141 178.72 110.717 178.16 111.405 177.76C112.109 177.36 112.941 177.16 113.901 177.16C114.749 177.16 115.525 177.328 116.229 177.664C116.949 178 117.565 178.464 118.077 179.056C118.605 179.632 119.013 180.32 119.301 181.12C119.605 181.904 119.757 182.752 119.757 183.664C119.757 184.608 119.621 185.48 119.349 186.28C119.077 187.08 118.701 187.776 118.221 188.368C117.741 188.944 117.165 189.4 116.493 189.736C115.821 190.072 115.093 190.24 114.309 190.24ZM113.013 187C113.429 187 113.805 186.912 114.141 186.736C114.493 186.544 114.797 186.296 115.053 185.992C115.309 185.688 115.501 185.336 115.629 184.936C115.773 184.52 115.845 184.088 115.845 183.64C115.845 183.176 115.765 182.752 115.605 182.368C115.461 181.968 115.253 181.624 114.981 181.336C114.725 181.048 114.405 180.824 114.021 180.664C113.653 180.504 113.253 180.424 112.821 180.424C112.293 180.424 111.781 180.584 111.285 180.904C110.805 181.208 110.437 181.624 110.181 182.152V184.744C110.437 185.384 110.821 185.92 111.333 186.352C111.861 186.784 112.421 187 113.013 187ZM128.172 190.24C127.116 190.24 126.164 190.072 125.316 189.736C124.484 189.384 123.772 188.912 123.18 188.32C122.604 187.728 122.164 187.048 121.86 186.28C121.556 185.496 121.404 184.68 121.404 183.832C121.404 182.92 121.556 182.064 121.86 181.264C122.164 180.448 122.604 179.736 123.18 179.128C123.756 178.52 124.46 178.04 125.292 177.688C126.14 177.336 127.1 177.16 128.172 177.16C129.244 177.16 130.196 177.336 131.028 177.688C131.86 178.04 132.564 178.52 133.14 179.128C133.716 179.72 134.148 180.408 134.436 181.192C134.74 181.976 134.892 182.8 134.892 183.664C134.892 183.888 134.884 184.112 134.868 184.336C134.852 184.544 134.828 184.728 134.796 184.888H125.484C125.548 185.736 125.852 186.384 126.396 186.832C126.956 187.264 127.588 187.48 128.292 187.48C128.852 187.48 129.388 187.344 129.9 187.072C130.428 186.8 130.78 186.432 130.956 185.968L134.22 186.88C133.724 187.872 132.956 188.68 131.916 189.304C130.876 189.928 129.628 190.24 128.172 190.24ZM130.836 182.512C130.756 181.712 130.468 181.08 129.972 180.616C129.476 180.152 128.86 179.92 128.124 179.92C127.372 179.92 126.748 180.16 126.252 180.64C125.772 181.104 125.492 181.728 125.412 182.512H130.836ZM137.16 190V177.4H140.976V186.664H144.192V177.4H148.032V186.664H151.224V177.4H155.064V190H137.16ZM164.265 190.24C163.209 190.24 162.257 190.072 161.409 189.736C160.577 189.384 159.865 188.912 159.273 188.32C158.697 187.728 158.257 187.048 157.953 186.28C157.649 185.496 157.497 184.68 157.497 183.832C157.497 182.92 157.649 182.064 157.953 181.264C158.257 180.448 158.697 179.736 159.273 179.128C159.849 178.52 160.553 178.04 161.385 177.688C162.233 177.336 163.193 177.16 164.265 177.16C165.337 177.16 166.289 177.336 167.121 177.688C167.953 178.04 168.657 178.52 169.233 179.128C169.809 179.72 170.241 180.408 170.529 181.192C170.833 181.976 170.985 182.8 170.985 183.664C170.985 183.888 170.977 184.112 170.961 184.336C170.945 184.544 170.921 184.728 170.889 184.888H161.577C161.641 185.736 161.945 186.384 162.489 186.832C163.049 187.264 163.681 187.48 164.385 187.48C164.945 187.48 165.481 187.344 165.993 187.072C166.521 186.8 166.873 186.432 167.049 185.968L170.313 186.88C169.817 187.872 169.049 188.68 168.009 189.304C166.969 189.928 165.721 190.24 164.265 190.24ZM166.929 182.512C166.849 181.712 166.561 181.08 166.065 180.616C165.569 180.152 164.953 179.92 164.217 179.92C163.465 179.92 162.841 180.16 162.345 180.64C161.865 181.104 161.585 181.728 161.505 182.512H166.929ZM177.069 181.888H181.317V177.4H185.133V190H181.317V185.2H177.069V190H173.253V177.4H177.069V181.888ZM192.174 184.504L197.67 177.4H200.43V190H196.59V183.112L191.166 190H188.358V177.4H192.174V184.504ZM214.019 172.48C214.003 173.552 213.619 174.408 212.867 175.048C212.115 175.688 211.131 176.008 209.915 176.008C208.699 176.008 207.715 175.688 206.963 175.048C206.211 174.408 205.819 173.552 205.787 172.48H207.827C207.843 173.04 208.027 173.488 208.379 173.824C208.731 174.16 209.243 174.328 209.915 174.328C210.555 174.328 211.043 174.168 211.379 173.848C211.731 173.528 211.931 173.072 211.979 172.48H214.019ZM207.467 184.504L212.963 177.4H215.723V190H211.883V183.112L206.459 190H203.651V177.4H207.467V184.504ZM0.336 224.664H0.984C1.352 224.632 1.656 224.544 1.896 224.4C2.152 224.24 2.368 223.968 2.544 223.584C2.72 223.2 2.864 222.68 2.976 222.024C3.088 221.368 3.2 220.528 3.312 219.504L3.744 215.4H13.128V224.664H14.928V231.384H11.496V228H3.648V231.384H0.336V224.664ZM9.312 224.664V218.688H7.056L6.888 220.104C6.76 221.144 6.592 222.024 6.384 222.744C6.176 223.464 5.912 224.104 5.592 224.664H9.312ZM16.3294 224.688C16.7614 224.672 17.1134 224.6 17.3854 224.472C17.6734 224.328 17.9054 224.072 18.0814 223.704C18.2734 223.32 18.4254 222.8 18.5374 222.144C18.6654 221.472 18.7934 220.592 18.9214 219.504L19.3534 215.4H28.7614V228H24.9214V218.688H22.6894L22.4974 220.104C22.2894 221.656 22.0414 222.944 21.7534 223.968C21.4814 224.976 21.1134 225.784 20.6494 226.392C20.2014 227 19.6334 227.432 18.9454 227.688C18.2734 227.944 17.4334 228.08 16.4254 228.096L16.3294 224.688ZM34.185 223.296C33.417 223.04 32.817 222.616 32.385 222.024C31.969 221.432 31.761 220.64 31.761 219.648C31.761 218.976 31.873 218.376 32.097 217.848C32.337 217.32 32.665 216.872 33.081 216.504C33.497 216.136 33.985 215.856 34.545 215.664C35.105 215.456 35.721 215.352 36.393 215.352H42.705V228H38.889V223.896H37.593L35.049 228H30.969L34.185 223.296ZM38.889 221.112V218.304H36.945C36.609 218.304 36.305 218.432 36.033 218.688C35.777 218.928 35.649 219.272 35.649 219.72C35.649 220.152 35.769 220.496 36.009 220.752C36.265 220.992 36.577 221.112 36.945 221.112H38.889ZM58.2551 214.584C57.3911 214.76 56.6951 215.128 56.1671 215.688C55.6551 216.232 55.3111 217.032 55.1351 218.088C55.5831 217.528 56.1511 217.088 56.8391 216.768C57.5271 216.448 58.3271 216.288 59.2391 216.288C59.9911 216.288 60.7031 216.44 61.3751 216.744C62.0471 217.032 62.6391 217.44 63.1511 217.968C63.6631 218.48 64.0631 219.088 64.3511 219.792C64.6551 220.48 64.8071 221.216 64.8071 222C64.8071 222.848 64.6551 223.656 64.3511 224.424C64.0631 225.176 63.6391 225.84 63.0791 226.416C62.5191 226.976 61.8231 227.424 60.9911 227.76C60.1591 228.08 59.2151 228.24 58.1591 228.24C55.9831 228.24 54.3351 227.6 53.2151 226.32C52.0951 225.024 51.5351 223.136 51.5351 220.656C51.5351 219.168 51.6711 217.888 51.9431 216.816C52.2311 215.744 52.6471 214.84 53.1911 214.104C53.7511 213.352 54.4471 212.752 55.2791 212.304C56.1271 211.856 57.1191 211.512 58.2551 211.272L63.2951 210.24L63.4151 213.504L58.2551 214.584ZM55.4951 221.952C55.4951 222.88 55.7431 223.624 56.2391 224.184C56.7511 224.744 57.4071 225.024 58.2071 225.024C58.9911 225.024 59.6311 224.752 60.1271 224.208C60.6231 223.648 60.8711 222.92 60.8711 222.024C60.8711 221.256 60.6151 220.624 60.1031 220.128C59.6071 219.632 58.9591 219.384 58.1591 219.384C57.3751 219.384 56.7351 219.624 56.2391 220.104C55.7431 220.584 55.4951 221.2 55.4951 221.952ZM71.1231 222.504L76.6191 215.4H79.3791V228H75.5391V221.112L70.1151 228H67.3071V215.4H71.1231V222.504ZM81.9516 216.792C82.6556 216.232 83.4076 215.824 84.2076 215.568C85.0236 215.296 85.8396 215.16 86.6556 215.16C87.2316 215.16 87.7756 215.232 88.2876 215.376C88.8156 215.504 89.2796 215.704 89.6796 215.976C90.0796 216.248 90.3996 216.6 90.6396 217.032C90.8796 217.448 90.9996 217.944 90.9996 218.52C90.9996 219.144 90.8236 219.72 90.4716 220.248C90.1196 220.76 89.6236 221.08 88.9836 221.208C89.8796 221.432 90.5516 221.832 90.9996 222.408C91.4476 222.968 91.6716 223.648 91.6716 224.448C91.6716 225.008 91.5356 225.52 91.2636 225.984C91.0076 226.448 90.6476 226.848 90.1836 227.184C89.7356 227.52 89.1916 227.784 88.5516 227.976C87.9276 228.152 87.2556 228.24 86.5356 228.24C85.4796 228.24 84.5036 228.08 83.6076 227.76C82.7276 227.44 82.0396 227 81.5436 226.44L83.2956 223.992C83.5676 224.328 83.9436 224.592 84.4236 224.784C84.9036 224.976 85.4236 225.072 85.9836 225.072C86.5916 225.072 87.0716 224.968 87.4236 224.76C87.7916 224.536 87.9756 224.2 87.9756 223.752C87.9756 223.288 87.7916 222.936 87.4236 222.696C87.0716 222.44 86.4076 222.312 85.4316 222.312H84.3516V220.32H85.3836C86.1356 220.32 86.6956 220.192 87.0636 219.936C87.4476 219.664 87.6396 219.32 87.6396 218.904C87.6396 218.552 87.5036 218.296 87.2316 218.136C86.9756 217.96 86.6396 217.872 86.2236 217.872C85.7916 217.872 85.3196 217.968 84.8076 218.16C84.3116 218.336 83.8716 218.592 83.4876 218.928L81.9516 216.792ZM97.8643 219.888H102.112V215.4H105.928V228H102.112V223.2H97.8643V228H94.0483V215.4H97.8643V219.888ZM115.129 228.24C114.073 228.24 113.121 228.072 112.273 227.736C111.441 227.384 110.729 226.912 110.137 226.32C109.561 225.728 109.121 225.048 108.817 224.28C108.513 223.496 108.361 222.68 108.361 221.832C108.361 220.92 108.513 220.064 108.817 219.264C109.121 218.448 109.561 217.736 110.137 217.128C110.713 216.52 111.417 216.04 112.249 215.688C113.097 215.336 114.057 215.16 115.129 215.16C116.201 215.16 117.153 215.336 117.985 215.688C118.817 216.04 119.521 216.52 120.097 217.128C120.673 217.72 121.105 218.408 121.393 219.192C121.697 219.976 121.849 220.8 121.849 221.664C121.849 221.888 121.841 222.112 121.825 222.336C121.809 222.544 121.785 222.728 121.753 222.888H112.441C112.505 223.736 112.809 224.384 113.353 224.832C113.913 225.264 114.545 225.48 115.249 225.48C115.809 225.48 116.345 225.344 116.857 225.072C117.385 224.8 117.737 224.432 117.913 223.968L121.177 224.88C120.681 225.872 119.913 226.68 118.873 227.304C117.833 227.928 116.585 228.24 115.129 228.24ZM117.793 220.512C117.713 219.712 117.425 219.08 116.929 218.616C116.433 218.152 115.817 217.92 115.081 217.92C114.329 217.92 113.705 218.16 113.209 218.64C112.729 219.104 112.449 219.728 112.369 220.512H117.793ZM123.326 221.688C123.326 220.824 123.478 220 123.782 219.216C124.086 218.416 124.526 217.72 125.102 217.128C125.678 216.52 126.382 216.04 127.214 215.688C128.062 215.336 129.022 215.16 130.094 215.16C131.55 215.16 132.774 215.472 133.766 216.096C134.758 216.704 135.502 217.504 135.998 218.496L132.254 219.624C131.758 218.824 131.03 218.424 130.07 218.424C129.27 218.424 128.598 218.72 128.054 219.312C127.526 219.904 127.262 220.696 127.262 221.688C127.262 222.184 127.334 222.64 127.478 223.056C127.622 223.456 127.822 223.8 128.078 224.088C128.334 224.376 128.63 224.6 128.966 224.76C129.318 224.92 129.686 225 130.07 225C130.55 225 130.99 224.888 131.39 224.664C131.79 224.424 132.086 224.12 132.278 223.752L136.022 224.904C135.558 225.88 134.814 226.68 133.79 227.304C132.782 227.928 131.55 228.24 130.094 228.24C129.038 228.24 128.086 228.064 127.238 227.712C126.406 227.344 125.694 226.864 125.102 226.272C124.526 225.664 124.086 224.968 123.782 224.184C123.478 223.384 123.326 222.552 123.326 221.688ZM141.813 228.24C141.189 228.24 140.605 228.144 140.061 227.952C139.533 227.744 139.077 227.464 138.693 227.112C138.309 226.744 138.005 226.32 137.781 225.84C137.557 225.344 137.445 224.808 137.445 224.232C137.445 223.608 137.573 223.04 137.829 222.528C138.101 222.016 138.477 221.576 138.957 221.208C139.437 220.84 140.005 220.552 140.661 220.344C141.317 220.136 142.045 220.032 142.845 220.032C143.373 220.032 143.885 220.08 144.381 220.176C144.877 220.256 145.309 220.384 145.677 220.56V219.984C145.677 218.528 144.837 217.8 143.157 217.8C142.469 217.8 141.813 217.92 141.189 218.16C140.565 218.384 139.909 218.728 139.221 219.192L138.093 216.792C138.925 216.248 139.789 215.84 140.685 215.568C141.581 215.296 142.533 215.16 143.541 215.16C145.445 215.16 146.917 215.608 147.957 216.504C148.997 217.4 149.517 218.712 149.517 220.44V223.68C149.517 224.064 149.573 224.336 149.685 224.496C149.813 224.64 150.029 224.728 150.333 224.76V228C149.997 228.08 149.693 228.128 149.421 228.144C149.149 228.176 148.901 228.192 148.677 228.192C147.957 228.192 147.413 228.056 147.045 227.784C146.677 227.496 146.445 227.096 146.349 226.584L146.277 226.008C145.717 226.728 145.045 227.28 144.261 227.664C143.493 228.048 142.677 228.24 141.813 228.24ZM142.941 225.48C143.357 225.48 143.757 225.408 144.141 225.264C144.541 225.12 144.869 224.928 145.125 224.688C145.493 224.4 145.677 224.096 145.677 223.776V222.576C145.341 222.448 144.973 222.352 144.573 222.288C144.189 222.208 143.829 222.168 143.493 222.168C142.789 222.168 142.205 222.328 141.741 222.648C141.293 222.968 141.069 223.384 141.069 223.896C141.069 224.36 141.245 224.744 141.597 225.048C141.949 225.336 142.397 225.48 142.941 225.48Z" fill="#95DB3A"/>
<path d="M40.248 81.72L39.8803 82.65H39.8803L40.248 81.72ZM47.352 86.232L46.6566 86.9506L46.6623 86.9561L46.6681 86.9615L47.352 86.232ZM52.056 93.144L51.1291 93.5192L51.1329 93.5286L51.1369 93.5379L52.056 93.144ZM51.864 111.48L50.9536 111.066L50.9502 111.074L51.864 111.48ZM46.488 118.872L45.8236 118.125L45.8132 118.134L46.488 118.872ZM38.424 123.576L38.0962 122.631L38.0877 122.634L38.0792 122.637L38.424 123.576ZM14.616 122.328L14.1688 123.222L14.616 122.328ZM5.592 113.976L4.84833 113.307L4.36527 113.845L4.72376 114.472L5.592 113.976ZM14.136 104.472L14.906 103.834L14.1669 102.942L13.3923 103.803L14.136 104.472ZM20.568 109.848L20.0843 110.723L20.0939 110.728L20.568 109.848ZM35.352 109.272L34.6579 108.552L35.352 109.272ZM35.544 95.736L36.2511 95.0289L35.544 95.736ZM20.664 97.656V98.656H21.2129L21.5077 98.1929L20.664 97.656ZM7.32 97.656H6.32V98.656H7.32V97.656ZM7.704 95.736L8.6826 95.942L8.68458 95.9321L7.704 95.736ZM8.568 90.84L7.58622 90.65L7.58325 90.6653L7.58076 90.6808L8.568 90.84ZM9.816 84.216L8.8364 84.0151L8.83437 84.0249L8.83255 84.0348L9.816 84.216ZM11.352 76.632L12.3326 76.8281L12.3342 76.8201L11.352 76.632ZM15.288 56.184V55.184H14.4628L14.3062 55.9942L15.288 56.184ZM49.176 56.184H50.176V55.184H49.176V56.184ZM49.176 70.2V71.2H50.176V70.2H49.176ZM26.424 70.2V69.2H25.5757L25.4374 70.0369L26.424 70.2ZM24.504 81.816L23.5174 81.6529L22.9336 85.1847L25.2633 82.4668L24.504 81.816ZM26.712 80.664L26.9942 81.6234L27.0113 81.6183L27.0282 81.6127L26.712 80.664ZM31.224 81.088C34.3751 81.088 37.2569 81.6128 39.8803 82.65L40.6157 80.79C37.7351 79.6512 34.6009 79.088 31.224 79.088V81.088ZM39.8803 82.65C42.5191 83.6932 44.7735 85.1283 46.6566 86.9506L48.0474 85.5134C45.9625 83.4957 43.4809 81.9228 40.6157 80.79L39.8803 82.65ZM46.6681 86.9615C48.6068 88.7791 50.0936 90.961 51.1291 93.5192L52.983 92.7688C51.8424 89.951 50.1932 87.5249 48.0359 85.5025L46.6681 86.9615ZM51.1369 93.5379C52.2296 96.0877 52.784 98.9277 52.784 102.072H54.784C54.784 98.6883 54.1864 95.5763 52.9751 92.7501L51.1369 93.5379ZM52.784 102.072C52.784 105.402 52.168 108.395 50.9536 111.066L52.7744 111.894C54.12 108.933 54.784 105.654 54.784 102.072H52.784ZM50.9502 111.074C49.7267 113.827 48.0187 116.173 45.8236 118.125L47.1524 119.619C49.5653 117.475 51.4413 114.893 52.7778 111.886L50.9502 111.074ZM45.8132 118.134C43.6827 120.082 41.1158 121.584 38.0962 122.631L38.7518 124.521C42.0042 123.392 44.8133 121.758 47.1628 119.61L45.8132 118.134ZM38.0792 122.637C35.067 123.744 31.7295 124.304 28.056 124.304V126.304C31.9345 126.304 35.509 125.712 38.7688 124.515L38.0792 122.637ZM28.056 124.304C23.1996 124.304 18.8758 123.34 15.0632 121.434L14.1688 123.222C18.2922 125.284 22.9284 126.304 28.056 126.304V124.304ZM15.0632 121.434C11.258 119.531 8.40289 116.879 6.46024 113.48L4.72376 114.472C6.87711 118.241 10.038 121.157 14.1688 123.222L15.0632 121.434ZM6.33567 114.645L14.8797 105.141L13.3923 103.803L4.84833 113.307L6.33567 114.645ZM13.366 105.11C15.298 107.442 17.5378 109.316 20.0843 110.723L21.0517 108.973C18.7342 107.692 16.686 105.982 14.906 103.834L13.366 105.11ZM20.0939 110.728C22.7197 112.142 25.4093 112.864 28.152 112.864V110.864C25.7747 110.864 23.4083 110.242 21.0421 108.968L20.0939 110.728ZM28.152 112.864C31.3616 112.864 34.0302 111.936 36.0461 109.992L34.6579 108.552C33.0898 110.064 30.9584 110.864 28.152 110.864V112.864ZM36.0461 109.992C38.0646 108.045 39.04 105.465 39.04 102.36H37.04C37.04 105.015 36.2234 107.043 34.6579 108.552L36.0461 109.992ZM39.04 102.36C39.04 99.3913 38.1344 96.9121 36.2511 95.0289L34.8369 96.4431C36.2816 97.8879 37.04 99.8247 37.04 102.36H39.04ZM36.2511 95.0289C34.3724 93.1502 31.9282 92.24 29.016 92.24V94.24C31.4798 94.24 33.3876 94.9938 34.8369 96.4431L36.2511 95.0289ZM29.016 92.24C27.1337 92.24 25.3741 92.6598 23.7534 93.5054L24.6786 95.2786C26.0019 94.5882 27.4423 94.24 29.016 94.24V92.24ZM23.7534 93.5054C22.1251 94.355 20.81 95.564 19.8203 97.1191L21.5077 98.1929C22.31 96.932 23.3629 95.965 24.6786 95.2786L23.7534 93.5054ZM20.664 96.656H7.32V98.656H20.664V96.656ZM8.32 97.656C8.32 97.7389 8.30761 97.801 8.31437 97.7571C8.31637 97.7441 8.32054 97.7192 8.32787 97.6789C8.3423 97.5995 8.36496 97.4822 8.39658 97.3241C8.45957 97.0092 8.55474 96.5491 8.68255 95.942L6.72545 95.53C6.59726 96.1389 6.50043 96.6068 6.43542 96.9319C6.40304 97.0938 6.3777 97.2245 6.36013 97.3211C6.35146 97.3688 6.34363 97.4139 6.33763 97.4529C6.33639 97.461 6.32 97.5571 6.32 97.656H8.32ZM8.68458 95.9321C8.94396 94.6352 9.23419 92.9898 9.55524 90.9992L7.58076 90.6808C7.26181 92.6582 6.97604 94.2768 6.72342 95.5399L8.68458 95.9321ZM9.54978 91.03C9.93446 89.0425 10.351 86.8315 10.7995 84.3972L8.83255 84.0348C8.38498 86.4645 7.96954 88.6695 7.58622 90.65L9.54978 91.03ZM10.7956 84.4169C11.3079 81.9193 11.8203 79.3897 12.3326 76.8281L10.3714 76.4359C9.85973 78.9943 9.34806 81.5207 8.8364 84.0151L10.7956 84.4169ZM12.3342 76.8201C13.486 70.8048 14.7979 63.9893 16.2698 56.3738L14.3062 55.9942C12.8341 63.6107 11.522 70.4272 10.3698 76.4439L12.3342 76.8201ZM15.288 57.184H49.176V55.184H15.288V57.184ZM48.176 56.184V70.2H50.176V56.184H48.176ZM49.176 69.2H26.424V71.2H49.176V69.2ZM25.4374 70.0369L23.5174 81.6529L25.4906 81.9791L27.4106 70.3631L25.4374 70.0369ZM25.2633 82.4668C25.4504 82.2484 25.9479 81.9311 26.9942 81.6234L26.4298 79.7046C25.3001 80.0369 24.3256 80.4876 23.7447 81.1652L25.2633 82.4668ZM27.0282 81.6127C28.0394 81.2756 29.4249 81.088 31.224 81.088V79.088C29.3111 79.088 27.6886 79.2844 26.3958 79.7153L27.0282 81.6127ZM111.059 94.584L111.999 94.9258L112.001 94.9203L111.059 94.584ZM105.779 103.8L106.532 104.459L106.54 104.449L105.779 103.8ZM97.8112 109.848L98.2352 110.754L98.2434 110.75L97.8112 109.848ZM77.9392 109.848L77.5071 110.75L77.5148 110.754L77.5226 110.757L77.9392 109.848ZM69.9713 103.8L69.2106 104.449L69.2187 104.459L69.9713 103.8ZM64.6912 94.584L63.7443 94.9053L63.7478 94.9156L63.7515 94.9257L64.6912 94.584ZM64.6912 71.256L63.7495 70.9196L63.7461 70.9295L64.6912 71.256ZM69.9713 62.04L70.7239 62.6985L70.7318 62.6893L69.9713 62.04ZM97.8112 55.896L97.3717 56.7942L97.3791 56.7978L97.8112 55.896ZM105.779 62.04L105.019 62.6893L105.027 62.6985L105.779 62.04ZM111.059 71.256L110.117 71.5923L110.119 71.5977L111.059 71.256ZM94.8353 72.024L93.9915 72.5609L93.9973 72.5697L94.8353 72.024ZM80.8193 72.024L79.9756 71.4871L79.9724 71.4922L80.8193 72.024ZM80.8193 93.72L79.9724 94.2518L79.9767 94.2588L79.9813 94.2657L80.8193 93.72ZM111.979 82.872C111.979 86.9939 111.355 90.7828 110.118 94.2477L112.001 94.9203C113.324 91.2172 113.979 87.1981 113.979 82.872H111.979ZM110.119 94.2423C108.877 97.6595 107.175 100.625 105.019 103.151L106.54 104.449C108.864 101.727 110.682 98.5485 111.999 94.9257L110.119 94.2423ZM105.027 103.141C102.876 105.599 100.329 107.533 97.3791 108.946L98.2434 110.75C101.437 109.219 104.202 107.121 106.532 104.459L105.027 103.141ZM97.3873 108.942C94.5223 110.283 91.3725 110.96 87.9232 110.96V112.96C91.642 112.96 95.0842 112.229 98.2352 110.754L97.3873 108.942ZM87.9232 110.96C84.4742 110.96 81.2893 110.283 78.3559 108.939L77.5226 110.757C80.7332 112.229 84.2043 112.96 87.9232 112.96V110.96ZM78.3714 108.946C75.4214 107.533 72.8745 105.599 70.7238 103.141L69.2187 104.459C71.548 107.121 74.3131 109.219 77.5071 110.75L78.3714 108.946ZM70.7318 103.151C68.5759 100.625 66.8737 97.6595 65.631 94.2423L63.7515 94.9257C65.0688 98.5485 66.8866 101.727 69.2107 104.449L70.7318 103.151ZM65.6382 94.2627C64.4612 90.7934 63.8672 86.9993 63.8672 82.872H61.8672C61.8672 87.1927 62.4893 91.2065 63.7443 94.9053L65.6382 94.2627ZM63.8672 82.872C63.8672 78.7444 64.4612 74.9844 65.6364 71.5825L63.7461 70.9295C62.4893 74.5676 61.8672 78.5516 61.8672 82.872H63.8672ZM65.633 71.5923C66.8757 68.1126 68.5758 65.1534 70.7238 62.6985L69.2187 61.3815C66.8867 64.0466 65.0668 67.2313 63.7495 70.9197L65.633 71.5923ZM70.7318 62.6893C72.8824 60.1701 75.4269 58.2087 78.3714 56.7978L77.5071 54.9942C74.3076 56.5273 71.5401 58.6619 69.2107 61.3907L70.7318 62.6893ZM78.3714 56.7978C81.3015 55.3938 84.4808 54.688 87.9232 54.688V52.688C84.1977 52.688 80.721 53.4542 77.5071 54.9942L78.3714 56.7978ZM87.9232 54.688C91.3658 54.688 94.51 55.3938 97.3717 56.7942L98.2508 54.9978C95.0965 53.4542 91.6487 52.688 87.9232 52.688V54.688ZM97.3791 56.7978C100.324 58.2087 102.868 60.1701 105.019 62.6893L106.54 61.3907C104.21 58.6619 101.443 56.5273 98.2434 54.9942L97.3791 56.7978ZM105.027 62.6985C107.175 65.1534 108.875 68.1126 110.118 71.5923L112.001 70.9197C110.684 67.2313 108.864 64.0466 106.532 61.3815L105.027 62.6985ZM110.119 71.5977C111.355 74.9951 111.979 78.7498 111.979 82.872H113.979C113.979 78.5462 113.324 74.5568 111.999 70.9143L110.119 71.5977ZM98.5232 82.872C98.5232 78.2667 97.603 74.4418 95.6732 71.4783L93.9973 72.5697C95.6515 75.1102 96.5232 78.5173 96.5232 82.872H98.5232ZM95.6789 71.4871C93.7429 68.4449 91.1489 66.8 87.9232 66.8V68.8C90.3296 68.8 92.3436 69.9711 93.9916 72.5609L95.6789 71.4871ZM87.9232 66.8C84.5867 66.8 81.9222 68.4282 79.9756 71.4871L81.6629 72.5609C83.3003 69.9878 85.3718 68.8 87.9232 68.8V66.8ZM79.9724 71.4922C78.1132 74.4531 77.2272 78.2725 77.2272 82.872H79.2272C79.2272 78.5115 80.0693 75.0989 81.6661 72.5558L79.9724 71.4922ZM77.2272 82.872C77.2272 87.4715 78.1132 91.2909 79.9724 94.2518L81.6661 93.1882C80.0693 90.6451 79.2272 87.2325 79.2272 82.872H77.2272ZM79.9813 94.2657C81.9326 97.2624 84.5974 98.848 87.9232 98.848V96.848C85.3611 96.848 83.2899 95.6816 81.6572 93.1743L79.9813 94.2657ZM87.9232 98.848C91.1381 98.848 93.7324 97.2462 95.6732 94.2657L93.9973 93.1743C92.3541 95.6978 90.3404 96.848 87.9232 96.848V98.848ZM95.6732 94.2657C97.603 91.3022 98.5232 87.4773 98.5232 82.872H96.5232C96.5232 87.2267 95.6515 90.6338 93.9973 93.1743L95.6732 94.2657Z" fill="#95DB3A"/>
<rect y="148" width="263" height="1" fill="url(#paint0_linear_1_1447)"/>
<path d="M263 124L267.775 140.73L284.651 136.5L272.549 149L284.651 161.5L267.775 157.27L263 174L258.225 157.27L241.349 161.5L253.451 149L241.349 136.5L258.225 140.73L263 124Z" fill="url(#paint1_linear_1_1447)"/>
<defs>
<linearGradient id="paint0_linear_1_1447" x1="11.9057" y1="148.38" x2="11.9659" y2="152.545" gradientUnits="userSpaceOnUse">
<stop stop-color="#ACFA49"/>
<stop offset="0.863856" stop-color="#90D638"/>
</linearGradient>
<linearGradient id="paint1_linear_1_1447" x1="240.263" y1="143.016" x2="291.464" y2="156.474" gradientUnits="userSpaceOnUse">
<stop stop-color="#ACFA49"/>
<stop offset="0.863856" stop-color="#90D638"/>
</linearGradient>
</defs>
</svg>
