<svg width="378" height="300" viewBox="0 0 378 300" fill="none" xmlns="http://www.w3.org/2000/svg">
<g filter="url(#filter0_d_1_1391)">
<path fill-rule="evenodd" clip-rule="evenodd" d="M42 2C19.9086 2 2 19.9086 2 42V147C2 169.091 19.9086 187 42 187H43.9606L37.7202 201.7L70.9764 234.014L14 291L100 243.806L70.9764 208.554L95.5479 187H329C351.091 187 369 169.091 369 147V42C369 19.9086 351.091 2 329 2H42Z" fill="white"/>
<path d="M43.9606 187L45.3414 187.586L46.227 185.5H43.9606V187ZM37.7202 201.7L36.3395 201.114L35.9379 202.059L36.6749 202.775L37.7202 201.7ZM70.9764 234.014L72.0372 235.074L73.113 233.998L72.0217 232.938L70.9764 234.014ZM14 291L12.9392 289.939L14.7216 292.315L14 291ZM100 243.806L100.722 245.121L102.309 244.25L101.158 242.852L100 243.806ZM70.9764 208.554L69.9873 207.427L68.8943 208.385L69.8184 209.508L70.9764 208.554ZM95.5479 187V185.5H94.9833L94.5588 185.872L95.5479 187ZM3.5 42C3.5 20.737 20.737 3.5 42 3.5V0.5C19.0802 0.5 0.5 19.0802 0.5 42H3.5ZM3.5 147V42H0.5V147H3.5ZM42 185.5C20.737 185.5 3.5 168.263 3.5 147H0.5C0.5 169.92 19.0802 188.5 42 188.5V185.5ZM43.9606 185.5H42V188.5H43.9606V185.5ZM42.5799 186.414L36.3395 201.114L39.1009 202.286L45.3414 187.586L42.5799 186.414ZM36.6749 202.775L69.9311 235.089L72.0217 232.938L38.7655 200.624L36.6749 202.775ZM69.9157 232.953L12.9392 289.939L15.0608 292.061L72.0372 235.074L69.9157 232.953ZM14.7216 292.315L100.722 245.121L99.2784 242.491L13.2784 289.685L14.7216 292.315ZM101.158 242.852L72.1344 207.601L69.8184 209.508L98.842 244.759L101.158 242.852ZM71.9656 209.682L96.5371 188.128L94.5588 185.872L69.9873 207.427L71.9656 209.682ZM329 185.5H95.5479V188.5H329V185.5ZM367.5 147C367.5 168.263 350.263 185.5 329 185.5V188.5C351.92 188.5 370.5 169.92 370.5 147H367.5ZM367.5 42V147H370.5V42H367.5ZM329 3.5C350.263 3.5 367.5 20.737 367.5 42H370.5C370.5 19.0802 351.92 0.5 329 0.5V3.5ZM42 3.5H329V0.5H42V3.5Z" fill="black"/>
</g>
<path d="M42.852 67.476H43.86L47.748 62.22H50.556L45.966 68.394L50.97 75H48.198L44.094 69.708H42.852V75H40.386V62.22H42.852V67.476ZM55.8622 75.18C55.0942 75.18 54.4042 75.048 53.7922 74.784C53.1802 74.52 52.6582 74.166 52.2262 73.722C51.8062 73.266 51.4822 72.744 51.2542 72.156C51.0262 71.568 50.9122 70.95 50.9122 70.302C50.9122 69.642 51.0262 69.018 51.2542 68.43C51.4822 67.842 51.8062 67.326 52.2262 66.882C52.6582 66.426 53.1802 66.066 53.7922 65.802C54.4042 65.538 55.0942 65.406 55.8622 65.406C56.6302 65.406 57.3142 65.538 57.9142 65.802C58.5262 66.066 59.0422 66.426 59.4622 66.882C59.8942 67.326 60.2242 67.842 60.4522 68.43C60.6802 69.018 60.7942 69.642 60.7942 70.302C60.7942 70.95 60.6802 71.568 60.4522 72.156C60.2242 72.744 59.9002 73.266 59.4802 73.722C59.0602 74.166 58.5442 74.52 57.9322 74.784C57.3202 75.048 56.6302 75.18 55.8622 75.18ZM53.3962 70.302C53.3962 70.722 53.4562 71.106 53.5762 71.454C53.7082 71.79 53.8822 72.084 54.0982 72.336C54.3262 72.588 54.5902 72.786 54.8902 72.93C55.1902 73.062 55.5142 73.128 55.8622 73.128C56.2102 73.128 56.5342 73.062 56.8342 72.93C57.1342 72.786 57.3922 72.588 57.6082 72.336C57.8362 72.084 58.0102 71.784 58.1302 71.436C58.2622 71.088 58.3282 70.704 58.3282 70.284C58.3282 69.876 58.2622 69.498 58.1302 69.15C58.0102 68.802 57.8362 68.502 57.6082 68.25C57.3922 67.998 57.1342 67.806 56.8342 67.674C56.5342 67.53 56.2102 67.458 55.8622 67.458C55.5142 67.458 55.1902 67.53 54.8902 67.674C54.5902 67.818 54.3262 68.016 54.0982 68.268C53.8822 68.52 53.7082 68.82 53.5762 69.168C53.4562 69.516 53.3962 69.894 53.3962 70.302ZM67.7322 70.59L70.5222 65.568H72.9882V75H70.6842V69.33L68.2902 73.578H67.1562L64.7622 69.33V75H62.4582V65.568H64.9422L67.7322 70.59ZM77.7931 75.18C77.3371 75.18 76.9111 75.108 76.5151 74.964C76.1191 74.808 75.7771 74.598 75.4891 74.334C75.2011 74.058 74.9731 73.74 74.8051 73.38C74.6491 73.02 74.5711 72.624 74.5711 72.192C74.5711 71.748 74.6671 71.34 74.8591 70.968C75.0631 70.584 75.3391 70.26 75.6871 69.996C76.0471 69.732 76.4731 69.528 76.9651 69.384C77.4571 69.228 77.9971 69.15 78.5851 69.15C79.0051 69.15 79.4131 69.186 79.8091 69.258C80.2171 69.33 80.5771 69.432 80.8891 69.564V69.024C80.8891 68.4 80.7091 67.92 80.3491 67.584C80.0011 67.248 79.4791 67.08 78.7831 67.08C78.2791 67.08 77.7871 67.17 77.3071 67.35C76.8271 67.53 76.3351 67.794 75.8311 68.142L75.0931 66.612C76.3051 65.808 77.6131 65.406 79.0171 65.406C80.3731 65.406 81.4231 65.742 82.1671 66.414C82.9231 67.074 83.3011 68.034 83.3011 69.294V72.228C83.3011 72.48 83.3431 72.66 83.4271 72.768C83.5231 72.876 83.6731 72.936 83.8771 72.948V75C83.4691 75.084 83.1151 75.126 82.8151 75.126C82.3591 75.126 82.0051 75.024 81.7531 74.82C81.5131 74.616 81.3631 74.346 81.3031 74.01L81.2491 73.488C80.8291 74.04 80.3191 74.46 79.7191 74.748C79.1191 75.036 78.4771 75.18 77.7931 75.18ZM78.4771 73.416C78.8851 73.416 79.2691 73.344 79.6291 73.2C80.0011 73.056 80.2891 72.864 80.4931 72.624C80.7571 72.42 80.8891 72.192 80.8891 71.94V70.86C80.6011 70.752 80.2891 70.668 79.9531 70.608C79.6171 70.536 79.2931 70.5 78.9811 70.5C78.3571 70.5 77.8471 70.644 77.4511 70.932C77.0551 71.208 76.8571 71.562 76.8571 71.994C76.8571 72.402 77.0131 72.744 77.3251 73.02C77.6371 73.284 78.0211 73.416 78.4771 73.416ZM88.0202 69.132H91.7642V65.568H94.1582V75H91.7642V71.184H88.0202V75H85.6262V65.568H88.0202V69.132ZM95.5376 72.912H96.0416C96.3296 72.876 96.5636 72.786 96.7436 72.642C96.9356 72.486 97.0976 72.246 97.2296 71.922C97.3736 71.586 97.4876 71.142 97.5716 70.59C97.6676 70.038 97.7636 69.336 97.8596 68.484L98.1836 65.568H104.79V72.912H106.05V77.7H103.908V75H97.6076V77.7H95.5376V72.912ZM102.396 72.912V67.584H100.29L100.11 69.006C99.9896 69.978 99.8396 70.77 99.6596 71.382C99.4916 71.994 99.2756 72.504 99.0116 72.912H102.396ZM110.26 75.18C109.804 75.18 109.378 75.108 108.982 74.964C108.586 74.808 108.244 74.598 107.956 74.334C107.668 74.058 107.44 73.74 107.272 73.38C107.116 73.02 107.038 72.624 107.038 72.192C107.038 71.748 107.134 71.34 107.326 70.968C107.53 70.584 107.806 70.26 108.154 69.996C108.514 69.732 108.94 69.528 109.432 69.384C109.924 69.228 110.464 69.15 111.052 69.15C111.472 69.15 111.88 69.186 112.276 69.258C112.684 69.33 113.044 69.432 113.356 69.564V69.024C113.356 68.4 113.176 67.92 112.816 67.584C112.468 67.248 111.946 67.08 111.25 67.08C110.746 67.08 110.254 67.17 109.774 67.35C109.294 67.53 108.802 67.794 108.298 68.142L107.56 66.612C108.772 65.808 110.08 65.406 111.484 65.406C112.84 65.406 113.89 65.742 114.634 66.414C115.39 67.074 115.768 68.034 115.768 69.294V72.228C115.768 72.48 115.81 72.66 115.894 72.768C115.99 72.876 116.14 72.936 116.344 72.948V75C115.936 75.084 115.582 75.126 115.282 75.126C114.826 75.126 114.472 75.024 114.22 74.82C113.98 74.616 113.83 74.346 113.77 74.01L113.716 73.488C113.296 74.04 112.786 74.46 112.186 74.748C111.586 75.036 110.944 75.18 110.26 75.18ZM110.944 73.416C111.352 73.416 111.736 73.344 112.096 73.2C112.468 73.056 112.756 72.864 112.96 72.624C113.224 72.42 113.356 72.192 113.356 71.94V70.86C113.068 70.752 112.756 70.668 112.42 70.608C112.084 70.536 111.76 70.5 111.448 70.5C110.824 70.5 110.314 70.644 109.918 70.932C109.522 71.208 109.324 71.562 109.324 71.994C109.324 72.402 109.48 72.744 109.792 73.02C110.104 73.284 110.488 73.416 110.944 73.416ZM133.091 75V66.54L129.797 72.84H128.447L125.153 66.54V75H122.669V62.22H125.333L129.113 69.492L132.929 62.22H135.575V75H133.091ZM150.401 75V65.568H152.813V75H150.401ZM150.401 64.254V61.86H152.813V64.254H150.401ZM160.641 74.514C160.317 74.658 159.921 74.802 159.453 74.946C158.985 75.09 158.493 75.162 157.977 75.162C157.641 75.162 157.323 75.12 157.023 75.036C156.735 74.952 156.477 74.82 156.249 74.64C156.033 74.448 155.859 74.208 155.727 73.92C155.595 73.62 155.529 73.26 155.529 72.84V67.422H154.287V65.568H155.529V62.508H157.941V65.568H159.921V67.422H157.941V72.03C157.941 72.366 158.025 72.606 158.193 72.75C158.373 72.882 158.589 72.948 158.841 72.948C159.093 72.948 159.339 72.906 159.579 72.822C159.819 72.738 160.011 72.666 160.155 72.606L160.641 74.514ZM162.095 76.836C162.299 76.896 162.497 76.938 162.689 76.962C162.881 76.998 163.043 77.016 163.175 77.016C163.331 77.016 163.475 76.986 163.607 76.926C163.739 76.866 163.859 76.758 163.967 76.602C164.075 76.458 164.183 76.254 164.291 75.99C164.399 75.726 164.513 75.396 164.633 75L160.907 65.568H163.391L165.947 72.912L168.215 65.568H170.483L166.523 76.872C166.295 77.532 165.905 78.072 165.353 78.492C164.801 78.912 164.117 79.122 163.301 79.122C163.109 79.122 162.911 79.104 162.707 79.068C162.515 79.044 162.311 78.996 162.095 78.924V76.836ZM179.009 75.162C178.085 75.162 177.245 74.97 176.489 74.586C175.745 74.202 175.199 73.65 174.851 72.93L176.669 71.904C176.897 72.324 177.233 72.648 177.677 72.876C178.121 73.104 178.559 73.218 178.991 73.218C179.603 73.218 180.125 73.026 180.557 72.642C181.001 72.246 181.289 71.718 181.421 71.058H177.839V69.474H181.421C181.277 68.85 180.983 68.34 180.539 67.944C180.095 67.548 179.549 67.35 178.901 67.35C178.481 67.35 178.061 67.446 177.641 67.638C177.233 67.83 176.891 68.142 176.615 68.574L174.977 67.494C175.325 66.882 175.835 66.378 176.507 65.982C177.191 65.586 178.007 65.388 178.955 65.388C179.723 65.388 180.413 65.526 181.025 65.802C181.649 66.078 182.177 66.444 182.609 66.9C183.041 67.356 183.371 67.878 183.599 68.466C183.827 69.042 183.941 69.642 183.941 70.266C183.941 70.89 183.821 71.496 183.581 72.084C183.353 72.672 183.023 73.194 182.591 73.65C182.159 74.106 181.637 74.472 181.025 74.748C180.425 75.024 179.753 75.162 179.009 75.162ZM189.636 75H187.242V67.656H184.29V65.568H192.57V67.656H189.636V75ZM197.876 75.18C197.108 75.18 196.418 75.048 195.806 74.784C195.194 74.52 194.672 74.166 194.24 73.722C193.82 73.266 193.496 72.744 193.268 72.156C193.04 71.568 192.926 70.95 192.926 70.302C192.926 69.642 193.04 69.018 193.268 68.43C193.496 67.842 193.82 67.326 194.24 66.882C194.672 66.426 195.194 66.066 195.806 65.802C196.418 65.538 197.108 65.406 197.876 65.406C198.644 65.406 199.328 65.538 199.928 65.802C200.54 66.066 201.056 66.426 201.476 66.882C201.908 67.326 202.238 67.842 202.466 68.43C202.694 69.018 202.808 69.642 202.808 70.302C202.808 70.95 202.694 71.568 202.466 72.156C202.238 72.744 201.914 73.266 201.494 73.722C201.074 74.166 200.558 74.52 199.946 74.784C199.334 75.048 198.644 75.18 197.876 75.18ZM195.41 70.302C195.41 70.722 195.47 71.106 195.59 71.454C195.722 71.79 195.896 72.084 196.112 72.336C196.34 72.588 196.604 72.786 196.904 72.93C197.204 73.062 197.528 73.128 197.876 73.128C198.224 73.128 198.548 73.062 198.848 72.93C199.148 72.786 199.406 72.588 199.622 72.336C199.85 72.084 200.024 71.784 200.144 71.436C200.276 71.088 200.342 70.704 200.342 70.284C200.342 69.876 200.276 69.498 200.144 69.15C200.024 68.802 199.85 68.502 199.622 68.25C199.406 67.998 199.148 67.806 198.848 67.674C198.548 67.53 198.224 67.458 197.876 67.458C197.528 67.458 197.204 67.53 196.904 67.674C196.604 67.818 196.34 68.016 196.112 68.268C195.896 68.52 195.722 68.82 195.59 69.168C195.47 69.516 195.41 69.894 195.41 70.302ZM214.07 70.59L216.86 65.568H219.326V75H217.022V69.33L214.628 73.578H213.494L211.1 69.33V75H208.796V65.568H211.28L214.07 70.59ZM224.131 75.18C223.675 75.18 223.249 75.108 222.853 74.964C222.457 74.808 222.115 74.598 221.827 74.334C221.539 74.058 221.311 73.74 221.143 73.38C220.987 73.02 220.909 72.624 220.909 72.192C220.909 71.748 221.005 71.34 221.197 70.968C221.401 70.584 221.677 70.26 222.025 69.996C222.385 69.732 222.811 69.528 223.303 69.384C223.795 69.228 224.335 69.15 224.923 69.15C225.343 69.15 225.751 69.186 226.147 69.258C226.555 69.33 226.915 69.432 227.227 69.564V69.024C227.227 68.4 227.047 67.92 226.687 67.584C226.339 67.248 225.817 67.08 225.121 67.08C224.617 67.08 224.125 67.17 223.645 67.35C223.165 67.53 222.673 67.794 222.169 68.142L221.431 66.612C222.643 65.808 223.951 65.406 225.355 65.406C226.711 65.406 227.761 65.742 228.505 66.414C229.261 67.074 229.639 68.034 229.639 69.294V72.228C229.639 72.48 229.681 72.66 229.765 72.768C229.861 72.876 230.011 72.936 230.215 72.948V75C229.807 75.084 229.453 75.126 229.153 75.126C228.697 75.126 228.343 75.024 228.091 74.82C227.851 74.616 227.701 74.346 227.641 74.01L227.587 73.488C227.167 74.04 226.657 74.46 226.057 74.748C225.457 75.036 224.815 75.18 224.131 75.18ZM224.815 73.416C225.223 73.416 225.607 73.344 225.967 73.2C226.339 73.056 226.627 72.864 226.831 72.624C227.095 72.42 227.227 72.192 227.227 71.94V70.86C226.939 70.752 226.627 70.668 226.291 70.608C225.955 70.536 225.631 70.5 225.319 70.5C224.695 70.5 224.185 70.644 223.789 70.932C223.393 71.208 223.195 71.562 223.195 71.994C223.195 72.402 223.351 72.744 223.663 73.02C223.975 73.284 224.359 73.416 224.815 73.416ZM231.964 75V65.568H234.358V72.912H236.986V65.568H239.38V72.912H242.008V65.568H244.402V75H231.964ZM249.071 71.562L253.535 65.568H255.317V75H252.923V69.168L248.513 75H246.677V65.568H249.071V71.562ZM259.987 69.132H263.731V65.568H266.125V75H263.731V71.184H259.987V75H257.593V65.568H259.987V69.132ZM270.906 75.18C270.45 75.18 270.024 75.108 269.628 74.964C269.232 74.808 268.89 74.598 268.602 74.334C268.314 74.058 268.086 73.74 267.918 73.38C267.762 73.02 267.684 72.624 267.684 72.192C267.684 71.748 267.78 71.34 267.972 70.968C268.176 70.584 268.452 70.26 268.8 69.996C269.16 69.732 269.586 69.528 270.078 69.384C270.57 69.228 271.11 69.15 271.698 69.15C272.118 69.15 272.526 69.186 272.922 69.258C273.33 69.33 273.69 69.432 274.002 69.564V69.024C274.002 68.4 273.822 67.92 273.462 67.584C273.114 67.248 272.592 67.08 271.896 67.08C271.392 67.08 270.9 67.17 270.42 67.35C269.94 67.53 269.448 67.794 268.944 68.142L268.206 66.612C269.418 65.808 270.726 65.406 272.13 65.406C273.486 65.406 274.536 65.742 275.28 66.414C276.036 67.074 276.414 68.034 276.414 69.294V72.228C276.414 72.48 276.456 72.66 276.54 72.768C276.636 72.876 276.786 72.936 276.99 72.948V75C276.582 75.084 276.228 75.126 275.928 75.126C275.472 75.126 275.118 75.024 274.866 74.82C274.626 74.616 274.476 74.346 274.416 74.01L274.362 73.488C273.942 74.04 273.432 74.46 272.832 74.748C272.232 75.036 271.59 75.18 270.906 75.18ZM271.59 73.416C271.998 73.416 272.382 73.344 272.742 73.2C273.114 73.056 273.402 72.864 273.606 72.624C273.87 72.42 274.002 72.192 274.002 71.94V70.86C273.714 70.752 273.402 70.668 273.066 70.608C272.73 70.536 272.406 70.5 272.094 70.5C271.47 70.5 270.96 70.644 270.564 70.932C270.168 71.208 269.97 71.562 269.97 71.994C269.97 72.402 270.126 72.744 270.438 73.02C270.75 73.284 271.134 73.416 271.59 73.416ZM291.326 75H288.932V67.656H285.458V75H283.064V65.568H291.326V75ZM297.895 75.18C297.127 75.18 296.437 75.048 295.825 74.784C295.213 74.52 294.691 74.166 294.259 73.722C293.839 73.266 293.515 72.744 293.287 72.156C293.059 71.568 292.945 70.95 292.945 70.302C292.945 69.642 293.059 69.018 293.287 68.43C293.515 67.842 293.839 67.326 294.259 66.882C294.691 66.426 295.213 66.066 295.825 65.802C296.437 65.538 297.127 65.406 297.895 65.406C298.663 65.406 299.347 65.538 299.947 65.802C300.559 66.066 301.075 66.426 301.495 66.882C301.927 67.326 302.257 67.842 302.485 68.43C302.713 69.018 302.827 69.642 302.827 70.302C302.827 70.95 302.713 71.568 302.485 72.156C302.257 72.744 301.933 73.266 301.513 73.722C301.093 74.166 300.577 74.52 299.965 74.784C299.353 75.048 298.663 75.18 297.895 75.18ZM295.429 70.302C295.429 70.722 295.489 71.106 295.609 71.454C295.741 71.79 295.915 72.084 296.131 72.336C296.359 72.588 296.623 72.786 296.923 72.93C297.223 73.062 297.547 73.128 297.895 73.128C298.243 73.128 298.567 73.062 298.867 72.93C299.167 72.786 299.425 72.588 299.641 72.336C299.869 72.084 300.043 71.784 300.163 71.436C300.295 71.088 300.361 70.704 300.361 70.284C300.361 69.876 300.295 69.498 300.163 69.15C300.043 68.802 299.869 68.502 299.641 68.25C299.425 67.998 299.167 67.806 298.867 67.674C298.567 67.53 298.243 67.458 297.895 67.458C297.547 67.458 297.223 67.53 296.923 67.674C296.623 67.818 296.359 68.016 296.131 68.268C295.915 68.52 295.741 68.82 295.609 69.168C295.489 69.516 295.429 69.894 295.429 70.302ZM48.396 104H46.002V96.656H42.528V104H40.134V94.568H48.396V104ZM56.2977 104.18C55.5537 104.18 54.9057 104.018 54.3537 103.694C53.8017 103.358 53.3697 102.908 53.0577 102.344V107.834H50.6457V94.568H52.7517V96.188C53.0997 95.636 53.5497 95.204 54.1017 94.892C54.6537 94.568 55.2897 94.406 56.0097 94.406C56.6457 94.406 57.2337 94.538 57.7737 94.802C58.3137 95.054 58.7757 95.402 59.1597 95.846C59.5557 96.278 59.8617 96.794 60.0777 97.394C60.3057 97.982 60.4197 98.606 60.4197 99.266C60.4197 99.95 60.3177 100.592 60.1137 101.192C59.9097 101.792 59.6217 102.314 59.2497 102.758C58.8897 103.202 58.4577 103.55 57.9537 103.802C57.4497 104.054 56.8977 104.18 56.2977 104.18ZM55.4877 102.128C55.8477 102.128 56.1777 102.05 56.4777 101.894C56.7897 101.738 57.0537 101.528 57.2697 101.264C57.4857 101 57.6537 100.694 57.7737 100.346C57.8937 99.998 57.9537 99.638 57.9537 99.266C57.9537 98.87 57.8877 98.504 57.7557 98.168C57.6237 97.82 57.4377 97.52 57.1977 97.268C56.9697 97.016 56.6937 96.818 56.3697 96.674C56.0577 96.53 55.7157 96.458 55.3437 96.458C55.1157 96.458 54.8817 96.5 54.6417 96.584C54.4017 96.656 54.1797 96.764 53.9757 96.908C53.7717 97.052 53.5857 97.22 53.4177 97.412C53.2617 97.604 53.1417 97.814 53.0577 98.042V100.256C53.2737 100.796 53.6037 101.246 54.0477 101.606C54.4917 101.954 54.9717 102.128 55.4877 102.128ZM66.3915 104.18C65.6235 104.18 64.9335 104.048 64.3215 103.784C63.7095 103.52 63.1875 103.166 62.7555 102.722C62.3355 102.266 62.0115 101.744 61.7835 101.156C61.5555 100.568 61.4415 99.95 61.4415 99.302C61.4415 98.642 61.5555 98.018 61.7835 97.43C62.0115 96.842 62.3355 96.326 62.7555 95.882C63.1875 95.426 63.7095 95.066 64.3215 94.802C64.9335 94.538 65.6235 94.406 66.3915 94.406C67.1595 94.406 67.8435 94.538 68.4435 94.802C69.0555 95.066 69.5715 95.426 69.9915 95.882C70.4235 96.326 70.7535 96.842 70.9815 97.43C71.2095 98.018 71.3235 98.642 71.3235 99.302C71.3235 99.95 71.2095 100.568 70.9815 101.156C70.7535 101.744 70.4295 102.266 70.0095 102.722C69.5895 103.166 69.0735 103.52 68.4615 103.784C67.8495 104.048 67.1595 104.18 66.3915 104.18ZM63.9255 99.302C63.9255 99.722 63.9855 100.106 64.1055 100.454C64.2375 100.79 64.4115 101.084 64.6275 101.336C64.8555 101.588 65.1195 101.786 65.4195 101.93C65.7195 102.062 66.0435 102.128 66.3915 102.128C66.7395 102.128 67.0635 102.062 67.3635 101.93C67.6635 101.786 67.9215 101.588 68.1375 101.336C68.3655 101.084 68.5395 100.784 68.6595 100.436C68.7915 100.088 68.8575 99.704 68.8575 99.284C68.8575 98.876 68.7915 98.498 68.6595 98.15C68.5395 97.802 68.3655 97.502 68.1375 97.25C67.9215 96.998 67.6635 96.806 67.3635 96.674C67.0635 96.53 66.7395 96.458 66.3915 96.458C66.0435 96.458 65.7195 96.53 65.4195 96.674C65.1195 96.818 64.8555 97.016 64.6275 97.268C64.4115 97.52 64.2375 97.82 64.1055 98.168C63.9855 98.516 63.9255 98.894 63.9255 99.302ZM75.3815 100.562L79.8455 94.568H81.6275V104H79.2335V98.168L74.8235 104H72.9875V94.568H75.3815V100.562ZM83.3815 95.594C83.8495 95.186 84.3595 94.886 84.9115 94.694C85.4635 94.502 86.0275 94.406 86.6035 94.406C87.0235 94.406 87.4195 94.46 87.7915 94.568C88.1635 94.664 88.4875 94.814 88.7635 95.018C89.0515 95.222 89.2735 95.48 89.4295 95.792C89.5975 96.092 89.6815 96.44 89.6815 96.836C89.6815 97.34 89.5435 97.784 89.2675 98.168C89.0035 98.54 88.6255 98.774 88.1335 98.87C88.8175 99.002 89.3335 99.284 89.6815 99.716C90.0295 100.136 90.2035 100.664 90.2035 101.3C90.2035 101.732 90.1075 102.128 89.9155 102.488C89.7355 102.836 89.4835 103.136 89.1595 103.388C88.8355 103.64 88.4455 103.838 87.9895 103.982C87.5455 104.114 87.0595 104.18 86.5315 104.18C85.7995 104.18 85.1335 104.06 84.5335 103.82C83.9335 103.58 83.4475 103.244 83.0755 102.812L84.2275 101.264C84.4675 101.564 84.7615 101.792 85.1095 101.948C85.4695 102.092 85.8595 102.164 86.2795 102.164C86.7835 102.164 87.1735 102.062 87.4495 101.858C87.7375 101.654 87.8815 101.36 87.8815 100.976C87.8815 100.544 87.7195 100.214 87.3955 99.986C87.0835 99.746 86.5495 99.626 85.7935 99.626H85.0555V98.24H85.7755C86.3515 98.24 86.7895 98.132 87.0895 97.916C87.4015 97.688 87.5575 97.4 87.5575 97.052C87.5575 96.752 87.4435 96.524 87.2155 96.368C86.9995 96.212 86.7115 96.134 86.3515 96.134C86.0395 96.134 85.7095 96.206 85.3615 96.35C85.0135 96.482 84.6955 96.68 84.4075 96.944L83.3815 95.594ZM97.4293 94.568C97.7773 94.568 98.0953 94.634 98.3833 94.766C98.6713 94.886 98.9173 95.054 99.1213 95.27C99.3373 95.486 99.4993 95.738 99.6073 96.026C99.7273 96.314 99.7873 96.62 99.7873 96.944C99.7873 97.352 99.6793 97.766 99.4633 98.186C99.2473 98.594 98.8933 98.9 98.4013 99.104C98.9533 99.26 99.3853 99.53 99.6973 99.914C100.021 100.286 100.183 100.796 100.183 101.444C100.183 102.308 99.8833 102.95 99.2833 103.37C98.6833 103.79 97.8553 104 96.7993 104H91.8493V94.568H97.4293ZM96.2953 98.51C96.6313 98.51 96.9013 98.414 97.1053 98.222C97.3093 98.03 97.4113 97.754 97.4113 97.394C97.4113 97.094 97.3213 96.842 97.1413 96.638C96.9733 96.422 96.7153 96.314 96.3673 96.314H94.2433V98.51H96.2953ZM96.6193 102.254C96.9673 102.254 97.2433 102.14 97.4473 101.912C97.6633 101.684 97.7713 101.408 97.7713 101.084C97.7713 100.748 97.6693 100.472 97.4653 100.256C97.2613 100.028 96.9853 99.914 96.6373 99.914H94.2433V102.254H96.6193ZM106.171 104.18C105.403 104.18 104.713 104.048 104.101 103.784C103.489 103.52 102.967 103.166 102.535 102.722C102.115 102.266 101.791 101.744 101.563 101.156C101.335 100.568 101.221 99.95 101.221 99.302C101.221 98.642 101.335 98.018 101.563 97.43C101.791 96.842 102.115 96.326 102.535 95.882C102.967 95.426 103.489 95.066 104.101 94.802C104.713 94.538 105.403 94.406 106.171 94.406C106.939 94.406 107.623 94.538 108.223 94.802C108.835 95.066 109.351 95.426 109.771 95.882C110.203 96.326 110.533 96.842 110.761 97.43C110.989 98.018 111.103 98.642 111.103 99.302C111.103 99.95 110.989 100.568 110.761 101.156C110.533 101.744 110.209 102.266 109.789 102.722C109.369 103.166 108.853 103.52 108.241 103.784C107.629 104.048 106.939 104.18 106.171 104.18ZM103.705 99.302C103.705 99.722 103.765 100.106 103.885 100.454C104.017 100.79 104.191 101.084 104.407 101.336C104.635 101.588 104.899 101.786 105.199 101.93C105.499 102.062 105.823 102.128 106.171 102.128C106.519 102.128 106.843 102.062 107.143 101.93C107.443 101.786 107.701 101.588 107.917 101.336C108.145 101.084 108.319 100.784 108.439 100.436C108.571 100.088 108.637 99.704 108.637 99.284C108.637 98.876 108.571 98.498 108.439 98.15C108.319 97.802 108.145 97.502 107.917 97.25C107.701 96.998 107.443 96.806 107.143 96.674C106.843 96.53 106.519 96.458 106.171 96.458C105.823 96.458 105.499 96.53 105.199 96.674C104.899 96.818 104.635 97.016 104.407 97.268C104.191 97.52 104.017 97.82 103.885 98.168C103.765 98.516 103.705 98.894 103.705 99.302ZM111.499 101.912H112.003C112.291 101.876 112.525 101.786 112.705 101.642C112.897 101.486 113.059 101.246 113.191 100.922C113.335 100.586 113.449 100.142 113.533 99.59C113.629 99.038 113.725 98.336 113.821 97.484L114.145 94.568H120.751V101.912H122.011V106.7H119.869V104H113.569V106.7H111.499V101.912ZM118.357 101.912V96.584H116.251L116.071 98.006C115.951 98.978 115.801 99.77 115.621 100.382C115.453 100.994 115.237 101.504 114.973 101.912H118.357ZM122.947 99.284C122.947 98.624 123.061 98 123.289 97.412C123.517 96.824 123.847 96.308 124.279 95.864C124.711 95.42 125.233 95.066 125.845 94.802C126.457 94.538 127.147 94.406 127.915 94.406C128.947 94.406 129.823 94.628 130.543 95.072C131.275 95.516 131.821 96.098 132.181 96.818L129.823 97.538C129.619 97.19 129.349 96.926 129.013 96.746C128.677 96.554 128.305 96.458 127.897 96.458C127.549 96.458 127.225 96.53 126.925 96.674C126.625 96.806 126.361 96.998 126.133 97.25C125.917 97.49 125.743 97.784 125.611 98.132C125.491 98.48 125.431 98.864 125.431 99.284C125.431 99.704 125.497 100.088 125.629 100.436C125.761 100.784 125.935 101.084 126.151 101.336C126.379 101.588 126.643 101.786 126.943 101.93C127.243 102.062 127.561 102.128 127.897 102.128C128.329 102.128 128.725 102.02 129.085 101.804C129.457 101.588 129.715 101.324 129.859 101.012L132.217 101.732C131.893 102.452 131.359 103.04 130.615 103.496C129.871 103.952 128.977 104.18 127.933 104.18C127.165 104.18 126.475 104.048 125.863 103.784C125.251 103.52 124.729 103.166 124.297 102.722C123.865 102.266 123.529 101.744 123.289 101.156C123.061 100.556 122.947 99.932 122.947 99.284ZM138.256 104H135.862V96.656H132.91V94.568H141.19V96.656H138.256V104ZM148.23 94.568C148.578 94.568 148.896 94.634 149.184 94.766C149.472 94.886 149.718 95.054 149.922 95.27C150.138 95.486 150.3 95.738 150.408 96.026C150.528 96.314 150.588 96.62 150.588 96.944C150.588 97.352 150.48 97.766 150.264 98.186C150.048 98.594 149.694 98.9 149.202 99.104C149.754 99.26 150.186 99.53 150.498 99.914C150.822 100.286 150.984 100.796 150.984 101.444C150.984 102.308 150.684 102.95 150.084 103.37C149.484 103.79 148.656 104 147.6 104H142.65V94.568H148.23ZM147.096 98.51C147.432 98.51 147.702 98.414 147.906 98.222C148.11 98.03 148.212 97.754 148.212 97.394C148.212 97.094 148.122 96.842 147.942 96.638C147.774 96.422 147.516 96.314 147.168 96.314H145.044V98.51H147.096ZM147.42 102.254C147.768 102.254 148.044 102.14 148.248 101.912C148.464 101.684 148.572 101.408 148.572 101.084C148.572 100.748 148.47 100.472 148.266 100.256C148.062 100.028 147.786 99.914 147.438 99.914H145.044V102.254H147.42ZM152.639 105.692C152.843 105.812 153.035 105.896 153.215 105.944C153.407 105.992 153.587 106.016 153.755 106.016C154.055 106.016 154.313 105.866 154.529 105.566C154.745 105.278 154.937 104.756 155.105 104L151.379 94.568H153.863L156.419 101.912L158.687 94.568H160.955L157.247 105.224C156.887 106.256 156.443 106.994 155.915 107.438C155.399 107.882 154.763 108.104 154.007 108.104C153.731 108.104 153.485 108.08 153.269 108.032C153.053 107.984 152.843 107.894 152.639 107.762V105.692ZM172.404 94.568H174.996L171.324 99.14L175.284 104H172.548L169.632 100.364H169.002V104H166.626V94.568H169.002V98.312H169.542L172.404 94.568ZM178.779 104.18C178.323 104.18 177.897 104.108 177.501 103.964C177.105 103.808 176.763 103.598 176.475 103.334C176.187 103.058 175.959 102.74 175.791 102.38C175.635 102.02 175.557 101.624 175.557 101.192C175.557 100.748 175.653 100.34 175.845 99.968C176.049 99.584 176.325 99.26 176.673 98.996C177.033 98.732 177.459 98.528 177.951 98.384C178.443 98.228 178.983 98.15 179.571 98.15C179.991 98.15 180.399 98.186 180.795 98.258C181.203 98.33 181.563 98.432 181.875 98.564V98.024C181.875 97.4 181.695 96.92 181.335 96.584C180.987 96.248 180.465 96.08 179.769 96.08C179.265 96.08 178.773 96.17 178.293 96.35C177.813 96.53 177.321 96.794 176.817 97.142L176.079 95.612C177.291 94.808 178.599 94.406 180.003 94.406C181.359 94.406 182.409 94.742 183.153 95.414C183.909 96.074 184.287 97.034 184.287 98.294V101.228C184.287 101.48 184.329 101.66 184.413 101.768C184.509 101.876 184.659 101.936 184.863 101.948V104C184.455 104.084 184.101 104.126 183.801 104.126C183.345 104.126 182.991 104.024 182.739 103.82C182.499 103.616 182.349 103.346 182.289 103.01L182.235 102.488C181.815 103.04 181.305 103.46 180.705 103.748C180.105 104.036 179.463 104.18 178.779 104.18ZM179.463 102.416C179.871 102.416 180.255 102.344 180.615 102.2C180.987 102.056 181.275 101.864 181.479 101.624C181.743 101.42 181.875 101.192 181.875 100.94V99.86C181.587 99.752 181.275 99.668 180.939 99.608C180.603 99.536 180.279 99.5 179.967 99.5C179.343 99.5 178.833 99.644 178.437 99.932C178.041 100.208 177.843 100.562 177.843 100.994C177.843 101.402 177.999 101.744 178.311 102.02C178.623 102.284 179.007 102.416 179.463 102.416ZM193.579 104H191.221V100.634C190.945 100.73 190.657 100.802 190.357 100.85C190.069 100.898 189.703 100.922 189.259 100.922C188.719 100.922 188.251 100.838 187.855 100.67C187.459 100.49 187.129 100.256 186.865 99.968C186.601 99.668 186.403 99.32 186.271 98.924C186.139 98.528 186.073 98.102 186.073 97.646V94.568H188.395V97.286C188.395 97.91 188.521 98.354 188.773 98.618C189.025 98.882 189.379 99.014 189.835 99.014C190.171 99.014 190.447 98.984 190.663 98.924C190.891 98.852 191.077 98.762 191.221 98.654V94.568H193.579V104ZM200.179 104.18C199.423 104.18 198.739 104.054 198.127 103.802C197.515 103.538 196.993 103.184 196.561 102.74C196.129 102.296 195.793 101.78 195.553 101.192C195.325 100.604 195.211 99.986 195.211 99.338C195.211 98.666 195.325 98.036 195.553 97.448C195.781 96.848 196.111 96.326 196.543 95.882C196.975 95.426 197.497 95.066 198.109 94.802C198.733 94.538 199.429 94.406 200.197 94.406C200.965 94.406 201.649 94.538 202.249 94.802C202.861 95.066 203.377 95.42 203.797 95.864C204.229 96.308 204.553 96.824 204.769 97.412C204.997 98 205.111 98.612 205.111 99.248C205.111 99.404 205.105 99.554 205.093 99.698C205.093 99.842 205.081 99.962 205.057 100.058H197.767C197.803 100.43 197.893 100.76 198.037 101.048C198.181 101.336 198.367 101.582 198.595 101.786C198.823 101.99 199.081 102.146 199.369 102.254C199.657 102.362 199.957 102.416 200.269 102.416C200.749 102.416 201.199 102.302 201.619 102.074C202.051 101.834 202.345 101.522 202.501 101.138L204.571 101.714C204.223 102.434 203.665 103.028 202.897 103.496C202.141 103.952 201.235 104.18 200.179 104.18ZM202.627 98.492C202.567 97.784 202.303 97.22 201.835 96.8C201.379 96.368 200.821 96.152 200.161 96.152C199.837 96.152 199.531 96.212 199.243 96.332C198.967 96.44 198.721 96.596 198.505 96.8C198.289 97.004 198.109 97.25 197.965 97.538C197.833 97.826 197.755 98.144 197.731 98.492H202.627ZM205.986 99.284C205.986 98.624 206.1 98 206.328 97.412C206.556 96.824 206.886 96.308 207.318 95.864C207.75 95.42 208.272 95.066 208.884 94.802C209.496 94.538 210.186 94.406 210.954 94.406C211.986 94.406 212.862 94.628 213.582 95.072C214.314 95.516 214.86 96.098 215.22 96.818L212.862 97.538C212.658 97.19 212.388 96.926 212.052 96.746C211.716 96.554 211.344 96.458 210.936 96.458C210.588 96.458 210.264 96.53 209.964 96.674C209.664 96.806 209.4 96.998 209.172 97.25C208.956 97.49 208.782 97.784 208.65 98.132C208.53 98.48 208.47 98.864 208.47 99.284C208.47 99.704 208.536 100.088 208.668 100.436C208.8 100.784 208.974 101.084 209.19 101.336C209.418 101.588 209.682 101.786 209.982 101.93C210.282 102.062 210.6 102.128 210.936 102.128C211.368 102.128 211.764 102.02 212.124 101.804C212.496 101.588 212.754 101.324 212.898 101.012L215.256 101.732C214.932 102.452 214.398 103.04 213.654 103.496C212.91 103.952 212.016 104.18 210.972 104.18C210.204 104.18 209.514 104.048 208.902 103.784C208.29 103.52 207.768 103.166 207.336 102.722C206.904 102.266 206.568 101.744 206.328 101.156C206.1 100.556 205.986 99.932 205.986 99.284ZM221.295 104H218.901V96.656H215.949V94.568H224.229V96.656H221.295V104ZM231.269 94.568C231.617 94.568 231.935 94.634 232.223 94.766C232.511 94.886 232.757 95.054 232.961 95.27C233.177 95.486 233.339 95.738 233.447 96.026C233.567 96.314 233.627 96.62 233.627 96.944C233.627 97.352 233.519 97.766 233.303 98.186C233.087 98.594 232.733 98.9 232.241 99.104C232.793 99.26 233.225 99.53 233.537 99.914C233.861 100.286 234.023 100.796 234.023 101.444C234.023 102.308 233.723 102.95 233.123 103.37C232.523 103.79 231.695 104 230.639 104H225.689V94.568H231.269ZM230.135 98.51C230.471 98.51 230.741 98.414 230.945 98.222C231.149 98.03 231.251 97.754 231.251 97.394C231.251 97.094 231.161 96.842 230.981 96.638C230.813 96.422 230.555 96.314 230.207 96.314H228.083V98.51H230.135ZM230.459 102.254C230.807 102.254 231.083 102.14 231.287 101.912C231.503 101.684 231.611 101.408 231.611 101.084C231.611 100.748 231.509 100.472 231.305 100.256C231.101 100.028 230.825 99.914 230.477 99.914H228.083V102.254H230.459ZM240.029 104.18C239.273 104.18 238.589 104.054 237.977 103.802C237.365 103.538 236.843 103.184 236.411 102.74C235.979 102.296 235.643 101.78 235.403 101.192C235.175 100.604 235.061 99.986 235.061 99.338C235.061 98.666 235.175 98.036 235.403 97.448C235.631 96.848 235.961 96.326 236.393 95.882C236.825 95.426 237.347 95.066 237.959 94.802C238.583 94.538 239.279 94.406 240.047 94.406C240.815 94.406 241.499 94.538 242.099 94.802C242.711 95.066 243.227 95.42 243.647 95.864C244.079 96.308 244.403 96.824 244.619 97.412C244.847 98 244.961 98.612 244.961 99.248C244.961 99.404 244.955 99.554 244.943 99.698C244.943 99.842 244.931 99.962 244.907 100.058H237.617C237.653 100.43 237.743 100.76 237.887 101.048C238.031 101.336 238.217 101.582 238.445 101.786C238.673 101.99 238.931 102.146 239.219 102.254C239.507 102.362 239.807 102.416 240.119 102.416C240.599 102.416 241.049 102.302 241.469 102.074C241.901 101.834 242.195 101.522 242.351 101.138L244.421 101.714C244.073 102.434 243.515 103.028 242.747 103.496C241.991 103.952 241.085 104.18 240.029 104.18ZM242.477 98.492C242.417 97.784 242.153 97.22 241.685 96.8C241.229 96.368 240.671 96.152 240.011 96.152C239.687 96.152 239.381 96.212 239.093 96.332C238.817 96.44 238.571 96.596 238.355 96.8C238.139 97.004 237.959 97.25 237.815 97.538C237.683 97.826 237.605 98.144 237.581 98.492H242.477ZM248.86 98.132H252.604V94.568H254.998V104H252.604V100.184H248.86V104H246.466V94.568H248.86V98.132ZM259.635 98.132H263.379V94.568H265.773V104H263.379V100.184H259.635V104H257.241V94.568H259.635V98.132ZM268.017 94.568H270.411V97.556H271.995C272.511 97.556 272.985 97.628 273.417 97.772C273.861 97.904 274.245 98.108 274.569 98.384C274.893 98.648 275.145 98.984 275.325 99.392C275.517 99.788 275.613 100.244 275.613 100.76C275.613 101.288 275.523 101.756 275.343 102.164C275.163 102.56 274.911 102.896 274.587 103.172C274.275 103.448 273.903 103.658 273.471 103.802C273.051 103.934 272.589 104 272.085 104H268.017V94.568ZM276.639 94.568H279.015V104H276.639V94.568ZM271.833 102.11C272.241 102.11 272.565 102.002 272.805 101.786C273.045 101.558 273.165 101.228 273.165 100.796C273.165 100.364 273.039 100.034 272.787 99.806C272.535 99.566 272.217 99.446 271.833 99.446H270.411V102.11H271.833ZM282.746 94.568L284.78 97.52L284.924 97.844L285.104 97.52L287.12 94.568H289.604L286.238 99.302L289.658 104H287.174L285.086 101.066L284.924 100.76L284.78 101.066L282.71 104H280.226L283.628 99.302L280.28 94.568H282.746ZM39.504 128.284C39.504 127.624 39.618 127 39.846 126.412C40.074 125.824 40.404 125.308 40.836 124.864C41.268 124.42 41.79 124.066 42.402 123.802C43.014 123.538 43.704 123.406 44.472 123.406C45.504 123.406 46.38 123.628 47.1 124.072C47.832 124.516 48.378 125.098 48.738 125.818L46.38 126.538C46.176 126.19 45.906 125.926 45.57 125.746C45.234 125.554 44.862 125.458 44.454 125.458C44.106 125.458 43.782 125.53 43.482 125.674C43.182 125.806 42.918 125.998 42.69 126.25C42.474 126.49 42.3 126.784 42.168 127.132C42.048 127.48 41.988 127.864 41.988 128.284C41.988 128.704 42.054 129.088 42.186 129.436C42.318 129.784 42.492 130.084 42.708 130.336C42.936 130.588 43.2 130.786 43.5 130.93C43.8 131.062 44.118 131.128 44.454 131.128C44.886 131.128 45.282 131.02 45.642 130.804C46.014 130.588 46.272 130.324 46.416 130.012L48.774 130.732C48.45 131.452 47.916 132.04 47.172 132.496C46.428 132.952 45.534 133.18 44.49 133.18C43.722 133.18 43.032 133.048 42.42 132.784C41.808 132.52 41.286 132.166 40.854 131.722C40.422 131.266 40.086 130.744 39.846 130.156C39.618 129.556 39.504 128.932 39.504 128.284ZM52.8322 133.18C52.3762 133.18 51.9502 133.108 51.5542 132.964C51.1582 132.808 50.8162 132.598 50.5282 132.334C50.2402 132.058 50.0122 131.74 49.8442 131.38C49.6882 131.02 49.6102 130.624 49.6102 130.192C49.6102 129.748 49.7062 129.34 49.8982 128.968C50.1022 128.584 50.3782 128.26 50.7262 127.996C51.0862 127.732 51.5122 127.528 52.0042 127.384C52.4962 127.228 53.0362 127.15 53.6242 127.15C54.0442 127.15 54.4522 127.186 54.8482 127.258C55.2562 127.33 55.6162 127.432 55.9282 127.564V127.024C55.9282 126.4 55.7482 125.92 55.3882 125.584C55.0402 125.248 54.5182 125.08 53.8222 125.08C53.3182 125.08 52.8262 125.17 52.3462 125.35C51.8662 125.53 51.3742 125.794 50.8702 126.142L50.1322 124.612C51.3442 123.808 52.6522 123.406 54.0562 123.406C55.4122 123.406 56.4622 123.742 57.2062 124.414C57.9622 125.074 58.3402 126.034 58.3402 127.294V130.228C58.3402 130.48 58.3822 130.66 58.4662 130.768C58.5622 130.876 58.7122 130.936 58.9162 130.948V133C58.5082 133.084 58.1542 133.126 57.8542 133.126C57.3982 133.126 57.0442 133.024 56.7922 132.82C56.5522 132.616 56.4022 132.346 56.3422 132.01L56.2882 131.488C55.8682 132.04 55.3582 132.46 54.7582 132.748C54.1582 133.036 53.5162 133.18 52.8322 133.18ZM53.5162 131.416C53.9242 131.416 54.3082 131.344 54.6682 131.2C55.0402 131.056 55.3282 130.864 55.5322 130.624C55.7962 130.42 55.9282 130.192 55.9282 129.94V128.86C55.6402 128.752 55.3282 128.668 54.9922 128.608C54.6562 128.536 54.3322 128.5 54.0202 128.5C53.3962 128.5 52.8862 128.644 52.4902 128.932C52.0942 129.208 51.8962 129.562 51.8962 129.994C51.8962 130.402 52.0522 130.744 52.3642 131.02C52.6762 131.284 53.0602 131.416 53.5162 131.416ZM68.1353 119.86C68.1113 120.616 67.8293 121.21 67.2893 121.642C66.7493 122.062 66.0413 122.272 65.1653 122.272C64.2893 122.272 63.5813 122.062 63.0413 121.642C62.5013 121.21 62.2193 120.616 62.1953 119.86H63.5273C63.5393 120.316 63.6833 120.652 63.9593 120.868C64.2473 121.084 64.6493 121.192 65.1653 121.192C66.1973 121.192 66.7493 120.748 66.8213 119.86H68.1353ZM63.0593 129.562L67.5233 123.568H69.3053V133H66.9113V127.168L62.5013 133H60.6653V123.568H63.0593V129.562ZM76.0993 133H73.7053V125.656H70.7533V123.568H79.0333V125.656H76.0993V133ZM84.3388 133.18C83.5708 133.18 82.8808 133.048 82.2688 132.784C81.6568 132.52 81.1348 132.166 80.7028 131.722C80.2828 131.266 79.9588 130.744 79.7308 130.156C79.5028 129.568 79.3888 128.95 79.3888 128.302C79.3888 127.642 79.5028 127.018 79.7308 126.43C79.9588 125.842 80.2828 125.326 80.7028 124.882C81.1348 124.426 81.6568 124.066 82.2688 123.802C82.8808 123.538 83.5708 123.406 84.3388 123.406C85.1068 123.406 85.7908 123.538 86.3908 123.802C87.0028 124.066 87.5188 124.426 87.9388 124.882C88.3708 125.326 88.7008 125.842 88.9288 126.43C89.1568 127.018 89.2708 127.642 89.2708 128.302C89.2708 128.95 89.1568 129.568 88.9288 130.156C88.7008 130.744 88.3768 131.266 87.9568 131.722C87.5368 132.166 87.0208 132.52 86.4088 132.784C85.7968 133.048 85.1068 133.18 84.3388 133.18ZM81.8728 128.302C81.8728 128.722 81.9328 129.106 82.0528 129.454C82.1848 129.79 82.3588 130.084 82.5748 130.336C82.8028 130.588 83.0668 130.786 83.3668 130.93C83.6668 131.062 83.9908 131.128 84.3388 131.128C84.6868 131.128 85.0108 131.062 85.3108 130.93C85.6108 130.786 85.8688 130.588 86.0848 130.336C86.3128 130.084 86.4868 129.784 86.6068 129.436C86.7388 129.088 86.8048 128.704 86.8048 128.284C86.8048 127.876 86.7388 127.498 86.6068 127.15C86.4868 126.802 86.3128 126.502 86.0848 126.25C85.8688 125.998 85.6108 125.806 85.3108 125.674C85.0108 125.53 84.6868 125.458 84.3388 125.458C83.9908 125.458 83.6668 125.53 83.3668 125.674C83.0668 125.818 82.8028 126.016 82.5748 126.268C82.3588 126.52 82.1848 126.82 82.0528 127.168C81.9328 127.516 81.8728 127.894 81.8728 128.302ZM96.5328 123.568C96.8808 123.568 97.1988 123.634 97.4868 123.766C97.7748 123.886 98.0208 124.054 98.2248 124.27C98.4408 124.486 98.6028 124.738 98.7108 125.026C98.8308 125.314 98.8908 125.62 98.8908 125.944C98.8908 126.352 98.7828 126.766 98.5668 127.186C98.3508 127.594 97.9968 127.9 97.5048 128.104C98.0568 128.26 98.4888 128.53 98.8008 128.914C99.1248 129.286 99.2868 129.796 99.2868 130.444C99.2868 131.308 98.9868 131.95 98.3868 132.37C97.7868 132.79 96.9588 133 95.9028 133H90.9528V123.568H96.5328ZM95.3988 127.51C95.7348 127.51 96.0048 127.414 96.2088 127.222C96.4128 127.03 96.5148 126.754 96.5148 126.394C96.5148 126.094 96.4248 125.842 96.2448 125.638C96.0768 125.422 95.8188 125.314 95.4708 125.314H93.3468V127.51H95.3988ZM95.7228 131.254C96.0708 131.254 96.3468 131.14 96.5508 130.912C96.7668 130.684 96.8748 130.408 96.8748 130.084C96.8748 129.748 96.7728 129.472 96.5688 129.256C96.3648 129.028 96.0888 128.914 95.7408 128.914H93.3468V131.254H95.7228ZM107.673 129.562L112.137 123.568H113.919V133H111.525V127.168L107.115 133H105.279V123.568H107.673V129.562ZM128.781 133H126.387V125.656H122.913V133H120.519V123.568H128.781V133ZM136.682 133.18C135.938 133.18 135.29 133.018 134.738 132.694C134.186 132.358 133.754 131.908 133.442 131.344V136.834H131.03V123.568H133.136V125.188C133.484 124.636 133.934 124.204 134.486 123.892C135.038 123.568 135.674 123.406 136.394 123.406C137.03 123.406 137.618 123.538 138.158 123.802C138.698 124.054 139.16 124.402 139.544 124.846C139.94 125.278 140.246 125.794 140.462 126.394C140.69 126.982 140.804 127.606 140.804 128.266C140.804 128.95 140.702 129.592 140.498 130.192C140.294 130.792 140.006 131.314 139.634 131.758C139.274 132.202 138.842 132.55 138.338 132.802C137.834 133.054 137.282 133.18 136.682 133.18ZM135.872 131.128C136.232 131.128 136.562 131.05 136.862 130.894C137.174 130.738 137.438 130.528 137.654 130.264C137.87 130 138.038 129.694 138.158 129.346C138.278 128.998 138.338 128.638 138.338 128.266C138.338 127.87 138.272 127.504 138.14 127.168C138.008 126.82 137.822 126.52 137.582 126.268C137.354 126.016 137.078 125.818 136.754 125.674C136.442 125.53 136.1 125.458 135.728 125.458C135.5 125.458 135.266 125.5 135.026 125.584C134.786 125.656 134.564 125.764 134.36 125.908C134.156 126.052 133.97 126.22 133.802 126.412C133.646 126.604 133.526 126.814 133.442 127.042V129.256C133.658 129.796 133.988 130.246 134.432 130.606C134.876 130.954 135.356 131.128 135.872 131.128ZM146.776 133.18C146.008 133.18 145.318 133.048 144.706 132.784C144.094 132.52 143.572 132.166 143.14 131.722C142.72 131.266 142.396 130.744 142.168 130.156C141.94 129.568 141.826 128.95 141.826 128.302C141.826 127.642 141.94 127.018 142.168 126.43C142.396 125.842 142.72 125.326 143.14 124.882C143.572 124.426 144.094 124.066 144.706 123.802C145.318 123.538 146.008 123.406 146.776 123.406C147.544 123.406 148.228 123.538 148.828 123.802C149.44 124.066 149.956 124.426 150.376 124.882C150.808 125.326 151.138 125.842 151.366 126.43C151.594 127.018 151.708 127.642 151.708 128.302C151.708 128.95 151.594 129.568 151.366 130.156C151.138 130.744 150.814 131.266 150.394 131.722C149.974 132.166 149.458 132.52 148.846 132.784C148.234 133.048 147.544 133.18 146.776 133.18ZM144.31 128.302C144.31 128.722 144.37 129.106 144.49 129.454C144.622 129.79 144.796 130.084 145.012 130.336C145.24 130.588 145.504 130.786 145.804 130.93C146.104 131.062 146.428 131.128 146.776 131.128C147.124 131.128 147.448 131.062 147.748 130.93C148.048 130.786 148.306 130.588 148.522 130.336C148.75 130.084 148.924 129.784 149.044 129.436C149.176 129.088 149.242 128.704 149.242 128.284C149.242 127.876 149.176 127.498 149.044 127.15C148.924 126.802 148.75 126.502 148.522 126.25C148.306 125.998 148.048 125.806 147.748 125.674C147.448 125.53 147.124 125.458 146.776 125.458C146.428 125.458 146.104 125.53 145.804 125.674C145.504 125.818 145.24 126.016 145.012 126.268C144.796 126.52 144.622 126.82 144.49 127.168C144.37 127.516 144.31 127.894 144.31 128.302ZM152.104 130.912H152.608C152.896 130.876 153.13 130.786 153.31 130.642C153.502 130.486 153.664 130.246 153.796 129.922C153.94 129.586 154.054 129.142 154.138 128.59C154.234 128.038 154.33 127.336 154.426 126.484L154.75 123.568H161.356V130.912H162.616V135.7H160.474V133H154.174V135.7H152.104V130.912ZM158.962 130.912V125.584H156.856L156.676 127.006C156.556 127.978 156.406 128.77 156.226 129.382C156.058 129.994 155.842 130.504 155.578 130.912H158.962ZM166.826 133.18C166.37 133.18 165.944 133.108 165.548 132.964C165.152 132.808 164.81 132.598 164.522 132.334C164.234 132.058 164.006 131.74 163.838 131.38C163.682 131.02 163.604 130.624 163.604 130.192C163.604 129.748 163.7 129.34 163.892 128.968C164.096 128.584 164.372 128.26 164.72 127.996C165.08 127.732 165.506 127.528 165.998 127.384C166.49 127.228 167.03 127.15 167.618 127.15C168.038 127.15 168.446 127.186 168.842 127.258C169.25 127.33 169.61 127.432 169.922 127.564V127.024C169.922 126.4 169.742 125.92 169.382 125.584C169.034 125.248 168.512 125.08 167.816 125.08C167.312 125.08 166.82 125.17 166.34 125.35C165.86 125.53 165.368 125.794 164.864 126.142L164.126 124.612C165.338 123.808 166.646 123.406 168.05 123.406C169.406 123.406 170.456 123.742 171.2 124.414C171.956 125.074 172.334 126.034 172.334 127.294V130.228C172.334 130.48 172.376 130.66 172.46 130.768C172.556 130.876 172.706 130.936 172.91 130.948V133C172.502 133.084 172.148 133.126 171.848 133.126C171.392 133.126 171.038 133.024 170.786 132.82C170.546 132.616 170.396 132.346 170.336 132.01L170.282 131.488C169.862 132.04 169.352 132.46 168.752 132.748C168.152 133.036 167.51 133.18 166.826 133.18ZM167.51 131.416C167.918 131.416 168.302 131.344 168.662 131.2C169.034 131.056 169.322 130.864 169.526 130.624C169.79 130.42 169.922 130.192 169.922 129.94V128.86C169.634 128.752 169.322 128.668 168.986 128.608C168.65 128.536 168.326 128.5 168.014 128.5C167.39 128.5 166.88 128.644 166.484 128.932C166.088 129.208 165.89 129.562 165.89 129.994C165.89 130.402 166.046 130.744 166.358 131.02C166.67 131.284 167.054 131.416 167.51 131.416ZM178.295 127.168C178.391 126.592 178.565 126.07 178.817 125.602C179.081 125.134 179.399 124.738 179.771 124.414C180.155 124.078 180.587 123.826 181.067 123.658C181.559 123.478 182.087 123.388 182.651 123.388C183.323 123.388 183.935 123.514 184.487 123.766C185.039 124.006 185.507 124.342 185.891 124.774C186.287 125.206 186.587 125.728 186.791 126.34C187.007 126.94 187.115 127.6 187.115 128.32C187.115 129.076 187.001 129.76 186.773 130.372C186.545 130.972 186.233 131.482 185.837 131.902C185.441 132.31 184.967 132.628 184.415 132.856C183.875 133.072 183.281 133.18 182.633 133.18C182.033 133.18 181.487 133.09 180.995 132.91C180.503 132.718 180.065 132.454 179.681 132.118C179.309 131.77 178.997 131.356 178.745 130.876C178.505 130.396 178.343 129.856 178.259 129.256H177.035V133H174.641V123.568H177.035V127.168H178.295ZM180.509 128.284C180.509 129.22 180.695 129.922 181.067 130.39C181.451 130.846 181.967 131.074 182.615 131.074C183.299 131.074 183.833 130.834 184.217 130.354C184.601 129.862 184.793 129.166 184.793 128.266C184.793 127.354 184.595 126.664 184.199 126.196C183.803 125.728 183.281 125.494 182.633 125.494C181.961 125.494 181.439 125.74 181.067 126.232C180.695 126.712 180.509 127.396 180.509 128.284ZM188.792 123.568H191.186V130.912H193.814V123.568H196.208V130.912H198.836V123.568H201.23V130.912H202.796V135.7H200.654V133H188.792V123.568ZM208.493 133.18C207.737 133.18 207.053 133.054 206.441 132.802C205.829 132.538 205.307 132.184 204.875 131.74C204.443 131.296 204.107 130.78 203.867 130.192C203.639 129.604 203.525 128.986 203.525 128.338C203.525 127.666 203.639 127.036 203.867 126.448C204.095 125.848 204.425 125.326 204.857 124.882C205.289 124.426 205.811 124.066 206.423 123.802C207.047 123.538 207.743 123.406 208.511 123.406C209.279 123.406 209.963 123.538 210.563 123.802C211.175 124.066 211.691 124.42 212.111 124.864C212.543 125.308 212.867 125.824 213.083 126.412C213.311 127 213.425 127.612 213.425 128.248C213.425 128.404 213.419 128.554 213.407 128.698C213.407 128.842 213.395 128.962 213.371 129.058H206.081C206.117 129.43 206.207 129.76 206.351 130.048C206.495 130.336 206.681 130.582 206.909 130.786C207.137 130.99 207.395 131.146 207.683 131.254C207.971 131.362 208.271 131.416 208.583 131.416C209.063 131.416 209.513 131.302 209.933 131.074C210.365 130.834 210.659 130.522 210.815 130.138L212.885 130.714C212.537 131.434 211.979 132.028 211.211 132.496C210.455 132.952 209.549 133.18 208.493 133.18ZM210.941 127.492C210.881 126.784 210.617 126.22 210.149 125.8C209.693 125.368 209.135 125.152 208.475 125.152C208.151 125.152 207.845 125.212 207.557 125.332C207.281 125.44 207.035 125.596 206.819 125.8C206.603 126.004 206.423 126.25 206.279 126.538C206.147 126.826 206.069 127.144 206.045 127.492H210.941ZM222.401 119.86C222.377 120.616 222.095 121.21 221.555 121.642C221.015 122.062 220.307 122.272 219.431 122.272C218.555 122.272 217.847 122.062 217.307 121.642C216.767 121.21 216.485 120.616 216.461 119.86H217.793C217.805 120.316 217.949 120.652 218.225 120.868C218.513 121.084 218.915 121.192 219.431 121.192C220.463 121.192 221.015 120.748 221.087 119.86H222.401ZM217.325 129.562L221.789 123.568H223.571V133H221.177V127.168L216.767 133H214.931V123.568H217.325V129.562ZM235.823 133.18C235.079 133.18 234.431 133.018 233.879 132.694C233.327 132.358 232.895 131.908 232.583 131.344V136.834H230.171V123.568H232.277V125.188C232.625 124.636 233.075 124.204 233.627 123.892C234.179 123.568 234.815 123.406 235.535 123.406C236.171 123.406 236.759 123.538 237.299 123.802C237.839 124.054 238.301 124.402 238.685 124.846C239.081 125.278 239.387 125.794 239.603 126.394C239.831 126.982 239.945 127.606 239.945 128.266C239.945 128.95 239.843 129.592 239.639 130.192C239.435 130.792 239.147 131.314 238.775 131.758C238.415 132.202 237.983 132.55 237.479 132.802C236.975 133.054 236.423 133.18 235.823 133.18ZM235.013 131.128C235.373 131.128 235.703 131.05 236.003 130.894C236.315 130.738 236.579 130.528 236.795 130.264C237.011 130 237.179 129.694 237.299 129.346C237.419 128.998 237.479 128.638 237.479 128.266C237.479 127.87 237.413 127.504 237.281 127.168C237.149 126.82 236.963 126.52 236.723 126.268C236.495 126.016 236.219 125.818 235.895 125.674C235.583 125.53 235.241 125.458 234.869 125.458C234.641 125.458 234.407 125.5 234.167 125.584C233.927 125.656 233.705 125.764 233.501 125.908C233.297 126.052 233.111 126.22 232.943 126.412C232.787 126.604 232.667 126.814 232.583 127.042V129.256C232.799 129.796 233.129 130.246 233.573 130.606C234.017 130.954 234.497 131.128 235.013 131.128ZM245.935 133.18C245.179 133.18 244.495 133.054 243.883 132.802C243.271 132.538 242.749 132.184 242.317 131.74C241.885 131.296 241.549 130.78 241.309 130.192C241.081 129.604 240.967 128.986 240.967 128.338C240.967 127.666 241.081 127.036 241.309 126.448C241.537 125.848 241.867 125.326 242.299 124.882C242.731 124.426 243.253 124.066 243.865 123.802C244.489 123.538 245.185 123.406 245.953 123.406C246.721 123.406 247.405 123.538 248.005 123.802C248.617 124.066 249.133 124.42 249.553 124.864C249.985 125.308 250.309 125.824 250.525 126.412C250.753 127 250.867 127.612 250.867 128.248C250.867 128.404 250.861 128.554 250.849 128.698C250.849 128.842 250.837 128.962 250.813 129.058H243.523C243.559 129.43 243.649 129.76 243.793 130.048C243.937 130.336 244.123 130.582 244.351 130.786C244.579 130.99 244.837 131.146 245.125 131.254C245.413 131.362 245.713 131.416 246.025 131.416C246.505 131.416 246.955 131.302 247.375 131.074C247.807 130.834 248.101 130.522 248.257 130.138L250.327 130.714C249.979 131.434 249.421 132.028 248.653 132.496C247.897 132.952 246.991 133.18 245.935 133.18ZM248.383 127.492C248.323 126.784 248.059 126.22 247.591 125.8C247.135 125.368 246.577 125.152 245.917 125.152C245.593 125.152 245.287 125.212 244.999 125.332C244.723 125.44 244.477 125.596 244.261 125.8C244.045 126.004 243.865 126.25 243.721 126.538C243.589 126.826 243.511 127.144 243.487 127.492H248.383ZM258.15 123.568H260.742L257.07 128.14L261.03 133H258.294L255.378 129.364H254.748V133H252.372V123.568H254.748V127.312H255.288L258.15 123.568ZM261.085 130.948C261.433 130.924 261.715 130.852 261.931 130.732C262.159 130.612 262.345 130.39 262.489 130.066C262.645 129.742 262.771 129.298 262.867 128.734C262.975 128.158 263.083 127.408 263.191 126.484L263.515 123.568H270.121V133H267.727V125.584H265.621L265.441 127.006C265.297 128.194 265.123 129.178 264.919 129.958C264.715 130.726 264.451 131.338 264.127 131.794C263.815 132.25 263.425 132.574 262.957 132.766C262.489 132.946 261.913 133.048 261.229 133.072L261.085 130.948ZM274.932 133.18C274.476 133.18 274.05 133.108 273.654 132.964C273.258 132.808 272.916 132.598 272.628 132.334C272.34 132.058 272.112 131.74 271.944 131.38C271.788 131.02 271.71 130.624 271.71 130.192C271.71 129.748 271.806 129.34 271.998 128.968C272.202 128.584 272.478 128.26 272.826 127.996C273.186 127.732 273.612 127.528 274.104 127.384C274.596 127.228 275.136 127.15 275.724 127.15C276.144 127.15 276.552 127.186 276.948 127.258C277.356 127.33 277.716 127.432 278.028 127.564V127.024C278.028 126.4 277.848 125.92 277.488 125.584C277.14 125.248 276.618 125.08 275.922 125.08C275.418 125.08 274.926 125.17 274.446 125.35C273.966 125.53 273.474 125.794 272.97 126.142L272.232 124.612C273.444 123.808 274.752 123.406 276.156 123.406C277.512 123.406 278.562 123.742 279.306 124.414C280.062 125.074 280.44 126.034 280.44 127.294V130.228C280.44 130.48 280.482 130.66 280.566 130.768C280.662 130.876 280.812 130.936 281.016 130.948V133C280.608 133.084 280.254 133.126 279.954 133.126C279.498 133.126 279.144 133.024 278.892 132.82C278.652 132.616 278.502 132.346 278.442 132.01L278.388 131.488C277.968 132.04 277.458 132.46 276.858 132.748C276.258 133.036 275.616 133.18 274.932 133.18ZM275.616 131.416C276.024 131.416 276.408 131.344 276.768 131.2C277.14 131.056 277.428 130.864 277.632 130.624C277.896 130.42 278.028 130.192 278.028 129.94V128.86C277.74 128.752 277.428 128.668 277.092 128.608C276.756 128.536 276.432 128.5 276.12 128.5C275.496 128.5 274.986 128.644 274.59 128.932C274.194 129.208 273.996 129.562 273.996 129.994C273.996 130.402 274.152 130.744 274.464 131.02C274.776 131.284 275.16 131.416 275.616 131.416ZM288.039 128.59L290.829 123.568H293.295V133H290.991V127.33L288.597 131.578H287.463L285.069 127.33V133H282.765V123.568H285.249L288.039 128.59ZM295.562 123.568H297.956V126.556H299.54C300.056 126.556 300.53 126.628 300.962 126.772C301.406 126.904 301.79 127.108 302.114 127.384C302.438 127.648 302.69 127.984 302.87 128.392C303.062 128.788 303.158 129.244 303.158 129.76C303.158 130.288 303.068 130.756 302.888 131.164C302.708 131.56 302.456 131.896 302.132 132.172C301.82 132.448 301.448 132.658 301.016 132.802C300.596 132.934 300.134 133 299.63 133H295.562V123.568ZM304.184 123.568H306.56V133H304.184V123.568ZM299.378 131.11C299.786 131.11 300.11 131.002 300.35 130.786C300.59 130.558 300.71 130.228 300.71 129.796C300.71 129.364 300.584 129.034 300.332 128.806C300.08 128.566 299.762 128.446 299.378 128.446H297.956V131.11H299.378Z" fill="#1C1C1C"/>
<path d="M137.521 68.52C137.521 67.74 137.659 66.972 137.935 66.216C138.223 65.448 138.637 64.764 139.177 64.164C139.717 63.564 140.377 63.078 141.157 62.706C141.937 62.334 142.825 62.148 143.821 62.148C144.997 62.148 146.011 62.406 146.863 62.922C147.727 63.438 148.369 64.11 148.789 64.938L146.881 66.252C146.713 65.892 146.509 65.592 146.269 65.352C146.029 65.1 145.771 64.902 145.495 64.758C145.219 64.614 144.931 64.512 144.631 64.452C144.331 64.38 144.037 64.344 143.749 64.344C143.125 64.344 142.579 64.47 142.111 64.722C141.655 64.974 141.271 65.304 140.959 65.712C140.659 66.108 140.431 66.564 140.275 67.08C140.119 67.584 140.041 68.088 140.041 68.592C140.041 69.156 140.131 69.702 140.311 70.23C140.491 70.746 140.743 71.202 141.067 71.598C141.403 71.994 141.799 72.312 142.255 72.552C142.723 72.792 143.233 72.912 143.785 72.912C144.073 72.912 144.373 72.876 144.685 72.804C144.997 72.732 145.291 72.618 145.567 72.462C145.855 72.306 146.119 72.108 146.359 71.868C146.599 71.616 146.791 71.316 146.935 70.968L148.969 72.138C148.765 72.618 148.471 73.044 148.087 73.416C147.715 73.776 147.289 74.082 146.809 74.334C146.341 74.586 145.837 74.778 145.297 74.91C144.757 75.042 144.229 75.108 143.713 75.108C142.801 75.108 141.967 74.916 141.211 74.532C140.455 74.148 139.801 73.65 139.249 73.038C138.709 72.414 138.283 71.712 137.971 70.932C137.671 70.14 137.521 69.336 137.521 68.52Z" fill="#95DB3A"/>
<defs>
<filter id="filter0_d_1_1391" x="0.5" y="0.5" width="377" height="298.815" filterUnits="userSpaceOnUse" color-interpolation-filters="sRGB">
<feFlood flood-opacity="0" result="BackgroundImageFix"/>
<feColorMatrix in="SourceAlpha" type="matrix" values="0 0 0 0 0 0 0 0 0 0 0 0 0 0 0 0 0 0 127 0" result="hardAlpha"/>
<feOffset dx="7" dy="7"/>
<feColorMatrix type="matrix" values="0 0 0 0 0 0 0 0 0 0 0 0 0 0 0 0 0 0 1 0"/>
<feBlend mode="normal" in2="BackgroundImageFix" result="effect1_dropShadow_1_1391"/>
<feBlend mode="normal" in="SourceGraphic" in2="effect1_dropShadow_1_1391" result="shape"/>
</filter>
</defs>
</svg>
