<svg width="373" height="310" viewBox="0 0 373 310" fill="none" xmlns="http://www.w3.org/2000/svg">
<path d="M25.9676 267.948L30.9609 268.552H48.9366H91.8785H133.323H174.267H214.213H256.157H300.596H342.54L348.032 267.948L354.024 265.534L359.018 262.517L364.011 258.293L368.005 251.052L371.501 242L372 248.034L370.003 254.672L367.506 261.31L364.011 266.741L359.517 270.966L353.026 274.586L347.533 276.397L332.553 277H277.128H221.204H178.262H123.835H81.892H52.9312H33.9568H25.9676L19.9757 274.586L14.4831 271.569L8.99055 265.534L3.9973 257.69L2 248.638V242.603L5.49528 251.052L11.9865 260.707L18.4777 265.534L25.9676 267.948Z" fill="url(#paint0_linear_118_747)"/>
<path fill-rule="evenodd" clip-rule="evenodd" d="M0 79V249C0 265.569 13.4315 279 30 279H343C359.569 279 373 265.569 373 249V79H370V249C370 263.912 357.912 276 343 276H30C15.0883 276 3 263.912 3 249V79H0Z" fill="black"/>
<path fill-rule="evenodd" clip-rule="evenodd" d="M0 0V239.003C0 255.572 13.4315 269.003 30 269.003H343C359.569 269.003 373 255.572 373 239.003V0H370V239.003C370 253.915 357.912 266.003 343 266.003H30C15.0883 266.003 3 253.915 3 239.003V0H0Z" fill="black"/>
<g clip-path="url(#clip0_118_747)">
<rect x="137" y="257" width="99" height="29" fill="white"/>
<circle cx="185.616" cy="266.539" r="32.6923" fill="url(#paint1_linear_118_747)"/>
<path d="M227.667 210H144.333C139.733 210.005 136.005 213.733 136 218.333V301.667C136.005 306.267 139.733 309.995 144.333 310H227.667C232.267 309.995 235.995 306.267 236 301.667V218.333C235.995 213.733 232.267 210.005 227.667 210ZM232.667 301.667C232.667 304.428 230.428 306.667 227.667 306.667H144.333C141.572 306.667 139.333 304.428 139.333 301.667V226.667H232.667V301.667H232.667ZM232.667 223.333H139.333V218.333C139.333 215.572 141.572 213.333 144.333 213.333H227.667C230.428 213.333 232.667 215.572 232.667 218.333V223.333H232.667Z" fill="#1C1C1C"/>
<path d="M147.666 216.667H146C145.079 216.667 144.333 217.413 144.333 218.333C144.333 219.254 145.079 220 146 220H147.666C148.587 220 149.333 219.254 149.333 218.333C149.333 217.413 148.587 216.667 147.666 216.667Z" fill="#1C1C1C"/>
<path d="M154.967 216.8C154.565 216.617 154.103 216.617 153.7 216.8C153.498 216.885 153.313 217.003 153.15 217.15C152.506 217.807 152.506 218.859 153.15 219.517C153.313 219.664 153.498 219.782 153.7 219.867C154.104 220.044 154.563 220.044 154.967 219.867C155.169 219.782 155.355 219.664 155.517 219.517C156.162 218.859 156.162 217.807 155.517 217.15C155.355 217.003 155.169 216.885 154.967 216.8Z" fill="#1C1C1C"/>
<path d="M161.639 216.784C161.014 216.525 160.294 216.669 159.817 217.15C159.67 217.312 159.552 217.498 159.467 217.7C159.289 218.104 159.289 218.563 159.467 218.967C159.552 219.169 159.67 219.355 159.817 219.517C160.474 220.161 161.526 220.161 162.184 219.517C162.331 219.355 162.449 219.169 162.534 218.967C162.627 218.769 162.673 218.552 162.667 218.333C162.671 217.656 162.265 217.044 161.639 216.784Z" fill="#1C1C1C"/>
<path d="M226 216.667H169.333C168.413 216.667 167.667 217.413 167.667 218.333C167.667 219.254 168.413 220 169.333 220H226C226.92 220 227.666 219.254 227.666 218.333C227.666 217.413 226.92 216.667 226 216.667Z" fill="#1C1C1C"/>
<path d="M161.588 289.367C161.663 289.436 161.746 289.498 161.834 289.552C168.108 296.222 176.859 300.003 186.016 300C195.173 299.997 203.921 296.21 210.191 289.537C210.274 289.488 210.352 289.432 210.424 289.37C210.479 289.293 210.527 289.212 210.568 289.127C222.263 276.44 222.263 256.9 210.568 244.213L210.561 244.21C210.52 244.125 210.472 244.043 210.418 243.967C210.342 243.896 210.258 243.833 210.169 243.78C203.899 237.115 195.154 233.337 186.003 233.337C176.852 233.337 168.107 237.115 161.836 243.78C161.747 243.833 161.664 243.896 161.588 243.967C161.533 244.043 161.485 244.125 161.445 244.21C149.749 256.897 149.749 276.436 161.445 289.123C161.485 289.208 161.533 289.29 161.588 289.367ZM195.091 295.245C197.653 292.151 199.581 288.583 200.766 284.745V284.74C202.86 285.721 204.835 286.936 206.654 288.363C203.371 291.503 199.417 293.856 195.091 295.245ZM208.954 285.942C206.736 284.162 204.303 282.67 201.711 281.5C202.783 277.19 203.368 272.774 203.456 268.333H215.914C215.568 274.803 213.125 280.984 208.954 285.942ZM215.914 265H203.456C203.368 260.56 202.783 256.143 201.711 251.833C204.302 250.664 206.736 249.173 208.954 247.395C213.124 252.352 215.567 258.532 215.914 265ZM206.654 244.965C204.835 246.392 202.86 247.608 200.766 248.588C199.582 244.748 197.654 241.179 195.091 238.083C199.417 239.472 203.371 241.825 206.654 244.965ZM187.666 236.9C191.751 237.97 195.364 242.882 197.641 249.835C194.425 250.944 191.065 251.583 187.666 251.733V236.9ZM187.666 255.068C191.374 254.93 195.043 254.256 198.559 253.068C199.505 256.978 200.029 260.978 200.124 265H187.666V255.068ZM187.666 268.333H200.124C200.029 272.354 199.505 276.353 198.559 280.262C195.043 279.075 191.374 278.403 187.666 278.265V268.333ZM187.666 281.6C191.065 281.751 194.425 282.39 197.641 283.5C195.364 290.453 191.751 295.365 187.666 296.435V281.6ZM165.344 288.358C167.164 286.935 169.139 285.723 171.233 284.745V284.74C172.417 288.578 174.346 292.146 176.908 295.24C172.582 293.851 168.628 291.498 165.344 288.358ZM184.333 296.433C180.248 295.364 176.634 290.452 174.358 283.498C177.574 282.389 180.934 281.75 184.333 281.6V296.433ZM184.333 278.265C180.624 278.404 176.955 279.077 173.439 280.265C172.494 276.355 171.969 272.355 171.874 268.333H184.333V278.265ZM184.333 265H171.874C171.969 260.98 172.494 256.981 173.439 253.072C176.955 254.258 180.624 254.931 184.333 255.068V265ZM184.333 236.898V251.733C180.934 251.583 177.574 250.943 174.358 249.833C176.634 242.88 180.248 237.968 184.333 236.898ZM176.908 238.078C174.345 241.175 172.416 244.747 171.233 248.588V248.583C169.139 247.602 167.164 246.387 165.344 244.96C168.628 241.82 172.582 239.467 176.908 238.078ZM163.044 247.392C165.262 249.171 167.696 250.663 170.288 251.833C169.216 256.143 168.63 260.56 168.543 265H156.084C156.431 258.53 158.874 252.35 163.044 247.392ZM168.543 268.333C168.631 272.774 169.216 277.19 170.288 281.5C167.696 282.669 165.262 284.16 163.044 285.938C158.875 280.981 156.432 274.802 156.084 268.333H168.543V268.333Z" fill="#1C1C1C"/>
</g>
<defs>
<linearGradient id="paint0_linear_118_747" x1="18.7495" y1="255.311" x2="65.1968" y2="384.372" gradientUnits="userSpaceOnUse">
<stop stop-color="#ACFA49"/>
<stop offset="0.863856" stop-color="#90D638"/>
</linearGradient>
<linearGradient id="paint1_linear_118_747" x1="155.884" y1="258.714" x2="222.839" y2="276.312" gradientUnits="userSpaceOnUse">
<stop stop-color="#ACFA49"/>
<stop offset="0.863856" stop-color="#90D638"/>
</linearGradient>
<clipPath id="clip0_118_747">
<rect width="100" height="100" fill="white" transform="translate(136 210)"/>
</clipPath>
</defs>
</svg>
