<svg width="364" height="519" viewBox="0 0 364 519" fill="none" xmlns="http://www.w3.org/2000/svg">
<path fill-rule="evenodd" clip-rule="evenodd" d="M40.0059 0C17.9145 0 0.00589752 17.9086 0.00589752 40V379.893C0.00197476 380.03 0 380.167 0 380.305V481.845C0 489.643 6.32193 495.965 14.1204 495.965C21.9189 495.965 28.2408 489.643 28.2408 481.845V438.458C28.2408 432.524 34.0718 428.276 40.0059 428.276C44.4209 428.276 48 431.855 48 436.27V505C48 512.732 54.268 519 62 519C69.732 519 76 512.732 76 505V442.745C76 434.754 82.4779 428.276 90.4687 428.276C98.4595 428.276 104.937 434.754 104.937 442.745V481.845C104.937 489.643 111.259 495.965 119.058 495.965C126.856 495.965 133.178 489.643 133.178 481.845V443.753C133.178 435.205 140.107 428.276 148.654 428.276C157.202 428.276 164.131 435.205 164.131 443.753V470.046C164.131 477.845 170.453 484.167 178.251 484.167C186.05 484.167 192.372 477.845 192.372 470.046V444.091C192.372 435.357 199.452 428.276 208.186 428.276C216.92 428.276 224 435.357 224 444.091V504.5C224 512.508 230.492 519 238.5 519C246.508 519 253 512.508 253 504.5V443.363C253 435.031 259.754 428.276 268.086 428.276C276.418 428.276 283.173 435.031 283.173 443.363V459.989C283.173 467.788 289.495 474.11 297.293 474.11C305.092 474.11 311.414 467.788 311.414 459.989V440.104C311.414 433.572 316.709 428.276 323.241 428.276C329.17 428.276 334.995 432.521 334.995 438.449V481.845C334.995 489.643 341.317 495.965 349.115 495.965C356.914 495.965 363.235 489.643 363.235 481.845V388.977C363.239 388.744 363.241 388.51 363.241 388.276V40C363.241 17.9086 345.333 0 323.241 0H40.0059Z" fill="#1C1C1C"/>
</svg>
