<svg width="374" height="519" viewBox="0 0 374 519" fill="none" xmlns="http://www.w3.org/2000/svg">
<path fill-rule="evenodd" clip-rule="evenodd" d="M50.0059 0C27.9145 0 10.0059 17.9086 10.0059 40V379.893C10.002 380.03 10 380.167 10 380.305V481.845C10 489.643 16.3219 495.965 24.1204 495.965C31.9189 495.965 38.2408 489.643 38.2408 481.845V438.458C38.2408 432.524 44.0718 428.276 50.0059 428.276V428.276V428.276C54.4209 428.276 58 431.855 58 436.27V505C58 512.732 64.268 519 72 519C79.732 519 86 512.732 86 505V442.745C86 434.754 92.4779 428.276 100.469 428.276V428.276C108.46 428.276 114.937 434.754 114.937 442.745V481.845C114.937 489.643 121.259 495.965 129.058 495.965C136.856 495.965 143.178 489.643 143.178 481.845V443.753C143.178 435.205 150.107 428.276 158.654 428.276V428.276C167.202 428.276 174.131 435.205 174.131 443.753V470.046C174.131 477.845 180.453 484.167 188.251 484.167C196.05 484.167 202.372 477.845 202.372 470.046V444.091C202.372 435.357 209.452 428.276 218.186 428.276V428.276C226.92 428.276 234 435.357 234 444.091V504.5C234 512.508 240.492 519 248.5 519C256.508 519 263 512.508 263 504.5V443.363C263 435.031 269.754 428.276 278.086 428.276V428.276C286.418 428.276 293.173 435.031 293.173 443.363V459.989C293.173 467.788 299.495 474.11 307.293 474.11C315.092 474.11 321.414 467.788 321.414 459.989V440.104C321.414 433.572 326.709 428.276 333.241 428.276V428.276V428.276C339.17 428.276 344.995 432.521 344.995 438.449V481.845C344.995 489.643 351.317 495.965 359.115 495.965C366.914 495.965 373.235 489.643 373.235 481.845V388.977C373.239 388.744 373.241 388.51 373.241 388.276V40C373.241 17.9086 355.333 0 333.241 0H50.0059Z" fill="#1C1C1C"/>
<mask id="path-2-inside-1_83_747" fill="white">
<path fill-rule="evenodd" clip-rule="evenodd" d="M40.0059 0C17.9145 0 0.00589752 17.9086 0.00589752 40V379.893C0.00197476 380.03 0 380.167 0 380.305V481.845C0 489.643 6.32193 495.965 14.1204 495.965C21.9189 495.965 28.2408 489.643 28.2408 481.845V438.458C28.2408 432.524 34.0718 428.276 40.0059 428.276V428.276V428.276C44.4209 428.276 48 431.855 48 436.27V505C48 512.732 54.268 519 62 519C69.732 519 76 512.732 76 505V442.745C76 434.754 82.4779 428.276 90.4687 428.276V428.276C98.4595 428.276 104.937 434.754 104.937 442.745V481.845C104.937 489.643 111.259 495.965 119.058 495.965C126.856 495.965 133.178 489.643 133.178 481.845V443.753C133.178 435.205 140.107 428.276 148.654 428.276V428.276C157.202 428.276 164.131 435.205 164.131 443.753V470.046C164.131 477.845 170.453 484.167 178.251 484.167C186.05 484.167 192.372 477.845 192.372 470.046V444.091C192.372 435.357 199.452 428.276 208.186 428.276V428.276C216.92 428.276 224 435.357 224 444.091V504.5C224 512.508 230.492 519 238.5 519C246.508 519 253 512.508 253 504.5V443.363C253 435.031 259.754 428.276 268.086 428.276V428.276C276.418 428.276 283.173 435.031 283.173 443.363V459.989C283.173 467.788 289.495 474.11 297.293 474.11C305.092 474.11 311.414 467.788 311.414 459.989V440.104C311.414 433.572 316.709 428.276 323.241 428.276V428.276V428.276C329.17 428.276 334.995 432.521 334.995 438.449V481.845C334.995 489.643 341.317 495.965 349.115 495.965C356.914 495.965 363.235 489.643 363.235 481.845V388.977C363.239 388.744 363.241 388.51 363.241 388.276V40C363.241 17.9086 345.333 0 323.241 0H40.0059Z"/>
</mask>
<path fill-rule="evenodd" clip-rule="evenodd" d="M40.0059 0C17.9145 0 0.00589752 17.9086 0.00589752 40V379.893C0.00197476 380.03 0 380.167 0 380.305V481.845C0 489.643 6.32193 495.965 14.1204 495.965C21.9189 495.965 28.2408 489.643 28.2408 481.845V438.458C28.2408 432.524 34.0718 428.276 40.0059 428.276V428.276V428.276C44.4209 428.276 48 431.855 48 436.27V505C48 512.732 54.268 519 62 519C69.732 519 76 512.732 76 505V442.745C76 434.754 82.4779 428.276 90.4687 428.276V428.276C98.4595 428.276 104.937 434.754 104.937 442.745V481.845C104.937 489.643 111.259 495.965 119.058 495.965C126.856 495.965 133.178 489.643 133.178 481.845V443.753C133.178 435.205 140.107 428.276 148.654 428.276V428.276C157.202 428.276 164.131 435.205 164.131 443.753V470.046C164.131 477.845 170.453 484.167 178.251 484.167C186.05 484.167 192.372 477.845 192.372 470.046V444.091C192.372 435.357 199.452 428.276 208.186 428.276V428.276C216.92 428.276 224 435.357 224 444.091V504.5C224 512.508 230.492 519 238.5 519C246.508 519 253 512.508 253 504.5V443.363C253 435.031 259.754 428.276 268.086 428.276V428.276C276.418 428.276 283.173 435.031 283.173 443.363V459.989C283.173 467.788 289.495 474.11 297.293 474.11C305.092 474.11 311.414 467.788 311.414 459.989V440.104C311.414 433.572 316.709 428.276 323.241 428.276V428.276V428.276C329.17 428.276 334.995 432.521 334.995 438.449V481.845C334.995 489.643 341.317 495.965 349.115 495.965C356.914 495.965 363.235 489.643 363.235 481.845V388.977C363.239 388.744 363.241 388.51 363.241 388.276V40C363.241 17.9086 345.333 0 323.241 0H40.0059Z" fill="white"/>
<path d="M0.00589752 379.893L3.00467 379.979L3.0059 379.936V379.893H0.00589752ZM363.235 388.977L360.236 388.925L360.235 388.951V388.977H363.235ZM3.0059 40C3.0059 19.5655 19.5714 3 40.0059 3V-3C16.2577 -3 -2.9941 16.2517 -2.9941 40H3.0059ZM3.0059 379.893V40H-2.9941V379.893H3.0059ZM3 380.305C3 380.196 3.00156 380.087 3.00467 379.979L-2.99287 379.807C-2.99761 379.972 -3 380.138 -3 380.305H3ZM3 481.845V380.305H-3V481.845H3ZM14.1204 492.965C7.97878 492.965 3 487.986 3 481.845H-3C-3 491.3 4.66507 498.965 14.1204 498.965V492.965ZM25.2408 481.845C25.2408 487.986 20.2621 492.965 14.1204 492.965V498.965C23.5758 498.965 31.2408 491.3 31.2408 481.845H25.2408ZM25.2408 438.458V481.845H31.2408V438.458H25.2408ZM51 505V436.27H45V505H51ZM62 516C55.9249 516 51 511.075 51 505H45C45 514.389 52.6112 522 62 522V516ZM73 505C73 511.075 68.0751 516 62 516V522C71.3888 522 79 514.389 79 505H73ZM73 442.745V505H79V442.745H73ZM107.937 481.845V442.745H101.937V481.845H107.937ZM119.058 492.965C112.916 492.965 107.937 487.986 107.937 481.845H101.937C101.937 491.3 109.602 498.965 119.058 498.965V492.965ZM130.178 481.845C130.178 487.986 125.199 492.965 119.058 492.965V498.965C128.513 498.965 136.178 491.3 136.178 481.845H130.178ZM130.178 443.753V481.845H136.178V443.753H130.178ZM167.131 470.046V443.753H161.131V470.046H167.131ZM178.251 481.167C172.11 481.167 167.131 476.188 167.131 470.046H161.131C161.131 479.502 168.796 487.167 178.251 487.167V481.167ZM189.372 470.046C189.372 476.188 184.393 481.167 178.251 481.167V487.167C187.707 487.167 195.372 479.502 195.372 470.046H189.372ZM189.372 444.091V470.046H195.372V444.091H189.372ZM227 504.5V444.091H221V504.5H227ZM238.5 516C232.149 516 227 510.851 227 504.5H221C221 514.165 228.835 522 238.5 522V516ZM250 504.5C250 510.851 244.851 516 238.5 516V522C248.165 522 256 514.165 256 504.5H250ZM250 443.363V504.5H256V443.363H250ZM286.173 459.989V443.363H280.173V459.989H286.173ZM297.293 471.11C291.152 471.11 286.173 466.131 286.173 459.989H280.173C280.173 469.445 287.838 477.11 297.293 477.11V471.11ZM308.414 459.989C308.414 466.131 303.435 471.11 297.293 471.11V477.11C306.748 477.11 314.414 469.445 314.414 459.989H308.414ZM308.414 440.104V459.989H314.414V440.104H308.414ZM337.995 481.845V438.449H331.995V481.845H337.995ZM349.115 492.965C342.973 492.965 337.995 487.986 337.995 481.845H331.995C331.995 491.3 339.66 498.965 349.115 498.965V492.965ZM360.235 481.845C360.235 487.986 355.257 492.965 349.115 492.965V498.965C358.57 498.965 366.235 491.3 366.235 481.845H360.235ZM360.235 388.977V481.845H366.235V388.977H360.235ZM360.241 388.276C360.241 388.493 360.24 388.709 360.236 388.925L366.235 389.028C366.239 388.778 366.241 388.528 366.241 388.276H360.241ZM360.241 40V388.276H366.241V40H360.241ZM323.241 3C343.676 3 360.241 19.5655 360.241 40H366.241C366.241 16.2518 346.99 -3 323.241 -3V3ZM40.0059 3H323.241V-3H40.0059V3ZM323.241 431.276C328.097 431.276 331.995 434.706 331.995 438.449H337.995C337.995 430.335 330.244 425.276 323.241 425.276V431.276ZM314.414 440.104C314.414 435.229 318.366 431.276 323.241 431.276V425.276C315.052 425.276 308.414 431.915 308.414 440.104H314.414ZM256 443.363C256 436.688 261.411 431.276 268.086 431.276V425.276C258.098 425.276 250 433.374 250 443.363H256ZM195.372 444.091C195.372 437.013 201.109 431.276 208.186 431.276V425.276C197.795 425.276 189.372 433.7 189.372 444.091H195.372ZM148.654 431.276C155.545 431.276 161.131 436.862 161.131 443.753H167.131C167.131 433.548 158.859 425.276 148.654 425.276V431.276ZM268.086 431.276C274.761 431.276 280.173 436.688 280.173 443.363H286.173C286.173 433.374 278.075 425.276 268.086 425.276V431.276ZM31.2408 438.458C31.2408 434.71 35.1446 431.276 40.0059 431.276V425.276C32.999 425.276 25.2408 430.338 25.2408 438.458H31.2408ZM136.178 443.753C136.178 436.862 141.764 431.276 148.654 431.276V425.276C138.45 425.276 130.178 433.548 130.178 443.753H136.178ZM208.186 431.276C215.263 431.276 221 437.013 221 444.091H227C227 433.7 218.577 425.276 208.186 425.276V431.276ZM79 442.745C79 436.411 84.1347 431.276 90.4687 431.276V425.276C80.821 425.276 73 433.097 73 442.745H79ZM90.4687 431.276C96.8027 431.276 101.937 436.411 101.937 442.745H107.937C107.937 433.097 100.116 425.276 90.4687 425.276V431.276ZM40.0059 431.276C42.7641 431.276 45 433.512 45 436.27H51C51 430.199 46.0778 425.276 40.0059 425.276V431.276Z" fill="#1C1C1C" mask="url(#path-2-inside-1_83_747)"/>
</svg>
