<svg width="119" height="47" viewBox="0 0 119 47" fill="none" xmlns="http://www.w3.org/2000/svg">
<rect x="8" width="36" height="47" fill="#FAEA00"/>
<rect y="35" width="119" height="3" fill="#95DB3A"/>
<path d="M19.472 29.126C18.428 29.126 17.492 28.916 16.664 28.496C15.836 28.076 15.182 27.488 14.702 26.732L16.556 25.58C16.856 26.036 17.246 26.402 17.726 26.678C18.206 26.942 18.77 27.074 19.418 27.074C20.186 27.074 20.756 26.906 21.128 26.57C21.512 26.234 21.704 25.79 21.704 25.238C21.704 24.878 21.62 24.566 21.452 24.302C21.296 24.026 21.056 23.816 20.732 23.672C20.408 23.516 20 23.438 19.508 23.438H17.978V21.548H19.526C19.91 21.548 20.234 21.482 20.498 21.35C20.774 21.206 20.978 21.014 21.11 20.774C21.254 20.534 21.326 20.258 21.326 19.946C21.326 19.622 21.248 19.34 21.092 19.1C20.948 18.86 20.726 18.674 20.426 18.542C20.138 18.398 19.766 18.326 19.31 18.326C18.662 18.326 18.104 18.458 17.636 18.722C17.168 18.974 16.808 19.31 16.556 19.73L14.774 18.47C15.254 17.762 15.866 17.192 16.61 16.76C17.366 16.328 18.302 16.112 19.418 16.112C20.306 16.112 21.068 16.25 21.704 16.526C22.34 16.79 22.832 17.18 23.18 17.696C23.54 18.212 23.72 18.836 23.72 19.568C23.72 20.156 23.576 20.708 23.288 21.224C23.012 21.728 22.568 22.118 21.956 22.394C22.676 22.61 23.228 22.994 23.612 23.546C24.008 24.098 24.206 24.74 24.206 25.472C24.206 26.264 23.996 26.936 23.576 27.488C23.168 28.028 22.61 28.436 21.902 28.712C21.194 28.988 20.384 29.126 19.472 29.126ZM25.3484 26.21C25.3484 25.598 25.5164 25.064 25.8524 24.608C26.2004 24.14 26.6804 23.78 27.2924 23.528C27.9044 23.276 28.6064 23.15 29.3984 23.15C29.7944 23.15 30.1964 23.18 30.6044 23.24C31.0124 23.3 31.3664 23.396 31.6664 23.528V23.024C31.6664 22.424 31.4864 21.962 31.1264 21.638C30.7784 21.314 30.2564 21.152 29.5604 21.152C29.0444 21.152 28.5524 21.242 28.0844 21.422C27.6164 21.602 27.1244 21.866 26.6084 22.214L25.8344 20.63C26.4584 20.222 27.0944 19.916 27.7424 19.712C28.4024 19.508 29.0924 19.406 29.8124 19.406C31.1564 19.406 32.2004 19.742 32.9444 20.414C33.7004 21.086 34.0784 22.046 34.0784 23.294V26.3C34.0784 26.552 34.1204 26.732 34.2044 26.84C34.3004 26.948 34.4504 27.014 34.6544 27.038V29C34.4384 29.036 34.2404 29.066 34.0604 29.09C33.8924 29.114 33.7484 29.126 33.6284 29.126C33.1484 29.126 32.7824 29.018 32.5304 28.802C32.2904 28.586 32.1404 28.322 32.0804 28.01L32.0264 27.524C31.6184 28.052 31.1084 28.46 30.4964 28.748C29.8844 29.036 29.2604 29.18 28.6244 29.18C28.0004 29.18 27.4364 29.054 26.9324 28.802C26.4404 28.538 26.0504 28.184 25.7624 27.74C25.4864 27.284 25.3484 26.774 25.3484 26.21ZM31.2164 26.696C31.3484 26.552 31.4564 26.408 31.5404 26.264C31.6244 26.12 31.6664 25.988 31.6664 25.868V24.914C31.3784 24.794 31.0664 24.704 30.7304 24.644C30.3944 24.572 30.0764 24.536 29.7764 24.536C29.1524 24.536 28.6364 24.674 28.2284 24.95C27.8324 25.214 27.6344 25.568 27.6344 26.012C27.6344 26.252 27.7004 26.48 27.8324 26.696C27.9644 26.912 28.1564 27.086 28.4084 27.218C28.6604 27.35 28.9604 27.416 29.3084 27.416C29.6684 27.416 30.0224 27.35 30.3704 27.218C30.7184 27.074 31.0004 26.9 31.2164 26.696ZM36.3324 29V19.568H38.7444V23.132H39.5544L42.1104 19.568H44.7384L41.3904 24.122L45.0984 29H42.3444L39.5184 25.256H38.7444V29H36.3324ZM45.8621 26.21C45.8621 25.598 46.0301 25.064 46.3661 24.608C46.7141 24.14 47.1941 23.78 47.8061 23.528C48.4181 23.276 49.1201 23.15 49.9121 23.15C50.3081 23.15 50.7101 23.18 51.1181 23.24C51.5261 23.3 51.8801 23.396 52.1801 23.528V23.024C52.1801 22.424 52.0001 21.962 51.6401 21.638C51.2921 21.314 50.7701 21.152 50.0741 21.152C49.5581 21.152 49.0661 21.242 48.5981 21.422C48.1301 21.602 47.6381 21.866 47.1221 22.214L46.3481 20.63C46.9721 20.222 47.6081 19.916 48.2561 19.712C48.9161 19.508 49.6061 19.406 50.3261 19.406C51.6701 19.406 52.7141 19.742 53.4581 20.414C54.2141 21.086 54.5921 22.046 54.5921 23.294V26.3C54.5921 26.552 54.6341 26.732 54.7181 26.84C54.8141 26.948 54.9641 27.014 55.1681 27.038V29C54.9521 29.036 54.7541 29.066 54.5741 29.09C54.4061 29.114 54.2621 29.126 54.1421 29.126C53.6621 29.126 53.2961 29.018 53.0441 28.802C52.8041 28.586 52.6541 28.322 52.5941 28.01L52.5401 27.524C52.1321 28.052 51.6221 28.46 51.0101 28.748C50.3981 29.036 49.7741 29.18 49.1381 29.18C48.5141 29.18 47.9501 29.054 47.4461 28.802C46.9541 28.538 46.5641 28.184 46.2761 27.74C46.0001 27.284 45.8621 26.774 45.8621 26.21ZM51.7301 26.696C51.8621 26.552 51.9701 26.408 52.0541 26.264C52.1381 26.12 52.1801 25.988 52.1801 25.868V24.914C51.8921 24.794 51.5801 24.704 51.2441 24.644C50.9081 24.572 50.5901 24.536 50.2901 24.536C49.6661 24.536 49.1501 24.674 48.7421 24.95C48.3461 25.214 48.1481 25.568 48.1481 26.012C48.1481 26.252 48.2141 26.48 48.3461 26.696C48.4781 26.912 48.6701 27.086 48.9221 27.218C49.1741 27.35 49.4741 27.416 49.8221 27.416C50.1821 27.416 50.5361 27.35 50.8841 27.218C51.2321 27.074 51.5141 26.9 51.7301 26.696ZM60.212 29.144C59.204 29.144 58.364 28.964 57.692 28.604C57.02 28.244 56.492 27.746 56.108 27.11L58.052 26.228C58.256 26.54 58.52 26.786 58.844 26.966C59.18 27.134 59.594 27.218 60.086 27.218C60.65 27.218 61.082 27.11 61.382 26.894C61.694 26.666 61.85 26.372 61.85 26.012C61.85 25.676 61.724 25.406 61.472 25.202C61.22 24.998 60.848 24.896 60.356 24.896H59.384V23.402H60.374C60.602 23.402 60.794 23.36 60.95 23.276C61.118 23.18 61.244 23.054 61.328 22.898C61.424 22.742 61.472 22.562 61.472 22.358C61.472 22.058 61.352 21.812 61.112 21.62C60.884 21.428 60.518 21.332 60.014 21.332C59.594 21.332 59.246 21.41 58.97 21.566C58.706 21.722 58.484 21.956 58.304 22.268L56.486 21.296C56.822 20.708 57.302 20.246 57.926 19.91C58.562 19.574 59.3 19.406 60.14 19.406C60.8 19.406 61.388 19.508 61.904 19.712C62.432 19.916 62.846 20.21 63.146 20.594C63.446 20.978 63.596 21.458 63.596 22.034C63.596 22.442 63.494 22.838 63.29 23.222C63.098 23.606 62.78 23.888 62.336 24.068C62.912 24.236 63.344 24.524 63.632 24.932C63.932 25.34 64.082 25.82 64.082 26.372C64.082 26.972 63.914 27.482 63.578 27.902C63.242 28.31 62.786 28.622 62.21 28.838C61.634 29.042 60.968 29.144 60.212 29.144ZM65.1277 26.21C65.1277 25.598 65.2957 25.064 65.6317 24.608C65.9797 24.14 66.4597 23.78 67.0717 23.528C67.6837 23.276 68.3857 23.15 69.1777 23.15C69.5737 23.15 69.9757 23.18 70.3837 23.24C70.7917 23.3 71.1457 23.396 71.4457 23.528V23.024C71.4457 22.424 71.2657 21.962 70.9057 21.638C70.5577 21.314 70.0357 21.152 69.3397 21.152C68.8237 21.152 68.3317 21.242 67.8637 21.422C67.3957 21.602 66.9037 21.866 66.3877 22.214L65.6137 20.63C66.2377 20.222 66.8737 19.916 67.5217 19.712C68.1817 19.508 68.8717 19.406 69.5917 19.406C70.9357 19.406 71.9797 19.742 72.7237 20.414C73.4797 21.086 73.8577 22.046 73.8577 23.294V26.3C73.8577 26.552 73.8997 26.732 73.9837 26.84C74.0797 26.948 74.2297 27.014 74.4337 27.038V29C74.2177 29.036 74.0197 29.066 73.8397 29.09C73.6717 29.114 73.5277 29.126 73.4077 29.126C72.9277 29.126 72.5617 29.018 72.3097 28.802C72.0697 28.586 71.9197 28.322 71.8597 28.01L71.8057 27.524C71.3977 28.052 70.8877 28.46 70.2757 28.748C69.6637 29.036 69.0397 29.18 68.4037 29.18C67.7797 29.18 67.2157 29.054 66.7117 28.802C66.2197 28.538 65.8297 28.184 65.5417 27.74C65.2657 27.284 65.1277 26.774 65.1277 26.21ZM70.9957 26.696C71.1277 26.552 71.2357 26.408 71.3197 26.264C71.4037 26.12 71.4457 25.988 71.4457 25.868V24.914C71.1577 24.794 70.8457 24.704 70.5097 24.644C70.1737 24.572 69.8557 24.536 69.5557 24.536C68.9317 24.536 68.4157 24.674 68.0077 24.95C67.6117 25.214 67.4137 25.568 67.4137 26.012C67.4137 26.252 67.4797 26.48 67.6117 26.696C67.7437 26.912 67.9357 27.086 68.1877 27.218C68.4397 27.35 68.7397 27.416 69.0877 27.416C69.4477 27.416 69.8017 27.35 70.1497 27.218C70.4977 27.074 70.7797 26.9 70.9957 26.696ZM78.1842 29V21.674H75.1962V19.568H83.6022V21.674H80.5962V29H78.1842ZM84.9535 29V19.568H87.3655V22.538H89.5075C90.6355 22.538 91.4995 22.826 92.0995 23.402C92.6995 23.978 92.9995 24.74 92.9995 25.688C92.9995 26.324 92.8735 26.894 92.6215 27.398C92.3695 27.902 91.9975 28.298 91.5055 28.586C91.0135 28.862 90.4015 29 89.6695 29H84.9535ZM87.3655 27.164H89.2915C89.6155 27.164 89.8795 27.098 90.0835 26.966C90.2995 26.834 90.4555 26.66 90.5515 26.444C90.6595 26.228 90.7135 25.982 90.7135 25.706C90.7135 25.442 90.6655 25.208 90.5695 25.004C90.4735 24.788 90.3175 24.62 90.1015 24.5C89.8975 24.368 89.6215 24.302 89.2735 24.302H87.3655V27.164Z" fill="#1C1C1C"/>
<path d="M99 22L103 25L99 28" stroke="#1C1C1C"/>
</svg>
