<svg width="360" height="293" viewBox="0 0 360 293" fill="none" xmlns="http://www.w3.org/2000/svg">
<g filter="url(#filter0_d_1_1533)">
<path fill-rule="evenodd" clip-rule="evenodd" d="M42 2C19.9086 2 2 19.9086 2 42V138C2 159.035 18.2369 176.278 38.8612 177.879L31.7202 194.7L64.9764 227.014L8 284L94 236.806L64.9764 201.554L91.8279 178H311C333.091 178 351 160.091 351 138V42C351 19.9086 333.091 2 311 2H42Z" fill="white"/>
<path d="M38.8612 177.879L40.2419 178.465L41.0571 176.545L38.9773 176.383L38.8612 177.879ZM31.7202 194.7L30.3395 194.114L29.9379 195.059L30.6749 195.775L31.7202 194.7ZM64.9764 227.014L66.0372 228.074L67.113 226.998L66.0217 225.938L64.9764 227.014ZM8 284L6.93925 282.939L8.72164 285.315L8 284ZM94 236.806L94.7216 238.121L96.3086 237.25L95.158 235.852L94 236.806ZM64.9764 201.554L63.9872 200.427L62.8943 201.385L63.8184 202.508L64.9764 201.554ZM91.8279 178V176.5H91.2632L90.8387 176.872L91.8279 178ZM3.5 42C3.5 20.737 20.737 3.5 42 3.5V0.5C19.0802 0.5 0.5 19.0802 0.5 42H3.5ZM3.5 138V42H0.5V138H3.5ZM38.9773 176.383C19.1279 174.842 3.5 158.246 3.5 138H0.5C0.5 159.825 17.3459 177.713 38.7451 179.374L38.9773 176.383ZM37.4805 177.293L30.3395 194.114L33.1009 195.286L40.2419 178.465L37.4805 177.293ZM30.6749 195.775L63.9311 228.089L66.0217 225.938L32.7655 193.624L30.6749 195.775ZM63.9157 225.953L6.93925 282.939L9.06075 285.061L66.0372 228.074L63.9157 225.953ZM8.72164 285.315L94.7216 238.121L93.2784 235.491L7.27836 282.685L8.72164 285.315ZM95.158 235.852L66.1344 200.601L63.8184 202.508L92.842 237.759L95.158 235.852ZM65.9656 202.682L92.8171 179.128L90.8387 176.872L63.9872 200.427L65.9656 202.682ZM311 176.5H91.8279V179.5H311V176.5ZM349.5 138C349.5 159.263 332.263 176.5 311 176.5V179.5C333.92 179.5 352.5 160.92 352.5 138H349.5ZM349.5 42V138H352.5V42H349.5ZM311 3.5C332.263 3.5 349.5 20.737 349.5 42H352.5C352.5 19.0802 333.92 0.5 311 0.5V3.5ZM42 3.5H311V0.5H42V3.5Z" fill="black"/>
</g>
<path d="M155.51 56V45.8L151.814 53.216H149.702L146.006 45.8V56H142.07V38.96H146.342L150.758 47.864L155.198 38.96H159.446V56H155.51ZM178.929 56V43.4H182.769V56H178.929ZM178.929 41.96V38.48H182.769V41.96H178.929ZM193.558 55.328C193.03 55.552 192.422 55.76 191.734 55.952C191.062 56.144 190.382 56.24 189.694 56.24C189.214 56.24 188.758 56.176 188.326 56.048C187.91 55.936 187.542 55.752 187.222 55.496C186.902 55.224 186.646 54.872 186.454 54.44C186.278 54.008 186.19 53.488 186.19 52.88V46.304H184.582V43.4H186.19V39.392H190.03V43.4H192.598V46.304H190.03V51.56C190.03 51.976 190.134 52.28 190.342 52.472C190.55 52.648 190.814 52.736 191.134 52.736C191.422 52.736 191.718 52.688 192.022 52.592C192.326 52.496 192.59 52.392 192.814 52.28L193.558 55.328ZM195.15 57.896C195.47 58.008 195.766 58.088 196.038 58.136C196.326 58.184 196.582 58.208 196.806 58.208C197.27 58.208 197.63 58.048 197.886 57.728C198.142 57.408 198.374 56.832 198.582 56L193.782 43.4H197.742L200.67 52.712L203.19 43.4H206.79L201.99 58.04C201.654 59.08 201.054 59.92 200.19 60.56C199.326 61.216 198.302 61.544 197.118 61.544C196.798 61.544 196.47 61.512 196.134 61.448C195.814 61.4 195.486 61.312 195.15 61.184V57.896ZM208.705 47.456V43.544H211.825V47.456H208.705ZM208.705 56V52.088H211.825V56H208.705ZM56.6453 71.86L56.2493 74.056H56.9693V76.486H54.5393V74.02L55.1873 71.86H56.6453ZM60.0293 71.86L59.6333 74.056H60.3533V76.486H57.9233V74.02L58.5713 71.86H60.0293ZM72.8199 81.706C72.8199 82.246 72.7119 82.72 72.4959 83.128C72.2799 83.536 71.9799 83.878 71.5959 84.154C71.2239 84.43 70.7859 84.64 70.2819 84.784C69.7899 84.928 69.2619 85 68.6979 85H62.5239V72.22H69.3639C69.8079 72.22 70.2099 72.316 70.5699 72.508C70.9299 72.7 71.2359 72.952 71.4879 73.264C71.7399 73.564 71.9319 73.912 72.0639 74.308C72.2079 74.692 72.2799 75.082 72.2799 75.478C72.2799 76.102 72.1239 76.69 71.8119 77.242C71.4999 77.782 71.0439 78.184 70.4439 78.448C71.1759 78.664 71.7519 79.054 72.1719 79.618C72.6039 80.17 72.8199 80.866 72.8199 81.706ZM70.3179 81.238C70.3179 81.01 70.2759 80.794 70.1919 80.59C70.1199 80.374 70.0179 80.188 69.8859 80.032C69.7539 79.876 69.5979 79.756 69.4179 79.672C69.2379 79.576 69.0399 79.528 68.8239 79.528H65.0079V82.894H68.6979C68.9259 82.894 69.1359 82.852 69.3279 82.768C69.5319 82.684 69.7059 82.57 69.8499 82.426C69.9939 82.27 70.1079 82.09 70.1919 81.886C70.2759 81.682 70.3179 81.466 70.3179 81.238ZM65.0079 74.344V77.566H68.3199C68.7399 77.566 69.0939 77.422 69.3819 77.134C69.6819 76.846 69.8319 76.45 69.8319 75.946C69.8319 75.454 69.6939 75.064 69.4179 74.776C69.1539 74.488 68.8239 74.344 68.4279 74.344H65.0079ZM74.7395 75.568H77.1335V78.556H78.7175C79.2335 78.556 79.7075 78.628 80.1395 78.772C80.5835 78.904 80.9675 79.108 81.2915 79.384C81.6155 79.648 81.8675 79.984 82.0475 80.392C82.2395 80.788 82.3355 81.244 82.3355 81.76C82.3355 82.288 82.2455 82.756 82.0655 83.164C81.8855 83.56 81.6335 83.896 81.3095 84.172C80.9975 84.448 80.6255 84.658 80.1935 84.802C79.7735 84.934 79.3115 85 78.8075 85H74.7395V75.568ZM83.3615 75.568H85.7375V85H83.3615V75.568ZM78.5555 83.11C78.9635 83.11 79.2875 83.002 79.5275 82.786C79.7675 82.558 79.8875 82.228 79.8875 81.796C79.8875 81.364 79.7615 81.034 79.5095 80.806C79.2575 80.566 78.9395 80.446 78.5555 80.446H77.1335V83.11H78.5555ZM92.637 74.506C91.881 74.674 91.281 74.998 90.837 75.478C90.405 75.958 90.111 76.648 89.955 77.548C90.327 77.092 90.777 76.744 91.305 76.504C91.833 76.252 92.427 76.126 93.087 76.126C93.663 76.126 94.203 76.24 94.707 76.468C95.211 76.696 95.649 77.008 96.021 77.404C96.405 77.8 96.705 78.268 96.921 78.808C97.149 79.348 97.263 79.93 97.263 80.554C97.263 81.202 97.149 81.808 96.921 82.372C96.705 82.936 96.387 83.428 95.967 83.848C95.559 84.256 95.055 84.58 94.455 84.82C93.855 85.06 93.177 85.18 92.421 85.18C90.861 85.18 89.679 84.694 88.875 83.722C88.071 82.738 87.669 81.304 87.669 79.42C87.669 78.352 87.771 77.422 87.975 76.63C88.179 75.826 88.485 75.148 88.893 74.596C89.313 74.032 89.829 73.576 90.441 73.228C91.065 72.88 91.785 72.616 92.601 72.436L96.093 71.662L96.255 73.696L92.637 74.506ZM90.135 80.5C90.135 80.896 90.195 81.256 90.315 81.58C90.435 81.904 90.597 82.186 90.801 82.426C91.005 82.654 91.251 82.834 91.539 82.966C91.827 83.098 92.145 83.164 92.493 83.164C93.177 83.164 93.729 82.93 94.149 82.462C94.569 81.982 94.779 81.352 94.779 80.572C94.779 79.852 94.563 79.27 94.131 78.826C93.699 78.37 93.129 78.142 92.421 78.142C91.749 78.142 91.197 78.358 90.765 78.79C90.345 79.222 90.135 79.792 90.135 80.5ZM103.3 85.18C102.544 85.18 101.86 85.054 101.248 84.802C100.636 84.538 100.114 84.184 99.6821 83.74C99.2501 83.296 98.9141 82.78 98.6741 82.192C98.4461 81.604 98.3321 80.986 98.3321 80.338C98.3321 79.666 98.4461 79.036 98.6741 78.448C98.9021 77.848 99.2321 77.326 99.6641 76.882C100.096 76.426 100.618 76.066 101.23 75.802C101.854 75.538 102.55 75.406 103.318 75.406C104.086 75.406 104.77 75.538 105.37 75.802C105.982 76.066 106.498 76.42 106.918 76.864C107.35 77.308 107.674 77.824 107.89 78.412C108.118 79 108.232 79.612 108.232 80.248C108.232 80.404 108.226 80.554 108.214 80.698C108.214 80.842 108.202 80.962 108.178 81.058H100.888C100.924 81.43 101.014 81.76 101.158 82.048C101.302 82.336 101.488 82.582 101.716 82.786C101.944 82.99 102.202 83.146 102.49 83.254C102.778 83.362 103.078 83.416 103.39 83.416C103.87 83.416 104.32 83.302 104.74 83.074C105.172 82.834 105.466 82.522 105.622 82.138L107.692 82.714C107.344 83.434 106.786 84.028 106.018 84.496C105.262 84.952 104.356 85.18 103.3 85.18ZM105.748 79.492C105.688 78.784 105.424 78.22 104.956 77.8C104.5 77.368 103.942 77.152 103.282 77.152C102.958 77.152 102.652 77.212 102.364 77.332C102.088 77.44 101.842 77.596 101.626 77.8C101.41 78.004 101.23 78.25 101.086 78.538C100.954 78.826 100.876 79.144 100.852 79.492H105.748ZM115.39 85.18C114.646 85.18 113.998 85.018 113.446 84.694C112.894 84.358 112.462 83.908 112.15 83.344V88.834H109.738V75.568H111.844V77.188C112.192 76.636 112.642 76.204 113.194 75.892C113.746 75.568 114.382 75.406 115.102 75.406C115.738 75.406 116.326 75.538 116.866 75.802C117.406 76.054 117.868 76.402 118.252 76.846C118.648 77.278 118.954 77.794 119.17 78.394C119.398 78.982 119.512 79.606 119.512 80.266C119.512 80.95 119.41 81.592 119.206 82.192C119.002 82.792 118.714 83.314 118.342 83.758C117.982 84.202 117.55 84.55 117.046 84.802C116.542 85.054 115.99 85.18 115.39 85.18ZM114.58 83.128C114.94 83.128 115.27 83.05 115.57 82.894C115.882 82.738 116.146 82.528 116.362 82.264C116.578 82 116.746 81.694 116.866 81.346C116.986 80.998 117.046 80.638 117.046 80.266C117.046 79.87 116.98 79.504 116.848 79.168C116.716 78.82 116.53 78.52 116.29 78.268C116.062 78.016 115.786 77.818 115.462 77.674C115.15 77.53 114.808 77.458 114.436 77.458C114.208 77.458 113.974 77.5 113.734 77.584C113.494 77.656 113.272 77.764 113.068 77.908C112.864 78.052 112.678 78.22 112.51 78.412C112.354 78.604 112.234 78.814 112.15 79.042V81.256C112.366 81.796 112.696 82.246 113.14 82.606C113.584 82.954 114.064 83.128 114.58 83.128ZM125.501 85.18C124.745 85.18 124.061 85.054 123.449 84.802C122.837 84.538 122.315 84.184 121.883 83.74C121.451 83.296 121.115 82.78 120.875 82.192C120.647 81.604 120.533 80.986 120.533 80.338C120.533 79.666 120.647 79.036 120.875 78.448C121.103 77.848 121.433 77.326 121.865 76.882C122.297 76.426 122.819 76.066 123.431 75.802C124.055 75.538 124.751 75.406 125.519 75.406C126.287 75.406 126.971 75.538 127.571 75.802C128.183 76.066 128.699 76.42 129.119 76.864C129.551 77.308 129.875 77.824 130.091 78.412C130.319 79 130.433 79.612 130.433 80.248C130.433 80.404 130.427 80.554 130.415 80.698C130.415 80.842 130.403 80.962 130.379 81.058H123.089C123.125 81.43 123.215 81.76 123.359 82.048C123.503 82.336 123.689 82.582 123.917 82.786C124.145 82.99 124.403 83.146 124.691 83.254C124.979 83.362 125.279 83.416 125.591 83.416C126.071 83.416 126.521 83.302 126.941 83.074C127.373 82.834 127.667 82.522 127.823 82.138L129.893 82.714C129.545 83.434 128.987 84.028 128.219 84.496C127.463 84.952 126.557 85.18 125.501 85.18ZM127.949 79.492C127.889 78.784 127.625 78.22 127.157 77.8C126.701 77.368 126.143 77.152 125.483 77.152C125.159 77.152 124.853 77.212 124.565 77.332C124.289 77.44 124.043 77.596 123.827 77.8C123.611 78.004 123.431 78.25 123.287 78.538C123.155 78.826 123.077 79.144 123.053 79.492H127.949ZM136.052 85H133.658V77.656H130.706V75.568H138.986V77.656H136.052V85ZM144.31 85.18C143.554 85.18 142.87 85.054 142.258 84.802C141.646 84.538 141.124 84.184 140.692 83.74C140.26 83.296 139.924 82.78 139.684 82.192C139.456 81.604 139.342 80.986 139.342 80.338C139.342 79.666 139.456 79.036 139.684 78.448C139.912 77.848 140.242 77.326 140.674 76.882C141.106 76.426 141.628 76.066 142.24 75.802C142.864 75.538 143.56 75.406 144.328 75.406C145.096 75.406 145.78 75.538 146.38 75.802C146.992 76.066 147.508 76.42 147.928 76.864C148.36 77.308 148.684 77.824 148.9 78.412C149.128 79 149.242 79.612 149.242 80.248C149.242 80.404 149.236 80.554 149.224 80.698C149.224 80.842 149.212 80.962 149.188 81.058H141.898C141.934 81.43 142.024 81.76 142.168 82.048C142.312 82.336 142.498 82.582 142.726 82.786C142.954 82.99 143.212 83.146 143.5 83.254C143.788 83.362 144.088 83.416 144.4 83.416C144.88 83.416 145.33 83.302 145.75 83.074C146.182 82.834 146.476 82.522 146.632 82.138L148.702 82.714C148.354 83.434 147.796 84.028 147.028 84.496C146.272 84.952 145.366 85.18 144.31 85.18ZM146.758 79.492C146.698 78.784 146.434 78.22 145.966 77.8C145.51 77.368 144.952 77.152 144.292 77.152C143.968 77.152 143.662 77.212 143.374 77.332C143.098 77.44 142.852 77.596 142.636 77.8C142.42 78.004 142.24 78.25 142.096 78.538C141.964 78.826 141.886 79.144 141.862 79.492H146.758ZM154.442 80.284C154.442 79.624 154.556 79 154.784 78.412C155.012 77.824 155.342 77.308 155.774 76.864C156.206 76.42 156.728 76.066 157.34 75.802C157.952 75.538 158.642 75.406 159.41 75.406C160.442 75.406 161.318 75.628 162.038 76.072C162.77 76.516 163.316 77.098 163.676 77.818L161.318 78.538C161.114 78.19 160.844 77.926 160.508 77.746C160.172 77.554 159.8 77.458 159.392 77.458C159.044 77.458 158.72 77.53 158.42 77.674C158.12 77.806 157.856 77.998 157.628 78.25C157.412 78.49 157.238 78.784 157.106 79.132C156.986 79.48 156.926 79.864 156.926 80.284C156.926 80.704 156.992 81.088 157.124 81.436C157.256 81.784 157.43 82.084 157.646 82.336C157.874 82.588 158.138 82.786 158.438 82.93C158.738 83.062 159.056 83.128 159.392 83.128C159.824 83.128 160.22 83.02 160.58 82.804C160.952 82.588 161.21 82.324 161.354 82.012L163.712 82.732C163.388 83.452 162.854 84.04 162.11 84.496C161.366 84.952 160.472 85.18 159.428 85.18C158.66 85.18 157.97 85.048 157.358 84.784C156.746 84.52 156.224 84.166 155.792 83.722C155.36 83.266 155.024 82.744 154.784 82.156C154.556 81.556 154.442 80.932 154.442 80.284ZM170.83 75.568C171.178 75.568 171.496 75.634 171.784 75.766C172.072 75.886 172.318 76.054 172.522 76.27C172.738 76.486 172.9 76.738 173.008 77.026C173.128 77.314 173.188 77.62 173.188 77.944C173.188 78.352 173.08 78.766 172.864 79.186C172.648 79.594 172.294 79.9 171.802 80.104C172.354 80.26 172.786 80.53 173.098 80.914C173.422 81.286 173.584 81.796 173.584 82.444C173.584 83.308 173.284 83.95 172.684 84.37C172.084 84.79 171.256 85 170.2 85H165.25V75.568H170.83ZM169.696 79.51C170.032 79.51 170.302 79.414 170.506 79.222C170.71 79.03 170.812 78.754 170.812 78.394C170.812 78.094 170.722 77.842 170.542 77.638C170.374 77.422 170.116 77.314 169.768 77.314H167.644V79.51H169.696ZM170.02 83.254C170.368 83.254 170.644 83.14 170.848 82.912C171.064 82.684 171.172 82.408 171.172 82.084C171.172 81.748 171.07 81.472 170.866 81.256C170.662 81.028 170.386 80.914 170.038 80.914H167.644V83.254H170.02ZM179.571 85.18C178.803 85.18 178.113 85.048 177.501 84.784C176.889 84.52 176.367 84.166 175.935 83.722C175.515 83.266 175.191 82.744 174.963 82.156C174.735 81.568 174.621 80.95 174.621 80.302C174.621 79.642 174.735 79.018 174.963 78.43C175.191 77.842 175.515 77.326 175.935 76.882C176.367 76.426 176.889 76.066 177.501 75.802C178.113 75.538 178.803 75.406 179.571 75.406C180.339 75.406 181.023 75.538 181.623 75.802C182.235 76.066 182.751 76.426 183.171 76.882C183.603 77.326 183.933 77.842 184.161 78.43C184.389 79.018 184.503 79.642 184.503 80.302C184.503 80.95 184.389 81.568 184.161 82.156C183.933 82.744 183.609 83.266 183.189 83.722C182.769 84.166 182.253 84.52 181.641 84.784C181.029 85.048 180.339 85.18 179.571 85.18ZM177.105 80.302C177.105 80.722 177.165 81.106 177.285 81.454C177.417 81.79 177.591 82.084 177.807 82.336C178.035 82.588 178.299 82.786 178.599 82.93C178.899 83.062 179.223 83.128 179.571 83.128C179.919 83.128 180.243 83.062 180.543 82.93C180.843 82.786 181.101 82.588 181.317 82.336C181.545 82.084 181.719 81.784 181.839 81.436C181.971 81.088 182.037 80.704 182.037 80.284C182.037 79.876 181.971 79.498 181.839 79.15C181.719 78.802 181.545 78.502 181.317 78.25C181.101 77.998 180.843 77.806 180.543 77.674C180.243 77.53 179.919 77.458 179.571 77.458C179.223 77.458 178.899 77.53 178.599 77.674C178.299 77.818 178.035 78.016 177.807 78.268C177.591 78.52 177.417 78.82 177.285 79.168C177.165 79.516 177.105 79.894 177.105 80.302ZM193.637 71.86C193.613 72.616 193.331 73.21 192.791 73.642C192.251 74.062 191.543 74.272 190.667 74.272C189.791 74.272 189.083 74.062 188.543 73.642C188.003 73.21 187.721 72.616 187.697 71.86H189.029C189.041 72.316 189.185 72.652 189.461 72.868C189.749 73.084 190.151 73.192 190.667 73.192C191.699 73.192 192.251 72.748 192.323 71.86H193.637ZM188.561 81.562L193.025 75.568H194.807V85H192.413V79.168L188.003 85H186.167V75.568H188.561V81.562ZM209.669 85H207.275V77.656H203.801V85H201.407V75.568H209.669V85ZM212.153 86.692C212.357 86.812 212.549 86.896 212.729 86.944C212.921 86.992 213.101 87.016 213.269 87.016C213.569 87.016 213.827 86.866 214.043 86.566C214.259 86.278 214.451 85.756 214.619 85L210.893 75.568H213.377L215.933 82.912L218.201 75.568H220.469L216.761 86.224C216.401 87.256 215.957 87.994 215.429 88.438C214.913 88.882 214.277 89.104 213.521 89.104C213.245 89.104 212.999 89.08 212.783 89.032C212.567 88.984 212.357 88.894 212.153 88.762V86.692ZM226.334 85H223.94V77.656H220.988V75.568H229.268V77.656H226.334V85ZM230.71 75.568H233.104V78.556H234.94C235.444 78.556 235.912 78.628 236.344 78.772C236.788 78.904 237.172 79.108 237.496 79.384C237.82 79.648 238.072 79.984 238.252 80.392C238.444 80.788 238.54 81.244 238.54 81.76C238.54 82.288 238.45 82.756 238.27 83.164C238.09 83.56 237.844 83.896 237.532 84.172C237.22 84.448 236.848 84.658 236.416 84.802C235.996 84.934 235.534 85 235.03 85H230.71V75.568ZM234.76 83.11C235.18 83.11 235.51 83.002 235.75 82.786C235.99 82.558 236.11 82.228 236.11 81.796C236.11 81.364 235.984 81.034 235.732 80.806C235.48 80.566 235.162 80.446 234.778 80.446H233.104V83.11H234.76ZM246.745 81.562L251.209 75.568H252.991V85H250.597V79.168L246.187 85H244.351V75.568H246.745V81.562ZM258.961 80.284C258.961 79.624 259.075 79 259.303 78.412C259.531 77.824 259.861 77.308 260.293 76.864C260.725 76.42 261.247 76.066 261.859 75.802C262.471 75.538 263.161 75.406 263.929 75.406C264.961 75.406 265.837 75.628 266.557 76.072C267.289 76.516 267.835 77.098 268.195 77.818L265.837 78.538C265.633 78.19 265.363 77.926 265.027 77.746C264.691 77.554 264.319 77.458 263.911 77.458C263.563 77.458 263.239 77.53 262.939 77.674C262.639 77.806 262.375 77.998 262.147 78.25C261.931 78.49 261.757 78.784 261.625 79.132C261.505 79.48 261.445 79.864 261.445 80.284C261.445 80.704 261.511 81.088 261.643 81.436C261.775 81.784 261.949 82.084 262.165 82.336C262.393 82.588 262.657 82.786 262.957 82.93C263.257 83.062 263.575 83.128 263.911 83.128C264.343 83.128 264.739 83.02 265.099 82.804C265.471 82.588 265.729 82.324 265.873 82.012L268.231 82.732C267.907 83.452 267.373 84.04 266.629 84.496C265.885 84.952 264.991 85.18 263.947 85.18C263.179 85.18 262.489 85.048 261.877 84.784C261.265 84.52 260.743 84.166 260.311 83.722C259.879 83.266 259.543 82.744 259.303 82.156C259.075 81.556 258.961 80.932 258.961 80.284ZM275.349 75.568C275.697 75.568 276.015 75.634 276.303 75.766C276.591 75.886 276.837 76.054 277.041 76.27C277.257 76.486 277.419 76.738 277.527 77.026C277.647 77.314 277.707 77.62 277.707 77.944C277.707 78.352 277.599 78.766 277.383 79.186C277.167 79.594 276.813 79.9 276.321 80.104C276.873 80.26 277.305 80.53 277.617 80.914C277.941 81.286 278.103 81.796 278.103 82.444C278.103 83.308 277.803 83.95 277.203 84.37C276.603 84.79 275.775 85 274.719 85H269.769V75.568H275.349ZM274.215 79.51C274.551 79.51 274.821 79.414 275.025 79.222C275.229 79.03 275.331 78.754 275.331 78.394C275.331 78.094 275.241 77.842 275.061 77.638C274.893 77.422 274.635 77.314 274.287 77.314H272.163V79.51H274.215ZM274.539 83.254C274.887 83.254 275.163 83.14 275.367 82.912C275.583 82.684 275.691 82.408 275.691 82.084C275.691 81.748 275.589 81.472 275.385 81.256C275.181 81.028 274.905 80.914 274.557 80.914H272.163V83.254H274.539ZM284.091 85.18C283.323 85.18 282.633 85.048 282.021 84.784C281.409 84.52 280.887 84.166 280.455 83.722C280.035 83.266 279.711 82.744 279.483 82.156C279.255 81.568 279.141 80.95 279.141 80.302C279.141 79.642 279.255 79.018 279.483 78.43C279.711 77.842 280.035 77.326 280.455 76.882C280.887 76.426 281.409 76.066 282.021 75.802C282.633 75.538 283.323 75.406 284.091 75.406C284.859 75.406 285.543 75.538 286.143 75.802C286.755 76.066 287.271 76.426 287.691 76.882C288.123 77.326 288.453 77.842 288.681 78.43C288.909 79.018 289.023 79.642 289.023 80.302C289.023 80.95 288.909 81.568 288.681 82.156C288.453 82.744 288.129 83.266 287.709 83.722C287.289 84.166 286.773 84.52 286.161 84.784C285.549 85.048 284.859 85.18 284.091 85.18ZM281.625 80.302C281.625 80.722 281.685 81.106 281.805 81.454C281.937 81.79 282.111 82.084 282.327 82.336C282.555 82.588 282.819 82.786 283.119 82.93C283.419 83.062 283.743 83.128 284.091 83.128C284.439 83.128 284.763 83.062 285.063 82.93C285.363 82.786 285.621 82.588 285.837 82.336C286.065 82.084 286.239 81.784 286.359 81.436C286.491 81.088 286.557 80.704 286.557 80.284C286.557 79.876 286.491 79.498 286.359 79.15C286.239 78.802 286.065 78.502 285.837 78.25C285.621 77.998 285.363 77.806 285.063 77.674C284.763 77.53 284.439 77.458 284.091 77.458C283.743 77.458 283.419 77.53 283.119 77.674C282.819 77.818 282.555 78.016 282.327 78.268C282.111 78.52 281.937 78.82 281.805 79.168C281.685 79.516 281.625 79.894 281.625 80.302ZM298.157 71.86C298.133 72.616 297.851 73.21 297.311 73.642C296.771 74.062 296.063 74.272 295.187 74.272C294.311 74.272 293.603 74.062 293.063 73.642C292.523 73.21 292.241 72.616 292.217 71.86H293.549C293.561 72.316 293.705 72.652 293.981 72.868C294.269 73.084 294.671 73.192 295.187 73.192C296.219 73.192 296.771 72.748 296.843 71.86H298.157ZM293.081 81.562L297.545 75.568H299.327V85H296.933V79.168L292.523 85H290.687V75.568H293.081V81.562ZM69.2378 114H66.8438V106.656H63.3698V114H60.9758V104.568H69.2378V114ZM75.8075 114.18C75.0395 114.18 74.3495 114.048 73.7375 113.784C73.1255 113.52 72.6035 113.166 72.1715 112.722C71.7515 112.266 71.4275 111.744 71.1995 111.156C70.9715 110.568 70.8575 109.95 70.8575 109.302C70.8575 108.642 70.9715 108.018 71.1995 107.43C71.4275 106.842 71.7515 106.326 72.1715 105.882C72.6035 105.426 73.1255 105.066 73.7375 104.802C74.3495 104.538 75.0395 104.406 75.8075 104.406C76.5755 104.406 77.2595 104.538 77.8595 104.802C78.4715 105.066 78.9875 105.426 79.4075 105.882C79.8395 106.326 80.1695 106.842 80.3975 107.43C80.6255 108.018 80.7395 108.642 80.7395 109.302C80.7395 109.95 80.6255 110.568 80.3975 111.156C80.1695 111.744 79.8455 112.266 79.4255 112.722C79.0055 113.166 78.4895 113.52 77.8775 113.784C77.2655 114.048 76.5755 114.18 75.8075 114.18ZM73.3415 109.302C73.3415 109.722 73.4015 110.106 73.5215 110.454C73.6535 110.79 73.8275 111.084 74.0435 111.336C74.2715 111.588 74.5355 111.786 74.8355 111.93C75.1355 112.062 75.4595 112.128 75.8075 112.128C76.1555 112.128 76.4795 112.062 76.7795 111.93C77.0795 111.786 77.3375 111.588 77.5535 111.336C77.7815 111.084 77.9555 110.784 78.0755 110.436C78.2075 110.088 78.2735 109.704 78.2735 109.284C78.2735 108.876 78.2075 108.498 78.0755 108.15C77.9555 107.802 77.7815 107.502 77.5535 107.25C77.3375 106.998 77.0795 106.806 76.7795 106.674C76.4795 106.53 76.1555 106.458 75.8075 106.458C75.4595 106.458 75.1355 106.53 74.8355 106.674C74.5355 106.818 74.2715 107.016 74.0435 107.268C73.8275 107.52 73.6535 107.82 73.5215 108.168C73.4015 108.516 73.3415 108.894 73.3415 109.302ZM88.0015 104.568C88.3495 104.568 88.6675 104.634 88.9555 104.766C89.2435 104.886 89.4895 105.054 89.6935 105.27C89.9095 105.486 90.0715 105.738 90.1795 106.026C90.2995 106.314 90.3595 106.62 90.3595 106.944C90.3595 107.352 90.2515 107.766 90.0355 108.186C89.8195 108.594 89.4655 108.9 88.9735 109.104C89.5255 109.26 89.9575 109.53 90.2695 109.914C90.5935 110.286 90.7555 110.796 90.7555 111.444C90.7555 112.308 90.4555 112.95 89.8555 113.37C89.2555 113.79 88.4275 114 87.3715 114H82.4215V104.568H88.0015ZM86.8675 108.51C87.2035 108.51 87.4735 108.414 87.6775 108.222C87.8815 108.03 87.9835 107.754 87.9835 107.394C87.9835 107.094 87.8935 106.842 87.7135 106.638C87.5455 106.422 87.2875 106.314 86.9395 106.314H84.8155V108.51H86.8675ZM87.1915 112.254C87.5395 112.254 87.8155 112.14 88.0195 111.912C88.2355 111.684 88.3435 111.408 88.3435 111.084C88.3435 110.748 88.2415 110.472 88.0375 110.256C87.8335 110.028 87.5575 109.914 87.2095 109.914H84.8155V112.254H87.1915ZM96.7431 114.18C95.9751 114.18 95.2851 114.048 94.6731 113.784C94.0611 113.52 93.5391 113.166 93.1071 112.722C92.6871 112.266 92.3631 111.744 92.1351 111.156C91.9071 110.568 91.7931 109.95 91.7931 109.302C91.7931 108.642 91.9071 108.018 92.1351 107.43C92.3631 106.842 92.6871 106.326 93.1071 105.882C93.5391 105.426 94.0611 105.066 94.6731 104.802C95.2851 104.538 95.9751 104.406 96.7431 104.406C97.5111 104.406 98.1951 104.538 98.7951 104.802C99.4071 105.066 99.9231 105.426 100.343 105.882C100.775 106.326 101.105 106.842 101.333 107.43C101.561 108.018 101.675 108.642 101.675 109.302C101.675 109.95 101.561 110.568 101.333 111.156C101.105 111.744 100.781 112.266 100.361 112.722C99.9411 113.166 99.4251 113.52 98.8131 113.784C98.2011 114.048 97.5111 114.18 96.7431 114.18ZM94.2771 109.302C94.2771 109.722 94.3371 110.106 94.4571 110.454C94.5891 110.79 94.7631 111.084 94.9791 111.336C95.2071 111.588 95.4711 111.786 95.7711 111.93C96.0711 112.062 96.3951 112.128 96.7431 112.128C97.0911 112.128 97.4151 112.062 97.7151 111.93C98.0151 111.786 98.2731 111.588 98.4891 111.336C98.7171 111.084 98.8911 110.784 99.0111 110.436C99.1431 110.088 99.2091 109.704 99.2091 109.284C99.2091 108.876 99.1431 108.498 99.0111 108.15C98.8911 107.802 98.7171 107.502 98.4891 107.25C98.2731 106.998 98.0151 106.806 97.7151 106.674C97.4151 106.53 97.0911 106.458 96.7431 106.458C96.3951 106.458 96.0711 106.53 95.7711 106.674C95.4711 106.818 95.2071 107.016 94.9791 107.268C94.7631 107.52 94.5891 107.82 94.4571 108.168C94.3371 108.516 94.2771 108.894 94.2771 109.302ZM108.991 114.18C108.247 114.18 107.599 114.018 107.047 113.694C106.495 113.358 106.063 112.908 105.751 112.344V117.834H103.339V104.568H105.445V106.188C105.793 105.636 106.243 105.204 106.795 104.892C107.347 104.568 107.983 104.406 108.703 104.406C109.339 104.406 109.927 104.538 110.467 104.802C111.007 105.054 111.469 105.402 111.853 105.846C112.249 106.278 112.555 106.794 112.771 107.394C112.999 107.982 113.113 108.606 113.113 109.266C113.113 109.95 113.011 110.592 112.807 111.192C112.603 111.792 112.315 112.314 111.943 112.758C111.583 113.202 111.151 113.55 110.647 113.802C110.143 114.054 109.591 114.18 108.991 114.18ZM108.181 112.128C108.541 112.128 108.871 112.05 109.171 111.894C109.483 111.738 109.747 111.528 109.963 111.264C110.179 111 110.347 110.694 110.467 110.346C110.587 109.998 110.647 109.638 110.647 109.266C110.647 108.87 110.581 108.504 110.449 108.168C110.317 107.82 110.131 107.52 109.891 107.268C109.663 107.016 109.387 106.818 109.063 106.674C108.751 106.53 108.409 106.458 108.037 106.458C107.809 106.458 107.575 106.5 107.335 106.584C107.095 106.656 106.873 106.764 106.669 106.908C106.465 107.052 106.279 107.22 106.111 107.412C105.955 107.604 105.835 107.814 105.751 108.042V110.256C105.967 110.796 106.297 111.246 106.741 111.606C107.185 111.954 107.665 112.128 108.181 112.128ZM119.085 114.18C118.317 114.18 117.627 114.048 117.015 113.784C116.403 113.52 115.881 113.166 115.449 112.722C115.029 112.266 114.705 111.744 114.477 111.156C114.249 110.568 114.135 109.95 114.135 109.302C114.135 108.642 114.249 108.018 114.477 107.43C114.705 106.842 115.029 106.326 115.449 105.882C115.881 105.426 116.403 105.066 117.015 104.802C117.627 104.538 118.317 104.406 119.085 104.406C119.853 104.406 120.537 104.538 121.137 104.802C121.749 105.066 122.265 105.426 122.685 105.882C123.117 106.326 123.447 106.842 123.675 107.43C123.903 108.018 124.017 108.642 124.017 109.302C124.017 109.95 123.903 110.568 123.675 111.156C123.447 111.744 123.123 112.266 122.703 112.722C122.283 113.166 121.767 113.52 121.155 113.784C120.543 114.048 119.853 114.18 119.085 114.18ZM116.619 109.302C116.619 109.722 116.679 110.106 116.799 110.454C116.931 110.79 117.105 111.084 117.321 111.336C117.549 111.588 117.813 111.786 118.113 111.93C118.413 112.062 118.737 112.128 119.085 112.128C119.433 112.128 119.757 112.062 120.057 111.93C120.357 111.786 120.615 111.588 120.831 111.336C121.059 111.084 121.233 110.784 121.353 110.436C121.485 110.088 121.551 109.704 121.551 109.284C121.551 108.876 121.485 108.498 121.353 108.15C121.233 107.802 121.059 107.502 120.831 107.25C120.615 106.998 120.357 106.806 120.057 106.674C119.757 106.53 119.433 106.458 119.085 106.458C118.737 106.458 118.413 106.53 118.113 106.674C117.813 106.818 117.549 107.016 117.321 107.268C117.105 107.52 116.931 107.82 116.799 108.168C116.679 108.516 116.619 108.894 116.619 109.302ZM129.742 114H127.348V106.656H124.396V104.568H132.676V106.656H129.742V114ZM144.041 104.568C144.389 104.568 144.707 104.634 144.995 104.766C145.283 104.886 145.529 105.054 145.733 105.27C145.949 105.486 146.111 105.738 146.219 106.026C146.339 106.314 146.399 106.62 146.399 106.944C146.399 107.352 146.291 107.766 146.075 108.186C145.859 108.594 145.505 108.9 145.013 109.104C145.565 109.26 145.997 109.53 146.309 109.914C146.633 110.286 146.795 110.796 146.795 111.444C146.795 112.308 146.495 112.95 145.895 113.37C145.295 113.79 144.467 114 143.411 114H138.461V104.568H144.041ZM142.907 108.51C143.243 108.51 143.513 108.414 143.717 108.222C143.921 108.03 144.023 107.754 144.023 107.394C144.023 107.094 143.933 106.842 143.753 106.638C143.585 106.422 143.327 106.314 142.979 106.314H140.855V108.51H142.907ZM143.231 112.254C143.579 112.254 143.855 112.14 144.059 111.912C144.275 111.684 144.383 111.408 144.383 111.084C144.383 110.748 144.281 110.472 144.077 110.256C143.873 110.028 143.597 109.914 143.249 109.914H140.855V112.254H143.231ZM158.438 114.18C157.694 114.18 157.046 114.018 156.494 113.694C155.942 113.358 155.51 112.908 155.198 112.344V117.834H152.786V104.568H154.892V106.188C155.24 105.636 155.69 105.204 156.242 104.892C156.794 104.568 157.43 104.406 158.15 104.406C158.786 104.406 159.374 104.538 159.914 104.802C160.454 105.054 160.916 105.402 161.3 105.846C161.696 106.278 162.002 106.794 162.218 107.394C162.446 107.982 162.56 108.606 162.56 109.266C162.56 109.95 162.458 110.592 162.254 111.192C162.05 111.792 161.762 112.314 161.39 112.758C161.03 113.202 160.598 113.55 160.094 113.802C159.59 114.054 159.038 114.18 158.438 114.18ZM157.628 112.128C157.988 112.128 158.318 112.05 158.618 111.894C158.93 111.738 159.194 111.528 159.41 111.264C159.626 111 159.794 110.694 159.914 110.346C160.034 109.998 160.094 109.638 160.094 109.266C160.094 108.87 160.028 108.504 159.896 108.168C159.764 107.82 159.578 107.52 159.338 107.268C159.11 107.016 158.834 106.818 158.51 106.674C158.198 106.53 157.856 106.458 157.484 106.458C157.256 106.458 157.022 106.5 156.782 106.584C156.542 106.656 156.32 106.764 156.116 106.908C155.912 107.052 155.726 107.22 155.558 107.412C155.402 107.604 155.282 107.814 155.198 108.042V110.256C155.414 110.796 155.744 111.246 156.188 111.606C156.632 111.954 157.112 112.128 157.628 112.128ZM166.75 114.18C166.294 114.18 165.868 114.108 165.472 113.964C165.076 113.808 164.734 113.598 164.446 113.334C164.158 113.058 163.93 112.74 163.762 112.38C163.606 112.02 163.528 111.624 163.528 111.192C163.528 110.748 163.624 110.34 163.816 109.968C164.02 109.584 164.296 109.26 164.644 108.996C165.004 108.732 165.43 108.528 165.922 108.384C166.414 108.228 166.954 108.15 167.542 108.15C167.962 108.15 168.37 108.186 168.766 108.258C169.174 108.33 169.534 108.432 169.846 108.564V108.024C169.846 107.4 169.666 106.92 169.306 106.584C168.958 106.248 168.436 106.08 167.74 106.08C167.236 106.08 166.744 106.17 166.264 106.35C165.784 106.53 165.292 106.794 164.788 107.142L164.05 105.612C165.262 104.808 166.57 104.406 167.974 104.406C169.33 104.406 170.38 104.742 171.124 105.414C171.88 106.074 172.258 107.034 172.258 108.294V111.228C172.258 111.48 172.3 111.66 172.384 111.768C172.48 111.876 172.63 111.936 172.834 111.948V114C172.426 114.084 172.072 114.126 171.772 114.126C171.316 114.126 170.962 114.024 170.71 113.82C170.47 113.616 170.32 113.346 170.26 113.01L170.206 112.488C169.786 113.04 169.276 113.46 168.676 113.748C168.076 114.036 167.434 114.18 166.75 114.18ZM167.434 112.416C167.842 112.416 168.226 112.344 168.586 112.2C168.958 112.056 169.246 111.864 169.45 111.624C169.714 111.42 169.846 111.192 169.846 110.94V109.86C169.558 109.752 169.246 109.668 168.91 109.608C168.574 109.536 168.25 109.5 167.938 109.5C167.314 109.5 166.804 109.644 166.408 109.932C166.012 110.208 165.814 110.562 165.814 110.994C165.814 111.402 165.97 111.744 166.282 112.02C166.594 112.284 166.978 112.416 167.434 112.416ZM174.061 105.594C174.529 105.186 175.039 104.886 175.591 104.694C176.143 104.502 176.707 104.406 177.283 104.406C177.703 104.406 178.099 104.46 178.471 104.568C178.843 104.664 179.167 104.814 179.443 105.018C179.731 105.222 179.953 105.48 180.109 105.792C180.277 106.092 180.361 106.44 180.361 106.836C180.361 107.34 180.223 107.784 179.947 108.168C179.683 108.54 179.305 108.774 178.813 108.87C179.497 109.002 180.013 109.284 180.361 109.716C180.709 110.136 180.883 110.664 180.883 111.3C180.883 111.732 180.787 112.128 180.595 112.488C180.415 112.836 180.163 113.136 179.839 113.388C179.515 113.64 179.125 113.838 178.669 113.982C178.225 114.114 177.739 114.18 177.211 114.18C176.479 114.18 175.813 114.06 175.213 113.82C174.613 113.58 174.127 113.244 173.755 112.812L174.907 111.264C175.147 111.564 175.441 111.792 175.789 111.948C176.149 112.092 176.539 112.164 176.959 112.164C177.463 112.164 177.853 112.062 178.129 111.858C178.417 111.654 178.561 111.36 178.561 110.976C178.561 110.544 178.399 110.214 178.075 109.986C177.763 109.746 177.229 109.626 176.473 109.626H175.735V108.24H176.455C177.031 108.24 177.469 108.132 177.769 107.916C178.081 107.688 178.237 107.4 178.237 107.052C178.237 106.752 178.123 106.524 177.895 106.368C177.679 106.212 177.391 106.134 177.031 106.134C176.719 106.134 176.389 106.206 176.041 106.35C175.693 106.482 175.375 106.68 175.087 106.944L174.061 105.594ZM188.109 104.568C188.457 104.568 188.775 104.634 189.063 104.766C189.351 104.886 189.597 105.054 189.801 105.27C190.017 105.486 190.179 105.738 190.287 106.026C190.407 106.314 190.467 106.62 190.467 106.944C190.467 107.352 190.359 107.766 190.143 108.186C189.927 108.594 189.573 108.9 189.081 109.104C189.633 109.26 190.065 109.53 190.377 109.914C190.701 110.286 190.863 110.796 190.863 111.444C190.863 112.308 190.563 112.95 189.963 113.37C189.363 113.79 188.535 114 187.479 114H182.529V104.568H188.109ZM186.975 108.51C187.311 108.51 187.581 108.414 187.785 108.222C187.989 108.03 188.091 107.754 188.091 107.394C188.091 107.094 188.001 106.842 187.821 106.638C187.653 106.422 187.395 106.314 187.047 106.314H184.923V108.51H186.975ZM187.299 112.254C187.647 112.254 187.923 112.14 188.127 111.912C188.343 111.684 188.451 111.408 188.451 111.084C188.451 110.748 188.349 110.472 188.145 110.256C187.941 110.028 187.665 109.914 187.317 109.914H184.923V112.254H187.299ZM194.924 110.562L199.388 104.568H201.17V114H198.776V108.168L194.366 114H192.53V104.568H194.924V110.562ZM207.965 114H205.571V106.656H202.619V104.568H210.899V106.656H207.965V114ZM214.735 110.562L219.199 104.568H220.981V114H218.587V108.168L214.177 114H212.341V104.568H214.735V110.562ZM225.651 110.562L230.115 104.568H231.897V114H229.503V108.168L225.093 114H223.257V104.568H225.651V110.562ZM244.095 104.568C244.443 104.568 244.761 104.634 245.049 104.766C245.337 104.886 245.583 105.054 245.787 105.27C246.003 105.486 246.165 105.738 246.273 106.026C246.393 106.314 246.453 106.62 246.453 106.944C246.453 107.352 246.345 107.766 246.129 108.186C245.913 108.594 245.559 108.9 245.067 109.104C245.619 109.26 246.051 109.53 246.363 109.914C246.687 110.286 246.849 110.796 246.849 111.444C246.849 112.308 246.549 112.95 245.949 113.37C245.349 113.79 244.521 114 243.465 114H238.515V104.568H244.095ZM242.961 108.51C243.297 108.51 243.567 108.414 243.771 108.222C243.975 108.03 244.077 107.754 244.077 107.394C244.077 107.094 243.987 106.842 243.807 106.638C243.639 106.422 243.381 106.314 243.033 106.314H240.909V108.51H242.961ZM243.285 112.254C243.633 112.254 243.909 112.14 244.113 111.912C244.329 111.684 244.437 111.408 244.437 111.084C244.437 110.748 244.335 110.472 244.131 110.256C243.927 110.028 243.651 109.914 243.303 109.914H240.909V112.254H243.285ZM251.055 114.18C250.599 114.18 250.173 114.108 249.777 113.964C249.381 113.808 249.039 113.598 248.751 113.334C248.463 113.058 248.235 112.74 248.067 112.38C247.911 112.02 247.833 111.624 247.833 111.192C247.833 110.748 247.929 110.34 248.121 109.968C248.325 109.584 248.601 109.26 248.949 108.996C249.309 108.732 249.735 108.528 250.227 108.384C250.719 108.228 251.259 108.15 251.847 108.15C252.267 108.15 252.675 108.186 253.071 108.258C253.479 108.33 253.839 108.432 254.151 108.564V108.024C254.151 107.4 253.971 106.92 253.611 106.584C253.263 106.248 252.741 106.08 252.045 106.08C251.541 106.08 251.049 106.17 250.569 106.35C250.089 106.53 249.597 106.794 249.093 107.142L248.355 105.612C249.567 104.808 250.875 104.406 252.279 104.406C253.635 104.406 254.685 104.742 255.429 105.414C256.185 106.074 256.563 107.034 256.563 108.294V111.228C256.563 111.48 256.605 111.66 256.689 111.768C256.785 111.876 256.935 111.936 257.139 111.948V114C256.731 114.084 256.377 114.126 256.077 114.126C255.621 114.126 255.267 114.024 255.015 113.82C254.775 113.616 254.625 113.346 254.565 113.01L254.511 112.488C254.091 113.04 253.581 113.46 252.981 113.748C252.381 114.036 251.739 114.18 251.055 114.18ZM251.739 112.416C252.147 112.416 252.531 112.344 252.891 112.2C253.263 112.056 253.551 111.864 253.755 111.624C254.019 111.42 254.151 111.192 254.151 110.94V109.86C253.863 109.752 253.551 109.668 253.215 109.608C252.879 109.536 252.555 109.5 252.243 109.5C251.619 109.5 251.109 109.644 250.713 109.932C250.317 110.208 250.119 110.562 250.119 110.994C250.119 111.402 250.275 111.744 250.587 112.02C250.899 112.284 251.283 112.416 251.739 112.416ZM258.888 114V104.568H261.282V111.912H263.91V104.568H266.304V111.912H268.932V104.568H271.326V114H258.888ZM277.939 114.18C277.183 114.18 276.499 114.054 275.887 113.802C275.275 113.538 274.753 113.184 274.321 112.74C273.889 112.296 273.553 111.78 273.313 111.192C273.085 110.604 272.971 109.986 272.971 109.338C272.971 108.666 273.085 108.036 273.313 107.448C273.541 106.848 273.871 106.326 274.303 105.882C274.735 105.426 275.257 105.066 275.869 104.802C276.493 104.538 277.189 104.406 277.957 104.406C278.725 104.406 279.409 104.538 280.009 104.802C280.621 105.066 281.137 105.42 281.557 105.864C281.989 106.308 282.313 106.824 282.529 107.412C282.757 108 282.871 108.612 282.871 109.248C282.871 109.404 282.865 109.554 282.853 109.698C282.853 109.842 282.841 109.962 282.817 110.058H275.527C275.563 110.43 275.653 110.76 275.797 111.048C275.941 111.336 276.127 111.582 276.355 111.786C276.583 111.99 276.841 112.146 277.129 112.254C277.417 112.362 277.717 112.416 278.029 112.416C278.509 112.416 278.959 112.302 279.379 112.074C279.811 111.834 280.105 111.522 280.261 111.138L282.331 111.714C281.983 112.434 281.425 113.028 280.657 113.496C279.901 113.952 278.995 114.18 277.939 114.18ZM280.387 108.492C280.327 107.784 280.063 107.22 279.595 106.8C279.139 106.368 278.581 106.152 277.921 106.152C277.597 106.152 277.291 106.212 277.003 106.332C276.727 106.44 276.481 106.596 276.265 106.8C276.049 107.004 275.869 107.25 275.725 107.538C275.593 107.826 275.515 108.144 275.491 108.492H280.387ZM291.846 100.86C291.822 101.616 291.54 102.21 291 102.642C290.46 103.062 289.752 103.272 288.876 103.272C288 103.272 287.292 103.062 286.752 102.642C286.212 102.21 285.93 101.616 285.906 100.86H287.238C287.25 101.316 287.394 101.652 287.67 101.868C287.958 102.084 288.36 102.192 288.876 102.192C289.908 102.192 290.46 101.748 290.532 100.86H291.846ZM286.77 110.562L291.234 104.568H293.016V114H290.622V108.168L286.212 114H284.376V104.568H286.77V110.562ZM75.3847 133.568H77.9767L74.3047 138.14L78.2647 143H75.5287L72.6127 139.364H71.9827V143H69.6067V133.568H71.9827V137.312H72.5227L75.3847 133.568ZM83.2782 143.18C82.5102 143.18 81.8202 143.048 81.2082 142.784C80.5962 142.52 80.0742 142.166 79.6422 141.722C79.2222 141.266 78.8982 140.744 78.6702 140.156C78.4422 139.568 78.3282 138.95 78.3282 138.302C78.3282 137.642 78.4422 137.018 78.6702 136.43C78.8982 135.842 79.2222 135.326 79.6422 134.882C80.0742 134.426 80.5962 134.066 81.2082 133.802C81.8202 133.538 82.5102 133.406 83.2782 133.406C84.0462 133.406 84.7302 133.538 85.3302 133.802C85.9422 134.066 86.4582 134.426 86.8782 134.882C87.3102 135.326 87.6402 135.842 87.8682 136.43C88.0962 137.018 88.2102 137.642 88.2102 138.302C88.2102 138.95 88.0962 139.568 87.8682 140.156C87.6402 140.744 87.3162 141.266 86.8962 141.722C86.4762 142.166 85.9602 142.52 85.3482 142.784C84.7362 143.048 84.0462 143.18 83.2782 143.18ZM80.8122 138.302C80.8122 138.722 80.8722 139.106 80.9922 139.454C81.1242 139.79 81.2982 140.084 81.5142 140.336C81.7422 140.588 82.0062 140.786 82.3062 140.93C82.6062 141.062 82.9302 141.128 83.2782 141.128C83.6262 141.128 83.9502 141.062 84.2502 140.93C84.5502 140.786 84.8082 140.588 85.0242 140.336C85.2522 140.084 85.4262 139.784 85.5462 139.436C85.6782 139.088 85.7442 138.704 85.7442 138.284C85.7442 137.876 85.6782 137.498 85.5462 137.15C85.4262 136.802 85.2522 136.502 85.0242 136.25C84.8082 135.998 84.5502 135.806 84.2502 135.674C83.9502 135.53 83.6262 135.458 83.2782 135.458C82.9302 135.458 82.6062 135.53 82.3062 135.674C82.0062 135.818 81.7422 136.016 81.5142 136.268C81.2982 136.52 81.1242 136.82 80.9922 137.168C80.8722 137.516 80.8122 137.894 80.8122 138.302ZM95.1482 138.59L97.9382 133.568H100.404V143H98.1002V137.33L95.7062 141.578H94.5722L92.1782 137.33V143H89.8742V133.568H92.3582L95.1482 138.59ZM110.933 143H108.539V135.656H105.065V143H102.671V133.568H110.933V143ZM115.721 143.18C115.265 143.18 114.839 143.108 114.443 142.964C114.047 142.808 113.705 142.598 113.417 142.334C113.129 142.058 112.901 141.74 112.733 141.38C112.577 141.02 112.499 140.624 112.499 140.192C112.499 139.748 112.595 139.34 112.787 138.968C112.991 138.584 113.267 138.26 113.615 137.996C113.975 137.732 114.401 137.528 114.893 137.384C115.385 137.228 115.925 137.15 116.513 137.15C116.933 137.15 117.341 137.186 117.737 137.258C118.145 137.33 118.505 137.432 118.817 137.564V137.024C118.817 136.4 118.637 135.92 118.277 135.584C117.929 135.248 117.407 135.08 116.711 135.08C116.207 135.08 115.715 135.17 115.235 135.35C114.755 135.53 114.263 135.794 113.759 136.142L113.021 134.612C114.233 133.808 115.541 133.406 116.945 133.406C118.301 133.406 119.351 133.742 120.095 134.414C120.851 135.074 121.229 136.034 121.229 137.294V140.228C121.229 140.48 121.271 140.66 121.355 140.768C121.451 140.876 121.601 140.936 121.805 140.948V143C121.397 143.084 121.043 143.126 120.743 143.126C120.287 143.126 119.933 143.024 119.681 142.82C119.441 142.616 119.291 142.346 119.231 142.01L119.177 141.488C118.757 142.04 118.247 142.46 117.647 142.748C117.047 143.036 116.405 143.18 115.721 143.18ZM116.405 141.416C116.813 141.416 117.197 141.344 117.557 141.2C117.929 141.056 118.217 140.864 118.421 140.624C118.685 140.42 118.817 140.192 118.817 139.94V138.86C118.529 138.752 118.217 138.668 117.881 138.608C117.545 138.536 117.221 138.5 116.909 138.5C116.285 138.5 115.775 138.644 115.379 138.932C114.983 139.208 114.785 139.562 114.785 139.994C114.785 140.402 114.941 140.744 115.253 141.02C115.565 141.284 115.949 141.416 116.405 141.416ZM125.948 137.132H129.692V133.568H132.086V143H129.692V139.184H125.948V143H123.554V133.568H125.948V137.132ZM136.723 139.562L141.187 133.568H142.969V143H140.575V137.168L136.165 143H134.329V133.568H136.723V139.562ZM147.639 139.562L152.103 133.568H153.885V143H151.491V137.168L147.081 143H145.245V133.568H147.639V139.562ZM162.88 139.562L167.344 133.568H169.126V143H166.732V137.168L162.322 143H160.486V133.568H162.88V139.562ZM170.412 140.948C170.76 140.924 171.042 140.852 171.258 140.732C171.486 140.612 171.672 140.39 171.816 140.066C171.972 139.742 172.098 139.298 172.194 138.734C172.302 138.158 172.41 137.408 172.518 136.484L172.842 133.568H179.448V143H177.054V135.584H174.948L174.768 137.006C174.624 138.194 174.45 139.178 174.246 139.958C174.042 140.726 173.778 141.338 173.454 141.794C173.142 142.25 172.752 142.574 172.284 142.766C171.816 142.946 171.24 143.048 170.556 143.072L170.412 140.948ZM184.114 139.562L188.578 133.568H190.36V143H187.966V137.168L183.556 143H181.72V133.568H184.114V139.562ZM205.222 143H202.828V135.656H199.354V143H196.96V133.568H205.222V143ZM213.124 143.18C212.38 143.18 211.732 143.018 211.18 142.694C210.628 142.358 210.196 141.908 209.884 141.344V146.834H207.472V133.568H209.578V135.188C209.926 134.636 210.376 134.204 210.928 133.892C211.48 133.568 212.116 133.406 212.836 133.406C213.472 133.406 214.06 133.538 214.6 133.802C215.14 134.054 215.602 134.402 215.986 134.846C216.382 135.278 216.688 135.794 216.904 136.394C217.132 136.982 217.246 137.606 217.246 138.266C217.246 138.95 217.144 139.592 216.94 140.192C216.736 140.792 216.448 141.314 216.076 141.758C215.716 142.202 215.284 142.55 214.78 142.802C214.276 143.054 213.724 143.18 213.124 143.18ZM212.314 141.128C212.674 141.128 213.004 141.05 213.304 140.894C213.616 140.738 213.88 140.528 214.096 140.264C214.312 140 214.48 139.694 214.6 139.346C214.72 138.998 214.78 138.638 214.78 138.266C214.78 137.87 214.714 137.504 214.582 137.168C214.45 136.82 214.264 136.52 214.024 136.268C213.796 136.016 213.52 135.818 213.196 135.674C212.884 135.53 212.542 135.458 212.17 135.458C211.942 135.458 211.708 135.5 211.468 135.584C211.228 135.656 211.006 135.764 210.802 135.908C210.598 136.052 210.412 136.22 210.244 136.412C210.088 136.604 209.968 136.814 209.884 137.042V139.256C210.1 139.796 210.43 140.246 210.874 140.606C211.318 140.954 211.798 141.128 212.314 141.128ZM223.218 143.18C222.45 143.18 221.76 143.048 221.148 142.784C220.536 142.52 220.014 142.166 219.582 141.722C219.162 141.266 218.838 140.744 218.61 140.156C218.382 139.568 218.268 138.95 218.268 138.302C218.268 137.642 218.382 137.018 218.61 136.43C218.838 135.842 219.162 135.326 219.582 134.882C220.014 134.426 220.536 134.066 221.148 133.802C221.76 133.538 222.45 133.406 223.218 133.406C223.986 133.406 224.67 133.538 225.27 133.802C225.882 134.066 226.398 134.426 226.818 134.882C227.25 135.326 227.58 135.842 227.808 136.43C228.036 137.018 228.15 137.642 228.15 138.302C228.15 138.95 228.036 139.568 227.808 140.156C227.58 140.744 227.256 141.266 226.836 141.722C226.416 142.166 225.9 142.52 225.288 142.784C224.676 143.048 223.986 143.18 223.218 143.18ZM220.752 138.302C220.752 138.722 220.812 139.106 220.932 139.454C221.064 139.79 221.238 140.084 221.454 140.336C221.682 140.588 221.946 140.786 222.246 140.93C222.546 141.062 222.87 141.128 223.218 141.128C223.566 141.128 223.89 141.062 224.19 140.93C224.49 140.786 224.748 140.588 224.964 140.336C225.192 140.084 225.366 139.784 225.486 139.436C225.618 139.088 225.684 138.704 225.684 138.284C225.684 137.876 225.618 137.498 225.486 137.15C225.366 136.802 225.192 136.502 224.964 136.25C224.748 135.998 224.49 135.806 224.19 135.674C223.89 135.53 223.566 135.458 223.218 135.458C222.87 135.458 222.546 135.53 222.246 135.674C221.946 135.818 221.682 136.016 221.454 136.268C221.238 136.52 221.064 136.82 220.932 137.168C220.812 137.516 220.752 137.894 220.752 138.302ZM228.545 140.912H229.049C229.337 140.876 229.571 140.786 229.751 140.642C229.943 140.486 230.105 140.246 230.237 139.922C230.381 139.586 230.495 139.142 230.579 138.59C230.675 138.038 230.771 137.336 230.867 136.484L231.191 133.568H237.797V140.912H239.057V145.7H236.915V143H230.615V145.7H228.545V140.912ZM235.403 140.912V135.584H233.297L233.117 137.006C232.997 137.978 232.847 138.77 232.667 139.382C232.499 139.994 232.283 140.504 232.019 140.912H235.403ZM240.788 144.692C240.992 144.812 241.184 144.896 241.364 144.944C241.556 144.992 241.736 145.016 241.904 145.016C242.204 145.016 242.462 144.866 242.678 144.566C242.894 144.278 243.086 143.756 243.254 143L239.528 133.568H242.012L244.568 140.912L246.836 133.568H249.104L245.396 144.224C245.036 145.256 244.592 145.994 244.064 146.438C243.548 146.882 242.912 147.104 242.156 147.104C241.88 147.104 241.634 147.08 241.418 147.032C241.202 146.984 240.992 146.894 240.788 146.762V144.692ZM256.228 133.568H258.82L255.148 138.14L259.108 143H256.372L253.456 139.364H252.826V143H250.45V133.568H252.826V137.312H253.366L256.228 133.568ZM264.672 143H262.278V135.656H259.326V133.568H267.606V135.656H264.672V143ZM271.41 143.18C270.954 143.18 270.528 143.108 270.132 142.964C269.736 142.808 269.394 142.598 269.106 142.334C268.818 142.058 268.59 141.74 268.422 141.38C268.266 141.02 268.188 140.624 268.188 140.192C268.188 139.748 268.284 139.34 268.476 138.968C268.68 138.584 268.956 138.26 269.304 137.996C269.664 137.732 270.09 137.528 270.582 137.384C271.074 137.228 271.614 137.15 272.202 137.15C272.622 137.15 273.03 137.186 273.426 137.258C273.834 137.33 274.194 137.432 274.506 137.564V137.024C274.506 136.4 274.326 135.92 273.966 135.584C273.618 135.248 273.096 135.08 272.4 135.08C271.896 135.08 271.404 135.17 270.924 135.35C270.444 135.53 269.952 135.794 269.448 136.142L268.71 134.612C269.922 133.808 271.23 133.406 272.634 133.406C273.99 133.406 275.04 133.742 275.784 134.414C276.54 135.074 276.918 136.034 276.918 137.294V140.228C276.918 140.48 276.96 140.66 277.044 140.768C277.14 140.876 277.29 140.936 277.494 140.948V143C277.086 143.084 276.732 143.126 276.432 143.126C275.976 143.126 275.622 143.024 275.37 142.82C275.13 142.616 274.98 142.346 274.92 142.01L274.866 141.488C274.446 142.04 273.936 142.46 273.336 142.748C272.736 143.036 272.094 143.18 271.41 143.18ZM272.094 141.416C272.502 141.416 272.886 141.344 273.246 141.2C273.618 141.056 273.906 140.864 274.11 140.624C274.374 140.42 274.506 140.192 274.506 139.94V138.86C274.218 138.752 273.906 138.668 273.57 138.608C273.234 138.536 272.91 138.5 272.598 138.5C271.974 138.5 271.464 138.644 271.068 138.932C270.672 139.208 270.474 139.562 270.474 139.994C270.474 140.402 270.63 140.744 270.942 141.02C271.254 141.284 271.638 141.416 272.094 141.416ZM279.141 134.378L279.537 132.182H278.817V129.752H281.247V132.218L280.599 134.378H279.141ZM282.525 134.378L282.921 132.182H282.201V129.752H284.631V132.218L283.983 134.378H282.525Z" fill="#1C1C1C"/>
<path d="M161.734 47.336C161.734 46.312 161.926 45.296 162.31 44.288C162.694 43.264 163.254 42.352 163.99 41.552C164.726 40.752 165.622 40.104 166.678 39.608C167.734 39.112 168.934 38.864 170.278 38.864C171.878 38.864 173.262 39.208 174.43 39.896C175.614 40.584 176.494 41.48 177.07 42.584L174.046 44.696C173.854 44.248 173.606 43.88 173.302 43.592C173.014 43.288 172.694 43.048 172.342 42.872C171.99 42.68 171.63 42.552 171.262 42.488C170.894 42.408 170.534 42.368 170.182 42.368C169.43 42.368 168.774 42.52 168.214 42.824C167.654 43.128 167.19 43.52 166.822 44C166.454 44.48 166.182 45.024 166.006 45.632C165.83 46.24 165.742 46.856 165.742 47.48C165.742 48.152 165.846 48.8 166.054 49.424C166.262 50.048 166.558 50.6 166.942 51.08C167.342 51.56 167.814 51.944 168.358 52.232C168.918 52.504 169.542 52.64 170.23 52.64C170.582 52.64 170.942 52.6 171.31 52.52C171.694 52.424 172.054 52.288 172.39 52.112C172.742 51.92 173.062 51.68 173.35 51.392C173.638 51.088 173.87 50.72 174.046 50.288L177.262 52.184C177.006 52.808 176.622 53.368 176.11 53.864C175.614 54.36 175.038 54.776 174.382 55.112C173.726 55.448 173.03 55.704 172.294 55.88C171.558 56.056 170.838 56.144 170.134 56.144C168.902 56.144 167.766 55.896 166.726 55.4C165.702 54.888 164.814 54.216 164.062 53.384C163.326 52.552 162.75 51.608 162.334 50.552C161.934 49.496 161.734 48.424 161.734 47.336Z" fill="#95DB3A"/>
<defs>
<filter id="filter0_d_1_1533" x="0.5" y="0.5" width="359" height="291.815" filterUnits="userSpaceOnUse" color-interpolation-filters="sRGB">
<feFlood flood-opacity="0" result="BackgroundImageFix"/>
<feColorMatrix in="SourceAlpha" type="matrix" values="0 0 0 0 0 0 0 0 0 0 0 0 0 0 0 0 0 0 127 0" result="hardAlpha"/>
<feOffset dx="7" dy="7"/>
<feColorMatrix type="matrix" values="0 0 0 0 0 0 0 0 0 0 0 0 0 0 0 0 0 0 1 0"/>
<feBlend mode="normal" in2="BackgroundImageFix" result="effect1_dropShadow_1_1533"/>
<feBlend mode="normal" in="SourceGraphic" in2="effect1_dropShadow_1_1533" result="shape"/>
</filter>
</defs>
</svg>
