<svg width="451" height="387" viewBox="0 0 451 387" fill="none" xmlns="http://www.w3.org/2000/svg">
<path d="M242 0L264.5 9.5L270.5 12L273.5 22L283.5 51L290.5 72V84.5L292.5 100L298 117.5V150.5V172.5L294 180V192.5L303.5 205.5L307 219L311 229L314 240.5L357 256.5L402 270L411 277L420 291L443 350L451 378L243 386.5L0 377.5C8.5 347.833 25.5 288.3 25.5 287.5C25.5 286.7 81.5 261.833 109.5 249.5C116.167 248.167 129.9 245.3 131.5 244.5C133.1 243.7 146.5 229.167 153 222L170.5 190L171.5 175L166 172.5C161.833 169.833 153.4 164.3 153 163.5C152.6 162.7 147.167 154.5 144.5 150.5L139 128.5L142.5 120.5L134.5 95V83L142.5 43.5L157.5 22L170.5 13.5L188.5 9.5L196 2.5H205L226 0H242Z" fill="white"/>
</svg>
