<svg width="2388" height="13" viewBox="0 0 2388 13" fill="none" xmlns="http://www.w3.org/2000/svg">
<circle cx="481.5" cy="6.5" r="6.5" fill="#1C1C1C"/>
<circle cx="31.5" cy="6.5" r="6.5" fill="#1C1C1C"/>
<circle cx="6.5" cy="6.5" r="6.5" fill="#1C1C1C"/>
<circle cx="581.5" cy="6.5" r="6.5" fill="#1C1C1C"/>
<circle cx="131.5" cy="6.5" r="6.5" fill="#1C1C1C"/>
<circle cx="681.5" cy="6.5" r="6.5" fill="#1C1C1C"/>
<circle cx="231.5" cy="6.5" r="6.5" fill="#1C1C1C"/>
<circle cx="781.5" cy="6.5" r="6.5" fill="#1C1C1C"/>
<circle cx="331.5" cy="6.5" r="6.5" fill="#1C1C1C"/>
<circle cx="1056.5" cy="6.5" r="6.5" fill="#1C1C1C"/>
<circle cx="1331.5" cy="6.5" r="6.5" fill="#1C1C1C"/>
<circle cx="1606.5" cy="6.5" r="6.5" fill="#1C1C1C"/>
<circle cx="1881.5" cy="6.5" r="6.5" fill="#1C1C1C"/>
<circle cx="2156.5" cy="6.5" r="6.5" fill="#1C1C1C"/>
<circle cx="881.5" cy="6.5" r="6.5" fill="#1C1C1C"/>
<circle cx="431.5" cy="6.5" r="6.5" fill="#1C1C1C"/>
<circle cx="1156.5" cy="6.5" r="6.5" fill="#1C1C1C"/>
<circle cx="1431.5" cy="6.5" r="6.5" fill="#1C1C1C"/>
<circle cx="1706.5" cy="6.5" r="6.5" fill="#1C1C1C"/>
<circle cx="1981.5" cy="6.5" r="6.5" fill="#1C1C1C"/>
<circle cx="2256.5" cy="6.5" r="6.5" fill="#1C1C1C"/>
<circle cx="506.5" cy="6.5" r="6.5" fill="#1C1C1C"/>
<circle cx="56.5" cy="6.5" r="6.5" fill="#1C1C1C"/>
<circle cx="606.5" cy="6.5" r="6.5" fill="#1C1C1C"/>
<circle cx="156.5" cy="6.5" r="6.5" fill="#1C1C1C"/>
<circle cx="706.5" cy="6.5" r="6.5" fill="#1C1C1C"/>
<circle cx="256.5" cy="6.5" r="6.5" fill="#1C1C1C"/>
<circle cx="981.5" cy="6.5" r="6.5" fill="#1C1C1C"/>
<circle cx="1256.5" cy="6.5" r="6.5" fill="#1C1C1C"/>
<circle cx="1531.5" cy="6.5" r="6.5" fill="#1C1C1C"/>
<circle cx="1806.5" cy="6.5" r="6.5" fill="#1C1C1C"/>
<circle cx="2081.5" cy="6.5" r="6.5" fill="#1C1C1C"/>
<circle cx="806.5" cy="6.5" r="6.5" fill="#1C1C1C"/>
<circle cx="356.5" cy="6.5" r="6.5" fill="#1C1C1C"/>
<circle cx="1081.5" cy="6.5" r="6.5" fill="#1C1C1C"/>
<circle cx="1356.5" cy="6.5" r="6.5" fill="#1C1C1C"/>
<circle cx="1631.5" cy="6.5" r="6.5" fill="#1C1C1C"/>
<circle cx="1906.5" cy="6.5" r="6.5" fill="#1C1C1C"/>
<circle cx="2181.5" cy="6.5" r="6.5" fill="#1C1C1C"/>
<circle cx="906.5" cy="6.5" r="6.5" fill="#1C1C1C"/>
<circle cx="456.5" cy="6.5" r="6.5" fill="#1C1C1C"/>
<circle cx="1181.5" cy="6.5" r="6.5" fill="#1C1C1C"/>
<circle cx="1456.5" cy="6.5" r="6.5" fill="#1C1C1C"/>
<circle cx="1731.5" cy="6.5" r="6.5" fill="#1C1C1C"/>
<circle cx="2006.5" cy="6.5" r="6.5" fill="#1C1C1C"/>
<circle cx="2281.5" cy="6.5" r="6.5" fill="#1C1C1C"/>
<circle cx="2356.5" cy="6.5" r="6.5" fill="#1C1C1C"/>
<circle cx="531.5" cy="6.5" r="6.5" fill="#1C1C1C"/>
<circle cx="81.5" cy="6.5" r="6.5" fill="#1C1C1C"/>
<circle cx="631.5" cy="6.5" r="6.5" fill="#1C1C1C"/>
<circle cx="181.5" cy="6.5" r="6.5" fill="#1C1C1C"/>
<circle cx="731.5" cy="6.5" r="6.5" fill="#1C1C1C"/>
<circle cx="281.5" cy="6.5" r="6.5" fill="#1C1C1C"/>
<circle cx="1006.5" cy="6.5" r="6.5" fill="#1C1C1C"/>
<circle cx="1281.5" cy="6.5" r="6.5" fill="#1C1C1C"/>
<circle cx="1556.5" cy="6.5" r="6.5" fill="#1C1C1C"/>
<circle cx="1831.5" cy="6.5" r="6.5" fill="#1C1C1C"/>
<circle cx="2106.5" cy="6.5" r="6.5" fill="#1C1C1C"/>
<circle cx="831.5" cy="6.5" r="6.5" fill="#1C1C1C"/>
<circle cx="381.5" cy="6.5" r="6.5" fill="#1C1C1C"/>
<circle cx="1106.5" cy="6.5" r="6.5" fill="#1C1C1C"/>
<circle cx="1381.5" cy="6.5" r="6.5" fill="#1C1C1C"/>
<circle cx="1656.5" cy="6.5" r="6.5" fill="#1C1C1C"/>
<circle cx="1931.5" cy="6.5" r="6.5" fill="#1C1C1C"/>
<circle cx="2206.5" cy="6.5" r="6.5" fill="#1C1C1C"/>
<circle cx="931.5" cy="6.5" r="6.5" fill="#1C1C1C"/>
<circle cx="1206.5" cy="6.5" r="6.5" fill="#1C1C1C"/>
<circle cx="1481.5" cy="6.5" r="6.5" fill="#1C1C1C"/>
<circle cx="1756.5" cy="6.5" r="6.5" fill="#1C1C1C"/>
<circle cx="2031.5" cy="6.5" r="6.5" fill="#1C1C1C"/>
<circle cx="2306.5" cy="6.5" r="6.5" fill="#1C1C1C"/>
<circle cx="2381.5" cy="6.5" r="6.5" fill="#1C1C1C"/>
<circle cx="556.5" cy="6.5" r="6.5" fill="#1C1C1C"/>
<circle cx="106.5" cy="6.5" r="6.5" fill="#1C1C1C"/>
<circle cx="656.5" cy="6.5" r="6.5" fill="#1C1C1C"/>
<circle cx="206.5" cy="6.5" r="6.5" fill="#1C1C1C"/>
<circle cx="756.5" cy="6.5" r="6.5" fill="#1C1C1C"/>
<circle cx="306.5" cy="6.5" r="6.5" fill="#1C1C1C"/>
<circle cx="1031.5" cy="6.5" r="6.5" fill="#1C1C1C"/>
<circle cx="1306.5" cy="6.5" r="6.5" fill="#1C1C1C"/>
<circle cx="1581.5" cy="6.5" r="6.5" fill="#1C1C1C"/>
<circle cx="1856.5" cy="6.5" r="6.5" fill="#1C1C1C"/>
<circle cx="2131.5" cy="6.5" r="6.5" fill="#1C1C1C"/>
<circle cx="856.5" cy="6.5" r="6.5" fill="#1C1C1C"/>
<circle cx="406.5" cy="6.5" r="6.5" fill="#1C1C1C"/>
<circle cx="1131.5" cy="6.5" r="6.5" fill="#1C1C1C"/>
<circle cx="1406.5" cy="6.5" r="6.5" fill="#1C1C1C"/>
<circle cx="1681.5" cy="6.5" r="6.5" fill="#1C1C1C"/>
<circle cx="1956.5" cy="6.5" r="6.5" fill="#1C1C1C"/>
<circle cx="2231.5" cy="6.5" r="6.5" fill="#1C1C1C"/>
<circle cx="956.5" cy="6.5" r="6.5" fill="#1C1C1C"/>
<circle cx="1231.5" cy="6.5" r="6.5" fill="#1C1C1C"/>
<circle cx="1506.5" cy="6.5" r="6.5" fill="#1C1C1C"/>
<circle cx="1781.5" cy="6.5" r="6.5" fill="#1C1C1C"/>
<circle cx="2056.5" cy="6.5" r="6.5" fill="#1C1C1C"/>
<circle cx="2331.5" cy="6.5" r="6.5" fill="#1C1C1C"/>
</svg>
