<svg width="402" height="402" viewBox="0 0 402 402" fill="none" xmlns="http://www.w3.org/2000/svg">
<path d="M41.3626 80.1979C35.1425 92.6212 31.4837 106.506 31.4837 121.487V250.105L7.33532 193.835C-10.2271 152.18 4.77413 104.314 41.3626 80.1979Z" fill="#92DA3F"/>
<path d="M121.491 369.953H250.282L193.936 394.069C151.86 411.974 104.295 396.627 79.7804 360.088C92.5863 366.3 106.49 369.953 121.491 369.953Z" fill="#92DA3F"/>
<path d="M280.651 31.6008H151.494L207.84 7.48499C249.917 -10.4192 297.482 4.92721 321.996 41.4664C309.556 35.2547 295.653 31.6008 280.651 31.6008Z" fill="#92DA3F"/>
<path d="M360.414 321.357C366.634 308.933 370.293 295.048 370.293 280.067V151.449L394.441 207.72C412.37 249.374 397.368 297.241 360.414 321.357Z" fill="#92DA3F"/>
<path d="M267.479 54.2552H134.663C90.391 54.2552 54.5343 90.0636 54.5343 134.276V267.279C54.5343 311.491 90.391 347.299 134.663 347.299H267.845C312.117 347.299 347.973 311.491 347.973 267.279V134.276C347.973 90.0636 311.751 54.2552 267.479 54.2552ZM201.986 254.124H175.642C174.544 254.124 173.447 253.028 173.447 251.932V205.527C173.447 202.97 170.154 202.239 169.056 204.431L155.152 235.124C154.787 235.855 154.055 236.586 152.957 236.586H139.419C138.688 236.586 137.59 236.22 137.224 235.124L123.321 204.431C122.223 202.239 118.93 202.97 118.93 205.527V251.932C118.93 253.028 117.832 254.124 116.735 254.124H90.391C89.2933 254.124 88.1957 253.028 88.1957 251.932V144.142C88.1957 143.045 89.2933 141.949 90.391 141.949H120.393C121.125 141.949 122.223 142.315 122.589 143.411L144.176 190.546C144.908 192.373 147.469 192.373 148.201 190.546L169.788 143.411C170.154 142.68 170.885 141.949 171.983 141.949H201.986C203.083 141.949 204.181 143.045 204.181 144.142V251.932C204.181 253.028 203.449 254.124 201.986 254.124ZM314.678 239.874C311.385 243.163 307.36 245.72 302.97 248.278C298.579 250.471 293.823 252.297 288.7 253.394C283.578 254.49 278.821 255.221 274.065 255.221C265.649 255.221 257.966 253.394 251.014 250.105C244.062 246.817 238.208 242.432 233.086 236.951C227.963 231.47 224.305 225.258 221.377 218.316C218.45 211.374 217.353 204.431 217.353 197.123C217.353 190.181 218.816 183.604 221.377 176.661C223.939 170.084 227.598 163.873 232.72 158.757C237.842 153.642 243.696 149.257 250.648 145.969C257.6 142.68 265.649 141.219 274.797 141.219C285.773 141.219 295.286 143.411 302.97 147.796C310.287 151.815 315.776 157.296 319.8 163.873C320.532 164.969 320.166 166.065 319.069 166.796L299.311 180.681C298.213 181.412 296.75 181.046 296.018 179.95C295.286 178.123 294.188 176.661 292.725 175.565C290.895 173.738 289.066 172.277 286.871 171.181C284.675 170.084 282.48 169.354 280.285 168.988C278.09 168.623 275.894 168.257 273.699 168.257C269.308 168.257 265.284 168.988 262.357 170.815C259.064 172.642 256.502 174.835 254.307 177.758C252.112 180.681 250.648 183.604 249.551 187.258C248.453 190.912 248.087 194.2 248.087 197.854C248.087 201.874 248.819 205.527 249.916 209.181C251.014 212.835 252.844 216.124 255.039 218.681C257.234 221.605 260.161 223.797 263.088 225.259C266.381 226.72 270.04 227.816 274.065 227.816C276.26 227.816 278.455 227.451 280.651 227.086C282.846 226.72 285.041 225.989 287.237 224.528C289.432 223.066 291.261 221.97 292.725 220.143C293.823 219.047 294.92 217.585 295.652 216.124C296.384 215.028 297.847 214.662 298.945 215.028L320.166 227.816C321.264 228.547 321.63 229.643 320.898 230.739C319.8 234.028 317.605 237.317 314.678 239.874Z" fill="#92DA3F"/>
</svg>
