<svg width="274" height="125" viewBox="0 0 274 125" fill="none" xmlns="http://www.w3.org/2000/svg">
<rect x="1" y="109" width="273" height="16" fill="url(#paint0_linear_1_507)"/>
<rect x="1.5" y="1.5" width="141" height="122" stroke="#1C1C1C" stroke-width="3"/>
<path d="M35.8301 71.9362C43.4897 76.0496 58.8939 84.4468 59.2343 85.1276L35.8301 98.7447L39.6599 90.6596L35.8301 85.1276L39.6599 80.0213L35.8301 71.9362Z" fill="url(#paint1_linear_1_507)"/>
<path d="M34.7501 86.2502L38.0668 90.6722L34.6012 98.7575C34.3912 99.2482 34.5145 99.8177 34.91 100.176C35.1456 100.39 35.4471 100.5 35.7499 100.5C35.9562 100.5 36.1637 100.449 36.3517 100.345L61.3517 86.595C61.7521 86.3759 61.9999 85.956 61.9999 85.5C61.9999 85.0441 61.7521 84.6242 61.3517 84.4051L36.3517 70.6551C35.8878 70.3981 35.3056 70.4646 34.91 70.8241C34.5145 71.1824 34.3912 71.7519 34.6012 72.2426L38.0668 80.3279L34.7501 84.7499C34.4169 85.1942 34.4169 85.8058 34.7501 86.2502ZM40.3999 91.5728L52.1346 88.8117L38.3292 96.4046L40.3999 91.5728ZM52.1346 82.1883L40.3999 79.4273L38.3292 74.5955L52.1346 82.1883ZM40.009 81.9044L55.2906 85.5L40.009 89.0957L37.3124 85.5L40.009 81.9044Z" fill="#1C1C1C"/>
<ellipse cx="90.2984" cy="45.5532" rx="19.1489" ry="19.1489" fill="url(#paint2_linear_1_507)"/>
<path d="M89.5 25.5C78.8941 25.5 70.2139 33.8051 69.5633 44.25H66.2676L62.8838 40.8662L61.1162 42.6338L62.7324 44.25H57.625C50.3875 44.25 44.5 50.1381 44.5 57.375C44.5 64.6119 50.3875 70.5 57.625 70.5H71.4824L74.8662 73.8838L76.6338 72.1162L75.0176 70.5H98.875C102.665 70.5 105.75 73.5841 105.75 77.375C105.75 81.1659 102.665 84.25 98.875 84.25H87.5176L84.1338 80.8662L82.3662 82.6338L83.9824 84.25H64.5V86.75H83.9824L82.3662 88.3662L84.1338 90.1338L87.5176 86.75H98.875C104.045 86.75 108.25 82.5447 108.25 77.375C108.25 72.2053 104.045 68 98.875 68H75.0176L76.6338 66.3838L74.8662 64.6162L71.4824 68H57.625C51.7668 68 47 63.2338 47 57.375C47 51.5162 51.7668 46.75 57.625 46.75H62.7324L61.1162 48.3662L62.8838 50.1338L66.2676 46.75H69.5633C70.2139 57.1949 78.8941 65.5 89.5 65.5C100.528 65.5 109.5 56.5278 109.5 45.5C109.5 34.4722 100.528 25.5 89.5 25.5ZM89.5 63C80.2723 63 72.7087 55.8162 72.0633 46.75H75.8133C76.4477 53.7474 82.3401 59.25 89.5 59.25C97.0818 59.25 103.25 53.0818 103.25 45.5C103.25 37.9182 97.0818 31.75 89.5 31.75C82.3401 31.75 76.4477 37.2526 75.8133 44.25H72.0633C72.7087 35.1838 80.2723 28 89.5 28C99.1497 28 107 35.8503 107 45.5C107 55.1497 99.1497 63 89.5 63ZM86.6338 50.1338L90.3838 46.3838C90.8721 45.8955 90.8721 45.1045 90.3838 44.6162L86.6338 40.8662L84.8662 42.6338L86.4824 44.25H78.3238C78.9481 38.6338 83.7194 34.25 89.5 34.25C95.7036 34.25 100.75 39.297 100.75 45.5C100.75 51.703 95.7036 56.75 89.5 56.75C83.7194 56.75 78.9481 52.3662 78.3238 46.75H86.4824L84.8662 48.3662L86.6338 50.1338Z" fill="#1C1C1C"/>
<path d="M97 45.5C97 41.3643 93.6357 38 89.5 38V40.5C92.2576 40.5 94.5 42.743 94.5 45.5C94.5 48.257 92.2576 50.5 89.5 50.5V53C93.6357 53 97 49.6357 97 45.5Z" fill="#1C1C1C"/>
<defs>
<linearGradient id="paint0_linear_1_507" x1="13.3584" y1="115.085" x2="27.5139" y2="178.57" gradientUnits="userSpaceOnUse">
<stop stop-color="#ACFA49"/>
<stop offset="0.863856" stop-color="#90D638"/>
</linearGradient>
<linearGradient id="paint1_linear_1_507" x1="36.8896" y1="82.1321" x2="61.23" y2="87.7175" gradientUnits="userSpaceOnUse">
<stop stop-color="#ACFA49"/>
<stop offset="0.863856" stop-color="#90D638"/>
</linearGradient>
<linearGradient id="paint2_linear_1_507" x1="72.8831" y1="40.9699" x2="112.101" y2="51.278" gradientUnits="userSpaceOnUse">
<stop stop-color="#ACFA49"/>
<stop offset="0.863856" stop-color="#90D638"/>
</linearGradient>
</defs>
</svg>
