<svg width="409" height="286" viewBox="0 0 409 286" fill="none" xmlns="http://www.w3.org/2000/svg">
<g filter="url(#filter0_d_1_711)">
<path fill-rule="evenodd" clip-rule="evenodd" d="M42 2C19.9086 2 2 19.9086 2 42V147C2 169.091 19.9086 187 42 187H301.148L330.018 218.276L300.736 262.198L401.391 276.839L330.018 249.997L363.569 209.735L354.529 183.436C368.373 177.146 378 163.197 378 147V42C378 19.9086 360.091 2 338 2H42Z" fill="white"/>
<path d="M301.148 187L302.25 185.983L301.804 185.5H301.148V187ZM330.018 218.276L331.266 219.108L331.92 218.126L331.12 217.258L330.018 218.276ZM300.736 262.198L299.488 261.366L298.172 263.341L300.52 263.682L300.736 262.198ZM401.391 276.839L401.175 278.323L401.919 275.435L401.391 276.839ZM330.018 249.997L328.865 249.037L327.514 250.658L329.49 251.401L330.018 249.997ZM363.569 209.735L364.721 210.696L365.262 210.047L364.988 209.248L363.569 209.735ZM354.529 183.436L353.908 182.07L352.667 182.634L353.11 183.924L354.529 183.436ZM3.5 42C3.5 20.737 20.737 3.5 42 3.5V0.5C19.0802 0.5 0.5 19.0802 0.5 42H3.5ZM3.5 147V42H0.5V147H3.5ZM42 185.5C20.737 185.5 3.5 168.263 3.5 147H0.5C0.5 169.92 19.0802 188.5 42 188.5V185.5ZM301.148 185.5H42V188.5H301.148V185.5ZM331.12 217.258L302.25 185.983L300.045 188.017L328.915 219.293L331.12 217.258ZM301.984 263.03L331.266 219.108L328.769 217.444L299.488 261.366L301.984 263.03ZM401.607 275.354L300.952 260.714L300.52 263.682L401.175 278.323L401.607 275.354ZM329.49 251.401L400.863 278.243L401.919 275.435L330.546 248.593L329.49 251.401ZM362.417 208.775L328.865 249.037L331.17 250.958L364.721 210.696L362.417 208.775ZM353.11 183.924L362.151 210.223L364.988 209.248L355.947 182.948L353.11 183.924ZM376.5 147C376.5 162.587 367.237 176.015 353.908 182.07L355.149 184.802C369.509 178.277 379.5 163.807 379.5 147H376.5ZM376.5 42V147H379.5V42H376.5ZM338 3.5C359.263 3.5 376.5 20.737 376.5 42H379.5C379.5 19.0802 360.92 0.5 338 0.5V3.5ZM42 3.5H338V0.5H42V3.5Z" fill="black"/>
</g>
<path d="M39.504 72.448V67.408H40.224C40.848 67.408 41.322 66.904 41.646 65.896C41.97 64.876 42.168 63.214 42.24 60.91L42.348 57.22H51.204V67.408H52.95V72.448H50.358V70H42.078V72.448H39.504ZM43.68 67.408H48.252V59.812H45.048L44.994 61.324C44.946 62.968 44.832 64.282 44.652 65.266C44.472 66.25 44.148 66.964 43.68 67.408ZM53.898 67.174C53.898 66.55 54.072 66.004 54.42 65.536C54.768 65.068 55.248 64.702 55.86 64.438C56.472 64.162 57.174 64.024 57.966 64.024C58.35 64.024 58.728 64.06 59.1 64.132C59.472 64.192 59.796 64.282 60.072 64.402V63.988C60.072 62.92 59.442 62.386 58.182 62.386C57.654 62.386 57.156 62.476 56.688 62.656C56.232 62.836 55.746 63.094 55.23 63.43L54.366 61.594C55.614 60.778 56.982 60.37 58.47 60.37C59.886 60.37 60.984 60.712 61.764 61.396C62.556 62.068 62.952 63.046 62.952 64.33V66.796C62.952 67.084 62.994 67.288 63.078 67.408C63.174 67.528 63.336 67.594 63.564 67.606V70C63.312 70.048 63.084 70.084 62.88 70.108C62.676 70.132 62.496 70.144 62.34 70.144C61.8 70.144 61.386 70.036 61.098 69.82C60.822 69.604 60.648 69.31 60.576 68.938L60.522 68.524C60.102 69.064 59.598 69.478 59.01 69.766C58.422 70.042 57.816 70.18 57.192 70.18C56.568 70.18 56.004 70.048 55.5 69.784C55.008 69.52 54.618 69.166 54.33 68.722C54.042 68.266 53.898 67.75 53.898 67.174ZM59.622 67.534C59.922 67.294 60.072 67.048 60.072 66.796V65.95C59.82 65.854 59.544 65.782 59.244 65.734C58.956 65.674 58.692 65.644 58.452 65.644C57.912 65.644 57.468 65.764 57.12 66.004C56.784 66.244 56.616 66.55 56.616 66.922C56.616 67.246 56.742 67.528 56.994 67.768C57.258 67.996 57.606 68.11 58.038 68.11C58.326 68.11 58.614 68.056 58.902 67.948C59.19 67.84 59.43 67.702 59.622 67.534ZM65.0568 70V60.55H70.5288C71.2248 60.55 71.7828 60.658 72.2028 60.874C72.6348 61.09 72.9468 61.372 73.1388 61.72C73.3308 62.068 73.4268 62.44 73.4268 62.836C73.4268 63.364 73.3068 63.826 73.0668 64.222C72.8268 64.618 72.4608 64.924 71.9688 65.14C72.5208 65.296 72.9708 65.56 73.3188 65.932C73.6788 66.292 73.8588 66.79 73.8588 67.426C73.8588 68.362 73.5348 69.028 72.8868 69.424C72.2388 69.808 71.3388 70 70.1868 70H65.0568ZM67.7928 64.348H69.8088C70.0848 64.348 70.3068 64.258 70.4748 64.078C70.6428 63.886 70.7268 63.652 70.7268 63.376C70.7268 63.112 70.6428 62.896 70.4748 62.728C70.3068 62.56 70.0908 62.476 69.8268 62.476H67.7928V64.348ZM67.7928 68.074H70.0968C70.3728 68.074 70.6008 67.984 70.7808 67.804C70.9728 67.612 71.0688 67.378 71.0688 67.102C71.0688 66.802 70.9788 66.562 70.7988 66.382C70.6188 66.202 70.3908 66.112 70.1148 66.112H67.7928V68.074ZM74.8687 67.174C74.8687 66.55 75.0427 66.004 75.3907 65.536C75.7387 65.068 76.2187 64.702 76.8307 64.438C77.4427 64.162 78.1447 64.024 78.9367 64.024C79.3207 64.024 79.6987 64.06 80.0707 64.132C80.4427 64.192 80.7667 64.282 81.0427 64.402V63.988C81.0427 62.92 80.4127 62.386 79.1527 62.386C78.6247 62.386 78.1267 62.476 77.6587 62.656C77.2027 62.836 76.7167 63.094 76.2007 63.43L75.3367 61.594C76.5847 60.778 77.9527 60.37 79.4407 60.37C80.8567 60.37 81.9547 60.712 82.7347 61.396C83.5267 62.068 83.9227 63.046 83.9227 64.33V66.796C83.9227 67.084 83.9647 67.288 84.0487 67.408C84.1447 67.528 84.3067 67.594 84.5347 67.606V70C84.2827 70.048 84.0547 70.084 83.8507 70.108C83.6467 70.132 83.4667 70.144 83.3107 70.144C82.7707 70.144 82.3567 70.036 82.0687 69.82C81.7927 69.604 81.6187 69.31 81.5467 68.938L81.4927 68.524C81.0727 69.064 80.5687 69.478 79.9807 69.766C79.3927 70.042 78.7867 70.18 78.1627 70.18C77.5387 70.18 76.9747 70.048 76.4707 69.784C75.9787 69.52 75.5887 69.166 75.3007 68.722C75.0127 68.266 74.8687 67.75 74.8687 67.174ZM80.5927 67.534C80.8927 67.294 81.0427 67.048 81.0427 66.796V65.95C80.7907 65.854 80.5147 65.782 80.2147 65.734C79.9267 65.674 79.6627 65.644 79.4227 65.644C78.8827 65.644 78.4387 65.764 78.0907 66.004C77.7547 66.244 77.5867 66.55 77.5867 66.922C77.5867 67.246 77.7127 67.528 77.9647 67.768C78.2287 67.996 78.5767 68.11 79.0087 68.11C79.2967 68.11 79.5847 68.056 79.8727 67.948C80.1607 67.84 80.4007 67.702 80.5927 67.534ZM86.0275 70V60.55H88.9075V66.166L92.5615 60.55H95.1895V70H92.3095V64.546L88.6735 70H86.0275ZM90.6175 59.776C89.6575 59.776 88.8895 59.524 88.3135 59.02C87.7375 58.504 87.4495 57.838 87.4495 57.022H89.1415C89.1415 57.394 89.2615 57.706 89.5015 57.958C89.7535 58.198 90.1255 58.318 90.6175 58.318C91.0975 58.318 91.4515 58.204 91.6795 57.976C91.9075 57.736 92.0455 57.418 92.0935 57.022H93.8035C93.8035 57.838 93.5155 58.504 92.9395 59.02C92.3635 59.524 91.5895 59.776 90.6175 59.776ZM99.2956 70V63.07H96.4336V60.55H105.038V63.07H102.176V70H99.2956ZM110.778 70.18C109.71 70.18 108.798 69.958 108.042 69.514C107.286 69.07 106.704 68.482 106.296 67.75C105.9 67.018 105.702 66.226 105.702 65.374C105.702 64.462 105.9 63.628 106.296 62.872C106.692 62.116 107.268 61.51 108.024 61.054C108.78 60.598 109.698 60.37 110.778 60.37C111.846 60.37 112.758 60.598 113.514 61.054C114.27 61.51 114.84 62.11 115.224 62.854C115.62 63.598 115.818 64.396 115.818 65.248C115.818 65.596 115.794 65.902 115.746 66.166H108.762C108.81 66.802 109.038 67.288 109.446 67.624C109.866 67.948 110.34 68.11 110.868 68.11C111.288 68.11 111.69 68.008 112.074 67.804C112.458 67.6 112.722 67.324 112.866 66.976L115.314 67.66C114.942 68.404 114.36 69.01 113.568 69.478C112.788 69.946 111.858 70.18 110.778 70.18ZM108.69 64.402H112.794C112.734 63.802 112.512 63.328 112.128 62.98C111.756 62.62 111.294 62.44 110.742 62.44C110.19 62.44 109.722 62.62 109.338 62.98C108.966 63.34 108.75 63.814 108.69 64.402ZM125.824 70.18C124.744 70.18 123.826 69.952 123.07 69.496C122.326 69.04 121.756 68.44 121.36 67.696C120.964 66.952 120.766 66.148 120.766 65.284C120.766 64.408 120.964 63.598 121.36 62.854C121.756 62.11 122.332 61.51 123.088 61.054C123.844 60.598 124.756 60.37 125.824 60.37C126.892 60.37 127.804 60.598 128.56 61.054C129.316 61.51 129.892 62.11 130.288 62.854C130.684 63.598 130.882 64.408 130.882 65.284C130.882 66.148 130.684 66.952 130.288 67.696C129.892 68.44 129.316 69.04 128.56 69.496C127.804 69.952 126.892 70.18 125.824 70.18ZM123.718 65.284C123.718 66.016 123.916 66.61 124.312 67.066C124.72 67.522 125.224 67.75 125.824 67.75C126.412 67.75 126.904 67.522 127.3 67.066C127.708 66.61 127.912 66.016 127.912 65.284C127.912 64.552 127.708 63.958 127.3 63.502C126.904 63.046 126.412 62.818 125.824 62.818C125.224 62.818 124.72 63.046 124.312 63.502C123.916 63.958 123.718 64.552 123.718 65.284ZM134.434 70V63.07H131.572V60.55H140.176V63.07H137.314V70H134.434ZM141.416 70V60.55H150.254V70H147.374V63.07H144.296V70H141.416ZM158.22 70.18C157.512 70.18 156.888 70.03 156.348 69.73C155.82 69.418 155.412 68.998 155.124 68.47V73.834H152.244V60.55H154.746V62.08C155.094 61.54 155.532 61.12 156.06 60.82C156.588 60.52 157.206 60.37 157.914 60.37C158.754 60.37 159.504 60.592 160.164 61.036C160.836 61.468 161.358 62.05 161.73 62.782C162.114 63.514 162.306 64.336 162.306 65.248C162.306 66.184 162.132 67.024 161.784 67.768C161.436 68.512 160.95 69.1 160.326 69.532C159.714 69.964 159.012 70.18 158.22 70.18ZM157.248 67.75C157.656 67.75 158.022 67.636 158.346 67.408C158.67 67.168 158.922 66.862 159.102 66.49C159.282 66.106 159.372 65.686 159.372 65.23C159.372 64.534 159.156 63.958 158.724 63.502C158.304 63.046 157.764 62.818 157.104 62.818C156.708 62.818 156.324 62.938 155.952 63.178C155.592 63.406 155.316 63.718 155.124 64.114V66.058C155.316 66.538 155.604 66.94 155.988 67.264C156.384 67.588 156.804 67.75 157.248 67.75ZM163.164 67.174C163.164 66.55 163.338 66.004 163.686 65.536C164.034 65.068 164.514 64.702 165.126 64.438C165.738 64.162 166.44 64.024 167.232 64.024C167.616 64.024 167.994 64.06 168.366 64.132C168.738 64.192 169.062 64.282 169.338 64.402V63.988C169.338 62.92 168.708 62.386 167.448 62.386C166.92 62.386 166.422 62.476 165.954 62.656C165.498 62.836 165.012 63.094 164.496 63.43L163.632 61.594C164.88 60.778 166.248 60.37 167.736 60.37C169.152 60.37 170.25 60.712 171.03 61.396C171.822 62.068 172.218 63.046 172.218 64.33V66.796C172.218 67.084 172.26 67.288 172.344 67.408C172.44 67.528 172.602 67.594 172.83 67.606V70C172.578 70.048 172.35 70.084 172.146 70.108C171.942 70.132 171.762 70.144 171.606 70.144C171.066 70.144 170.652 70.036 170.364 69.82C170.088 69.604 169.914 69.31 169.842 68.938L169.788 68.524C169.368 69.064 168.864 69.478 168.276 69.766C167.688 70.042 167.082 70.18 166.458 70.18C165.834 70.18 165.27 70.048 164.766 69.784C164.274 69.52 163.884 69.166 163.596 68.722C163.308 68.266 163.164 67.75 163.164 67.174ZM168.888 67.534C169.188 67.294 169.338 67.048 169.338 66.796V65.95C169.086 65.854 168.81 65.782 168.51 65.734C168.222 65.674 167.958 65.644 167.718 65.644C167.178 65.644 166.734 65.764 166.386 66.004C166.05 66.244 165.882 66.55 165.882 66.922C165.882 67.246 166.008 67.528 166.26 67.768C166.524 67.996 166.872 68.11 167.304 68.11C167.592 68.11 167.88 68.056 168.168 67.948C168.456 67.84 168.696 67.702 168.888 67.534ZM174.322 70V60.55H179.794C180.49 60.55 181.048 60.658 181.468 60.874C181.9 61.09 182.212 61.372 182.404 61.72C182.596 62.068 182.692 62.44 182.692 62.836C182.692 63.364 182.572 63.826 182.332 64.222C182.092 64.618 181.726 64.924 181.234 65.14C181.786 65.296 182.236 65.56 182.584 65.932C182.944 66.292 183.124 66.79 183.124 67.426C183.124 68.362 182.8 69.028 182.152 69.424C181.504 69.808 180.604 70 179.452 70H174.322ZM177.058 64.348H179.074C179.35 64.348 179.572 64.258 179.74 64.078C179.908 63.886 179.992 63.652 179.992 63.376C179.992 63.112 179.908 62.896 179.74 62.728C179.572 62.56 179.356 62.476 179.092 62.476H177.058V64.348ZM177.058 68.074H179.362C179.638 68.074 179.866 67.984 180.046 67.804C180.238 67.612 180.334 67.378 180.334 67.102C180.334 66.802 180.244 66.562 180.064 66.382C179.884 66.202 179.656 66.112 179.38 66.112H177.058V68.074ZM184.746 70V60.55H187.626V66.166L191.28 60.55H193.908V70H191.028V64.546L187.392 70H184.746ZM195.908 70V60.55H198.914L201.578 65.608L204.242 60.55H207.23V70H204.494V64.474L202.46 68.344H200.678L198.644 64.474V70H195.908ZM213.75 70.18C212.694 70.18 211.782 69.952 211.014 69.496C210.258 69.04 209.676 68.44 209.268 67.696C208.872 66.952 208.674 66.142 208.674 65.266C208.674 64.402 208.872 63.598 209.268 62.854C209.676 62.11 210.258 61.51 211.014 61.054C211.77 60.598 212.682 60.37 213.75 60.37C214.83 60.37 215.742 60.604 216.486 61.072C217.242 61.528 217.806 62.128 218.178 62.872L215.37 63.718C214.998 63.118 214.452 62.818 213.732 62.818C213.144 62.818 212.646 63.04 212.238 63.484C211.83 63.928 211.626 64.522 211.626 65.266C211.626 66.01 211.83 66.61 212.238 67.066C212.646 67.522 213.144 67.75 213.732 67.75C214.092 67.75 214.422 67.666 214.722 67.498C215.022 67.318 215.244 67.09 215.388 66.814L218.196 67.678C217.848 68.41 217.29 69.01 216.522 69.478C215.766 69.946 214.842 70.18 213.75 70.18ZM218.962 70L221.194 66.382C220.642 66.202 220.216 65.89 219.916 65.446C219.628 65.002 219.484 64.414 219.484 63.682C219.484 63.034 219.628 62.476 219.916 62.008C220.216 61.528 220.624 61.162 221.14 60.91C221.668 60.646 222.268 60.514 222.94 60.514H227.782V70H224.902V66.886H223.948L222.112 70H218.962ZM223.336 64.852H224.902V62.692H223.372C223.024 62.692 222.748 62.788 222.544 62.98C222.34 63.172 222.238 63.43 222.238 63.754C222.238 64.078 222.328 64.342 222.508 64.546C222.7 64.75 222.976 64.852 223.336 64.852ZM234 70V60.55H236.88V63.97H240.102V60.55H242.982V70H240.102V66.346H236.88V70H234ZM244.392 67.174C244.392 66.55 244.566 66.004 244.914 65.536C245.262 65.068 245.742 64.702 246.354 64.438C246.966 64.162 247.668 64.024 248.46 64.024C248.844 64.024 249.222 64.06 249.594 64.132C249.966 64.192 250.29 64.282 250.566 64.402V63.988C250.566 62.92 249.936 62.386 248.676 62.386C248.148 62.386 247.65 62.476 247.182 62.656C246.726 62.836 246.24 63.094 245.724 63.43L244.86 61.594C246.108 60.778 247.476 60.37 248.964 60.37C250.38 60.37 251.478 60.712 252.258 61.396C253.05 62.068 253.446 63.046 253.446 64.33V66.796C253.446 67.084 253.488 67.288 253.572 67.408C253.668 67.528 253.83 67.594 254.058 67.606V70C253.806 70.048 253.578 70.084 253.374 70.108C253.17 70.132 252.99 70.144 252.834 70.144C252.294 70.144 251.88 70.036 251.592 69.82C251.316 69.604 251.142 69.31 251.07 68.938L251.016 68.524C250.596 69.064 250.092 69.478 249.504 69.766C248.916 70.042 248.31 70.18 247.686 70.18C247.062 70.18 246.498 70.048 245.994 69.784C245.502 69.52 245.112 69.166 244.824 68.722C244.536 68.266 244.392 67.75 244.392 67.174ZM250.116 67.534C250.416 67.294 250.566 67.048 250.566 66.796V65.95C250.314 65.854 250.038 65.782 249.738 65.734C249.45 65.674 249.186 65.644 248.946 65.644C248.406 65.644 247.962 65.764 247.614 66.004C247.278 66.244 247.11 66.55 247.11 66.922C247.11 67.246 247.236 67.528 247.488 67.768C247.752 67.996 248.1 68.11 248.532 68.11C248.82 68.11 249.108 68.056 249.396 67.948C249.684 67.84 249.924 67.702 250.116 67.534ZM259.752 70V60.55H262.632V63.97H265.854V60.55H268.734V70H265.854V66.346H262.632V70H259.752ZM270.144 67.174C270.144 66.55 270.318 66.004 270.666 65.536C271.014 65.068 271.494 64.702 272.106 64.438C272.718 64.162 273.42 64.024 274.212 64.024C274.596 64.024 274.974 64.06 275.346 64.132C275.718 64.192 276.042 64.282 276.318 64.402V63.988C276.318 62.92 275.688 62.386 274.428 62.386C273.9 62.386 273.402 62.476 272.934 62.656C272.478 62.836 271.992 63.094 271.476 63.43L270.612 61.594C271.86 60.778 273.228 60.37 274.716 60.37C276.132 60.37 277.23 60.712 278.01 61.396C278.802 62.068 279.198 63.046 279.198 64.33V66.796C279.198 67.084 279.24 67.288 279.324 67.408C279.42 67.528 279.582 67.594 279.81 67.606V70C279.558 70.048 279.33 70.084 279.126 70.108C278.922 70.132 278.742 70.144 278.586 70.144C278.046 70.144 277.632 70.036 277.344 69.82C277.068 69.604 276.894 69.31 276.822 68.938L276.768 68.524C276.348 69.064 275.844 69.478 275.256 69.766C274.668 70.042 274.062 70.18 273.438 70.18C272.814 70.18 272.25 70.048 271.746 69.784C271.254 69.52 270.864 69.166 270.576 68.722C270.288 68.266 270.144 67.75 270.144 67.174ZM275.868 67.534C276.168 67.294 276.318 67.048 276.318 66.796V65.95C276.066 65.854 275.79 65.782 275.49 65.734C275.202 65.674 274.938 65.644 274.698 65.644C274.158 65.644 273.714 65.764 273.366 66.004C273.03 66.244 272.862 66.55 272.862 66.922C272.862 67.246 272.988 67.528 273.24 67.768C273.504 67.996 273.852 68.11 274.284 68.11C274.572 68.11 274.86 68.056 275.148 67.948C275.436 67.84 275.676 67.702 275.868 67.534ZM281.303 70V60.55H284.183V67.498H286.793V60.55H289.673V67.498H292.283V60.55H295.163V70H281.303ZM301.676 70.18C300.608 70.18 299.696 69.958 298.94 69.514C298.184 69.07 297.602 68.482 297.194 67.75C296.798 67.018 296.6 66.226 296.6 65.374C296.6 64.462 296.798 63.628 297.194 62.872C297.59 62.116 298.166 61.51 298.922 61.054C299.678 60.598 300.596 60.37 301.676 60.37C302.744 60.37 303.656 60.598 304.412 61.054C305.168 61.51 305.738 62.11 306.122 62.854C306.518 63.598 306.716 64.396 306.716 65.248C306.716 65.596 306.692 65.902 306.644 66.166H299.66C299.708 66.802 299.936 67.288 300.344 67.624C300.764 67.948 301.238 68.11 301.766 68.11C302.186 68.11 302.588 68.008 302.972 67.804C303.356 67.6 303.62 67.324 303.764 66.976L306.212 67.66C305.84 68.404 305.258 69.01 304.466 69.478C303.686 69.946 302.756 70.18 301.676 70.18ZM299.588 64.402H303.692C303.632 63.802 303.41 63.328 303.026 62.98C302.654 62.62 302.192 62.44 301.64 62.44C301.088 62.44 300.62 62.62 300.236 62.98C299.864 63.34 299.648 63.814 299.588 64.402ZM308.039 70V60.55H311.045L313.709 65.608L316.373 60.55H319.361V70H316.625V64.474L314.591 68.344H312.809L310.775 64.474V70H308.039ZM39.378 99.144V96.588C39.762 96.588 40.086 96.486 40.35 96.282C40.614 96.066 40.824 95.676 40.98 95.112C41.136 94.548 41.238 93.726 41.286 92.646L41.412 89.55H48.882V99H46.002V92.07H43.968L43.932 92.952C43.848 94.548 43.638 95.796 43.302 96.696C42.966 97.596 42.474 98.226 41.826 98.586C41.19 98.946 40.374 99.132 39.378 99.144ZM55.3884 99.18C54.3084 99.18 53.3904 98.952 52.6344 98.496C51.8904 98.04 51.3204 97.44 50.9244 96.696C50.5284 95.952 50.3304 95.148 50.3304 94.284C50.3304 93.408 50.5284 92.598 50.9244 91.854C51.3204 91.11 51.8964 90.51 52.6524 90.054C53.4084 89.598 54.3204 89.37 55.3884 89.37C56.4564 89.37 57.3684 89.598 58.1244 90.054C58.8804 90.51 59.4564 91.11 59.8524 91.854C60.2484 92.598 60.4464 93.408 60.4464 94.284C60.4464 95.148 60.2484 95.952 59.8524 96.696C59.4564 97.44 58.8804 98.04 58.1244 98.496C57.3684 98.952 56.4564 99.18 55.3884 99.18ZM53.2824 94.284C53.2824 95.016 53.4804 95.61 53.8764 96.066C54.2844 96.522 54.7884 96.75 55.3884 96.75C55.9764 96.75 56.4684 96.522 56.8644 96.066C57.2724 95.61 57.4764 95.016 57.4764 94.284C57.4764 93.552 57.2724 92.958 56.8644 92.502C56.4684 92.046 55.9764 91.818 55.3884 91.818C54.7884 91.818 54.2844 92.046 53.8764 92.502C53.4804 92.958 53.2824 93.552 53.2824 94.284ZM61.8928 99V89.55H64.7548V92.934H65.4388L67.7788 89.55H70.8748L67.6348 94.086L71.2168 99H67.9228L65.3848 95.436H64.7548V99H61.8928ZM76.6755 99.18C75.5955 99.18 74.6775 98.952 73.9215 98.496C73.1775 98.04 72.6075 97.44 72.2115 96.696C71.8155 95.952 71.6175 95.148 71.6175 94.284C71.6175 93.408 71.8155 92.598 72.2115 91.854C72.6075 91.11 73.1835 90.51 73.9395 90.054C74.6955 89.598 75.6075 89.37 76.6755 89.37C77.7435 89.37 78.6555 89.598 79.4115 90.054C80.1675 90.51 80.7435 91.11 81.1395 91.854C81.5355 92.598 81.7335 93.408 81.7335 94.284C81.7335 95.148 81.5355 95.952 81.1395 96.696C80.7435 97.44 80.1675 98.04 79.4115 98.496C78.6555 98.952 77.7435 99.18 76.6755 99.18ZM74.5695 94.284C74.5695 95.016 74.7675 95.61 75.1635 96.066C75.5715 96.522 76.0755 96.75 76.6755 96.75C77.2635 96.75 77.7555 96.522 78.1515 96.066C78.5595 95.61 78.7635 95.016 78.7635 94.284C78.7635 93.552 78.5595 92.958 78.1515 92.502C77.7555 92.046 77.2635 91.818 76.6755 91.818C76.0755 91.818 75.5715 92.046 75.1635 92.502C74.7675 92.958 74.5695 93.552 74.5695 94.284ZM83.1799 99V89.55H86.1859L88.8499 94.608L91.5139 89.55H94.5019V99H91.7659V93.474L89.7319 97.344H87.9499L85.9159 93.474V99H83.1799ZM101.004 99.18C99.9237 99.18 99.0057 98.952 98.2497 98.496C97.5057 98.04 96.9357 97.44 96.5397 96.696C96.1437 95.952 95.9457 95.148 95.9457 94.284C95.9457 93.408 96.1437 92.598 96.5397 91.854C96.9357 91.11 97.5117 90.51 98.2677 90.054C99.0237 89.598 99.9357 89.37 101.004 89.37C102.072 89.37 102.984 89.598 103.74 90.054C104.496 90.51 105.072 91.11 105.468 91.854C105.864 92.598 106.062 93.408 106.062 94.284C106.062 95.148 105.864 95.952 105.468 96.696C105.072 97.44 104.496 98.04 103.74 98.496C102.984 98.952 102.072 99.18 101.004 99.18ZM98.8977 94.284C98.8977 95.016 99.0957 95.61 99.4917 96.066C99.8997 96.522 100.404 96.75 101.004 96.75C101.592 96.75 102.084 96.522 102.48 96.066C102.888 95.61 103.092 95.016 103.092 94.284C103.092 93.552 102.888 92.958 102.48 92.502C102.084 92.046 101.592 91.818 101.004 91.818C100.404 91.818 99.8997 92.046 99.4917 92.502C99.0957 92.958 98.8977 93.552 98.8977 94.284ZM109.614 99V92.07H106.752V89.55H115.356V92.07H112.494V99H109.614ZM116.596 99V89.55H119.476V95.166L123.13 89.55H125.758V99H122.878V93.546L119.242 99H116.596ZM127.758 99V89.55H133.23C133.926 89.55 134.484 89.658 134.904 89.874C135.336 90.09 135.648 90.372 135.84 90.72C136.032 91.068 136.128 91.44 136.128 91.836C136.128 92.364 136.008 92.826 135.768 93.222C135.528 93.618 135.162 93.924 134.67 94.14C135.222 94.296 135.672 94.56 136.02 94.932C136.38 95.292 136.56 95.79 136.56 96.426C136.56 97.362 136.236 98.028 135.588 98.424C134.94 98.808 134.04 99 132.888 99H127.758ZM130.494 93.348H132.51C132.786 93.348 133.008 93.258 133.176 93.078C133.344 92.886 133.428 92.652 133.428 92.376C133.428 92.112 133.344 91.896 133.176 91.728C133.008 91.56 132.792 91.476 132.528 91.476H130.494V93.348ZM130.494 97.074H132.798C133.074 97.074 133.302 96.984 133.482 96.804C133.674 96.612 133.77 96.378 133.77 96.102C133.77 95.802 133.68 95.562 133.5 95.382C133.32 95.202 133.092 95.112 132.816 95.112H130.494V97.074ZM142.682 99.18C141.614 99.18 140.702 98.958 139.946 98.514C139.19 98.07 138.608 97.482 138.2 96.75C137.804 96.018 137.606 95.226 137.606 94.374C137.606 93.462 137.804 92.628 138.2 91.872C138.596 91.116 139.172 90.51 139.928 90.054C140.684 89.598 141.602 89.37 142.682 89.37C143.75 89.37 144.662 89.598 145.418 90.054C146.174 90.51 146.744 91.11 147.128 91.854C147.524 92.598 147.722 93.396 147.722 94.248C147.722 94.596 147.698 94.902 147.65 95.166H140.666C140.714 95.802 140.942 96.288 141.35 96.624C141.77 96.948 142.244 97.11 142.772 97.11C143.192 97.11 143.594 97.008 143.978 96.804C144.362 96.6 144.626 96.324 144.77 95.976L147.218 96.66C146.846 97.404 146.264 98.01 145.472 98.478C144.692 98.946 143.762 99.18 142.682 99.18ZM140.594 93.402H144.698C144.638 92.802 144.416 92.328 144.032 91.98C143.66 91.62 143.198 91.44 142.646 91.44C142.094 91.44 141.626 91.62 141.242 91.98C140.87 92.34 140.654 92.814 140.594 93.402ZM153.246 99V89.55H162.084V99H159.204V92.07H156.126V99H153.246ZM168.574 99.18C167.494 99.18 166.576 98.952 165.82 98.496C165.076 98.04 164.506 97.44 164.11 96.696C163.714 95.952 163.516 95.148 163.516 94.284C163.516 93.408 163.714 92.598 164.11 91.854C164.506 91.11 165.082 90.51 165.838 90.054C166.594 89.598 167.506 89.37 168.574 89.37C169.642 89.37 170.554 89.598 171.31 90.054C172.066 90.51 172.642 91.11 173.038 91.854C173.434 92.598 173.632 93.408 173.632 94.284C173.632 95.148 173.434 95.952 173.038 96.696C172.642 97.44 172.066 98.04 171.31 98.496C170.554 98.952 169.642 99.18 168.574 99.18ZM166.468 94.284C166.468 95.016 166.666 95.61 167.062 96.066C167.47 96.522 167.974 96.75 168.574 96.75C169.162 96.75 169.654 96.522 170.05 96.066C170.458 95.61 170.662 95.016 170.662 94.284C170.662 93.552 170.458 92.958 170.05 92.502C169.654 92.046 169.162 91.818 168.574 91.818C167.974 91.818 167.47 92.046 167.062 92.502C166.666 92.958 166.468 93.552 166.468 94.284ZM189.575 99V91.386L186.821 96.93H185.201L182.447 91.386V99H179.495V86.22H182.699L186.011 92.898L189.341 86.22H192.527V99H189.575ZM207.14 88.47V85.86H210.02V88.47H207.14ZM207.14 99V89.55H210.02V99H207.14ZM218.112 98.496C217.716 98.664 217.26 98.82 216.744 98.964C216.24 99.108 215.73 99.18 215.214 99.18C214.734 99.18 214.296 99.102 213.9 98.946C213.504 98.778 213.186 98.508 212.946 98.136C212.706 97.764 212.586 97.272 212.586 96.66V91.728H211.38V89.55H212.586V86.544H215.466V89.55H217.392V91.728H215.466V95.67C215.466 95.982 215.544 96.21 215.7 96.354C215.856 96.486 216.054 96.552 216.294 96.552C216.51 96.552 216.732 96.516 216.96 96.444C217.188 96.372 217.386 96.294 217.554 96.21L218.112 98.496ZM219.236 100.422C219.728 100.578 220.142 100.656 220.478 100.656C220.814 100.656 221.078 100.536 221.27 100.296C221.474 100.056 221.654 99.624 221.81 99L218.21 89.55H221.18L223.376 96.048L225.248 89.55H227.966L224.366 100.53C224.114 101.31 223.658 101.94 222.998 102.42C222.35 102.912 221.588 103.158 220.712 103.158C220.208 103.158 219.716 103.068 219.236 102.888V100.422ZM232.875 99V89.55H235.755V92.97H238.977V89.55H241.857V99H238.977V95.346H235.755V99H232.875ZM243.267 96.174C243.267 95.55 243.441 95.004 243.789 94.536C244.137 94.068 244.617 93.702 245.229 93.438C245.841 93.162 246.543 93.024 247.335 93.024C247.719 93.024 248.097 93.06 248.469 93.132C248.841 93.192 249.165 93.282 249.441 93.402V92.988C249.441 91.92 248.811 91.386 247.551 91.386C247.023 91.386 246.525 91.476 246.057 91.656C245.601 91.836 245.115 92.094 244.599 92.43L243.735 90.594C244.983 89.778 246.351 89.37 247.839 89.37C249.255 89.37 250.353 89.712 251.133 90.396C251.925 91.068 252.321 92.046 252.321 93.33V95.796C252.321 96.084 252.363 96.288 252.447 96.408C252.543 96.528 252.705 96.594 252.933 96.606V99C252.681 99.048 252.453 99.084 252.249 99.108C252.045 99.132 251.865 99.144 251.709 99.144C251.169 99.144 250.755 99.036 250.467 98.82C250.191 98.604 250.017 98.31 249.945 97.938L249.891 97.524C249.471 98.064 248.967 98.478 248.379 98.766C247.791 99.042 247.185 99.18 246.561 99.18C245.937 99.18 245.373 99.048 244.869 98.784C244.377 98.52 243.987 98.166 243.699 97.722C243.411 97.266 243.267 96.75 243.267 96.174ZM248.991 96.534C249.291 96.294 249.441 96.048 249.441 95.796V94.95C249.189 94.854 248.913 94.782 248.613 94.734C248.325 94.674 248.061 94.644 247.821 94.644C247.281 94.644 246.837 94.764 246.489 95.004C246.153 95.244 245.985 95.55 245.985 95.922C245.985 96.246 246.111 96.528 246.363 96.768C246.627 96.996 246.975 97.11 247.407 97.11C247.695 97.11 247.983 97.056 248.271 96.948C248.559 96.84 248.799 96.702 248.991 96.534ZM44.49 128.18C43.41 128.18 42.492 127.952 41.736 127.496C40.992 127.04 40.422 126.44 40.026 125.696C39.63 124.952 39.432 124.148 39.432 123.284C39.432 122.408 39.63 121.598 40.026 120.854C40.422 120.11 40.998 119.51 41.754 119.054C42.51 118.598 43.422 118.37 44.49 118.37C45.558 118.37 46.47 118.598 47.226 119.054C47.982 119.51 48.558 120.11 48.954 120.854C49.35 121.598 49.548 122.408 49.548 123.284C49.548 124.148 49.35 124.952 48.954 125.696C48.558 126.44 47.982 127.04 47.226 127.496C46.47 127.952 45.558 128.18 44.49 128.18ZM42.384 123.284C42.384 124.016 42.582 124.61 42.978 125.066C43.386 125.522 43.89 125.75 44.49 125.75C45.078 125.75 45.57 125.522 45.966 125.066C46.374 124.61 46.578 124.016 46.578 123.284C46.578 122.552 46.374 121.958 45.966 121.502C45.57 121.046 45.078 120.818 44.49 120.818C43.89 120.818 43.386 121.046 42.978 121.502C42.582 121.958 42.384 122.552 42.384 123.284ZM55.4943 128.18C54.4383 128.18 53.5263 127.952 52.7583 127.496C52.0023 127.04 51.4203 126.44 51.0123 125.696C50.6163 124.952 50.4183 124.142 50.4183 123.266C50.4183 122.402 50.6163 121.598 51.0123 120.854C51.4203 120.11 52.0023 119.51 52.7583 119.054C53.5143 118.598 54.4263 118.37 55.4943 118.37C56.5743 118.37 57.4863 118.604 58.2303 119.072C58.9863 119.528 59.5503 120.128 59.9223 120.872L57.1143 121.718C56.7423 121.118 56.1963 120.818 55.4763 120.818C54.8883 120.818 54.3903 121.04 53.9823 121.484C53.5743 121.928 53.3703 122.522 53.3703 123.266C53.3703 124.01 53.5743 124.61 53.9823 125.066C54.3903 125.522 54.8883 125.75 55.4763 125.75C55.8363 125.75 56.1663 125.666 56.4663 125.498C56.7663 125.318 56.9883 125.09 57.1323 124.814L59.9403 125.678C59.5923 126.41 59.0343 127.01 58.2663 127.478C57.5103 127.946 56.5863 128.18 55.4943 128.18ZM65.6541 128.18C64.5741 128.18 63.6561 127.952 62.9001 127.496C62.1561 127.04 61.5861 126.44 61.1901 125.696C60.7941 124.952 60.5961 124.148 60.5961 123.284C60.5961 122.408 60.7941 121.598 61.1901 120.854C61.5861 120.11 62.1621 119.51 62.9181 119.054C63.6741 118.598 64.5861 118.37 65.6541 118.37C66.7221 118.37 67.6341 118.598 68.3901 119.054C69.1461 119.51 69.7221 120.11 70.1181 120.854C70.5141 121.598 70.7121 122.408 70.7121 123.284C70.7121 124.148 70.5141 124.952 70.1181 125.696C69.7221 126.44 69.1461 127.04 68.3901 127.496C67.6341 127.952 66.7221 128.18 65.6541 128.18ZM63.5481 123.284C63.5481 124.016 63.7461 124.61 64.1421 125.066C64.5501 125.522 65.0541 125.75 65.6541 125.75C66.2421 125.75 66.7341 125.522 67.1301 125.066C67.5381 124.61 67.7421 124.016 67.7421 123.284C67.7421 122.552 67.5381 121.958 67.1301 121.502C66.7341 121.046 66.2421 120.818 65.6541 120.818C65.0541 120.818 64.5501 121.046 64.1421 121.502C63.7461 121.958 63.5481 122.552 63.5481 123.284ZM76.9824 128.18C75.3384 128.18 74.0844 127.7 73.2204 126.74C72.3684 125.768 71.9424 124.322 71.9424 122.402C71.9424 120.902 72.1224 119.696 72.4824 118.784C72.8424 117.872 73.3884 117.17 74.1204 116.678C74.8644 116.186 75.7944 115.82 76.9104 115.58L80.9784 114.662L81.0144 116.93L76.9284 117.92C76.1244 118.136 75.4524 118.496 74.9124 119C74.3844 119.504 74.0784 120.218 73.9944 121.142C74.3664 120.578 74.8644 120.128 75.4884 119.792C76.1244 119.456 76.8984 119.288 77.8104 119.288C78.6264 119.288 79.3524 119.468 79.9884 119.828C80.6244 120.188 81.1224 120.686 81.4824 121.322C81.8424 121.946 82.0224 122.672 82.0224 123.5C82.0224 124.4 81.8304 125.204 81.4464 125.912C81.0624 126.608 80.4924 127.16 79.7364 127.568C78.9924 127.976 78.0744 128.18 76.9824 128.18ZM76.9824 125.75C77.6064 125.75 78.1104 125.558 78.4944 125.174C78.8784 124.79 79.0704 124.28 79.0704 123.644C79.0704 123.044 78.8784 122.552 78.4944 122.168C78.1224 121.772 77.6184 121.574 76.9824 121.574C76.3824 121.574 75.8844 121.766 75.4884 122.15C75.0924 122.522 74.8944 123.02 74.8944 123.644C74.8944 124.28 75.0804 124.79 75.4524 125.174C75.8364 125.558 76.3464 125.75 76.9824 125.75ZM87.9611 128.18C86.8931 128.18 85.9811 127.958 85.2251 127.514C84.4691 127.07 83.8871 126.482 83.4791 125.75C83.0831 125.018 82.8851 124.226 82.8851 123.374C82.8851 122.462 83.0831 121.628 83.4791 120.872C83.8751 120.116 84.4511 119.51 85.2071 119.054C85.9631 118.598 86.8811 118.37 87.9611 118.37C89.0291 118.37 89.9411 118.598 90.6971 119.054C91.4531 119.51 92.0231 120.11 92.4071 120.854C92.8031 121.598 93.0011 122.396 93.0011 123.248C93.0011 123.596 92.9771 123.902 92.9291 124.166H85.9451C85.9931 124.802 86.2211 125.288 86.6291 125.624C87.0491 125.948 87.5231 126.11 88.0511 126.11C88.4711 126.11 88.8731 126.008 89.2571 125.804C89.6411 125.6 89.9051 125.324 90.0491 124.976L92.4971 125.66C92.1251 126.404 91.5431 127.01 90.7511 127.478C89.9711 127.946 89.0411 128.18 87.9611 128.18ZM85.8731 122.402H89.9771C89.9171 121.802 89.6951 121.328 89.3111 120.98C88.9391 120.62 88.4771 120.44 87.9251 120.44C87.3731 120.44 86.9051 120.62 86.5211 120.98C86.1491 121.34 85.9331 121.814 85.8731 122.402ZM94.3244 128V118.55H97.2044V121.97H100.426V118.55H103.306V128H100.426V124.346H97.2044V128H94.3244ZM105.328 128V118.55H108.208V121.97H111.43V118.55H114.31V128H111.43V124.346H108.208V128H105.328ZM116.332 128V118.55H119.212V121.376H120.742C121.882 121.376 122.758 121.67 123.37 122.258C123.994 122.846 124.306 123.626 124.306 124.598C124.306 125.606 124.012 126.428 123.424 127.064C122.848 127.688 122.014 128 120.922 128H116.332ZM125.728 128V118.55H128.608V128H125.728ZM119.212 125.822H120.454C120.85 125.822 121.144 125.708 121.336 125.48C121.528 125.252 121.624 124.964 121.624 124.616C121.624 124.28 121.528 123.998 121.336 123.77C121.156 123.542 120.856 123.428 120.436 123.428H119.212V125.822ZM135.123 128.18C134.055 128.18 133.143 127.958 132.387 127.514C131.631 127.07 131.049 126.482 130.641 125.75C130.245 125.018 130.047 124.226 130.047 123.374C130.047 122.462 130.245 121.628 130.641 120.872C131.037 120.116 131.613 119.51 132.369 119.054C133.125 118.598 134.043 118.37 135.123 118.37C136.191 118.37 137.103 118.598 137.859 119.054C138.615 119.51 139.185 120.11 139.569 120.854C139.965 121.598 140.163 122.396 140.163 123.248C140.163 123.596 140.139 123.902 140.091 124.166H133.107C133.155 124.802 133.383 125.288 133.791 125.624C134.211 125.948 134.685 126.11 135.213 126.11C135.633 126.11 136.035 126.008 136.419 125.804C136.803 125.6 137.067 125.324 137.211 124.976L139.659 125.66C139.287 126.404 138.705 127.01 137.913 127.478C137.133 127.946 136.203 128.18 135.123 128.18ZM133.035 122.402H137.139C137.079 121.802 136.857 121.328 136.473 120.98C136.101 120.62 135.639 120.44 135.087 120.44C134.535 120.44 134.067 120.62 133.683 120.98C133.311 121.34 133.095 121.814 133.035 122.402ZM150.188 128.18C149.132 128.18 148.22 127.952 147.452 127.496C146.696 127.04 146.114 126.44 145.706 125.696C145.31 124.952 145.112 124.142 145.112 123.266C145.112 122.402 145.31 121.598 145.706 120.854C146.114 120.11 146.696 119.51 147.452 119.054C148.208 118.598 149.12 118.37 150.188 118.37C151.268 118.37 152.18 118.604 152.924 119.072C153.68 119.528 154.244 120.128 154.616 120.872L151.808 121.718C151.436 121.118 150.89 120.818 150.17 120.818C149.582 120.818 149.084 121.04 148.676 121.484C148.268 121.928 148.064 122.522 148.064 123.266C148.064 124.01 148.268 124.61 148.676 125.066C149.084 125.522 149.582 125.75 150.17 125.75C150.53 125.75 150.86 125.666 151.16 125.498C151.46 125.318 151.682 125.09 151.826 124.814L154.634 125.678C154.286 126.41 153.728 127.01 152.96 127.478C152.204 127.946 151.28 128.18 150.188 128.18ZM158.059 128V121.07H155.197V118.55H163.801V121.07H160.939V128H158.059ZM164.376 125.174C164.376 124.55 164.55 124.004 164.898 123.536C165.246 123.068 165.726 122.702 166.338 122.438C166.95 122.162 167.652 122.024 168.444 122.024C168.828 122.024 169.206 122.06 169.578 122.132C169.95 122.192 170.274 122.282 170.55 122.402V121.988C170.55 120.92 169.92 120.386 168.66 120.386C168.132 120.386 167.634 120.476 167.166 120.656C166.71 120.836 166.224 121.094 165.708 121.43L164.844 119.594C166.092 118.778 167.46 118.37 168.948 118.37C170.364 118.37 171.462 118.712 172.242 119.396C173.034 120.068 173.43 121.046 173.43 122.33V124.796C173.43 125.084 173.472 125.288 173.556 125.408C173.652 125.528 173.814 125.594 174.042 125.606V128C173.79 128.048 173.562 128.084 173.358 128.108C173.154 128.132 172.974 128.144 172.818 128.144C172.278 128.144 171.864 128.036 171.576 127.82C171.3 127.604 171.126 127.31 171.054 126.938L171 126.524C170.58 127.064 170.076 127.478 169.488 127.766C168.9 128.042 168.294 128.18 167.67 128.18C167.046 128.18 166.482 128.048 165.978 127.784C165.486 127.52 165.096 127.166 164.808 126.722C164.52 126.266 164.376 125.75 164.376 125.174ZM170.1 125.534C170.4 125.294 170.55 125.048 170.55 124.796V123.95C170.298 123.854 170.022 123.782 169.722 123.734C169.434 123.674 169.17 123.644 168.93 123.644C168.39 123.644 167.946 123.764 167.598 124.004C167.262 124.244 167.094 124.55 167.094 124.922C167.094 125.246 167.22 125.528 167.472 125.768C167.736 125.996 168.084 126.11 168.516 126.11C168.804 126.11 169.092 126.056 169.38 125.948C169.668 125.84 169.908 125.702 170.1 125.534ZM175.535 128V118.55H178.415V121.97H181.637V118.55H184.517V128H181.637V124.346H178.415V128H175.535ZM193.847 130.322V128H186.539V118.55H189.419V125.498H192.137V118.55H195.017V125.498H196.367V130.322H193.847ZM197.842 128V118.55H200.722V124.166L204.376 118.55H207.004V128H204.124V122.546L200.488 128H197.842ZM209.004 128V118.55H211.884V124.166L215.538 118.55H218.166V128H215.286V122.546L211.65 128H209.004ZM230.325 128.18C229.617 128.18 228.993 128.03 228.453 127.73C227.925 127.418 227.517 126.998 227.229 126.47V131.834H224.349V118.55H226.851V120.08C227.199 119.54 227.637 119.12 228.165 118.82C228.693 118.52 229.311 118.37 230.019 118.37C230.859 118.37 231.609 118.592 232.269 119.036C232.941 119.468 233.463 120.05 233.835 120.782C234.219 121.514 234.411 122.336 234.411 123.248C234.411 124.184 234.237 125.024 233.889 125.768C233.541 126.512 233.055 127.1 232.431 127.532C231.819 127.964 231.117 128.18 230.325 128.18ZM229.353 125.75C229.761 125.75 230.127 125.636 230.451 125.408C230.775 125.168 231.027 124.862 231.207 124.49C231.387 124.106 231.477 123.686 231.477 123.23C231.477 122.534 231.261 121.958 230.829 121.502C230.409 121.046 229.869 120.818 229.209 120.818C228.813 120.818 228.429 120.938 228.057 121.178C227.697 121.406 227.421 121.718 227.229 122.114V124.058C227.421 124.538 227.709 124.94 228.093 125.264C228.489 125.588 228.909 125.75 229.353 125.75ZM235.269 125.174C235.269 124.55 235.443 124.004 235.791 123.536C236.139 123.068 236.619 122.702 237.231 122.438C237.843 122.162 238.545 122.024 239.337 122.024C239.721 122.024 240.099 122.06 240.471 122.132C240.843 122.192 241.167 122.282 241.443 122.402V121.988C241.443 120.92 240.813 120.386 239.553 120.386C239.025 120.386 238.527 120.476 238.059 120.656C237.603 120.836 237.117 121.094 236.601 121.43L235.737 119.594C236.985 118.778 238.353 118.37 239.841 118.37C241.257 118.37 242.355 118.712 243.135 119.396C243.927 120.068 244.323 121.046 244.323 122.33V124.796C244.323 125.084 244.365 125.288 244.449 125.408C244.545 125.528 244.707 125.594 244.935 125.606V128C244.683 128.048 244.455 128.084 244.251 128.108C244.047 128.132 243.867 128.144 243.711 128.144C243.171 128.144 242.757 128.036 242.469 127.82C242.193 127.604 242.019 127.31 241.947 126.938L241.893 126.524C241.473 127.064 240.969 127.478 240.381 127.766C239.793 128.042 239.187 128.18 238.563 128.18C237.939 128.18 237.375 128.048 236.871 127.784C236.379 127.52 235.989 127.166 235.701 126.722C235.413 126.266 235.269 125.75 235.269 125.174ZM240.993 125.534C241.293 125.294 241.443 125.048 241.443 124.796V123.95C241.191 123.854 240.915 123.782 240.615 123.734C240.327 123.674 240.063 123.644 239.823 123.644C239.283 123.644 238.839 123.764 238.491 124.004C238.155 124.244 237.987 124.55 237.987 124.922C237.987 125.246 238.113 125.528 238.365 125.768C238.629 125.996 238.977 126.11 239.409 126.11C239.697 126.11 239.985 126.056 240.273 125.948C240.561 125.84 240.801 125.702 240.993 125.534ZM250.046 128.162C248.966 128.162 248.072 127.982 247.364 127.622C246.668 127.25 246.128 126.734 245.744 126.074L248.048 125.03C248.24 125.294 248.48 125.504 248.768 125.66C249.056 125.804 249.428 125.876 249.884 125.876C250.376 125.876 250.748 125.786 251 125.606C251.252 125.426 251.378 125.198 251.378 124.922C251.378 124.658 251.27 124.448 251.054 124.292C250.838 124.136 250.508 124.052 250.064 124.04H249.074V122.294H250.082C250.382 122.294 250.616 122.222 250.784 122.078C250.952 121.922 251.036 121.724 251.036 121.484C251.036 121.232 250.934 121.034 250.73 120.89C250.538 120.746 250.226 120.674 249.794 120.674C249.41 120.674 249.092 120.74 248.84 120.872C248.6 121.004 248.402 121.202 248.246 121.466L246.086 120.314C246.434 119.702 246.938 119.228 247.598 118.892C248.27 118.556 249.05 118.388 249.938 118.388C250.622 118.388 251.24 118.49 251.792 118.694C252.344 118.898 252.776 119.198 253.088 119.594C253.412 119.99 253.574 120.482 253.574 121.07C253.574 121.466 253.472 121.856 253.268 122.24C253.076 122.624 252.746 122.9 252.278 123.068C252.866 123.248 253.304 123.542 253.592 123.95C253.892 124.346 254.042 124.82 254.042 125.372C254.042 125.972 253.868 126.482 253.52 126.902C253.172 127.322 252.692 127.64 252.08 127.856C251.48 128.06 250.802 128.162 250.046 128.162ZM261.579 128.18C260.871 128.18 260.247 128.03 259.707 127.73C259.179 127.418 258.771 126.998 258.483 126.47V131.834H255.603V118.55H258.105V120.08C258.453 119.54 258.891 119.12 259.419 118.82C259.947 118.52 260.565 118.37 261.273 118.37C262.113 118.37 262.863 118.592 263.523 119.036C264.195 119.468 264.717 120.05 265.089 120.782C265.473 121.514 265.665 122.336 265.665 123.248C265.665 124.184 265.491 125.024 265.143 125.768C264.795 126.512 264.309 127.1 263.685 127.532C263.073 127.964 262.371 128.18 261.579 128.18ZM260.607 125.75C261.015 125.75 261.381 125.636 261.705 125.408C262.029 125.168 262.281 124.862 262.461 124.49C262.641 124.106 262.731 123.686 262.731 123.23C262.731 122.534 262.515 121.958 262.083 121.502C261.663 121.046 261.123 120.818 260.463 120.818C260.067 120.818 259.683 120.938 259.311 121.178C258.951 121.406 258.675 121.718 258.483 122.114V124.058C258.675 124.538 258.963 124.94 259.347 125.264C259.743 125.588 260.163 125.75 260.607 125.75ZM266.523 125.174C266.523 124.55 266.697 124.004 267.045 123.536C267.393 123.068 267.873 122.702 268.485 122.438C269.097 122.162 269.799 122.024 270.591 122.024C270.975 122.024 271.353 122.06 271.725 122.132C272.097 122.192 272.421 122.282 272.697 122.402V121.988C272.697 120.92 272.067 120.386 270.807 120.386C270.279 120.386 269.781 120.476 269.313 120.656C268.857 120.836 268.371 121.094 267.855 121.43L266.991 119.594C268.239 118.778 269.607 118.37 271.095 118.37C272.511 118.37 273.609 118.712 274.389 119.396C275.181 120.068 275.577 121.046 275.577 122.33V124.796C275.577 125.084 275.619 125.288 275.703 125.408C275.799 125.528 275.961 125.594 276.189 125.606V128C275.937 128.048 275.709 128.084 275.505 128.108C275.301 128.132 275.121 128.144 274.965 128.144C274.425 128.144 274.011 128.036 273.723 127.82C273.447 127.604 273.273 127.31 273.201 126.938L273.147 126.524C272.727 127.064 272.223 127.478 271.635 127.766C271.047 128.042 270.441 128.18 269.817 128.18C269.193 128.18 268.629 128.048 268.125 127.784C267.633 127.52 267.243 127.166 266.955 126.722C266.667 126.266 266.523 125.75 266.523 125.174ZM272.247 125.534C272.547 125.294 272.697 125.048 272.697 124.796V123.95C272.445 123.854 272.169 123.782 271.869 123.734C271.581 123.674 271.317 123.644 271.077 123.644C270.537 123.644 270.093 123.764 269.745 124.004C269.409 124.244 269.241 124.55 269.241 124.922C269.241 125.246 269.367 125.528 269.619 125.768C269.883 125.996 270.231 126.11 270.663 126.11C270.951 126.11 271.239 126.056 271.527 125.948C271.815 125.84 272.055 125.702 272.247 125.534ZM282.506 128.18C280.862 128.18 279.608 127.7 278.744 126.74C277.892 125.768 277.466 124.322 277.466 122.402C277.466 120.902 277.646 119.696 278.006 118.784C278.366 117.872 278.912 117.17 279.644 116.678C280.388 116.186 281.318 115.82 282.434 115.58L286.502 114.662L286.538 116.93L282.452 117.92C281.648 118.136 280.976 118.496 280.436 119C279.908 119.504 279.602 120.218 279.518 121.142C279.89 120.578 280.388 120.128 281.012 119.792C281.648 119.456 282.422 119.288 283.334 119.288C284.15 119.288 284.876 119.468 285.512 119.828C286.148 120.188 286.646 120.686 287.006 121.322C287.366 121.946 287.546 122.672 287.546 123.5C287.546 124.4 287.354 125.204 286.97 125.912C286.586 126.608 286.016 127.16 285.26 127.568C284.516 127.976 283.598 128.18 282.506 128.18ZM282.506 125.75C283.13 125.75 283.634 125.558 284.018 125.174C284.402 124.79 284.594 124.28 284.594 123.644C284.594 123.044 284.402 122.552 284.018 122.168C283.646 121.772 283.142 121.574 282.506 121.574C281.906 121.574 281.408 121.766 281.012 122.15C280.616 122.522 280.418 123.02 280.418 123.644C280.418 124.28 280.604 124.79 280.976 125.174C281.36 125.558 281.87 125.75 282.506 125.75ZM293.467 128.18C292.387 128.18 291.469 127.952 290.713 127.496C289.969 127.04 289.399 126.44 289.003 125.696C288.607 124.952 288.409 124.148 288.409 123.284C288.409 122.408 288.607 121.598 289.003 120.854C289.399 120.11 289.975 119.51 290.731 119.054C291.487 118.598 292.399 118.37 293.467 118.37C294.535 118.37 295.447 118.598 296.203 119.054C296.959 119.51 297.535 120.11 297.931 120.854C298.327 121.598 298.525 122.408 298.525 123.284C298.525 124.148 298.327 124.952 297.931 125.696C297.535 126.44 296.959 127.04 296.203 127.496C295.447 127.952 294.535 128.18 293.467 128.18ZM291.361 123.284C291.361 124.016 291.559 124.61 291.955 125.066C292.363 125.522 292.867 125.75 293.467 125.75C294.055 125.75 294.547 125.522 294.943 125.066C295.351 124.61 295.555 124.016 295.555 123.284C295.555 122.552 295.351 121.958 294.943 121.502C294.547 121.046 294.055 120.818 293.467 120.818C292.867 120.818 292.363 121.046 291.955 121.502C291.559 121.958 291.361 122.552 291.361 123.284ZM302.077 128V121.07H299.215V118.55H307.819V121.07H304.957V128H302.077ZM309.059 128V118.55H311.921V121.934H312.605L314.945 118.55H318.041L314.801 123.086L318.383 128H315.089L312.551 124.436H311.921V128H309.059ZM319.834 128V118.55H322.714V124.166L326.368 118.55H328.996V128H326.116V122.546L322.48 128H319.834Z" fill="#1C1C1C"/>
<path d="M194.244 92.502C194.244 91.734 194.388 90.972 194.676 90.216C194.964 89.46 195.384 88.776 195.936 88.164C196.488 87.552 197.16 87.066 197.952 86.706C198.744 86.334 199.644 86.148 200.652 86.148C201.84 86.148 202.878 86.406 203.766 86.922C204.654 87.438 205.314 88.11 205.746 88.938L203.478 90.522C203.286 90.078 203.028 89.73 202.704 89.478C202.38 89.214 202.032 89.034 201.66 88.938C201.288 88.83 200.928 88.776 200.58 88.776C199.824 88.776 199.2 88.968 198.708 89.352C198.216 89.736 197.85 90.222 197.61 90.81C197.37 91.398 197.25 91.998 197.25 92.61C197.25 93.282 197.388 93.918 197.664 94.518C197.94 95.106 198.33 95.58 198.834 95.94C199.338 96.3 199.932 96.48 200.616 96.48C200.976 96.48 201.342 96.426 201.714 96.318C202.086 96.198 202.428 96.006 202.74 95.742C203.064 95.478 203.31 95.136 203.478 94.716L205.89 96.138C205.638 96.774 205.224 97.314 204.648 97.758C204.072 98.19 203.418 98.526 202.686 98.766C201.966 98.994 201.252 99.108 200.544 99.108C199.62 99.108 198.774 98.922 198.006 98.55C197.238 98.166 196.572 97.662 196.008 97.038C195.444 96.402 195.006 95.694 194.694 94.914C194.394 94.122 194.244 93.318 194.244 92.502Z" fill="#95DB3A"/>
<defs>
<filter id="filter0_d_1_711" x="0.5" y="0.5" width="408.419" height="284.823" filterUnits="userSpaceOnUse" color-interpolation-filters="sRGB">
<feFlood flood-opacity="0" result="BackgroundImageFix"/>
<feColorMatrix in="SourceAlpha" type="matrix" values="0 0 0 0 0 0 0 0 0 0 0 0 0 0 0 0 0 0 127 0" result="hardAlpha"/>
<feOffset dx="7" dy="7"/>
<feColorMatrix type="matrix" values="0 0 0 0 0 0 0 0 0 0 0 0 0 0 0 0 0 0 1 0"/>
<feBlend mode="normal" in2="BackgroundImageFix" result="effect1_dropShadow_1_711"/>
<feBlend mode="normal" in="SourceGraphic" in2="effect1_dropShadow_1_711" result="shape"/>
</filter>
</defs>
</svg>
