<svg width="274" height="125" viewBox="0 0 274 125" fill="none" xmlns="http://www.w3.org/2000/svg">
<rect x="1" y="109" width="273" height="16" fill="url(#paint0_linear_1_581)"/>
<rect x="1.5" y="1.5" width="141" height="122" stroke="#1C1C1C" stroke-width="3"/>
<circle cx="90.5" cy="82.5" r="8.5" fill="url(#paint1_linear_1_581)"/>
<path d="M92 32L103 42.5L96.5 43.5L92 42.5L91.5 39.5L92 32Z" fill="url(#paint2_linear_1_581)"/>
<path d="M65.5 58V37.5C82.7 35.9 87.3333 51.5 87.5 59.5H65.5V58Z" fill="url(#paint3_linear_1_581)"/>
<path d="M104.674 42.7021L92.2995 30.3273C92.0849 30.1201 91.799 30.0033 91.5007 30.0011H63.3762C62.4819 30.0038 61.6251 30.3602 60.9927 30.9925C60.3604 31.6249 60.0039 32.4818 60.0013 33.376V40.1822C53.9416 40.4662 48.2241 43.0733 44.0362 47.4621C39.8483 51.8509 37.5117 57.6842 37.5117 63.7505C37.5117 69.8168 39.8483 75.6501 44.0362 80.0389C48.2241 84.4277 53.9416 87.0348 60.0013 87.3189V94.125C60.0039 95.0193 60.3604 95.8761 60.9927 96.5085C61.6251 97.1408 62.4819 97.4973 63.3762 97.4999H101.626C102.52 97.4973 103.377 97.1408 104.009 96.5085C104.641 95.8761 104.998 95.0193 105 94.125V43.5009C104.998 43.2026 104.881 42.9166 104.674 42.7021ZM92.6257 33.8373L101.164 42.3759H93.7507C93.4523 42.3759 93.1662 42.2574 92.9552 42.0464C92.7442 41.8354 92.6257 41.5493 92.6257 41.2509V33.8373ZM39.7516 63.7505C39.7589 58.2789 41.8618 53.018 45.628 49.0488C49.3941 45.0797 54.5376 42.7039 60.0013 42.4096V63.2893L45.264 78.0265C41.7164 74.1182 39.7513 69.0288 39.7516 63.7505ZM46.8502 79.6127L61.5875 64.8755H82.4671C82.2622 68.9065 80.9179 72.7968 78.5904 76.0943C76.2628 79.3919 73.0476 81.9615 69.318 83.5047C65.5884 85.0479 61.4975 85.5014 57.5205 84.8124C53.5435 84.1235 49.8435 82.3205 46.8502 79.6127ZM102.751 94.125C102.751 94.4234 102.632 94.7095 102.421 94.9205C102.21 95.1315 101.924 95.25 101.626 95.25H63.3762C63.0778 95.25 62.7917 95.1315 62.5807 94.9205C62.3697 94.7095 62.2512 94.4234 62.2512 94.125V87.3189C68.3088 87.0262 74.0222 84.4168 78.21 80.0301C82.3977 75.6435 84.7394 69.8152 84.7508 63.7505C84.7508 63.4522 84.6323 63.166 84.4213 62.955C84.2104 62.7441 83.9242 62.6255 83.6259 62.6255H62.2512V33.376C62.2512 33.0777 62.3697 32.7915 62.5807 32.5806C62.7917 32.3696 63.0778 32.2511 63.3762 32.2511H90.3757V41.2509C90.3784 42.1452 90.7348 43.0021 91.3672 43.6344C91.9995 44.2667 92.8564 44.6232 93.7507 44.6258H102.751V94.125Z" fill="#1C1C1C"/>
<path d="M65.626 35.626C65.3276 35.626 65.0414 35.7445 64.8305 35.9555C64.6195 36.1665 64.501 36.4526 64.501 36.751V59.2506C64.501 59.5489 64.6195 59.8351 64.8305 60.0461C65.0414 60.257 65.3276 60.3756 65.626 60.3756H88.1256C88.4239 60.3756 88.7101 60.257 88.9211 60.0461C89.132 59.8351 89.2506 59.5489 89.2506 59.2506C89.2437 52.987 86.7525 46.982 82.3235 42.553C77.8945 38.124 71.8895 35.6328 65.626 35.626ZM66.7509 58.1256V37.9097C72.0207 38.1926 76.9999 40.4134 80.7315 44.145C84.4632 47.8766 86.6839 52.8558 86.9668 58.1256H66.7509Z" fill="#1C1C1C"/>
<path d="M90.3758 72.7504C88.3733 72.7504 86.4158 73.3442 84.7508 74.4567C83.0857 75.5692 81.788 77.1505 81.0217 79.0006C80.2554 80.8507 80.0549 82.8864 80.4455 84.8505C80.8362 86.8145 81.8005 88.6185 83.2165 90.0345C84.6325 91.4505 86.4365 92.4148 88.4006 92.8055C90.3646 93.1961 92.4003 92.9956 94.2504 92.2293C96.1005 91.463 97.6818 90.1653 98.7943 88.5002C99.9068 86.8352 100.501 84.8777 100.501 82.8752C100.496 80.1912 99.4284 77.6183 97.5305 75.7205C95.6327 73.8226 93.0598 72.7545 90.3758 72.7504ZM90.3758 90.7501C88.8183 90.7501 87.2958 90.2882 86.0008 89.4229C84.7058 88.5576 83.6964 87.3277 83.1004 85.8888C82.5044 84.4498 82.3484 82.8665 82.6523 81.3389C82.9561 79.8113 83.7061 78.4081 84.8074 77.3068C85.9088 76.2055 87.3119 75.4555 88.8395 75.1516C90.3671 74.8478 91.9504 75.0037 93.3894 75.5998C94.8283 76.1958 96.0582 77.2051 96.9235 78.5002C97.7888 79.7952 98.2507 81.3177 98.2507 82.8752C98.2483 84.963 97.4179 86.9646 95.9415 88.4409C94.4652 89.9172 92.4636 90.7477 90.3758 90.7501Z" fill="#1C1C1C"/>
<path d="M88.1254 84.6594L85.5458 82.0798L83.9551 83.6705L87.33 87.0454C87.541 87.2563 87.8271 87.3748 88.1254 87.3748C88.4237 87.3748 88.7098 87.2563 88.9207 87.0454L95.6706 80.2956L94.0799 78.7048L88.1254 84.6594Z" fill="#1C1C1C"/>
<path d="M91.501 49.1257H100.501V51.3757H91.501V49.1257Z" fill="#1C1C1C"/>
<path d="M91.501 55.8756H100.501V58.1256H91.501V55.8756Z" fill="#1C1C1C"/>
<path d="M91.501 62.6255H100.501V64.8754H91.501V62.6255Z" fill="#1C1C1C"/>
<defs>
<linearGradient id="paint0_linear_1_581" x1="13.3584" y1="115.085" x2="27.5139" y2="178.57" gradientUnits="userSpaceOnUse">
<stop stop-color="#ACFA49"/>
<stop offset="0.863856" stop-color="#90D638"/>
</linearGradient>
<linearGradient id="paint1_linear_1_581" x1="82.7696" y1="80.4655" x2="100.178" y2="85.0412" gradientUnits="userSpaceOnUse">
<stop stop-color="#ACFA49"/>
<stop offset="0.863856" stop-color="#90D638"/>
</linearGradient>
<linearGradient id="paint2_linear_1_581" x1="92.0206" y1="36.3737" x2="103.797" y2="39.469" gradientUnits="userSpaceOnUse">
<stop stop-color="#ACFA49"/>
<stop offset="0.863856" stop-color="#90D638"/>
</linearGradient>
<linearGradient id="paint3_linear_1_581" x1="66.4959" y1="45.7963" x2="89.0393" y2="51.6911" gradientUnits="userSpaceOnUse">
<stop stop-color="#ACFA49"/>
<stop offset="0.863856" stop-color="#90D638"/>
</linearGradient>
</defs>
</svg>
