<svg width="362" height="483" viewBox="0 0 362 483" fill="none" xmlns="http://www.w3.org/2000/svg">
<rect x="27.5" y="44.5" width="333" height="437" rx="28.5" fill="white" stroke="#1C1C1C" stroke-width="3"/>
<g filter="url(#filter0_d_42_747)">
<mask id="path-2-inside-1_42_747" fill="white">
<path fill-rule="evenodd" clip-rule="evenodd" d="M111.215 81.1058C114.293 74.0261 116 66.2124 116 58C116 25.9675 90.0325 0 58 0C25.9675 0 0 25.9675 0 58C0 90.0325 25.9675 116 58 116C72.0014 116 84.8441 111.039 94.8659 102.778L122 111.5L111.215 81.1058Z"/>
</mask>
<path fill-rule="evenodd" clip-rule="evenodd" d="M111.215 81.1058C114.293 74.0261 116 66.2124 116 58C116 25.9675 90.0325 0 58 0C25.9675 0 0 25.9675 0 58C0 90.0325 25.9675 116 58 116C72.0014 116 84.8441 111.039 94.8659 102.778L122 111.5L111.215 81.1058Z" fill="url(#paint0_linear_42_747)"/>
<path d="M111.215 81.1058L109.381 80.3083L109.066 81.0315L109.33 81.7746L111.215 81.1058ZM94.8659 102.778L95.4779 100.874L94.4373 100.54L93.5938 101.235L94.8659 102.778ZM122 111.5L121.388 113.404L125.237 114.641L123.885 110.831L122 111.5ZM114 58C114 65.9329 112.352 73.4755 109.381 80.3083L113.049 81.9033C116.235 74.5767 118 66.4919 118 58H114ZM58 2C88.9279 2 114 27.0721 114 58H118C118 24.8629 91.1371 -2 58 -2V2ZM2 58C2 27.0721 27.0721 2 58 2V-2C24.8629 -2 -2 24.8629 -2 58H2ZM58 114C27.0721 114 2 88.9279 2 58H-2C-2 91.1371 24.8629 118 58 118V114ZM93.5938 101.235C83.9169 109.211 71.5204 114 58 114V118C72.4824 118 85.7712 112.866 96.1379 104.322L93.5938 101.235ZM94.2539 104.682L121.388 113.404L122.612 109.596L95.4779 100.874L94.2539 104.682ZM123.885 110.831L113.1 80.437L109.33 81.7746L120.115 112.169L123.885 110.831Z" fill="#1C1C1C" mask="url(#path-2-inside-1_42_747)"/>
</g>
<path d="M47.0509 60.7619C47.6112 60.4387 47.803 59.7214 47.4799 59.1611C47.1562 58.6012 46.4394 58.4089 45.8791 58.7321C45.3188 59.0558 45.1265 59.7731 45.4501 60.3329C45.7733 60.8932 46.4906 61.0855 47.0509 60.7619Z" fill="black"/>
<path d="M42.2482 68.85L48.1496 79.0724C49.4231 81.2806 52.2878 82.0982 54.5533 80.7885C56.795 79.493 57.5654 76.6288 56.2685 74.3853L52.7529 68.2952L55.7975 66.5374C56.3578 66.2133 56.5501 65.4969 56.2264 64.9366L54.7025 62.2971C54.8843 62.2619 56.079 62.0275 77.1485 57.8944C79.7532 57.7529 81.3137 54.9043 79.9981 52.6269L76.1034 45.8813L78.5923 42.1116C78.8367 41.7408 78.8514 41.2643 78.6294 40.8798L76.2856 36.8203C76.0636 36.4358 75.642 36.2106 75.2003 36.2367L70.6918 36.5072L66.3682 29.0182C65.742 27.9333 64.62 27.2764 63.3675 27.2608C63.3524 27.2604 63.3378 27.2604 63.3227 27.2604C62.1124 27.2604 61.0137 27.8628 60.3628 28.8813L45.0542 48.383L35.102 54.1288C31.1877 56.3879 29.8318 61.4095 32.0995 65.3344C34.1714 68.9233 38.5393 70.335 42.2482 68.85ZM54.2393 75.5576C54.8865 76.6773 54.5034 78.1101 53.3805 78.7588C52.254 79.4102 50.8193 79.0101 50.1794 77.9009L44.32 67.7509L48.3794 65.4072C55.1607 77.1543 54.1303 75.3695 54.2393 75.5576ZM51.581 66.265L50.4092 64.2353L52.4389 63.0634L53.6108 65.0932L51.581 66.265ZM74.618 38.6193L76.2376 41.4245L74.7933 43.6117L72.0019 38.7763L74.618 38.6193ZM62.3229 30.1663C62.6374 29.6517 63.1364 29.5986 63.3387 29.6041C63.5387 29.6064 64.0372 29.6687 64.338 30.1896L77.9684 53.7988C78.4124 54.5674 77.8727 55.5337 76.9823 55.5557C76.8226 55.5593 76.7489 55.5882 76.3396 55.6646L61.9215 30.6913C62.224 30.3022 62.263 30.2647 62.3229 30.1663ZM60.3619 32.678L73.9085 56.1416L53.4638 60.1516L47.2474 49.3846L60.3619 32.678ZM34.1293 64.1625C33.6147 63.2722 33.3428 62.2614 33.3428 61.2388C33.3428 59.1487 34.4662 57.2022 36.2739 56.1585L45.4076 50.8851L51.267 61.0337L42.1333 66.3076C39.3349 67.9226 35.7447 66.9604 34.1293 64.1625Z" fill="black"/>
<path d="M43.4202 61.5049C43.0965 60.9446 42.3797 60.7523 41.8194 61.0759L39.7896 62.2478C39.2303 62.571 38.512 62.3783 38.1888 61.8189C37.8652 61.2586 37.1484 61.0663 36.5881 61.39C36.0277 61.7136 35.8355 62.4305 36.1591 62.9908C37.1236 64.6616 39.2751 65.2508 40.9615 64.2775L42.9912 63.1057C43.5516 62.782 43.7438 62.0656 43.4202 61.5049Z" fill="black"/>
<path d="M89.2582 29.7672L82.7282 33.4009C82.1629 33.7158 81.9592 34.4295 82.2741 34.9948C82.5882 35.5597 83.3014 35.7643 83.8681 35.4489L90.3976 31.8152C90.9634 31.5002 91.1666 30.7866 90.8517 30.2213C90.5372 29.6555 89.8236 29.4522 89.2582 29.7672Z" fill="black"/>
<path d="M88.5738 41.9043L84.0461 40.6912C83.4208 40.5237 82.7781 40.8945 82.6105 41.5198C82.443 42.1451 82.8142 42.7874 83.4395 42.9549L87.9677 44.168C88.5967 44.3369 89.2362 43.9601 89.4028 43.3394C89.5704 42.7141 89.1991 42.0714 88.5738 41.9043Z" fill="black"/>
<path d="M77.1951 25.5095L75.9807 30.0377C75.8131 30.663 76.1839 31.3052 76.8092 31.4732C77.4341 31.6403 78.0768 31.2704 78.2448 30.6447L79.4588 26.1165C79.6263 25.4912 79.2555 24.8485 78.6302 24.6809C78.0054 24.5134 77.3627 24.8842 77.1951 25.5095Z" fill="black"/>
<defs>
<filter id="filter0_d_42_747" x="0" y="0" width="125" height="122" filterUnits="userSpaceOnUse" color-interpolation-filters="sRGB">
<feFlood flood-opacity="0" result="BackgroundImageFix"/>
<feColorMatrix in="SourceAlpha" type="matrix" values="0 0 0 0 0 0 0 0 0 0 0 0 0 0 0 0 0 0 127 0" result="hardAlpha"/>
<feOffset dx="3" dy="6"/>
<feColorMatrix type="matrix" values="0 0 0 0 0.109804 0 0 0 0 0.109804 0 0 0 0 0.109804 0 0 0 1 0"/>
<feBlend mode="normal" in2="BackgroundImageFix" result="effect1_dropShadow_42_747"/>
<feBlend mode="normal" in="SourceGraphic" in2="effect1_dropShadow_42_747" result="shape"/>
</filter>
<linearGradient id="paint0_linear_42_747" x1="5.5228" y1="44.1176" x2="129.602" y2="78.4182" gradientUnits="userSpaceOnUse">
<stop stop-color="#ACFA49"/>
<stop offset="0.863856" stop-color="#90D638"/>
</linearGradient>
</defs>
</svg>
