<svg width="274" height="125" viewBox="0 0 274 125" fill="none" xmlns="http://www.w3.org/2000/svg">
<rect x="1" y="109" width="273" height="16" fill="url(#paint0_linear_1_521)"/>
<rect x="1.5" y="1.5" width="141" height="122" stroke="#1C1C1C" stroke-width="3"/>
<path d="M103.219 26H40.7812C37.59 26.0038 35.0038 28.59 35 31.7812V94.2188C35.0038 97.41 37.59 99.9962 40.7812 100H103.219C106.41 99.9962 108.996 97.41 109 94.2188V31.7812C108.996 28.59 106.41 26.0038 103.219 26ZM106.688 94.2188C106.688 96.1345 105.135 97.6875 103.219 97.6875H40.7812C38.8655 97.6875 37.3125 96.1345 37.3125 94.2188V31.7812C37.3125 29.8655 38.8655 28.3125 40.7812 28.3125H103.219C105.135 28.3125 106.688 29.8655 106.688 31.7812V94.2188Z" fill="#1C1C1C"/>
<rect x="48" y="59" width="18" height="17" fill="url(#paint1_linear_1_521)"/>
<rect x="48" y="39" width="48" height="14" fill="url(#paint2_linear_1_521)"/>
<rect x="72" y="59" width="24" height="6" fill="url(#paint3_linear_1_521)"/>
<path d="M96.2812 37.5625H47.7188C47.0802 37.5625 46.5625 38.0802 46.5625 38.7188V52.5938C46.5625 53.2323 47.0802 53.75 47.7188 53.75H96.2812C96.9198 53.75 97.4375 53.2323 97.4375 52.5938V38.7188C97.4375 38.0802 96.9198 37.5625 96.2812 37.5625ZM95.125 51.4375H48.875V39.875H95.125V51.4375Z" fill="#1C1C1C"/>
<path d="M66.2188 57.2188H47.7188C47.0802 57.2188 46.5625 57.7365 46.5625 58.375V76.875C46.5625 77.5135 47.0802 78.0312 47.7188 78.0312H66.2188C66.8573 78.0312 67.375 77.5135 67.375 76.875V58.375C67.375 57.7365 66.8573 57.2188 66.2188 57.2188ZM48.875 75.7188V61.1662L63.4276 75.7188H48.875ZM65.0625 74.0834L50.5104 59.5312H65.0625V74.0834Z" fill="#1C1C1C"/>
<path d="M96.2812 57.2188H70.8438C70.2052 57.2188 69.6875 57.7365 69.6875 58.375V65.3125C69.6875 65.951 70.2052 66.4688 70.8438 66.4688H96.2812C96.9198 66.4688 97.4375 65.951 97.4375 65.3125V58.375C97.4375 57.7365 96.9198 57.2188 96.2812 57.2188ZM95.125 64.1562H72V59.5312H95.125V64.1562Z" fill="#1C1C1C"/>
<path d="M97.4375 69.9375H69.6875V72.25H97.4375V69.9375Z" fill="#1C1C1C"/>
<path d="M97.4375 75.7188H69.6875V78.0312H97.4375V75.7188Z" fill="#1C1C1C"/>
<path d="M97.4375 81.5H55.8125V83.8125H97.4375V81.5Z" fill="#1C1C1C"/>
<path d="M88.1875 87.2812H46.5625V89.5938H88.1875V87.2812Z" fill="#1C1C1C"/>
<path d="M48.875 81.5H46.5625V83.8125H48.875V81.5Z" fill="#1C1C1C"/>
<path d="M53.5 81.5H51.1875V83.8125H53.5V81.5Z" fill="#1C1C1C"/>
<defs>
<linearGradient id="paint0_linear_1_521" x1="13.3584" y1="115.085" x2="27.5139" y2="178.57" gradientUnits="userSpaceOnUse">
<stop stop-color="#ACFA49"/>
<stop offset="0.863856" stop-color="#90D638"/>
</linearGradient>
<linearGradient id="paint1_linear_1_521" x1="48.8148" y1="65.4655" x2="67.104" y2="70.5555" gradientUnits="userSpaceOnUse">
<stop stop-color="#ACFA49"/>
<stop offset="0.863856" stop-color="#90D638"/>
</linearGradient>
<linearGradient id="paint2_linear_1_521" x1="50.1729" y1="44.3245" x2="79.1712" y2="70.4573" gradientUnits="userSpaceOnUse">
<stop stop-color="#ACFA49"/>
<stop offset="0.863856" stop-color="#90D638"/>
</linearGradient>
<linearGradient id="paint3_linear_1_521" x1="73.0865" y1="61.2819" x2="85.5659" y2="74.4026" gradientUnits="userSpaceOnUse">
<stop stop-color="#ACFA49"/>
<stop offset="0.863856" stop-color="#90D638"/>
</linearGradient>
</defs>
</svg>
