<svg width="372" height="497" viewBox="0 0 372 497" fill="none" xmlns="http://www.w3.org/2000/svg">
<rect x="37.5" y="58.5" width="333" height="437" rx="28.5" fill="white" stroke="#1C1C1C" stroke-width="3"/>
<g filter="url(#filter0_d_1_613)">
<mask id="path-2-inside-1_1_613" fill="white">
<path fill-rule="evenodd" clip-rule="evenodd" d="M111.215 81.1058C114.293 74.0261 116 66.2124 116 58C116 25.9675 90.0325 0 58 0C25.9675 0 0 25.9675 0 58C0 90.0325 25.9675 116 58 116C72.0014 116 84.8441 111.039 94.8659 102.778L122 111.5L111.215 81.1058Z"/>
</mask>
<path fill-rule="evenodd" clip-rule="evenodd" d="M111.215 81.1058C114.293 74.0261 116 66.2124 116 58C116 25.9675 90.0325 0 58 0C25.9675 0 0 25.9675 0 58C0 90.0325 25.9675 116 58 116C72.0014 116 84.8441 111.039 94.8659 102.778L122 111.5L111.215 81.1058Z" fill="url(#paint0_linear_1_613)"/>
<path d="M111.215 81.1058L109.381 80.3083L109.066 81.0315L109.33 81.7746L111.215 81.1058ZM94.8659 102.778L95.4779 100.874L94.4373 100.54L93.5938 101.235L94.8659 102.778ZM122 111.5L121.388 113.404L125.237 114.641L123.885 110.831L122 111.5ZM114 58C114 65.9329 112.352 73.4755 109.381 80.3083L113.049 81.9033C116.235 74.5767 118 66.4919 118 58H114ZM58 2C88.9279 2 114 27.0721 114 58H118C118 24.8629 91.1371 -2 58 -2V2ZM2 58C2 27.0721 27.0721 2 58 2V-2C24.8629 -2 -2 24.8629 -2 58H2ZM58 114C27.0721 114 2 88.9279 2 58H-2C-2 91.1371 24.8629 118 58 118V114ZM93.5938 101.235C83.9169 109.211 71.5204 114 58 114V118C72.4824 118 85.7712 112.866 96.1379 104.322L93.5938 101.235ZM94.2538 104.682L121.388 113.404L122.612 109.596L95.4779 100.874L94.2538 104.682ZM123.885 110.831L113.1 80.437L109.33 81.7746L120.115 112.169L123.885 110.831Z" fill="#1C1C1C" mask="url(#path-2-inside-1_1_613)"/>
</g>
<path d="M85.4405 82.5719L80.4999 64.4406V38.3125C80.4977 37.5673 80.2007 36.8532 79.6737 36.3262C79.1467 35.7993 78.4326 35.5022 77.6874 35.5H69.4468L65.9593 32.0031C65.7941 31.8397 65.5741 31.7435 65.342 31.7331C65.1099 31.7227 64.8822 31.7989 64.703 31.9469L62.078 34.0844L61.7499 30.7188C61.7236 30.4879 61.6137 30.2747 61.441 30.1192C61.2683 29.9638 61.0447 29.8769 60.8124 29.875H55.1874C54.9551 29.8769 54.7315 29.9638 54.5588 30.1192C54.3861 30.2747 54.2762 30.4879 54.2499 30.7188L53.9218 34.0844L51.2968 31.9469C51.1176 31.7989 50.8899 31.7227 50.6578 31.7331C50.4257 31.7435 50.2057 31.8397 50.0405 32.0031L46.553 35.5H38.3124C37.5672 35.5022 36.8531 35.7993 36.3261 36.3262C35.7992 36.8532 35.5021 37.5673 35.4999 38.3125V64.4406L30.5593 82.5719C30.4433 82.9889 30.4255 83.4272 30.5073 83.8523C30.5891 84.2774 30.7682 84.6777 31.0307 85.022C31.2932 85.3662 31.6319 85.6449 32.0201 85.8363C32.4084 86.0277 32.8358 86.1265 33.2687 86.125H82.7312C83.164 86.1265 83.5914 86.0277 83.9797 85.8363C84.368 85.6449 84.7066 85.3662 84.9691 85.022C85.2316 84.6777 85.4108 84.2774 85.4926 83.8523C85.5743 83.4272 85.5565 82.9889 85.4405 82.5719V82.5719ZM50.7718 33.9344L54.0812 36.6438C54.2136 36.7501 54.3721 36.8192 54.5402 36.8439C54.7083 36.8686 54.8799 36.8481 55.0374 36.7844C55.194 36.7182 55.3297 36.6109 55.4304 36.474C55.531 36.337 55.5928 36.1754 55.6093 36.0062L56.0312 31.75H59.9687L60.3905 36.0062C60.407 36.1754 60.4688 36.337 60.5695 36.474C60.6701 36.6109 60.8059 36.7182 60.9624 36.7844C61.1199 36.8481 61.2915 36.8686 61.4596 36.8439C61.6277 36.8192 61.7862 36.7501 61.9187 36.6438L65.228 33.9344L68.003 36.7094L65.2937 40.0187C65.1873 40.1512 65.1182 40.3097 65.0935 40.4778C65.0688 40.6459 65.0893 40.8175 65.153 40.975C65.2192 41.1315 65.3265 41.2673 65.4634 41.368C65.6004 41.4686 65.762 41.5304 65.9312 41.5469L70.1874 41.9687V45.9063L65.9312 46.3281C65.762 46.3446 65.6004 46.4064 65.4634 46.507C65.3265 46.6077 65.2192 46.7435 65.153 46.9C65.0893 47.0575 65.0688 47.2291 65.0935 47.3972C65.1182 47.5653 65.1873 47.7238 65.2937 47.8563L68.003 51.1656L65.228 53.9406L61.9187 51.2313C61.7862 51.1249 61.6277 51.0558 61.4596 51.0311C61.2915 51.0064 61.1199 51.0269 60.9624 51.0906C60.8059 51.1568 60.6701 51.2641 60.5695 51.401C60.4688 51.538 60.407 51.6996 60.3905 51.8687L59.9687 56.125H56.0312L55.6093 51.8687C55.5928 51.6996 55.531 51.538 55.4304 51.401C55.3297 51.2641 55.194 51.1568 55.0374 51.0906C54.8799 51.0269 54.7083 51.0064 54.5402 51.0311C54.3721 51.0558 54.2136 51.1249 54.0812 51.2313L50.7718 53.9406L47.9968 51.1656L50.7062 47.8563C50.8125 47.7238 50.8816 47.5653 50.9063 47.3972C50.931 47.2291 50.9105 47.0575 50.8468 46.9C50.7806 46.7435 50.6733 46.6077 50.5364 46.507C50.3994 46.4064 50.2378 46.3446 50.0687 46.3281L45.8124 45.9063V41.9687L50.0687 41.5469C50.2378 41.5304 50.3994 41.4686 50.5364 41.368C50.6733 41.2673 50.7806 41.1315 50.8468 40.975C50.9105 40.8175 50.931 40.6459 50.9063 40.4778C50.8816 40.3097 50.8125 40.1512 50.7062 40.0187L47.9968 36.7094L50.7718 33.9344ZM37.3749 38.3125C37.3749 38.0639 37.4737 37.8254 37.6495 37.6496C37.8253 37.4738 38.0638 37.375 38.3124 37.375H46.1124L48.1468 39.8594L44.7812 40.1875C44.5503 40.2138 44.3371 40.3237 44.1816 40.4964C44.0262 40.6691 43.9393 40.8927 43.9374 41.125V46.75C43.9393 46.9823 44.0262 47.2059 44.1816 47.3786C44.3371 47.5513 44.5503 47.6612 44.7812 47.6875L48.1468 48.0156L46.0093 50.6406C45.8613 50.8198 45.7852 51.0475 45.7955 51.2796C45.8059 51.5117 45.9022 51.7317 46.0655 51.8969L50.0405 55.8719C50.2057 56.0353 50.4257 56.1315 50.6578 56.1419C50.8899 56.1523 51.1176 56.0761 51.2968 55.9281L53.9218 53.7906L54.2499 57.1563C54.2762 57.3871 54.3861 57.6003 54.5588 57.7558C54.7315 57.9112 54.9551 57.9981 55.1874 58H60.8124C61.0447 57.9981 61.2683 57.9112 61.441 57.7558C61.6137 57.6003 61.7236 57.3871 61.7499 57.1563L62.078 53.7906L64.703 55.9281C64.8822 56.0761 65.1099 56.1523 65.342 56.1419C65.5741 56.1315 65.7941 56.0353 65.9593 55.8719L69.9343 51.8969C70.0977 51.7317 70.1939 51.5117 70.2043 51.2796C70.2147 51.0475 70.1385 50.8198 69.9905 50.6406L67.853 48.0156L71.2187 47.6875C71.4495 47.6612 71.6627 47.5513 71.8182 47.3786C71.9736 47.2059 72.0605 46.9823 72.0624 46.75V41.125C72.0605 40.8927 71.9736 40.6691 71.8182 40.4964C71.6627 40.3237 71.4495 40.2138 71.2187 40.1875L67.853 39.8594L69.8874 37.375H77.6874C77.936 37.375 78.1745 37.4738 78.3503 37.6496C78.5261 37.8254 78.6249 38.0639 78.6249 38.3125V63.625H37.3749V38.3125ZM83.4812 83.8844C83.3934 83.9996 83.2798 84.0927 83.1496 84.1562C83.0193 84.2197 82.876 84.2518 82.7312 84.25H33.2687C33.1238 84.2518 32.9805 84.2197 32.8503 84.1562C32.72 84.0927 32.6065 83.9996 32.5187 83.8844C32.431 83.7681 32.3711 83.6333 32.3435 83.4903C32.3159 83.3473 32.3213 83.1999 32.3593 83.0594L37.1499 65.5H78.8499L83.6405 83.0594C83.6785 83.1999 83.6839 83.3473 83.6563 83.4903C83.6287 83.6333 83.5688 83.7681 83.4812 83.8844V83.8844Z" fill="#1C1C1C"/>
<path d="M66.4093 77.4597C66.3586 77.257 66.2415 77.077 66.0767 76.9484C65.912 76.8198 65.709 76.75 65.5 76.75H50.5C50.291 76.75 50.088 76.8198 49.9232 76.9484C49.7585 77.077 49.6414 77.257 49.5906 77.4597L48.6531 81.2097C48.6185 81.3479 48.6158 81.4922 48.6453 81.6316C48.6748 81.7711 48.7357 81.9019 48.8234 82.0143C48.9111 82.1266 49.0232 82.2175 49.1513 82.28C49.2793 82.3425 49.42 82.375 49.5625 82.375H66.4375C66.58 82.375 66.7206 82.3425 66.8487 82.28C66.9767 82.2175 67.0889 82.1266 67.1765 82.0143C67.2642 81.9019 67.3251 81.7711 67.3546 81.6316C67.3841 81.4922 67.3815 81.3479 67.3468 81.2097L66.4093 77.4597ZM50.7634 80.5L51.2322 78.625H64.7678L65.2365 80.5H50.7634Z" fill="#1C1C1C"/>
<path d="M53.3125 59.875H62.6875V61.75H53.3125V59.875Z" fill="#1C1C1C"/>
<path d="M39.25 67.375H43V69.25H39.25V67.375Z" fill="#1C1C1C"/>
<path d="M44.875 67.375H48.625V69.25H44.875V67.375Z" fill="#1C1C1C"/>
<path d="M50.5 67.375H54.25V69.25H50.5V67.375Z" fill="#1C1C1C"/>
<path d="M61.75 67.375H65.5V69.25H61.75V67.375Z" fill="#1C1C1C"/>
<path d="M67.375 67.375H71.125V69.25H67.375V67.375Z" fill="#1C1C1C"/>
<path d="M73 67.375H76.75V69.25H73V67.375Z" fill="#1C1C1C"/>
<path d="M56.125 67.375H59.875V69.25H56.125V67.375Z" fill="#1C1C1C"/>
<path d="M39.25 71.125H43V73H39.25V71.125Z" fill="#1C1C1C"/>
<path d="M44.875 71.125H48.625V73H44.875V71.125Z" fill="#1C1C1C"/>
<path d="M50.5 71.125H54.25V73H50.5V71.125Z" fill="#1C1C1C"/>
<path d="M61.75 71.125H65.5V73H61.75V71.125Z" fill="#1C1C1C"/>
<path d="M67.375 71.125H71.125V73H67.375V71.125Z" fill="#1C1C1C"/>
<path d="M73 71.125H76.75V73H73V71.125Z" fill="#1C1C1C"/>
<path d="M56.125 71.125H59.875V73H56.125V71.125Z" fill="#1C1C1C"/>
<path d="M58 49.5625C59.1125 49.5625 60.2 49.2326 61.1251 48.6145C62.0501 47.9964 62.7711 47.1179 63.1968 46.0901C63.6226 45.0623 63.7339 43.9313 63.5169 42.8401C63.2999 41.749 62.7641 40.7467 61.9775 39.96C61.1908 39.1734 60.1885 38.6376 59.0974 38.4206C58.0062 38.2035 56.8752 38.3149 55.8474 38.7407C54.8196 39.1664 53.9411 39.8874 53.323 40.8124C52.7049 41.7374 52.375 42.825 52.375 43.9375C52.3765 45.4289 52.9696 46.8588 54.0242 47.9133C55.0787 48.9679 56.5086 49.561 58 49.5625V49.5625ZM58 40.1875C58.7417 40.1875 59.4667 40.4074 60.0834 40.8195C60.7001 41.2315 61.1807 41.8172 61.4645 42.5024C61.7484 43.1877 61.8226 43.9417 61.6779 44.6691C61.5332 45.3965 61.1761 46.0647 60.6516 46.5892C60.1272 47.1136 59.459 47.4708 58.7316 47.6154C58.0042 47.7601 57.2502 47.6859 56.5649 47.4021C55.8797 47.1182 55.294 46.6376 54.882 46.0209C54.4699 45.4042 54.25 44.6792 54.25 43.9375C54.25 42.9429 54.6451 41.9891 55.3483 41.2859C56.0516 40.5826 57.0054 40.1875 58 40.1875Z" fill="#1C1C1C"/>
<defs>
<filter id="filter0_d_1_613" x="0" y="0" width="125" height="122" filterUnits="userSpaceOnUse" color-interpolation-filters="sRGB">
<feFlood flood-opacity="0" result="BackgroundImageFix"/>
<feColorMatrix in="SourceAlpha" type="matrix" values="0 0 0 0 0 0 0 0 0 0 0 0 0 0 0 0 0 0 127 0" result="hardAlpha"/>
<feOffset dx="3" dy="6"/>
<feColorMatrix type="matrix" values="0 0 0 0 0.109804 0 0 0 0 0.109804 0 0 0 0 0.109804 0 0 0 1 0"/>
<feBlend mode="normal" in2="BackgroundImageFix" result="effect1_dropShadow_1_613"/>
<feBlend mode="normal" in="SourceGraphic" in2="effect1_dropShadow_1_613" result="shape"/>
</filter>
<linearGradient id="paint0_linear_1_613" x1="5.5228" y1="44.1176" x2="129.602" y2="78.4182" gradientUnits="userSpaceOnUse">
<stop offset="0.380705" stop-color="#ACFA49"/>
<stop offset="0.863856" stop-color="#90D638"/>
</linearGradient>
</defs>
</svg>
