<svg width="378" height="503" viewBox="0 0 378 503" fill="none" xmlns="http://www.w3.org/2000/svg">
<g filter="url(#filter0_d_42_746)">
<rect x="36" y="57" width="336" height="440" rx="30" fill="white"/>
<rect x="37.5" y="58.5" width="333" height="437" rx="28.5" stroke="#1C1C1C" stroke-width="3"/>
</g>
<g filter="url(#filter1_d_42_746)">
<mask id="path-3-inside-1_42_746" fill="white">
<path fill-rule="evenodd" clip-rule="evenodd" d="M111.215 81.1058C114.293 74.0261 116 66.2124 116 58C116 25.9675 90.0325 0 58 0C25.9675 0 0 25.9675 0 58C0 90.0325 25.9675 116 58 116C72.0014 116 84.8441 111.039 94.8659 102.778L122 111.5L111.215 81.1058Z"/>
</mask>
<path fill-rule="evenodd" clip-rule="evenodd" d="M111.215 81.1058C114.293 74.0261 116 66.2124 116 58C116 25.9675 90.0325 0 58 0C25.9675 0 0 25.9675 0 58C0 90.0325 25.9675 116 58 116C72.0014 116 84.8441 111.039 94.8659 102.778L122 111.5L111.215 81.1058Z" fill="url(#paint0_linear_42_746)"/>
<path d="M111.215 81.1058L109.381 80.3083L109.066 81.0315L109.33 81.7746L111.215 81.1058ZM94.8659 102.778L95.4779 100.874L94.4373 100.54L93.5938 101.235L94.8659 102.778ZM122 111.5L121.388 113.404L125.237 114.641L123.885 110.831L122 111.5ZM114 58C114 65.9329 112.352 73.4755 109.381 80.3083L113.049 81.9033C116.235 74.5767 118 66.4919 118 58H114ZM58 2C88.9279 2 114 27.0721 114 58H118C118 24.8629 91.1371 -2 58 -2V2ZM2 58C2 27.0721 27.0721 2 58 2V-2C24.8629 -2 -2 24.8629 -2 58H2ZM58 114C27.0721 114 2 88.9279 2 58H-2C-2 91.1371 24.8629 118 58 118V114ZM93.5938 101.235C83.9169 109.211 71.5204 114 58 114V118C72.4824 118 85.7712 112.866 96.1379 104.322L93.5938 101.235ZM94.2539 104.682L121.388 113.404L122.612 109.596L95.4779 100.874L94.2539 104.682ZM123.885 110.831L113.1 80.437L109.33 81.7746L120.115 112.169L123.885 110.831Z" fill="#1C1C1C" mask="url(#path-3-inside-1_42_746)"/>
</g>
<path d="M85.4408 82.5719L80.5002 64.4406V38.3125C80.4979 37.5673 80.2009 36.8532 79.6739 36.3262C79.147 35.7993 78.4329 35.5022 77.6877 35.5H69.447L65.9595 32.0031C65.7943 31.8397 65.5743 31.7435 65.3422 31.7331C65.1101 31.7227 64.8824 31.7989 64.7033 31.9469L62.0783 34.0844L61.7502 30.7188C61.7238 30.4879 61.614 30.2747 61.4413 30.1192C61.2686 29.9638 61.045 29.8769 60.8127 29.875H55.1877C54.9553 29.8769 54.7317 29.9638 54.559 30.1192C54.3863 30.2747 54.2765 30.4879 54.2502 30.7188L53.922 34.0844L51.297 31.9469C51.1179 31.7989 50.8902 31.7227 50.6581 31.7331C50.426 31.7435 50.206 31.8397 50.0408 32.0031L46.5533 35.5H38.3127C37.5674 35.5022 36.8533 35.7993 36.3264 36.3262C35.7994 36.8532 35.5024 37.5673 35.5002 38.3125V64.4406L30.5595 82.5719C30.4435 82.9889 30.4257 83.4272 30.5075 83.8523C30.5893 84.2774 30.7685 84.6777 31.0309 85.022C31.2934 85.3662 31.6321 85.6449 32.0204 85.8363C32.4087 86.0277 32.836 86.1265 33.2689 86.125H82.7314C83.1643 86.1265 83.5916 86.0277 83.9799 85.8363C84.3682 85.6449 84.7069 85.3662 84.9694 85.022C85.2318 84.6777 85.411 84.2774 85.4928 83.8523C85.5746 83.4272 85.5568 82.9889 85.4408 82.5719ZM50.772 33.9344L54.0814 36.6438C54.2139 36.7501 54.3723 36.8192 54.5404 36.8439C54.7085 36.8686 54.8802 36.8481 55.0377 36.7844C55.1942 36.7182 55.33 36.6109 55.4306 36.474C55.5313 36.337 55.5931 36.1754 55.6095 36.0062L56.0314 31.75H59.9689L60.3908 36.0062C60.4072 36.1754 60.469 36.337 60.5697 36.474C60.6703 36.6109 60.8061 36.7182 60.9627 36.7844C61.1201 36.8481 61.2918 36.8686 61.4599 36.8439C61.628 36.8192 61.7864 36.7501 61.9189 36.6438L65.2283 33.9344L68.0033 36.7094L65.2939 40.0187C65.1875 40.1512 65.1185 40.3097 65.0937 40.4778C65.069 40.6459 65.0896 40.8175 65.1533 40.975C65.2195 41.1315 65.3267 41.2673 65.4637 41.368C65.6006 41.4686 65.7622 41.5304 65.9314 41.5469L70.1877 41.9688V45.9062L65.9314 46.3281C65.7622 46.3446 65.6006 46.4064 65.4637 46.507C65.3267 46.6077 65.2195 46.7435 65.1533 46.9C65.0896 47.0575 65.069 47.2291 65.0937 47.3972C65.1185 47.5653 65.1875 47.7238 65.2939 47.8563L68.0033 51.1656L65.2283 53.9406L61.9189 51.2313C61.7864 51.1249 61.628 51.0558 61.4599 51.0311C61.2918 51.0064 61.1201 51.0269 60.9627 51.0906C60.8061 51.1568 60.6703 51.2641 60.5697 51.401C60.469 51.538 60.4072 51.6996 60.3908 51.8687L59.9689 56.125H56.0314L55.6095 51.8687C55.5931 51.6996 55.5313 51.538 55.4306 51.401C55.33 51.2641 55.1942 51.1568 55.0377 51.0906C54.8802 51.0269 54.7085 51.0064 54.5404 51.0311C54.3723 51.0558 54.2139 51.1249 54.0814 51.2313L50.772 53.9406L47.997 51.1656L50.7064 47.8563C50.8128 47.7238 50.8819 47.5653 50.9066 47.3972C50.9313 47.2291 50.9107 47.0575 50.847 46.9C50.7808 46.7435 50.6736 46.6077 50.5366 46.507C50.3997 46.4064 50.2381 46.3446 50.0689 46.3281L45.8127 45.9062V41.9688L50.0689 41.5469C50.2381 41.5304 50.3997 41.4686 50.5366 41.368C50.6736 41.2673 50.7808 41.1315 50.847 40.975C50.9107 40.8175 50.9313 40.6459 50.9066 40.4778C50.8819 40.3097 50.8128 40.1512 50.7064 40.0187L47.997 36.7094L50.772 33.9344ZM37.3752 38.3125C37.3752 38.0639 37.4739 37.8254 37.6497 37.6496C37.8256 37.4738 38.064 37.375 38.3127 37.375H46.1127L48.147 39.8594L44.7814 40.1875C44.5506 40.2138 44.3373 40.3237 44.1819 40.4964C44.0265 40.6691 43.9396 40.8927 43.9377 41.125V46.75C43.9396 46.9823 44.0265 47.2059 44.1819 47.3786C44.3373 47.5513 44.5506 47.6612 44.7814 47.6875L48.147 48.0156L46.0095 50.6406C45.8616 50.8198 45.7854 51.0475 45.7958 51.2796C45.8062 51.5117 45.9024 51.7317 46.0658 51.8969L50.0408 55.8719C50.206 56.0353 50.426 56.1315 50.6581 56.1419C50.8902 56.1523 51.1179 56.0761 51.297 55.9281L53.922 53.7906L54.2502 57.1562C54.2765 57.3871 54.3863 57.6003 54.559 57.7558C54.7317 57.9112 54.9553 57.9981 55.1877 58H60.8127C61.045 57.9981 61.2686 57.9112 61.4413 57.7558C61.614 57.6003 61.7238 57.3871 61.7502 57.1562L62.0783 53.7906L64.7033 55.9281C64.8824 56.0761 65.1101 56.1523 65.3422 56.1419C65.5743 56.1315 65.7943 56.0353 65.9595 55.8719L69.9345 51.8969C70.0979 51.7317 70.1941 51.5117 70.2045 51.2796C70.2149 51.0475 70.1387 50.8198 69.9908 50.6406L67.8533 48.0156L71.2189 47.6875C71.4497 47.6612 71.663 47.5513 71.8184 47.3786C71.9738 47.2059 72.0607 46.9823 72.0627 46.75V41.125C72.0607 40.8927 71.9738 40.6691 71.8184 40.4964C71.663 40.3237 71.4497 40.2138 71.2189 40.1875L67.8533 39.8594L69.8877 37.375H77.6877C77.9363 37.375 78.1748 37.4738 78.3506 37.6496C78.5264 37.8254 78.6252 38.0639 78.6252 38.3125V63.625H37.3752V38.3125ZM83.4814 83.8844C83.3936 83.9996 83.28 84.0927 83.1498 84.1562C83.0196 84.2197 82.8763 84.2518 82.7314 84.25H33.2689C33.124 84.2518 32.9807 84.2197 32.8505 84.1562C32.7203 84.0927 32.6067 83.9996 32.5189 83.8844C32.4313 83.7681 32.3714 83.6333 32.3437 83.4903C32.3161 83.3473 32.3215 83.1999 32.3595 83.0594L37.1502 65.5H78.8502L83.6408 83.0594C83.6788 83.1999 83.6842 83.3473 83.6566 83.4903C83.6289 83.6333 83.569 83.7681 83.4814 83.8844Z" fill="#1C1C1C"/>
<path d="M66.4093 77.4597C66.3586 77.257 66.2415 77.077 66.0767 76.9484C65.912 76.8198 65.709 76.75 65.5 76.75H50.5C50.291 76.75 50.088 76.8198 49.9232 76.9484C49.7585 77.077 49.6414 77.257 49.5906 77.4597L48.6531 81.2097C48.6185 81.3479 48.6158 81.4922 48.6453 81.6316C48.6748 81.7711 48.7357 81.9019 48.8234 82.0143C48.9111 82.1266 49.0232 82.2175 49.1513 82.28C49.2793 82.3425 49.42 82.375 49.5625 82.375H66.4375C66.58 82.375 66.7206 82.3425 66.8487 82.28C66.9767 82.2175 67.0889 82.1266 67.1765 82.0143C67.2642 81.9019 67.3251 81.7711 67.3546 81.6316C67.3841 81.4922 67.3815 81.3479 67.3468 81.2097L66.4093 77.4597ZM50.7634 80.5L51.2322 78.625H64.7678L65.2365 80.5H50.7634Z" fill="#1C1C1C"/>
<path d="M53.3125 59.875H62.6875V61.75H53.3125V59.875Z" fill="#1C1C1C"/>
<path d="M39.25 67.375H43V69.25H39.25V67.375Z" fill="#1C1C1C"/>
<path d="M44.875 67.375H48.625V69.25H44.875V67.375Z" fill="#1C1C1C"/>
<path d="M50.5 67.375H54.25V69.25H50.5V67.375Z" fill="#1C1C1C"/>
<path d="M61.75 67.375H65.5V69.25H61.75V67.375Z" fill="#1C1C1C"/>
<path d="M67.375 67.375H71.125V69.25H67.375V67.375Z" fill="#1C1C1C"/>
<path d="M73 67.375H76.75V69.25H73V67.375Z" fill="#1C1C1C"/>
<path d="M56.125 67.375H59.875V69.25H56.125V67.375Z" fill="#1C1C1C"/>
<path d="M39.25 71.125H43V73H39.25V71.125Z" fill="#1C1C1C"/>
<path d="M44.875 71.125H48.625V73H44.875V71.125Z" fill="#1C1C1C"/>
<path d="M50.5 71.125H54.25V73H50.5V71.125Z" fill="#1C1C1C"/>
<path d="M61.75 71.125H65.5V73H61.75V71.125Z" fill="#1C1C1C"/>
<path d="M67.375 71.125H71.125V73H67.375V71.125Z" fill="#1C1C1C"/>
<path d="M73 71.125H76.75V73H73V71.125Z" fill="#1C1C1C"/>
<path d="M56.125 71.125H59.875V73H56.125V71.125Z" fill="#1C1C1C"/>
<path d="M58 49.5625C59.1125 49.5625 60.2 49.2326 61.1251 48.6145C62.0501 47.9964 62.7711 47.1179 63.1968 46.0901C63.6226 45.0623 63.7339 43.9313 63.5169 42.8401C63.2999 41.749 62.7641 40.7467 61.9775 39.96C61.1908 39.1734 60.1885 38.6376 59.0974 38.4206C58.0062 38.2035 56.8752 38.3149 55.8474 38.7407C54.8196 39.1664 53.9411 39.8874 53.323 40.8124C52.7049 41.7374 52.375 42.825 52.375 43.9375C52.3765 45.4289 52.9696 46.8588 54.0242 47.9133C55.0787 48.9679 56.5086 49.561 58 49.5625ZM58 40.1875C58.7417 40.1875 59.4667 40.4074 60.0834 40.8195C60.7001 41.2315 61.1807 41.8172 61.4645 42.5024C61.7484 43.1877 61.8226 43.9417 61.6779 44.6691C61.5332 45.3965 61.1761 46.0647 60.6516 46.5892C60.1272 47.1136 59.459 47.4708 58.7316 47.6154C58.0042 47.7601 57.2502 47.6859 56.5649 47.4021C55.8797 47.1182 55.294 46.6376 54.882 46.0209C54.4699 45.4042 54.25 44.6792 54.25 43.9375C54.25 42.9429 54.6451 41.9891 55.3483 41.2859C56.0516 40.5826 57.0054 40.1875 58 40.1875Z" fill="#1C1C1C"/>
<defs>
<filter id="filter0_d_42_746" x="36" y="57" width="342" height="446" filterUnits="userSpaceOnUse" color-interpolation-filters="sRGB">
<feFlood flood-opacity="0" result="BackgroundImageFix"/>
<feColorMatrix in="SourceAlpha" type="matrix" values="0 0 0 0 0 0 0 0 0 0 0 0 0 0 0 0 0 0 127 0" result="hardAlpha"/>
<feOffset dx="6" dy="6"/>
<feColorMatrix type="matrix" values="0 0 0 0 0 0 0 0 0 0 0 0 0 0 0 0 0 0 1 0"/>
<feBlend mode="normal" in2="BackgroundImageFix" result="effect1_dropShadow_42_746"/>
<feBlend mode="normal" in="SourceGraphic" in2="effect1_dropShadow_42_746" result="shape"/>
</filter>
<filter id="filter1_d_42_746" x="0" y="0" width="125" height="122" filterUnits="userSpaceOnUse" color-interpolation-filters="sRGB">
<feFlood flood-opacity="0" result="BackgroundImageFix"/>
<feColorMatrix in="SourceAlpha" type="matrix" values="0 0 0 0 0 0 0 0 0 0 0 0 0 0 0 0 0 0 127 0" result="hardAlpha"/>
<feOffset dx="3" dy="6"/>
<feColorMatrix type="matrix" values="0 0 0 0 0.109804 0 0 0 0 0.109804 0 0 0 0 0.109804 0 0 0 1 0"/>
<feBlend mode="normal" in2="BackgroundImageFix" result="effect1_dropShadow_42_746"/>
<feBlend mode="normal" in="SourceGraphic" in2="effect1_dropShadow_42_746" result="shape"/>
</filter>
<linearGradient id="paint0_linear_42_746" x1="5.5228" y1="44.1176" x2="129.602" y2="78.4182" gradientUnits="userSpaceOnUse">
<stop offset="0.380705" stop-color="#ACFA49"/>
<stop offset="0.863856" stop-color="#90D638"/>
</linearGradient>
</defs>
</svg>
