<svg width="372" height="497" viewBox="0 0 372 497" fill="none" xmlns="http://www.w3.org/2000/svg">
<rect x="37.5" y="58.5" width="333" height="437" rx="28.5" fill="white" stroke="#1C1C1C" stroke-width="3"/>
<g filter="url(#filter0_d_42_745)">
<mask id="path-2-inside-1_42_745" fill="white">
<path fill-rule="evenodd" clip-rule="evenodd" d="M111.215 81.1058C114.293 74.0261 116 66.2124 116 58C116 25.9675 90.0325 0 58 0C25.9675 0 0 25.9675 0 58C0 90.0325 25.9675 116 58 116C72.0014 116 84.8441 111.039 94.8659 102.778L122 111.5L111.215 81.1058Z"/>
</mask>
<path fill-rule="evenodd" clip-rule="evenodd" d="M111.215 81.1058C114.293 74.0261 116 66.2124 116 58C116 25.9675 90.0325 0 58 0C25.9675 0 0 25.9675 0 58C0 90.0325 25.9675 116 58 116C72.0014 116 84.8441 111.039 94.8659 102.778L122 111.5L111.215 81.1058Z" fill="url(#paint0_linear_42_745)"/>
<path d="M111.215 81.1058L109.381 80.3083L109.066 81.0315L109.33 81.7746L111.215 81.1058ZM94.8659 102.778L95.4779 100.874L94.4373 100.54L93.5938 101.235L94.8659 102.778ZM122 111.5L121.388 113.404L125.237 114.641L123.885 110.831L122 111.5ZM114 58C114 65.9329 112.352 73.4755 109.381 80.3083L113.049 81.9033C116.235 74.5767 118 66.4919 118 58H114ZM58 2C88.9279 2 114 27.0721 114 58H118C118 24.8629 91.1371 -2 58 -2V2ZM2 58C2 27.0721 27.0721 2 58 2V-2C24.8629 -2 -2 24.8629 -2 58H2ZM58 114C27.0721 114 2 88.9279 2 58H-2C-2 91.1371 24.8629 118 58 118V114ZM93.5938 101.235C83.9169 109.211 71.5204 114 58 114V118C72.4824 118 85.7712 112.866 96.1379 104.322L93.5938 101.235ZM94.2539 104.682L121.388 113.404L122.612 109.596L95.4779 100.874L94.2539 104.682ZM123.885 110.831L113.1 80.437L109.33 81.7746L120.115 112.169L123.885 110.831Z" fill="#1C1C1C" mask="url(#path-2-inside-1_42_745)"/>
</g>
<g clip-path="url(#clip0_42_745)">
<path d="M78.7676 72.0001C79.0852 70.3141 79.077 68.5829 78.7436 66.9001L83.3236 55.8471C83.3241 55.8397 83.3241 55.8324 83.3236 55.8251C84.0658 53.7931 85.1534 51.9047 86.5386 50.2431C86.8832 49.879 87.0219 49.3662 86.9076 48.8781L85.0296 40.7681C85.0072 40.6833 84.9736 40.6019 84.9296 40.5261C84.9216 40.5111 84.9186 40.4931 84.9106 40.4791C84.9026 40.4651 84.8676 40.4311 84.8476 40.4051C84.8067 40.3451 84.7594 40.2898 84.7066 40.2401C84.6718 40.2156 84.6354 40.1935 84.5976 40.1741C84.5488 40.1382 84.497 40.1067 84.4426 40.0801C84.3672 40.0516 84.2886 40.0324 84.2086 40.0231C84.1856 40.0231 84.1656 40.0081 84.1426 40.0061C83.9509 39.9933 83.7596 40.036 83.5916 40.1291C83.5766 40.1371 83.5586 40.1401 83.5436 40.1491H83.5336L76.4726 44.5561C76.045 44.8209 75.7796 45.2833 75.7666 45.7861C75.5704 47.9452 75.0017 50.0541 74.0856 52.0191V52.0301L71.7966 57.5631C70.6731 56.9658 69.4704 56.5315 68.2246 56.2731C68.6962 53.018 68.8696 49.7267 68.7426 46.4401C70.6041 44.2066 71.4975 41.3227 71.2246 38.4281C70.5996 32.6001 65.3326 28.3911 65.1076 28.2141C64.7694 27.9477 64.2988 27.9277 63.9392 28.1643C63.5796 28.401 63.4118 28.8411 63.5226 29.2571C64.0376 31.1911 63.5916 33.2321 59.7876 37.4291C58.0785 39.0793 57.5367 41.5992 58.4166 43.8061C58.753 44.6502 59.235 45.4286 59.8406 46.1061C59.5986 47.6511 59.4086 49.1141 59.2776 50.5391C59.052 52.896 58.9939 55.2659 59.1036 57.6311C58.2115 58.1147 57.3763 58.6967 56.6136 59.3661L51.7636 38.6261C51.7636 38.6051 51.7436 38.5901 51.7376 38.5711C51.7213 38.5044 51.6978 38.4397 51.6676 38.3781L46.7136 29.2291C46.2178 28.3133 45.1704 27.8428 44.1565 28.0802C43.1427 28.3177 42.4132 29.2044 42.3756 30.2451L41.9996 40.6401C41.9998 40.7151 42.0082 40.7898 42.0246 40.8631C42.0246 40.8791 42.0246 40.8931 42.0246 40.9081L46.9726 62.0251C46.192 62.0595 45.4172 62.1751 44.6606 62.3701L39.2176 49.2251C38.7811 48.2202 37.6235 47.7461 36.6076 48.1561L28.2886 51.6001C27.2704 52.025 26.7866 53.1924 27.2056 54.2131L34.5876 72.0211C30.2611 72.2482 26.9028 75.8801 27.0144 80.2111C27.1261 84.5421 30.6671 87.9962 34.9996 88.0001H78.9996C81.8577 87.9586 84.4766 86.3955 85.8698 83.8996C87.263 81.4037 87.2188 78.3541 85.7538 75.8996C84.2888 73.4451 81.6257 71.9586 78.7676 72.0001ZM77.7486 46.1161L81.9406 43.5001L80.4566 47.0841C80.2451 47.5944 80.4873 48.1795 80.9976 48.3911C81.5079 48.6026 82.0931 48.3604 82.3046 47.8501L83.7886 44.2661L84.8996 49.0791C83.7109 50.5292 82.7345 52.141 81.9996 53.8661C80.957 54.3493 79.7598 54.3744 78.6979 53.9352C77.636 53.496 76.8062 52.6326 76.4096 51.5541C77.1119 49.8142 77.5628 47.9831 77.7486 46.1161ZM75.4486 53.9671C76.1102 54.7759 76.9687 55.4009 77.9416 55.7821C78.715 56.1147 79.5468 56.2901 80.3886 56.2981C80.5911 56.2973 80.7935 56.285 80.9946 56.2611L77.8036 63.9611C76.8481 61.8544 75.37 60.0269 73.5096 58.6521L75.4486 53.9671ZM61.7486 46.8251L66.7726 47.1321C66.8036 48.0661 66.7926 49.0321 66.7616 50.0131C65.0879 50.1326 63.4059 50.0514 61.7516 49.7711C61.6256 49.7531 61.5026 49.7391 61.3776 49.7221C61.4776 48.7801 61.5996 47.8261 61.7466 46.8251H61.7486ZM61.2716 38.7721C63.9266 35.8431 65.3026 33.5901 65.6226 31.4721C67.531 33.4356 68.7907 35.9376 69.2316 38.6401C69.4416 40.9927 68.7142 43.333 67.2076 45.1521C65.2323 45.0321 63.2786 44.9121 61.3466 44.7921C60.5164 44.016 60.0389 42.9348 60.0243 41.7985C60.0098 40.6622 60.4596 39.5691 61.2696 38.7721H61.2716ZM61.1956 51.7151L61.4856 51.7531C62.7742 51.9523 64.0749 52.0629 65.3786 52.0841C65.7926 52.0841 66.2286 52.0511 66.6656 52.0171C66.5746 53.3041 66.4256 54.6481 66.2366 56.0371C65.9896 56.0241 65.7476 56.0001 65.4996 56.0001C63.9898 56.0028 62.4914 56.2607 61.0676 56.7631C61.0215 55.0793 61.0635 53.3944 61.1936 51.7151H61.1956ZM53.4606 63.4091L50.5996 51.2221C50.4658 50.6933 49.9331 50.3693 49.4021 50.4937C48.8711 50.618 48.5376 51.1449 48.6526 51.6781L51.2236 62.6471C50.5167 62.3943 49.7865 62.2124 49.0436 62.1041L44.6546 43.3741C45.2694 43.654 45.937 43.7992 46.6126 43.8001C46.6756 43.8001 46.7426 43.7911 46.8066 43.7881L47.5136 46.8071C47.5898 47.1604 47.8507 47.4452 48.1961 47.5518C48.5415 47.6584 48.9176 47.5704 49.1797 47.3214C49.4419 47.0725 49.5492 46.7015 49.4606 46.3511L48.7526 43.3301C49.4311 43.0297 50.0295 42.5741 50.4996 42.0001L54.9616 61.0791C54.3822 61.8018 53.8791 62.5826 53.4606 63.4091ZM47.3506 41.7091C46.0717 41.9571 44.7659 41.4342 44.0116 40.3721L44.1386 36.8501C44.4865 36.915 44.8396 36.9485 45.1936 36.9501C45.5355 36.9515 45.8764 36.9136 46.2096 36.8371C46.8842 36.6599 47.5152 36.3461 48.0636 35.9151L49.7476 39.0231C49.5469 40.3126 48.6088 41.3646 47.3506 41.7111V41.7091ZM44.6116 30.0271C44.7478 29.9955 44.8884 30.0584 44.9556 30.1811L47.0996 34.1461C46.7128 34.496 46.251 34.7525 45.7496 34.8961C45.2371 34.9901 44.7099 34.9651 44.2086 34.8231L44.3716 30.3171C44.377 30.1773 44.4753 30.0585 44.6116 30.0271ZM37.3746 50.0001L38.1386 51.8461L34.4386 53.3781C33.9999 53.5623 33.7518 54.03 33.8452 54.4965C33.9387 54.9629 34.3478 55.299 34.8236 55.3001C34.955 55.2998 35.085 55.274 35.2066 55.2241L38.9066 53.6911L39.6716 55.5391L37.8206 56.3061C37.3794 56.4886 37.1289 56.9576 37.2223 57.4258C37.3158 57.894 37.7271 58.2308 38.2046 58.2301C38.3356 58.2296 38.4653 58.2038 38.5866 58.1541L40.4376 57.3871L41.2026 59.2351L37.4996 60.7701C37.0584 60.9526 36.8079 61.4216 36.9013 61.8898C36.9948 62.358 37.4061 62.6948 37.8836 62.6941C38.0146 62.6937 38.1444 62.6679 38.2656 62.6181L41.9656 61.0861L42.7746 63.0391C39.516 64.5264 37.1265 67.4348 36.2996 70.9201L29.0516 53.4441L37.3746 50.0001ZM78.9996 86.0001H34.9996C31.6859 86.0001 28.9996 83.3138 28.9996 80.0001C28.9996 76.6863 31.6859 74.0001 34.9996 74.0001C35.579 73.9981 36.1556 74.0817 36.7106 74.2481C37.0104 74.3386 37.3354 74.2835 37.5886 74.0991C37.8417 73.9146 37.9939 73.6222 37.9996 73.3091C38.0707 69.7451 40.131 66.521 43.3352 64.9591C46.5395 63.3972 50.3484 63.7606 53.1996 65.9001C53.4515 66.0876 53.777 66.1458 54.0783 66.0574C54.3797 65.9689 54.622 65.744 54.7326 65.4501C56.6863 60.2432 62.086 57.1805 67.5575 58.1757C73.029 59.1709 77.0044 63.9388 76.9996 69.5001C77.0015 70.6437 76.8313 71.7811 76.4946 72.8741C76.3895 73.2141 76.473 73.5844 76.714 73.8463C76.9549 74.1083 77.317 74.2224 77.6646 74.1461C78.1031 74.0496 78.5506 74.0006 78.9996 74.0001C82.3133 74.0001 84.9996 76.6863 84.9996 80.0001C84.9996 83.3138 82.3133 86.0001 78.9996 86.0001Z" fill="#1C1C1C"/>
<path d="M65.6844 43.7002C65.9983 43.7013 66.2945 43.5551 66.4844 43.3052C67.7329 41.6154 68.2154 39.4795 67.8144 37.4172C67.7291 37.0645 67.4596 36.7858 67.11 36.6887C66.7604 36.5916 66.3857 36.6915 66.1308 36.9497C65.8759 37.2079 65.7809 37.5839 65.8824 37.9322C66.1219 39.3976 65.7646 40.8979 64.8904 42.0982C64.6632 42.4012 64.6266 42.8066 64.796 43.1454C64.9654 43.4842 65.3117 43.6982 65.6904 43.6982L65.6844 43.7002Z" fill="#1C1C1C"/>
<path d="M64.3701 74C63.6265 74.0023 62.893 74.1733 62.2251 74.5C60.4261 72.0384 57.0672 71.3173 54.4164 72.8236C51.7657 74.33 50.666 77.5847 51.8601 80.39C52.0172 80.7587 52.3793 80.998 52.7801 80.998C52.9148 80.9983 53.0482 80.9711 53.1721 80.918C53.4161 80.8141 53.6088 80.6174 53.7078 80.3714C53.8068 80.1253 53.804 79.85 53.7001 79.606C53.4824 79.0986 53.3701 78.5522 53.3701 78C53.3701 75.7909 55.1609 74 57.3701 74C58.9216 73.9923 60.3347 74.8914 60.9851 76.3C61.0067 76.3326 61.0301 76.364 61.0551 76.394C61.0709 76.4283 61.0886 76.4617 61.1081 76.494C61.1261 76.516 61.1521 76.526 61.1721 76.547C61.219 76.5957 61.2709 76.6393 61.3271 76.677C61.377 76.7155 61.4306 76.749 61.4871 76.777C61.5451 76.8014 61.6054 76.8201 61.6671 76.833C61.7286 76.8492 61.7916 76.8589 61.8551 76.862C61.985 76.861 62.1139 76.8394 62.2371 76.798C62.2637 76.7931 62.2901 76.7868 62.3161 76.779C62.3485 76.758 62.3796 76.735 62.4091 76.71C62.4451 76.694 62.4801 76.676 62.5141 76.656C63.0393 76.2312 63.6945 75.9996 64.3701 76C65.5393 76.0019 66.6009 76.683 67.0901 77.745C67.3193 78.2476 67.9125 78.4692 68.4151 78.24C68.9176 78.0108 69.1393 77.4176 68.9101 76.915C68.0958 75.1402 66.3228 74.0018 64.3701 74Z" fill="#1C1C1C"/>
<path d="M44.684 67.051C44.533 67.1 41 68.322 41 72C41 72.5523 41.4477 73 42 73C42.5523 73 43 72.5523 43 72C43.0816 70.605 43.9995 69.3982 45.322 68.947C45.8467 68.7709 46.1292 68.2027 45.953 67.678C45.7768 67.1534 45.2087 66.8709 44.684 67.047V67.051Z" fill="#1C1C1C"/>
<path d="M58.7562 65.97C58.8357 65.9901 58.9173 66.0002 58.9992 66C59.4575 65.9995 59.8569 65.6875 59.9682 65.243C60.4285 63.3756 62.0816 62.0473 64.0043 62C64.5565 61.9986 65.0031 61.5498 65.0018 60.9975C65.0004 60.4452 64.5515 59.9986 63.9993 60C61.1569 60.0377 58.7007 61.9949 58.0292 64.757C57.895 65.2927 58.2205 65.8358 58.7562 65.97Z" fill="#1C1C1C"/>
</g>
<defs>
<filter id="filter0_d_42_745" x="0" y="0" width="125" height="122" filterUnits="userSpaceOnUse" color-interpolation-filters="sRGB">
<feFlood flood-opacity="0" result="BackgroundImageFix"/>
<feColorMatrix in="SourceAlpha" type="matrix" values="0 0 0 0 0 0 0 0 0 0 0 0 0 0 0 0 0 0 127 0" result="hardAlpha"/>
<feOffset dx="3" dy="6"/>
<feColorMatrix type="matrix" values="0 0 0 0 0.109804 0 0 0 0 0.109804 0 0 0 0 0.109804 0 0 0 1 0"/>
<feBlend mode="normal" in2="BackgroundImageFix" result="effect1_dropShadow_42_745"/>
<feBlend mode="normal" in="SourceGraphic" in2="effect1_dropShadow_42_745" result="shape"/>
</filter>
<linearGradient id="paint0_linear_42_745" x1="5.5228" y1="44.1176" x2="129.602" y2="78.4182" gradientUnits="userSpaceOnUse">
<stop stop-color="#ACFA49"/>
<stop offset="0.863856" stop-color="#90D638"/>
</linearGradient>
<clipPath id="clip0_42_745">
<rect width="60" height="60" fill="white" transform="translate(27 28)"/>
</clipPath>
</defs>
</svg>
