<svg width="181" height="51" viewBox="0 0 181 51" fill="none" xmlns="http://www.w3.org/2000/svg">
<path d="M5.09753 10.4746C4.33097 12.0078 3.88005 13.7212 3.88005 15.57V31.4423L0.904006 24.4981C-1.26039 19.3577 0.588365 13.4507 5.09753 10.4746Z" fill="#92DA3F"/>
<path d="M14.9725 46.2323H30.8447L23.9006 49.2084C18.7151 51.4179 12.8532 49.524 9.83203 45.0149C11.4102 45.7814 13.1237 46.2323 14.9725 46.2323Z" fill="#92DA3F"/>
<path d="M34.5873 4.47747H18.6699L25.614 1.50142C30.7996 -0.708067 36.6615 1.18578 39.6826 5.69494C38.1495 4.92838 36.436 4.47747 34.5873 4.47747Z" fill="#92DA3F"/>
<path d="M44.417 40.2351C45.1836 38.702 45.6345 36.9885 45.6345 35.1398V19.2675L48.6105 26.2116C50.82 31.3521 48.9712 37.2591 44.417 40.2351Z" fill="#92DA3F"/>
<path d="M32.964 7.27316H16.5958C11.1397 7.27316 6.7207 11.6921 6.7207 17.1482V33.5616C6.7207 39.0177 11.1397 43.4367 16.5958 43.4367H33.0091C38.4652 43.4367 42.8842 39.0177 42.8842 33.5616V17.1482C42.8842 11.6921 38.4201 7.27316 32.964 7.27316ZM24.8926 31.9383H21.646C21.5108 31.9383 21.3755 31.803 21.3755 31.6677V25.9411C21.3755 25.6255 20.9697 25.5353 20.8344 25.8058L19.1209 29.5935C19.0758 29.6837 18.9856 29.7739 18.8504 29.7739H17.182C17.0918 29.7739 16.9565 29.7288 16.9114 29.5935L15.1979 25.8058C15.0627 25.5353 14.6568 25.6255 14.6568 25.9411V31.6677C14.6568 31.803 14.5216 31.9383 14.3863 31.9383H11.1397C11.0044 31.9383 10.8691 31.803 10.8691 31.6677V18.3657C10.8691 18.2304 11.0044 18.0952 11.1397 18.0952H14.8372C14.9274 18.0952 15.0627 18.1402 15.1077 18.2755L17.7682 24.0924C17.8583 24.3178 18.174 24.3178 18.2642 24.0924L20.9246 18.2755C20.9697 18.1853 21.0598 18.0952 21.1951 18.0952H24.8926C25.0279 18.0952 25.1632 18.2304 25.1632 18.3657V31.6677C25.1632 31.803 25.073 31.9383 24.8926 31.9383ZM38.7809 30.1797C38.375 30.5855 37.879 30.9012 37.3379 31.2168C36.7968 31.4874 36.2106 31.7128 35.5793 31.8481C34.9481 31.9834 34.3619 32.0736 33.7757 32.0736C32.7386 32.0736 31.7917 31.8481 30.9349 31.4423C30.0782 31.0365 29.3567 30.4954 28.7254 29.819C28.0941 29.1426 27.6432 28.376 27.2825 27.5193C26.9218 26.6626 26.7865 25.8058 26.7865 24.904C26.7865 24.0473 26.9668 23.2356 27.2825 22.3789C27.5981 21.5672 28.049 20.8007 28.6803 20.1694C29.3116 19.5381 30.0331 18.997 30.8898 18.5912C31.7466 18.1853 32.7386 18.005 33.8659 18.005C35.2186 18.005 36.391 18.2755 37.3379 18.8166C38.2398 19.3126 38.9161 19.989 39.4121 20.8007C39.5023 20.9359 39.4572 21.0712 39.322 21.1614L36.887 22.8749C36.7517 22.9651 36.5714 22.92 36.4812 22.7847C36.391 22.5592 36.2557 22.3789 36.0754 22.2436C35.8499 22.0181 35.6244 21.8378 35.3539 21.7025C35.0833 21.5672 34.8128 21.477 34.5422 21.4319C34.2717 21.3868 34.0011 21.3418 33.7306 21.3418C33.1895 21.3418 32.6935 21.4319 32.3328 21.6574C31.9269 21.8828 31.6113 22.1534 31.3407 22.5141C31.0702 22.8749 30.8898 23.2356 30.7545 23.6865C30.6193 24.1374 30.5742 24.5433 30.5742 24.9942C30.5742 25.4902 30.6644 25.9411 30.7996 26.392C30.9349 26.8429 31.1604 27.2488 31.4309 27.5644C31.7015 27.9251 32.0622 28.1957 32.4229 28.3761C32.8288 28.5564 33.2797 28.6917 33.7757 28.6917C34.0462 28.6917 34.3168 28.6466 34.5873 28.6015C34.8579 28.5564 35.1284 28.4662 35.399 28.2859C35.6695 28.1055 35.895 27.9702 36.0754 27.7448C36.2106 27.6095 36.3459 27.4291 36.4361 27.2488C36.5263 27.1135 36.7066 27.0684 36.8419 27.1135L39.4572 28.6917C39.5925 28.7819 39.6376 28.9172 39.5474 29.0524C39.4121 29.4583 39.1416 29.8641 38.7809 30.1797Z" fill="#92DA3F"/>
<path d="M74.1333 25.4V16.6071L71.3376 22.7847H68.9027L66.107 16.6071V25.4H61.5527V8.71609H66.5579L70.1652 16.562L73.7726 8.71609H78.7327V25.4H74.1333Z" fill="#1C1C1C"/>
<path d="M80.6719 16.9227C80.6719 15.8856 80.8522 14.8936 81.2581 13.9016C81.6188 12.9096 82.205 12.0529 82.9265 11.2412C83.6479 10.4746 84.5498 9.84336 85.5869 9.34735C86.624 8.85135 87.8414 8.62589 89.1942 8.62589C90.8175 8.62589 92.2153 8.94153 93.3877 9.61791C94.5601 10.2943 95.4619 11.151 96.0481 12.2783L92.531 14.7584C92.3957 14.3525 92.1702 14.0369 91.8997 13.7663C91.6291 13.4958 91.3586 13.2703 91.043 13.135C90.7273 12.9998 90.4117 12.8645 90.0509 12.8194C89.7353 12.7743 89.3746 12.7292 89.0589 12.7292C88.3825 12.7292 87.8414 12.8645 87.3454 13.135C86.8494 13.4056 86.4887 13.7212 86.1731 14.1271C85.8574 14.5329 85.632 15.0289 85.4967 15.5249C85.3614 16.066 85.2712 16.562 85.2712 17.1031C85.2712 17.6893 85.3614 18.2304 85.5418 18.7715C85.7221 19.3126 85.9476 19.7635 86.3083 20.1693C86.624 20.5752 87.0298 20.8908 87.5258 21.1614C88.0218 21.3868 88.5178 21.5221 89.1491 21.5221C89.4647 21.5221 89.7804 21.477 90.096 21.4319C90.4117 21.3868 90.7273 21.2515 91.043 21.0712C91.3586 20.8908 91.6291 20.7105 91.8546 20.4399C92.0801 20.1694 92.3055 19.8537 92.4408 19.493L96.1834 21.7025C95.9129 22.3337 95.5521 22.8748 95.0561 23.3258C94.5601 23.8218 93.9739 24.2276 93.2975 24.5432C92.6663 24.8589 91.9448 25.1294 91.2233 25.3098C90.5019 25.4902 89.7353 25.5803 89.0589 25.5803C87.8414 25.5803 86.7142 25.3549 85.677 24.8589C84.6399 24.3629 83.7832 23.7316 83.0166 22.9199C82.2952 22.1083 81.709 21.1614 81.3032 20.1693C80.8973 19.0421 80.6719 17.9599 80.6719 16.9227Z" fill="#1C1C1C"/>
<path d="M97.4912 12.0078V8.26517H101.955V12.0078H97.4912ZM97.4912 25.4V13.0449H101.955V25.4H97.4912Z" fill="#1C1C1C"/>
<path d="M112.868 24.7236C112.236 24.9942 111.56 25.2196 110.838 25.4C110.117 25.5803 109.441 25.6705 108.719 25.6705C108.223 25.6705 107.727 25.6254 107.276 25.4902C106.825 25.3549 106.419 25.1745 106.104 24.8589C105.788 24.5883 105.518 24.2276 105.292 23.7767C105.112 23.3258 104.976 22.7396 104.976 22.1083V16.4718H103.443V13.135H104.976V9.25717H109.441V13.135H111.876V16.4718H109.441V20.5752C109.441 20.981 109.531 21.2515 109.711 21.4319C109.891 21.6123 110.117 21.6574 110.433 21.6574C110.658 21.6574 110.883 21.6123 111.199 21.5672C111.47 21.477 111.74 21.3868 112.056 21.2515L112.868 24.7236Z" fill="#1C1C1C"/>
<path d="M114.039 26.6174C114.761 26.888 115.347 27.0233 115.888 27.0233C116.835 27.0233 117.376 26.4822 117.466 25.4L113.002 13.0449H117.601L119.946 21.6123L121.84 13.0449H125.988L121.795 26.888C121.614 27.5193 121.344 28.0604 120.983 28.5564C120.622 29.0524 120.217 29.4582 119.766 29.8189C119.27 30.1797 118.774 30.4502 118.187 30.6306C117.601 30.811 117.015 30.9011 116.384 30.9011C115.572 30.9011 114.806 30.7659 114.084 30.4502V26.6174H114.039Z" fill="#1C1C1C"/>
<path d="M127.206 25.4V21.0712H130.813V25.4H127.206Z" fill="#1C1C1C"/>
<path d="M132.437 19.2224C132.437 18.3657 132.572 17.554 132.887 16.7875C133.203 16.0209 133.609 15.3445 134.195 14.7583C134.781 14.1721 135.458 13.7212 136.314 13.3605C137.171 12.9998 138.118 12.8194 139.245 12.8194C140.733 12.8194 141.996 13.135 143.033 13.7663C144.025 14.3976 144.792 15.2093 145.288 16.2013L140.959 17.5089C140.553 16.8776 139.967 16.6071 139.245 16.6071C138.614 16.6071 138.118 16.8326 137.712 17.2835C137.306 17.7344 137.081 18.4108 137.081 19.2224C137.081 20.0791 137.306 20.7104 137.712 21.1614C138.118 21.6123 138.659 21.8377 139.245 21.8377C139.967 21.8377 140.553 21.5221 140.959 20.9359L145.288 22.2436C144.792 23.2356 144.025 24.0472 143.033 24.6785C142.041 25.3098 140.778 25.6254 139.245 25.6254C138.163 25.6254 137.171 25.4451 136.314 25.0843C135.458 24.7236 134.781 24.2727 134.195 23.6865C133.609 23.1003 133.203 22.4239 132.887 21.6574C132.617 20.8908 132.437 20.0791 132.437 19.2224Z" fill="#1C1C1C"/>
<path d="M152.773 25.6254C151.645 25.6254 150.698 25.4451 149.842 25.0843C148.985 24.7236 148.309 24.2727 147.722 23.6865C147.136 23.1003 146.73 22.4239 146.415 21.6574C146.144 20.8908 145.964 20.0791 145.964 19.2224C145.964 18.3657 146.099 17.554 146.415 16.7875C146.685 16.0209 147.136 15.3445 147.722 14.7583C148.309 14.1721 148.985 13.7212 149.842 13.3605C150.698 12.9998 151.645 12.8194 152.773 12.8194C153.855 12.8194 154.847 12.9998 155.704 13.3605C156.56 13.7212 157.237 14.1721 157.823 14.7583C158.409 15.3445 158.815 16.0209 159.131 16.7875C159.401 17.554 159.582 18.3657 159.582 19.2224C159.582 20.0791 159.446 20.8908 159.131 21.6574C158.86 22.4239 158.409 23.1003 157.823 23.6865C157.237 24.2727 156.56 24.7236 155.704 25.0843C154.802 25.4451 153.855 25.6254 152.773 25.6254ZM150.563 19.2224C150.563 20.0341 150.789 20.7104 151.194 21.1614C151.6 21.6123 152.141 21.8828 152.773 21.8828C153.404 21.8828 153.945 21.6574 154.351 21.1614C154.757 20.7104 154.982 20.0341 154.982 19.2224C154.982 18.4108 154.757 17.7344 154.351 17.2835C153.945 16.8326 153.404 16.562 152.773 16.562C152.141 16.562 151.6 16.7875 151.194 17.2835C150.789 17.7344 150.563 18.3657 150.563 19.2224Z" fill="#1C1C1C"/>
<path d="M181.001 25.4H176.537V18.4559C176.537 17.8246 176.402 17.4187 176.176 17.1482C175.951 16.8776 175.635 16.7424 175.274 16.7424C174.914 16.7424 174.553 16.9227 174.147 17.2384C173.741 17.554 173.471 18.0049 173.245 18.5009V25.4451H168.781V18.5009C168.781 17.8697 168.646 17.4638 168.42 17.1933C168.195 16.9227 167.879 16.7875 167.519 16.7875C167.158 16.7875 166.797 16.9678 166.391 17.2835C165.985 17.5991 165.715 18.05 165.489 18.546V25.4901H161.025V13.135H165.039V14.9838C165.489 14.3074 166.076 13.8114 166.842 13.4507C167.609 13.0899 168.511 12.9096 169.548 12.9096C170.044 12.9096 170.495 12.9547 170.855 13.0899C171.216 13.2252 171.577 13.3605 171.847 13.586C172.118 13.8114 172.343 14.0369 172.524 14.2623C172.704 14.5329 172.839 14.7583 172.93 15.074C173.38 14.3976 173.967 13.8565 174.733 13.4958C175.5 13.135 176.357 12.9547 177.349 12.9547C178.16 12.9547 178.791 13.0899 179.288 13.4056C179.784 13.7212 180.144 14.082 180.37 14.5329C180.64 14.9838 180.776 15.4798 180.866 15.9758C180.956 16.4718 181.001 16.9678 181.001 17.3736V25.4Z" fill="#1C1C1C"/>
<path d="M64.4382 36.1768C64.6636 36.1768 64.8891 36.2219 65.1145 36.3121C65.2949 36.4023 65.4753 36.5376 65.6556 36.6729C65.7909 36.8081 65.9262 36.9885 65.9713 37.214C66.0615 37.4394 66.1066 37.6198 66.1066 37.8452C66.1066 38.1609 66.0164 38.4765 65.8811 38.7922C65.7007 39.1078 65.4753 39.3333 65.1596 39.4685C65.5655 39.5587 65.836 39.7842 66.0615 40.0998C66.2869 40.4155 66.3771 40.7762 66.3771 41.182C66.3771 41.4526 66.332 41.678 66.2418 41.9035C66.1517 42.129 66.0164 42.3093 65.836 42.4897C65.6556 42.67 65.4753 42.8053 65.2047 42.8955C64.9793 42.9857 64.7087 43.0308 64.4382 43.0308H61.1465V36.2219H64.4382V36.1768ZM64.1676 39.2882C64.348 39.2882 64.5284 39.2431 64.6636 39.198C64.7989 39.1078 64.9342 39.0176 65.0695 38.9274C65.1596 38.7922 65.2498 38.6569 65.34 38.5216C65.3851 38.3413 65.4302 38.206 65.4302 37.9805C65.4302 37.6198 65.34 37.3492 65.1145 37.0787C64.8891 36.8081 64.6185 36.718 64.2578 36.718H61.8229V39.3333H64.1676V39.2882ZM64.3931 42.4897C64.5734 42.4897 64.7538 42.4446 64.9342 42.3995C65.1145 42.3093 65.2498 42.2191 65.34 42.0839C65.4753 41.9486 65.5655 41.8133 65.6106 41.6329C65.6556 41.4526 65.7007 41.3173 65.7007 41.1369C65.7007 40.9566 65.6556 40.7762 65.6106 40.6409C65.5655 40.5056 65.4753 40.3253 65.34 40.2351C65.2047 40.0998 65.0695 40.0096 64.9342 39.9194C64.7538 39.8293 64.5734 39.8293 64.3931 39.8293H61.7778V42.5348H64.3931V42.4897Z" fill="#1C1C1C"/>
<path d="M71.2473 43.121C70.7513 43.121 70.3004 43.0308 69.8945 42.8504C69.4887 42.6701 69.128 42.3995 68.8123 42.0839C68.4967 41.7682 68.2712 41.3624 68.0909 40.9566C67.9105 40.5057 67.8203 40.0547 67.8203 39.5587C67.8203 39.0627 67.9105 38.6118 68.0909 38.206C68.2712 37.8002 68.4967 37.3943 68.8123 37.0787C69.128 36.7631 69.4436 36.4925 69.8494 36.3121C70.2553 36.1318 70.7062 36.0416 71.1571 36.0416C71.6531 36.0416 72.104 36.1318 72.5098 36.3121C72.9157 36.4925 73.2764 36.7631 73.592 37.0787C73.9077 37.3943 74.1331 37.7551 74.2684 38.206C74.4488 38.6118 74.539 39.0627 74.539 39.5587C74.539 39.6038 74.539 39.6489 74.539 39.7391C74.539 39.7842 74.539 39.8293 74.539 39.8744H68.5418C68.5869 40.2802 68.6771 40.6409 68.8123 40.9566C68.9476 41.2722 69.1731 41.5879 69.3985 41.8133C69.624 42.0388 69.9396 42.2642 70.2102 42.3995C70.5258 42.5348 70.8415 42.625 71.2022 42.625C71.4276 42.625 71.6531 42.5799 71.8786 42.5348C72.104 42.4897 72.3295 42.3995 72.5098 42.2642C72.6902 42.129 72.8706 41.9937 73.0509 41.8584C73.1862 41.678 73.3215 41.4977 73.4117 41.3173L73.9979 41.4526C73.9077 41.6781 73.7724 41.9035 73.592 42.129C73.4117 42.3544 73.1862 42.5348 72.9157 42.6701C72.6451 42.8053 72.3746 42.9406 72.104 43.0308C71.8786 43.0759 71.5629 43.121 71.2473 43.121ZM73.9528 39.2882C73.9077 38.8824 73.8175 38.5216 73.6822 38.206C73.547 37.8903 73.3215 37.5747 73.096 37.3493C72.8706 37.1238 72.5549 36.8983 72.2844 36.7631C71.9687 36.6278 71.6531 36.5376 71.2924 36.5376C70.9316 36.5376 70.616 36.6278 70.3004 36.7631C69.9847 36.8983 69.7142 37.0787 69.4887 37.3493C69.2633 37.5747 69.0378 37.8903 68.9025 38.206C68.7672 38.5216 68.6771 38.9275 68.632 39.2882H73.9528Z" fill="#1C1C1C"/>
<path d="M79.7698 34.283C78.913 34.4634 78.2367 34.8692 77.7407 35.4554C77.2446 36.0416 76.929 36.8983 76.8388 37.9805C77.0643 37.5296 77.425 37.1689 77.8308 36.8984C78.2367 36.6278 78.7327 36.4925 79.3189 36.4925C79.7698 36.4925 80.1756 36.5827 80.5363 36.718C80.8971 36.8533 81.2127 37.0787 81.4833 37.3944C81.7538 37.6649 81.9342 38.0256 82.0695 38.4315C82.2047 38.8373 82.2949 39.2882 82.2949 39.7842C82.2949 40.2802 82.2047 40.686 82.0695 41.0919C81.9342 41.4977 81.7087 41.8584 81.4382 42.129C81.1676 42.4446 80.852 42.6701 80.4462 42.8054C80.0403 42.9857 79.6345 43.0308 79.0934 43.0308C78.5974 43.0308 78.1916 42.9406 77.7857 42.7603C77.425 42.5799 77.1094 42.3093 76.8388 41.9937C76.5683 41.6781 76.3879 41.2722 76.2526 40.7762C76.1174 40.2802 76.0723 39.7842 76.0723 39.1529C76.0723 38.2962 76.1625 37.5296 76.3428 36.8533C76.5232 36.222 76.7486 35.6809 77.0643 35.23C77.3799 34.779 77.7407 34.4183 78.1916 34.1478C78.6425 33.8772 79.1385 33.6968 79.6796 33.5616L81.6185 33.1107L81.7538 33.6968L79.7698 34.283ZM76.8388 39.7842C76.8388 40.19 76.8839 40.5508 76.9741 40.8664C77.0643 41.1821 77.2446 41.4977 77.425 41.7231C77.6505 41.9937 77.8759 42.1741 78.1916 42.3093C78.5072 42.4446 78.8229 42.5348 79.1836 42.5348C79.5443 42.5348 79.9051 42.4446 80.1756 42.3093C80.4912 42.1741 80.7167 41.9937 80.9422 41.7231C81.1676 41.4977 81.3029 41.1821 81.4382 40.8664C81.5284 40.5508 81.6185 40.19 81.6185 39.7842C81.6185 38.9275 81.3931 38.2962 80.9873 37.8002C80.5814 37.3493 79.9502 37.0787 79.1836 37.0787C78.8229 37.0787 78.5072 37.1238 78.2367 37.2591C77.9661 37.3944 77.6956 37.5296 77.4701 37.8002C77.2447 38.0707 77.1094 38.2962 76.9741 38.6569C76.8839 39.0177 76.8388 39.3784 76.8388 39.7842Z" fill="#1C1C1C"/>
<path d="M84.1885 39.7391V39.1078H87.9762V39.694H84.1885V39.7391Z" fill="#1C1C1C"/>
<path d="M89.4639 42.3995H89.8697C90.0501 42.3544 90.2304 42.2642 90.3657 42.0839C90.501 41.9035 90.6363 41.678 90.7715 41.3173C90.9068 40.9566 90.997 40.5507 91.0872 39.9646C91.1774 39.4235 91.2675 38.7471 91.4028 37.8903L91.6283 36.0867H95.416V42.3544H96.2727V45.0148H95.6865V42.9406H90.0952V45.0148H89.509V42.3995H89.4639ZM94.6945 42.3995V36.6729H92.1694L91.989 38.206C91.8537 39.4235 91.6734 40.3704 91.4479 41.0467C91.2675 41.7231 91.0421 42.1741 90.7715 42.3544H94.6945V42.3995Z" fill="#1C1C1C"/>
<path d="M98.7076 42.0839L103.127 36.1768H103.668V42.9857H102.991V37.1689L98.6625 42.9857H98.0312V36.1768H98.6625V42.0839H98.7076Z" fill="#1C1C1C"/>
<path d="M105.742 36.8983C105.967 36.6278 106.283 36.4023 106.599 36.2671C106.914 36.1318 107.275 36.0416 107.681 36.0416C108.267 36.0416 108.763 36.1769 109.079 36.4925C109.394 36.8082 109.575 37.1689 109.575 37.6649C109.575 38.0707 109.484 38.4314 109.259 38.702C109.034 38.9725 108.763 39.1529 108.402 39.198C108.853 39.2882 109.259 39.4686 109.53 39.8293C109.8 40.19 109.935 40.5958 109.935 41.0468C109.935 41.3624 109.89 41.633 109.755 41.9035C109.62 42.1741 109.484 42.3544 109.304 42.5799C109.124 42.7603 108.853 42.8955 108.583 43.0308C108.267 43.121 107.951 43.1661 107.636 43.1661C107.14 43.1661 106.734 43.0759 106.418 42.8955C106.103 42.7151 105.787 42.4897 105.562 42.174L105.922 41.7231C106.148 41.9937 106.373 42.2192 106.644 42.3544C106.914 42.4897 107.23 42.5799 107.636 42.5799C108.177 42.5799 108.628 42.4446 108.898 42.174C109.169 41.9035 109.304 41.5428 109.304 41.0919C109.304 40.5958 109.124 40.2351 108.808 39.9646C108.492 39.694 107.996 39.5587 107.41 39.5587H106.959V39.0176H107.41C107.906 39.0176 108.312 38.9275 108.583 38.702C108.853 38.4765 108.988 38.1609 108.988 37.7551C108.988 37.3943 108.853 37.1238 108.628 36.9434C108.402 36.7631 108.087 36.6278 107.636 36.6278C107.365 36.6278 107.095 36.6729 106.824 36.7631C106.554 36.8532 106.328 37.0336 106.103 37.2591L105.742 36.8983Z" fill="#1C1C1C"/>
<path d="M113.543 43.121C113.227 43.121 112.912 43.0759 112.641 42.9406C112.37 42.8504 112.145 42.6701 111.92 42.4897C111.694 42.3093 111.559 42.0839 111.424 41.8133C111.288 41.5428 111.243 41.2722 111.243 41.0017C111.243 40.686 111.333 40.4155 111.469 40.19C111.604 39.9646 111.784 39.7391 112.055 39.5587C112.325 39.3784 112.596 39.2431 112.957 39.1529C113.317 39.0627 113.678 39.0176 114.129 39.0176C114.49 39.0176 114.85 39.0627 115.256 39.1078C115.617 39.1529 115.978 39.2431 116.248 39.3784V38.702C116.248 38.0707 116.068 37.5296 115.707 37.1689C115.347 36.8082 114.85 36.5827 114.219 36.5827C113.904 36.5827 113.543 36.6729 113.182 36.8081C112.821 36.9434 112.416 37.1689 112.055 37.3943L111.784 36.9434C112.641 36.3572 113.498 36.0416 114.264 36.0416C115.076 36.0416 115.752 36.267 116.203 36.7631C116.654 37.2591 116.925 37.8904 116.925 38.7471V42.0839C116.925 42.3093 117.015 42.3995 117.195 42.3995V42.9857C117.15 42.9857 117.105 42.9857 117.06 42.9857C117.015 42.9857 116.97 42.9857 116.925 42.9857C116.744 42.9857 116.609 42.9406 116.519 42.8053C116.429 42.6701 116.339 42.5348 116.339 42.3995V41.8133C116.023 42.2191 115.617 42.5348 115.121 42.7602C114.67 43.0308 114.129 43.121 113.543 43.121ZM113.678 42.5799C114.174 42.5799 114.67 42.4897 115.076 42.3093C115.482 42.129 115.843 41.8584 116.068 41.5428C116.203 41.3624 116.293 41.182 116.293 41.0017V39.7842C115.978 39.6489 115.662 39.5587 115.301 39.5136C114.941 39.4686 114.625 39.4235 114.219 39.4235C113.858 39.4235 113.588 39.4686 113.272 39.5136C113.002 39.6038 112.731 39.694 112.551 39.8293C112.37 39.9646 112.19 40.0998 112.1 40.3253C112.01 40.5057 111.92 40.7311 111.92 40.9566C111.92 41.182 111.965 41.4075 112.055 41.5879C112.145 41.7682 112.28 41.9486 112.416 42.129C112.551 42.2642 112.776 42.3995 112.957 42.4897C113.227 42.5348 113.453 42.5799 113.678 42.5799Z" fill="#1C1C1C"/>
<path d="M119.991 42.0839L124.41 36.1769H124.951V42.9857H124.275V37.1689L119.946 42.9857H119.314V36.1769H119.946V42.0839H119.991ZM123.869 33.7419C123.869 34.0576 123.688 34.3281 123.418 34.5536C123.147 34.7339 122.741 34.8692 122.2 34.8692C121.659 34.8692 121.253 34.779 120.938 34.5536C120.667 34.3732 120.532 34.1026 120.487 33.7419H120.938C120.938 33.9674 121.028 34.1477 121.253 34.283C121.434 34.4183 121.749 34.4634 122.2 34.4634C122.606 34.4634 122.922 34.4183 123.102 34.283C123.283 34.1477 123.418 33.9674 123.418 33.7419H123.869Z" fill="#1C1C1C"/>
<path d="M128.063 39.198H132.256V36.1318H132.888V42.9406H132.256V39.7391H128.063V42.9406H127.432V36.1318H128.063V39.198Z" fill="#1C1C1C"/>
<path d="M138.614 39.5587C138.614 39.0627 138.704 38.6118 138.885 38.206C139.065 37.7551 139.291 37.3943 139.561 37.0787C139.877 36.7631 140.192 36.4925 140.643 36.3121C141.049 36.1318 141.5 36.0416 141.996 36.0416C142.627 36.0416 143.169 36.1769 143.619 36.4474C144.07 36.718 144.431 37.1238 144.702 37.6198L144.07 37.8453C143.89 37.4845 143.574 37.1689 143.214 36.9434C142.853 36.718 142.447 36.6278 141.996 36.6278C141.635 36.6278 141.275 36.718 140.959 36.8532C140.643 36.9885 140.373 37.214 140.102 37.4845C139.877 37.7551 139.651 38.0707 139.516 38.4314C139.381 38.7922 139.291 39.1529 139.291 39.5587C139.291 39.9646 139.381 40.3704 139.516 40.7311C139.651 41.0919 139.832 41.4075 140.102 41.6781C140.328 41.9486 140.643 42.1741 140.959 42.3093C141.275 42.4446 141.635 42.5348 141.996 42.5348C142.222 42.5348 142.447 42.4897 142.718 42.4446C142.943 42.3544 143.169 42.2642 143.349 42.174C143.529 42.0388 143.71 41.9486 143.845 41.7682C143.98 41.633 144.07 41.4526 144.161 41.2722L144.792 41.4526C144.702 41.6781 144.566 41.9035 144.386 42.129C144.206 42.3544 143.98 42.5348 143.755 42.6701C143.529 42.8053 143.259 42.9406 142.943 43.0308C142.627 43.121 142.357 43.1661 142.041 43.1661C141.545 43.1661 141.094 43.0759 140.688 42.8955C140.283 42.7151 139.922 42.4446 139.606 42.129C139.291 41.8133 139.065 41.4075 138.885 41.0017C138.704 40.5057 138.614 40.0547 138.614 39.5587Z" fill="#1C1C1C"/>
<path d="M149.03 42.9857H148.399V36.718H145.919V36.1318H151.555V36.718H149.075V42.9857H149.03Z" fill="#1C1C1C"/>
<path d="M153.224 45.0148C153.449 45.1952 153.675 45.2854 153.945 45.2854C154.081 45.2854 154.171 45.2403 154.306 45.1952C154.396 45.1501 154.532 45.0148 154.622 44.8345C154.757 44.6541 154.847 44.4286 154.983 44.113C155.118 43.7974 155.253 43.4366 155.433 42.9406L152.367 36.1318H153.044L155.749 42.3093L158.274 36.1318H158.905L155.524 44.2483C155.388 44.5639 155.298 44.7894 155.163 45.0148C155.028 45.1952 154.937 45.3756 154.802 45.5108C154.667 45.6461 154.532 45.7363 154.396 45.7814C154.261 45.8265 154.081 45.8716 153.945 45.8716C153.585 45.8716 153.314 45.7814 153.089 45.601L153.224 45.0148Z" fill="#1C1C1C"/>
<path d="M159.942 42.3995H160.348C160.529 42.3544 160.709 42.2642 160.844 42.0839C160.979 41.9035 161.115 41.678 161.25 41.3173C161.385 40.9566 161.475 40.5507 161.566 39.9646C161.656 39.4235 161.746 38.7471 161.881 37.8903L162.107 36.0867H165.894V42.3544H166.751V45.0148H166.165V42.9406H160.574V45.0148H159.987V42.3995H159.942ZM165.173 42.3995V36.6729H162.648L162.468 38.206C162.332 39.4235 162.152 40.3704 161.926 41.0467C161.746 41.7231 161.521 42.1741 161.25 42.3544H165.173V42.3995Z" fill="#1C1C1C"/>
<path d="M169.186 42.0839L173.605 36.1768H174.146V42.9857H173.47V37.1689L169.141 42.9857H168.51V36.1768H169.141V42.0839H169.186Z" fill="#1C1C1C"/>
<path d="M177.979 40.2351C177.528 40.1449 177.168 39.9195 176.897 39.6038C176.627 39.2882 176.446 38.7922 176.446 38.2511C176.446 37.9805 176.491 37.71 176.581 37.4394C176.672 37.1689 176.852 36.9885 177.032 36.8081C177.213 36.6278 177.483 36.4925 177.709 36.3572C177.979 36.267 178.295 36.222 178.611 36.222H180.955V43.0308H180.324V40.3253H178.656L176.717 43.0308H175.95L177.979 40.2351ZM180.324 39.7391V36.763H178.656C178.43 36.763 178.205 36.8081 178.024 36.8532C177.844 36.9434 177.664 37.0336 177.528 37.1689C177.393 37.3042 177.258 37.4394 177.213 37.6198C177.123 37.8002 177.077 37.9805 177.077 38.206C177.077 38.6569 177.213 38.9725 177.438 39.2882C177.709 39.5587 178.024 39.7391 178.475 39.7391H180.324Z" fill="#1C1C1C"/>
</svg>
