<svg width="132" height="47" viewBox="0 0 132 47" fill="none" xmlns="http://www.w3.org/2000/svg">
<rect x="8" width="36" height="47" fill="#FAEA00"/>
<rect y="35" width="132" height="3" fill="#95DB3A"/>
<path d="M20.804 29.09C19.868 29.09 19.016 28.91 18.248 28.55C17.492 28.178 16.838 27.692 16.286 27.092C15.746 26.48 15.326 25.784 15.026 25.004C14.726 24.224 14.576 23.426 14.576 22.61C14.576 21.758 14.732 20.942 15.044 20.162C15.368 19.382 15.806 18.692 16.358 18.092C16.922 17.492 17.588 17.018 18.356 16.67C19.124 16.31 19.958 16.13 20.858 16.13C21.782 16.13 22.622 16.322 23.378 16.706C24.146 17.078 24.8 17.57 25.34 18.182C25.88 18.794 26.3 19.49 26.6 20.27C26.9 21.05 27.05 21.842 27.05 22.646C27.05 23.498 26.894 24.314 26.582 25.094C26.27 25.862 25.838 26.546 25.286 27.146C24.734 27.734 24.074 28.208 23.306 28.568C22.538 28.916 21.704 29.09 20.804 29.09ZM17.096 22.61C17.096 23.162 17.18 23.696 17.348 24.212C17.516 24.728 17.756 25.184 18.068 25.58C18.392 25.976 18.782 26.294 19.238 26.534C19.706 26.774 20.234 26.894 20.822 26.894C21.422 26.894 21.95 26.774 22.406 26.534C22.874 26.282 23.264 25.952 23.576 25.544C23.9 25.136 24.14 24.68 24.296 24.176C24.464 23.66 24.548 23.138 24.548 22.61C24.548 22.058 24.458 21.524 24.278 21.008C24.11 20.492 23.864 20.036 23.54 19.64C23.228 19.244 22.838 18.932 22.37 18.704C21.914 18.464 21.398 18.344 20.822 18.344C20.222 18.344 19.688 18.47 19.22 18.722C18.752 18.962 18.362 19.286 18.05 19.694C17.738 20.09 17.498 20.546 17.33 21.062C17.174 21.566 17.096 22.082 17.096 22.61ZM33.2575 29H30.8635V21.656H27.9115V19.568H36.1915V21.656H33.2575V29ZM45.896 29H43.502V21.656H40.028V29H37.634V19.568H45.896V29ZM53.7977 29.18C53.0537 29.18 52.4057 29.018 51.8537 28.694C51.3017 28.358 50.8697 27.908 50.5577 27.344V32.834H48.1457V19.568H50.2517V21.188C50.5997 20.636 51.0497 20.204 51.6017 19.892C52.1537 19.568 52.7897 19.406 53.5097 19.406C54.1457 19.406 54.7337 19.538 55.2737 19.802C55.8137 20.054 56.2757 20.402 56.6597 20.846C57.0557 21.278 57.3617 21.794 57.5777 22.394C57.8057 22.982 57.9197 23.606 57.9197 24.266C57.9197 24.95 57.8177 25.592 57.6137 26.192C57.4097 26.792 57.1217 27.314 56.7497 27.758C56.3897 28.202 55.9577 28.55 55.4537 28.802C54.9497 29.054 54.3977 29.18 53.7977 29.18ZM52.9877 27.128C53.3477 27.128 53.6777 27.05 53.9777 26.894C54.2897 26.738 54.5537 26.528 54.7697 26.264C54.9857 26 55.1537 25.694 55.2737 25.346C55.3937 24.998 55.4537 24.638 55.4537 24.266C55.4537 23.87 55.3877 23.504 55.2557 23.168C55.1237 22.82 54.9377 22.52 54.6977 22.268C54.4697 22.016 54.1937 21.818 53.8697 21.674C53.5577 21.53 53.2157 21.458 52.8437 21.458C52.6157 21.458 52.3817 21.5 52.1417 21.584C51.9017 21.656 51.6797 21.764 51.4757 21.908C51.2717 22.052 51.0857 22.22 50.9177 22.412C50.7617 22.604 50.6417 22.814 50.5577 23.042V25.256C50.7737 25.796 51.1037 26.246 51.5477 26.606C51.9917 26.954 52.4717 27.128 52.9877 27.128ZM62.1095 29.18C61.6535 29.18 61.2275 29.108 60.8315 28.964C60.4355 28.808 60.0935 28.598 59.8055 28.334C59.5175 28.058 59.2895 27.74 59.1215 27.38C58.9655 27.02 58.8875 26.624 58.8875 26.192C58.8875 25.748 58.9835 25.34 59.1755 24.968C59.3795 24.584 59.6555 24.26 60.0035 23.996C60.3635 23.732 60.7895 23.528 61.2815 23.384C61.7735 23.228 62.3135 23.15 62.9015 23.15C63.3215 23.15 63.7295 23.186 64.1255 23.258C64.5335 23.33 64.8935 23.432 65.2055 23.564V23.024C65.2055 22.4 65.0255 21.92 64.6655 21.584C64.3175 21.248 63.7955 21.08 63.0995 21.08C62.5955 21.08 62.1035 21.17 61.6235 21.35C61.1435 21.53 60.6515 21.794 60.1475 22.142L59.4095 20.612C60.6215 19.808 61.9295 19.406 63.3335 19.406C64.6895 19.406 65.7395 19.742 66.4835 20.414C67.2395 21.074 67.6175 22.034 67.6175 23.294V26.228C67.6175 26.48 67.6595 26.66 67.7435 26.768C67.8395 26.876 67.9895 26.936 68.1935 26.948V29C67.7855 29.084 67.4315 29.126 67.1315 29.126C66.6755 29.126 66.3215 29.024 66.0695 28.82C65.8295 28.616 65.6795 28.346 65.6195 28.01L65.5655 27.488C65.1455 28.04 64.6355 28.46 64.0355 28.748C63.4355 29.036 62.7935 29.18 62.1095 29.18ZM62.7935 27.416C63.2015 27.416 63.5855 27.344 63.9455 27.2C64.3175 27.056 64.6055 26.864 64.8095 26.624C65.0735 26.42 65.2055 26.192 65.2055 25.94V24.86C64.9175 24.752 64.6055 24.668 64.2695 24.608C63.9335 24.536 63.6095 24.5 63.2975 24.5C62.6735 24.5 62.1635 24.644 61.7675 24.932C61.3715 25.208 61.1735 25.562 61.1735 25.994C61.1735 26.402 61.3295 26.744 61.6415 27.02C61.9535 27.284 62.3375 27.416 62.7935 27.416ZM75.5406 19.568C75.8886 19.568 76.2066 19.634 76.4946 19.766C76.7826 19.886 77.0286 20.054 77.2326 20.27C77.4486 20.486 77.6106 20.738 77.7186 21.026C77.8386 21.314 77.8986 21.62 77.8986 21.944C77.8986 22.352 77.7906 22.766 77.5746 23.186C77.3586 23.594 77.0046 23.9 76.5126 24.104C77.0646 24.26 77.4966 24.53 77.8086 24.914C78.1326 25.286 78.2946 25.796 78.2946 26.444C78.2946 27.308 77.9946 27.95 77.3946 28.37C76.7946 28.79 75.9666 29 74.9106 29H69.9606V19.568H75.5406ZM74.4066 23.51C74.7426 23.51 75.0126 23.414 75.2166 23.222C75.4206 23.03 75.5226 22.754 75.5226 22.394C75.5226 22.094 75.4326 21.842 75.2526 21.638C75.0846 21.422 74.8266 21.314 74.4786 21.314H72.3546V23.51H74.4066ZM74.7306 27.254C75.0786 27.254 75.3546 27.14 75.5586 26.912C75.7746 26.684 75.8826 26.408 75.8826 26.084C75.8826 25.748 75.7806 25.472 75.5766 25.256C75.3726 25.028 75.0966 24.914 74.7486 24.914H72.3546V27.254H74.7306ZM82.3561 25.562L86.8201 19.568H88.6021V29H86.2081V23.168L81.7981 29H79.9621V19.568H82.3561V25.562ZM95.3961 29H93.0021V21.656H90.0501V19.568H98.3301V21.656H95.3961V29ZM99.7727 19.568H102.167V22.556H104.003C104.507 22.556 104.975 22.628 105.407 22.772C105.851 22.904 106.235 23.108 106.559 23.384C106.883 23.648 107.135 23.984 107.315 24.392C107.507 24.788 107.603 25.244 107.603 25.76C107.603 26.288 107.513 26.756 107.333 27.164C107.153 27.56 106.907 27.896 106.595 28.172C106.283 28.448 105.911 28.658 105.479 28.802C105.059 28.934 104.597 29 104.093 29H99.7727V19.568ZM103.823 27.11C104.243 27.11 104.573 27.002 104.813 26.786C105.053 26.558 105.173 26.228 105.173 25.796C105.173 25.364 105.047 25.034 104.795 24.806C104.543 24.566 104.225 24.446 103.841 24.446H102.167V27.11H103.823Z" fill="#1C1C1C"/>
<path d="M114 22L118 25L114 28" stroke="#1C1C1C"/>
</svg>
