<svg width="70" height="70" viewBox="0 0 70 70" fill="none" xmlns="http://www.w3.org/2000/svg">
<path d="M59.7488 10.2513C53.1381 3.64068 44.3488 0 35 0C25.6512 0 16.8619 3.64068 10.2512 10.2513C3.64068 16.8619 0 25.6512 0 35C0 44.3488 3.64068 53.1381 10.2512 59.7487C16.8619 66.3593 25.6512 70 35 70C44.3488 70 53.1381 66.3593 59.7488 59.7487C66.3593 53.1381 70 44.3488 70 35C70 25.6512 66.3593 16.8619 59.7488 10.2513ZM30.8984 51.4746C30.8984 49.213 32.7384 47.373 35 47.373C37.2616 47.373 39.1016 49.213 39.1016 51.4746C39.1016 53.7362 37.2616 55.5762 35 55.5762C32.7384 55.5762 30.8984 53.7362 30.8984 51.4746ZM35.4 65.8934C43.7474 65.6813 50.4492 58.8477 50.4492 50.4492C50.4492 41.9169 43.5323 35 35 35C26.4677 35 19.5508 28.0831 19.5508 19.5508C19.5508 11.1519 26.7285 4.10156 35 4.10156C52.0375 4.10156 65.8984 17.9625 65.8984 35C65.8984 51.9038 52.2536 65.6782 35.4 65.8934Z" fill="url(#paint0_linear_1_2129)"/>
<defs>
<linearGradient id="paint0_linear_1_2129" x1="3.16882" y1="26.6227" x2="74.85" y2="45.4638" gradientUnits="userSpaceOnUse">
<stop stop-color="#ACFA49"/>
<stop offset="0.863856" stop-color="#90D638"/>
</linearGradient>
</defs>
</svg>
