<svg width="378" height="295" viewBox="0 0 378 295" fill="none" xmlns="http://www.w3.org/2000/svg">
<g filter="url(#filter0_d_1_2278)">
<path fill-rule="evenodd" clip-rule="evenodd" d="M42 2C19.9086 2 2 19.9086 2 42V147C2 169.091 19.9086 187 42 187H246.48L280.164 216.315L263.585 242.15L350 286L292.748 233.052L326.386 207.024L318.169 187H329C351.091 187 369 169.091 369 147V42C369 19.9086 351.091 2 329 2H42Z" fill="white"/>
<path d="M246.48 187L247.464 185.868L247.041 185.5H246.48V187ZM280.164 216.315L281.427 217.125L282.127 216.034L281.149 215.183L280.164 216.315ZM263.585 242.15L262.322 241.34L261.426 242.737L262.906 243.488L263.585 242.15ZM350 286L349.321 287.338L351.018 284.899L350 286ZM292.748 233.052L291.83 231.866L290.429 232.95L291.73 234.153L292.748 233.052ZM326.386 207.024L327.304 208.21L328.208 207.511L327.774 206.454L326.386 207.024ZM318.169 187V185.5H315.932L316.781 187.569L318.169 187ZM3.5 42C3.5 20.737 20.737 3.5 42 3.5V0.5C19.0802 0.5 0.5 19.0802 0.5 42H3.5ZM3.5 147V42H0.5V147H3.5ZM42 185.5C20.737 185.5 3.5 168.263 3.5 147H0.5C0.5 169.92 19.0802 188.5 42 188.5V185.5ZM246.48 185.5H42V188.5H246.48V185.5ZM281.149 215.183L247.464 185.868L245.495 188.132L279.18 217.446L281.149 215.183ZM264.847 242.96L281.427 217.125L278.902 215.505L262.322 241.34L264.847 242.96ZM350.679 284.662L264.263 240.813L262.906 243.488L349.321 287.338L350.679 284.662ZM291.73 234.153L348.982 287.101L351.018 284.899L293.767 231.951L291.73 234.153ZM325.469 205.837L291.83 231.866L293.666 234.238L327.304 208.21L325.469 205.837ZM316.781 187.569L324.999 207.593L327.774 206.454L319.557 186.431L316.781 187.569ZM329 185.5H318.169V188.5H329V185.5ZM367.5 147C367.5 168.263 350.263 185.5 329 185.5V188.5C351.92 188.5 370.5 169.92 370.5 147H367.5ZM367.5 42V147H370.5V42H367.5ZM329 3.5C350.263 3.5 367.5 20.737 367.5 42H370.5C370.5 19.0802 351.92 0.5 329 0.5V3.5ZM42 3.5H329V0.5H42V3.5Z" fill="black"/>
</g>
<path d="M53.5833 45.22H64.1133V58H61.6473V47.398H56.0493V58H53.5833V45.22ZM70.8524 58.18C70.0844 58.18 69.3944 58.048 68.7824 57.784C68.1704 57.52 67.6484 57.166 67.2164 56.722C66.7964 56.266 66.4724 55.744 66.2444 55.156C66.0164 54.568 65.9024 53.95 65.9024 53.302C65.9024 52.642 66.0164 52.018 66.2444 51.43C66.4724 50.842 66.7964 50.326 67.2164 49.882C67.6484 49.426 68.1704 49.066 68.7824 48.802C69.3944 48.538 70.0844 48.406 70.8524 48.406C71.6204 48.406 72.3044 48.538 72.9044 48.802C73.5164 49.066 74.0324 49.426 74.4524 49.882C74.8844 50.326 75.2144 50.842 75.4424 51.43C75.6704 52.018 75.7844 52.642 75.7844 53.302C75.7844 53.95 75.6704 54.568 75.4424 55.156C75.2144 55.744 74.8904 56.266 74.4704 56.722C74.0504 57.166 73.5344 57.52 72.9224 57.784C72.3104 58.048 71.6204 58.18 70.8524 58.18ZM68.3864 53.302C68.3864 53.722 68.4464 54.106 68.5664 54.454C68.6984 54.79 68.8724 55.084 69.0884 55.336C69.3164 55.588 69.5804 55.786 69.8804 55.93C70.1804 56.062 70.5044 56.128 70.8524 56.128C71.2004 56.128 71.5244 56.062 71.8244 55.93C72.1244 55.786 72.3824 55.588 72.5984 55.336C72.8264 55.084 73.0004 54.784 73.1204 54.436C73.2524 54.088 73.3184 53.704 73.3184 53.284C73.3184 52.876 73.2524 52.498 73.1204 52.15C73.0004 51.802 72.8264 51.502 72.5984 51.25C72.3824 50.998 72.1244 50.806 71.8244 50.674C71.5244 50.53 71.2004 50.458 70.8524 50.458C70.5044 50.458 70.1804 50.53 69.8804 50.674C69.5804 50.818 69.3164 51.016 69.0884 51.268C68.8724 51.52 68.6984 51.82 68.5664 52.168C68.4464 52.516 68.3864 52.894 68.3864 53.302ZM76.8185 53.284C76.8185 52.624 76.9325 52 77.1605 51.412C77.3885 50.824 77.7185 50.308 78.1505 49.864C78.5825 49.42 79.1045 49.066 79.7165 48.802C80.3285 48.538 81.0185 48.406 81.7865 48.406C82.8185 48.406 83.6945 48.628 84.4145 49.072C85.1465 49.516 85.6925 50.098 86.0525 50.818L83.6945 51.538C83.4905 51.19 83.2205 50.926 82.8845 50.746C82.5485 50.554 82.1765 50.458 81.7685 50.458C81.4205 50.458 81.0965 50.53 80.7965 50.674C80.4965 50.806 80.2325 50.998 80.0045 51.25C79.7885 51.49 79.6145 51.784 79.4825 52.132C79.3625 52.48 79.3025 52.864 79.3025 53.284C79.3025 53.704 79.3685 54.088 79.5005 54.436C79.6325 54.784 79.8065 55.084 80.0225 55.336C80.2505 55.588 80.5145 55.786 80.8145 55.93C81.1145 56.062 81.4325 56.128 81.7685 56.128C82.2005 56.128 82.5965 56.02 82.9565 55.804C83.3285 55.588 83.5865 55.324 83.7305 55.012L86.0885 55.732C85.7645 56.452 85.2305 57.04 84.4865 57.496C83.7425 57.952 82.8485 58.18 81.8045 58.18C81.0365 58.18 80.3465 58.048 79.7345 57.784C79.1225 57.52 78.6005 57.166 78.1685 56.722C77.7365 56.266 77.4005 55.744 77.1605 55.156C76.9325 54.556 76.8185 53.932 76.8185 53.284ZM91.8411 58.18C91.0851 58.18 90.4011 58.054 89.7891 57.802C89.1771 57.538 88.6551 57.184 88.2231 56.74C87.7911 56.296 87.4551 55.78 87.2151 55.192C86.9871 54.604 86.8731 53.986 86.8731 53.338C86.8731 52.666 86.9871 52.036 87.2151 51.448C87.4431 50.848 87.7731 50.326 88.2051 49.882C88.6371 49.426 89.1591 49.066 89.7711 48.802C90.3951 48.538 91.0911 48.406 91.8591 48.406C92.6271 48.406 93.3111 48.538 93.9111 48.802C94.5231 49.066 95.0391 49.42 95.4591 49.864C95.8911 50.308 96.2151 50.824 96.4311 51.412C96.6591 52 96.7731 52.612 96.7731 53.248C96.7731 53.404 96.7671 53.554 96.7551 53.698C96.7551 53.842 96.7431 53.962 96.7191 54.058H89.4291C89.4651 54.43 89.5551 54.76 89.6991 55.048C89.8431 55.336 90.0291 55.582 90.2571 55.786C90.4851 55.99 90.7431 56.146 91.0311 56.254C91.3191 56.362 91.6191 56.416 91.9311 56.416C92.4111 56.416 92.8611 56.302 93.2811 56.074C93.7131 55.834 94.0071 55.522 94.1631 55.138L96.2331 55.714C95.8851 56.434 95.3271 57.028 94.5591 57.496C93.8031 57.952 92.8971 58.18 91.8411 58.18ZM94.2891 52.492C94.2291 51.784 93.9651 51.22 93.4971 50.8C93.0411 50.368 92.4831 50.152 91.8231 50.152C91.4991 50.152 91.1931 50.212 90.9051 50.332C90.6291 50.44 90.3831 50.596 90.1671 50.8C89.9511 51.004 89.7711 51.25 89.6271 51.538C89.4951 51.826 89.4171 52.144 89.3931 52.492H94.2891ZM102.392 58H99.9982V50.656H97.0462V48.568H105.326V50.656H102.392V58ZM109.163 54.562L113.627 48.568H115.409V58H113.015V52.168L108.605 58H106.769V48.568H109.163V54.562ZM122.203 58H119.809V50.656H116.857V48.568H125.137V50.656H122.203V58ZM130.46 58.18C129.704 58.18 129.02 58.054 128.408 57.802C127.796 57.538 127.274 57.184 126.842 56.74C126.41 56.296 126.074 55.78 125.834 55.192C125.606 54.604 125.492 53.986 125.492 53.338C125.492 52.666 125.606 52.036 125.834 51.448C126.062 50.848 126.392 50.326 126.824 49.882C127.256 49.426 127.778 49.066 128.39 48.802C129.014 48.538 129.71 48.406 130.478 48.406C131.246 48.406 131.93 48.538 132.53 48.802C133.142 49.066 133.658 49.42 134.078 49.864C134.51 50.308 134.834 50.824 135.05 51.412C135.278 52 135.392 52.612 135.392 53.248C135.392 53.404 135.386 53.554 135.374 53.698C135.374 53.842 135.362 53.962 135.338 54.058H128.048C128.084 54.43 128.174 54.76 128.318 55.048C128.462 55.336 128.648 55.582 128.876 55.786C129.104 55.99 129.362 56.146 129.65 56.254C129.938 56.362 130.238 56.416 130.55 56.416C131.03 56.416 131.48 56.302 131.9 56.074C132.332 55.834 132.626 55.522 132.782 55.138L134.852 55.714C134.504 56.434 133.946 57.028 133.178 57.496C132.422 57.952 131.516 58.18 130.46 58.18ZM132.908 52.492C132.848 51.784 132.584 51.22 132.116 50.8C131.66 50.368 131.102 50.152 130.442 50.152C130.118 50.152 129.812 50.212 129.524 50.332C129.248 50.44 129.002 50.596 128.786 50.8C128.57 51.004 128.39 51.25 128.246 51.538C128.114 51.826 128.036 52.144 128.012 52.492H132.908ZM143.616 52.132H147.36V48.568H149.754V58H147.36V54.184H143.616V58H141.222V48.568H143.616V52.132ZM154.535 58.18C154.079 58.18 153.653 58.108 153.257 57.964C152.861 57.808 152.519 57.598 152.231 57.334C151.943 57.058 151.715 56.74 151.547 56.38C151.391 56.02 151.313 55.624 151.313 55.192C151.313 54.748 151.409 54.34 151.601 53.968C151.805 53.584 152.081 53.26 152.429 52.996C152.789 52.732 153.215 52.528 153.707 52.384C154.199 52.228 154.739 52.15 155.327 52.15C155.747 52.15 156.155 52.186 156.551 52.258C156.959 52.33 157.319 52.432 157.631 52.564V52.024C157.631 51.4 157.451 50.92 157.091 50.584C156.743 50.248 156.221 50.08 155.525 50.08C155.021 50.08 154.529 50.17 154.049 50.35C153.569 50.53 153.077 50.794 152.573 51.142L151.835 49.612C153.047 48.808 154.355 48.406 155.759 48.406C157.115 48.406 158.165 48.742 158.909 49.414C159.665 50.074 160.043 51.034 160.043 52.294V55.228C160.043 55.48 160.085 55.66 160.169 55.768C160.265 55.876 160.415 55.936 160.619 55.948V58C160.211 58.084 159.857 58.126 159.557 58.126C159.101 58.126 158.747 58.024 158.495 57.82C158.255 57.616 158.105 57.346 158.045 57.01L157.991 56.488C157.571 57.04 157.061 57.46 156.461 57.748C155.861 58.036 155.219 58.18 154.535 58.18ZM155.219 56.416C155.627 56.416 156.011 56.344 156.371 56.2C156.743 56.056 157.031 55.864 157.235 55.624C157.499 55.42 157.631 55.192 157.631 54.94V53.86C157.343 53.752 157.031 53.668 156.695 53.608C156.359 53.536 156.035 53.5 155.723 53.5C155.099 53.5 154.589 53.644 154.193 53.932C153.797 54.208 153.599 54.562 153.599 54.994C153.599 55.402 153.755 55.744 154.067 56.02C154.379 56.284 154.763 56.416 155.219 56.416ZM162.368 58V48.568H164.762V55.912H167.39V48.568H169.784V55.912H172.412V48.568H174.806V58H162.368ZM179.475 54.562L183.939 48.568H185.721V58H183.327V52.168L178.917 58H177.081V48.568H179.475V54.562ZM193.78 48.568L195.813 51.52L195.958 51.844L196.138 51.52L198.154 48.568H200.638L197.272 53.302L200.691 58H198.208L196.12 55.066L195.958 54.76L195.813 55.066L193.744 58H191.26L194.662 53.302L191.314 48.568H193.78ZM207.536 58.18C206.792 58.18 206.144 58.018 205.592 57.694C205.04 57.358 204.608 56.908 204.296 56.344V61.834H201.884V48.568H203.99V50.188C204.338 49.636 204.788 49.204 205.34 48.892C205.892 48.568 206.528 48.406 207.248 48.406C207.884 48.406 208.472 48.538 209.012 48.802C209.552 49.054 210.014 49.402 210.398 49.846C210.794 50.278 211.1 50.794 211.316 51.394C211.544 51.982 211.658 52.606 211.658 53.266C211.658 53.95 211.556 54.592 211.352 55.192C211.148 55.792 210.86 56.314 210.488 56.758C210.128 57.202 209.696 57.55 209.192 57.802C208.688 58.054 208.136 58.18 207.536 58.18ZM206.726 56.128C207.086 56.128 207.416 56.05 207.716 55.894C208.028 55.738 208.292 55.528 208.508 55.264C208.724 55 208.892 54.694 209.012 54.346C209.132 53.998 209.192 53.638 209.192 53.266C209.192 52.87 209.126 52.504 208.994 52.168C208.862 51.82 208.676 51.52 208.436 51.268C208.208 51.016 207.932 50.818 207.608 50.674C207.296 50.53 206.954 50.458 206.582 50.458C206.354 50.458 206.12 50.5 205.88 50.584C205.64 50.656 205.418 50.764 205.214 50.908C205.01 51.052 204.824 51.22 204.656 51.412C204.5 51.604 204.38 51.814 204.296 52.042V54.256C204.512 54.796 204.842 55.246 205.286 55.606C205.73 55.954 206.21 56.128 206.726 56.128ZM215.848 58.18C215.392 58.18 214.966 58.108 214.57 57.964C214.174 57.808 213.832 57.598 213.544 57.334C213.256 57.058 213.028 56.74 212.86 56.38C212.704 56.02 212.626 55.624 212.626 55.192C212.626 54.748 212.722 54.34 212.914 53.968C213.118 53.584 213.394 53.26 213.742 52.996C214.102 52.732 214.528 52.528 215.02 52.384C215.512 52.228 216.052 52.15 216.64 52.15C217.06 52.15 217.468 52.186 217.864 52.258C218.272 52.33 218.632 52.432 218.944 52.564V52.024C218.944 51.4 218.764 50.92 218.404 50.584C218.056 50.248 217.534 50.08 216.838 50.08C216.334 50.08 215.842 50.17 215.362 50.35C214.882 50.53 214.39 50.794 213.886 51.142L213.148 49.612C214.36 48.808 215.668 48.406 217.072 48.406C218.428 48.406 219.478 48.742 220.222 49.414C220.978 50.074 221.356 51.034 221.356 52.294V55.228C221.356 55.48 221.398 55.66 221.482 55.768C221.578 55.876 221.728 55.936 221.932 55.948V58C221.524 58.084 221.17 58.126 220.87 58.126C220.414 58.126 220.06 58.024 219.808 57.82C219.568 57.616 219.418 57.346 219.358 57.01L219.304 56.488C218.884 57.04 218.374 57.46 217.774 57.748C217.174 58.036 216.532 58.18 215.848 58.18ZM216.532 56.416C216.94 56.416 217.324 56.344 217.684 56.2C218.056 56.056 218.344 55.864 218.548 55.624C218.812 55.42 218.944 55.192 218.944 54.94V53.86C218.656 53.752 218.344 53.668 218.008 53.608C217.672 53.536 217.348 53.5 217.036 53.5C216.412 53.5 215.902 53.644 215.506 53.932C215.11 54.208 214.912 54.562 214.912 54.994C214.912 55.402 215.068 55.744 215.38 56.02C215.692 56.284 216.076 56.416 216.532 56.416ZM228.955 53.59L231.745 48.568H234.211V58H231.907V52.33L229.513 56.578H228.379L225.985 52.33V58H223.681V48.568H226.165L228.955 53.59ZM236.478 48.568H238.872V51.556H240.456C240.972 51.556 241.446 51.628 241.878 51.772C242.322 51.904 242.706 52.108 243.03 52.384C243.354 52.648 243.606 52.984 243.786 53.392C243.978 53.788 244.074 54.244 244.074 54.76C244.074 55.288 243.984 55.756 243.804 56.164C243.624 56.56 243.372 56.896 243.048 57.172C242.736 57.448 242.364 57.658 241.932 57.802C241.512 57.934 241.05 58 240.546 58H236.478V48.568ZM245.1 48.568H247.476V58H245.1V48.568ZM240.294 56.11C240.702 56.11 241.026 56.002 241.266 55.786C241.506 55.558 241.626 55.228 241.626 54.796C241.626 54.364 241.5 54.034 241.248 53.806C240.996 53.566 240.678 53.446 240.294 53.446H238.872V56.11H240.294ZM253.443 53.284C253.443 52.624 253.557 52 253.785 51.412C254.013 50.824 254.343 50.308 254.775 49.864C255.207 49.42 255.729 49.066 256.341 48.802C256.953 48.538 257.643 48.406 258.411 48.406C259.443 48.406 260.319 48.628 261.039 49.072C261.771 49.516 262.317 50.098 262.677 50.818L260.319 51.538C260.115 51.19 259.845 50.926 259.509 50.746C259.173 50.554 258.801 50.458 258.393 50.458C258.045 50.458 257.721 50.53 257.421 50.674C257.121 50.806 256.857 50.998 256.629 51.25C256.413 51.49 256.239 51.784 256.107 52.132C255.987 52.48 255.927 52.864 255.927 53.284C255.927 53.704 255.993 54.088 256.125 54.436C256.257 54.784 256.431 55.084 256.647 55.336C256.875 55.588 257.139 55.786 257.439 55.93C257.739 56.062 258.057 56.128 258.393 56.128C258.825 56.128 259.221 56.02 259.581 55.804C259.953 55.588 260.211 55.324 260.355 55.012L262.713 55.732C262.389 56.452 261.855 57.04 261.111 57.496C260.367 57.952 259.473 58.18 258.429 58.18C257.661 58.18 256.971 58.048 256.359 57.784C255.747 57.52 255.225 57.166 254.793 56.722C254.361 56.266 254.025 55.744 253.785 55.156C253.557 54.556 253.443 53.932 253.443 53.284ZM266.772 58.18C266.316 58.18 265.89 58.108 265.494 57.964C265.098 57.808 264.756 57.598 264.468 57.334C264.18 57.058 263.952 56.74 263.784 56.38C263.628 56.02 263.55 55.624 263.55 55.192C263.55 54.748 263.646 54.34 263.838 53.968C264.042 53.584 264.318 53.26 264.666 52.996C265.026 52.732 265.452 52.528 265.944 52.384C266.436 52.228 266.976 52.15 267.564 52.15C267.984 52.15 268.392 52.186 268.788 52.258C269.196 52.33 269.556 52.432 269.868 52.564V52.024C269.868 51.4 269.688 50.92 269.328 50.584C268.98 50.248 268.458 50.08 267.762 50.08C267.258 50.08 266.766 50.17 266.286 50.35C265.806 50.53 265.314 50.794 264.81 51.142L264.072 49.612C265.284 48.808 266.592 48.406 267.996 48.406C269.352 48.406 270.402 48.742 271.146 49.414C271.902 50.074 272.28 51.034 272.28 52.294V55.228C272.28 55.48 272.322 55.66 272.406 55.768C272.502 55.876 272.652 55.936 272.856 55.948V58C272.448 58.084 272.094 58.126 271.794 58.126C271.338 58.126 270.984 58.024 270.732 57.82C270.492 57.616 270.342 57.346 270.282 57.01L270.228 56.488C269.808 57.04 269.298 57.46 268.698 57.748C268.098 58.036 267.456 58.18 266.772 58.18ZM267.456 56.416C267.864 56.416 268.248 56.344 268.608 56.2C268.98 56.056 269.268 55.864 269.472 55.624C269.736 55.42 269.868 55.192 269.868 54.94V53.86C269.58 53.752 269.268 53.668 268.932 53.608C268.596 53.536 268.272 53.5 267.96 53.5C267.336 53.5 266.826 53.644 266.43 53.932C266.034 54.208 265.836 54.562 265.836 54.994C265.836 55.402 265.992 55.744 266.304 56.02C266.616 56.284 267 56.416 267.456 56.416ZM282.075 44.86C282.051 45.616 281.769 46.21 281.229 46.642C280.689 47.062 279.981 47.272 279.105 47.272C278.229 47.272 277.521 47.062 276.981 46.642C276.441 46.21 276.159 45.616 276.135 44.86H277.467C277.479 45.316 277.623 45.652 277.899 45.868C278.187 46.084 278.589 46.192 279.105 46.192C280.137 46.192 280.689 45.748 280.761 44.86H282.075ZM276.999 54.562L281.463 48.568H283.245V58H280.851V52.168L276.441 58H274.605V48.568H276.999V54.562ZM290.039 58H287.645V50.656H284.693V48.568H292.973V50.656H290.039V58ZM298.278 58.18C297.51 58.18 296.82 58.048 296.208 57.784C295.596 57.52 295.074 57.166 294.642 56.722C294.222 56.266 293.898 55.744 293.67 55.156C293.442 54.568 293.328 53.95 293.328 53.302C293.328 52.642 293.442 52.018 293.67 51.43C293.898 50.842 294.222 50.326 294.642 49.882C295.074 49.426 295.596 49.066 296.208 48.802C296.82 48.538 297.51 48.406 298.278 48.406C299.046 48.406 299.73 48.538 300.33 48.802C300.942 49.066 301.458 49.426 301.878 49.882C302.31 50.326 302.64 50.842 302.868 51.43C303.096 52.018 303.21 52.642 303.21 53.302C303.21 53.95 303.096 54.568 302.868 55.156C302.64 55.744 302.316 56.266 301.896 56.722C301.476 57.166 300.96 57.52 300.348 57.784C299.736 58.048 299.046 58.18 298.278 58.18ZM295.812 53.302C295.812 53.722 295.872 54.106 295.992 54.454C296.124 54.79 296.298 55.084 296.514 55.336C296.742 55.588 297.006 55.786 297.306 55.93C297.606 56.062 297.93 56.128 298.278 56.128C298.626 56.128 298.95 56.062 299.25 55.93C299.55 55.786 299.808 55.588 300.024 55.336C300.252 55.084 300.426 54.784 300.546 54.436C300.678 54.088 300.744 53.704 300.744 53.284C300.744 52.876 300.678 52.498 300.546 52.15C300.426 51.802 300.252 51.502 300.024 51.25C299.808 50.998 299.55 50.806 299.25 50.674C298.95 50.53 298.626 50.458 298.278 50.458C297.93 50.458 297.606 50.53 297.306 50.674C297.006 50.818 296.742 51.016 296.514 51.268C296.298 51.52 296.124 51.82 295.992 52.168C295.872 52.516 295.812 52.894 295.812 53.302ZM310.472 48.568C310.82 48.568 311.138 48.634 311.426 48.766C311.714 48.886 311.96 49.054 312.164 49.27C312.38 49.486 312.542 49.738 312.65 50.026C312.77 50.314 312.83 50.62 312.83 50.944C312.83 51.352 312.722 51.766 312.506 52.186C312.29 52.594 311.936 52.9 311.444 53.104C311.996 53.26 312.428 53.53 312.74 53.914C313.064 54.286 313.226 54.796 313.226 55.444C313.226 56.308 312.926 56.95 312.326 57.37C311.726 57.79 310.898 58 309.842 58H304.892V48.568H310.472ZM309.338 52.51C309.674 52.51 309.944 52.414 310.148 52.222C310.352 52.03 310.454 51.754 310.454 51.394C310.454 51.094 310.364 50.842 310.184 50.638C310.016 50.422 309.758 50.314 309.41 50.314H307.286V52.51H309.338ZM309.662 56.254C310.01 56.254 310.286 56.14 310.49 55.912C310.706 55.684 310.814 55.408 310.814 55.084C310.814 54.748 310.712 54.472 310.508 54.256C310.304 54.028 310.028 53.914 309.68 53.914H307.286V56.254H309.662ZM314.804 58V55.408H316.784V58H314.804ZM71.6674 79.476H72.6754L76.5634 74.22H79.3714L74.7814 80.394L79.7854 87H77.0134L72.9094 81.708H71.6674V87H69.2014V74.22H71.6674V79.476ZM83.2472 87.18C82.7912 87.18 82.3652 87.108 81.9692 86.964C81.5732 86.808 81.2312 86.598 80.9432 86.334C80.6552 86.058 80.4272 85.74 80.2592 85.38C80.1032 85.02 80.0252 84.624 80.0252 84.192C80.0252 83.748 80.1212 83.34 80.3132 82.968C80.5172 82.584 80.7932 82.26 81.1412 81.996C81.5012 81.732 81.9272 81.528 82.4192 81.384C82.9112 81.228 83.4512 81.15 84.0392 81.15C84.4592 81.15 84.8672 81.186 85.2632 81.258C85.6712 81.33 86.0312 81.432 86.3432 81.564V81.024C86.3432 80.4 86.1632 79.92 85.8032 79.584C85.4552 79.248 84.9332 79.08 84.2372 79.08C83.7332 79.08 83.2412 79.17 82.7612 79.35C82.2812 79.53 81.7892 79.794 81.2852 80.142L80.5472 78.612C81.7592 77.808 83.0672 77.406 84.4712 77.406C85.8272 77.406 86.8772 77.742 87.6212 78.414C88.3772 79.074 88.7552 80.034 88.7552 81.294V84.228C88.7552 84.48 88.7972 84.66 88.8812 84.768C88.9772 84.876 89.1272 84.936 89.3312 84.948V87C88.9232 87.084 88.5692 87.126 88.2692 87.126C87.8132 87.126 87.4592 87.024 87.2072 86.82C86.9672 86.616 86.8172 86.346 86.7572 86.01L86.7032 85.488C86.2832 86.04 85.7732 86.46 85.1732 86.748C84.5732 87.036 83.9312 87.18 83.2472 87.18ZM83.9312 85.416C84.3392 85.416 84.7232 85.344 85.0832 85.2C85.4552 85.056 85.7432 84.864 85.9472 84.624C86.2112 84.42 86.3432 84.192 86.3432 83.94V82.86C86.0552 82.752 85.7432 82.668 85.4072 82.608C85.0712 82.536 84.7472 82.5 84.4352 82.5C83.8112 82.5 83.3012 82.644 82.9052 82.932C82.5092 83.208 82.3112 83.562 82.3112 83.994C82.3112 84.402 82.4672 84.744 82.7792 85.02C83.0912 85.284 83.4752 85.416 83.9312 85.416ZM92.9523 77.568L95.2923 81.294H96.2103V77.568H98.6763V81.294H99.6123L101.934 77.568H104.652L101.61 82.122L104.94 87H102.114L99.7563 83.292H98.6763V87H96.2283V83.292H95.1303L92.7723 87H89.9463L93.2583 82.122L90.2343 77.568H92.9523ZM105.193 84.912H105.697C105.985 84.876 106.219 84.786 106.399 84.642C106.591 84.486 106.753 84.246 106.885 83.922C107.029 83.586 107.143 83.142 107.227 82.59C107.323 82.038 107.419 81.336 107.515 80.484L107.839 77.568H114.445V84.912H115.705V89.7H113.563V87H107.263V89.7H105.193V84.912ZM112.051 84.912V79.584H109.945L109.765 81.006C109.645 81.978 109.495 82.77 109.315 83.382C109.147 83.994 108.931 84.504 108.667 84.912H112.051ZM117.377 77.568H119.771V80.556H121.355C121.871 80.556 122.345 80.628 122.777 80.772C123.221 80.904 123.605 81.108 123.929 81.384C124.253 81.648 124.505 81.984 124.685 82.392C124.877 82.788 124.973 83.244 124.973 83.76C124.973 84.288 124.883 84.756 124.703 85.164C124.523 85.56 124.271 85.896 123.947 86.172C123.635 86.448 123.263 86.658 122.831 86.802C122.411 86.934 121.949 87 121.445 87H117.377V77.568ZM125.999 77.568H128.375V87H125.999V77.568ZM121.193 85.11C121.601 85.11 121.925 85.002 122.165 84.786C122.405 84.558 122.525 84.228 122.525 83.796C122.525 83.364 122.399 83.034 122.147 82.806C121.895 82.566 121.577 82.446 121.193 82.446H119.771V85.11H121.193ZM138.119 73.86C138.095 74.616 137.813 75.21 137.273 75.642C136.733 76.062 136.025 76.272 135.149 76.272C134.273 76.272 133.565 76.062 133.025 75.642C132.485 75.21 132.203 74.616 132.179 73.86H133.511C133.523 74.316 133.667 74.652 133.943 74.868C134.231 75.084 134.633 75.192 135.149 75.192C136.181 75.192 136.733 74.748 136.805 73.86H138.119ZM133.043 83.562L137.507 77.568H139.289V87H136.895V81.168L132.485 87H130.649V77.568H133.043V83.562ZM148.283 83.562L152.747 77.568H154.529V87H152.135V81.168L147.725 87H145.889V77.568H148.283V83.562ZM156.283 78.594C156.751 78.186 157.261 77.886 157.813 77.694C158.365 77.502 158.929 77.406 159.505 77.406C159.925 77.406 160.321 77.46 160.693 77.568C161.065 77.664 161.389 77.814 161.665 78.018C161.953 78.222 162.175 78.48 162.331 78.792C162.499 79.092 162.583 79.44 162.583 79.836C162.583 80.34 162.445 80.784 162.169 81.168C161.905 81.54 161.527 81.774 161.035 81.87C161.719 82.002 162.235 82.284 162.583 82.716C162.931 83.136 163.105 83.664 163.105 84.3C163.105 84.732 163.009 85.128 162.817 85.488C162.637 85.836 162.385 86.136 162.061 86.388C161.737 86.64 161.347 86.838 160.891 86.982C160.447 87.114 159.961 87.18 159.433 87.18C158.701 87.18 158.035 87.06 157.435 86.82C156.835 86.58 156.349 86.244 155.977 85.812L157.129 84.264C157.369 84.564 157.663 84.792 158.011 84.948C158.371 85.092 158.761 85.164 159.181 85.164C159.685 85.164 160.075 85.062 160.351 84.858C160.639 84.654 160.783 84.36 160.783 83.976C160.783 83.544 160.621 83.214 160.297 82.986C159.985 82.746 159.451 82.626 158.695 82.626H157.957V81.24H158.677C159.253 81.24 159.691 81.132 159.991 80.916C160.303 80.688 160.459 80.4 160.459 80.052C160.459 79.752 160.345 79.524 160.117 79.368C159.901 79.212 159.613 79.134 159.253 79.134C158.941 79.134 158.611 79.206 158.263 79.35C157.915 79.482 157.597 79.68 157.309 79.944L156.283 78.594ZM171.451 81.132H175.195V77.568H177.589V87H175.195V83.184H171.451V87H169.057V77.568H171.451V81.132ZM182.226 83.562L186.69 77.568H188.472V87H186.078V81.168L181.668 87H179.832V77.568H182.226V83.562ZM192.206 77.568L194.24 80.52L194.384 80.844L194.564 80.52L196.58 77.568H199.064L195.698 82.302L199.118 87H196.634L194.546 84.066L194.384 83.76L194.24 84.066L192.17 87H189.686L193.088 82.302L189.74 77.568H192.206ZM204.869 88.692C205.073 88.812 205.265 88.896 205.445 88.944C205.637 88.992 205.817 89.016 205.985 89.016C206.285 89.016 206.543 88.866 206.759 88.566C206.975 88.278 207.167 87.756 207.335 87L203.609 77.568H206.093L208.649 84.912L210.917 77.568H213.185L209.477 88.224C209.117 89.256 208.673 89.994 208.145 90.438C207.629 90.882 206.993 91.104 206.237 91.104C205.961 91.104 205.715 91.08 205.499 91.032C205.283 90.984 205.073 90.894 204.869 90.762V88.692ZM216.925 81.132H220.669V77.568H223.063V87H220.669V83.184H216.925V87H214.531V77.568H216.925V81.132ZM227.701 83.562L232.165 77.568H233.947V87H231.553V81.168L227.143 87H225.307V77.568H227.701V83.562ZM242.001 77.568H244.593L240.921 82.14L244.881 87H242.145L239.229 83.364H238.599V87H236.223V77.568H238.599V81.312H239.139L242.001 77.568ZM248.376 87.18C247.92 87.18 247.494 87.108 247.098 86.964C246.702 86.808 246.36 86.598 246.072 86.334C245.784 86.058 245.556 85.74 245.388 85.38C245.232 85.02 245.154 84.624 245.154 84.192C245.154 83.748 245.25 83.34 245.442 82.968C245.646 82.584 245.922 82.26 246.27 81.996C246.63 81.732 247.056 81.528 247.548 81.384C248.04 81.228 248.58 81.15 249.168 81.15C249.588 81.15 249.996 81.186 250.392 81.258C250.8 81.33 251.16 81.432 251.472 81.564V81.024C251.472 80.4 251.292 79.92 250.932 79.584C250.584 79.248 250.062 79.08 249.366 79.08C248.862 79.08 248.37 79.17 247.89 79.35C247.41 79.53 246.918 79.794 246.414 80.142L245.676 78.612C246.888 77.808 248.196 77.406 249.6 77.406C250.956 77.406 252.006 77.742 252.75 78.414C253.506 79.074 253.884 80.034 253.884 81.294V84.228C253.884 84.48 253.926 84.66 254.01 84.768C254.106 84.876 254.256 84.936 254.46 84.948V87C254.052 87.084 253.698 87.126 253.398 87.126C252.942 87.126 252.588 87.024 252.336 86.82C252.096 86.616 251.946 86.346 251.886 86.01L251.832 85.488C251.412 86.04 250.902 86.46 250.302 86.748C249.702 87.036 249.06 87.18 248.376 87.18ZM249.06 85.416C249.468 85.416 249.852 85.344 250.212 85.2C250.584 85.056 250.872 84.864 251.076 84.624C251.34 84.42 251.472 84.192 251.472 83.94V82.86C251.184 82.752 250.872 82.668 250.536 82.608C250.2 82.536 249.876 82.5 249.564 82.5C248.94 82.5 248.43 82.644 248.034 82.932C247.638 83.208 247.44 83.562 247.44 83.994C247.44 84.402 247.596 84.744 247.908 85.02C248.22 85.284 248.604 85.416 249.06 85.416ZM255.219 84.948C255.567 84.924 255.849 84.852 256.065 84.732C256.293 84.612 256.479 84.39 256.623 84.066C256.779 83.742 256.905 83.298 257.001 82.734C257.109 82.158 257.217 81.408 257.325 80.484L257.649 77.568H264.255V87H261.861V79.584H259.755L259.575 81.006C259.431 82.194 259.257 83.178 259.053 83.958C258.849 84.726 258.585 85.338 258.261 85.794C257.949 86.25 257.559 86.574 257.091 86.766C256.623 86.946 256.047 87.048 255.363 87.072L255.219 84.948ZM270.866 87.18C270.11 87.18 269.426 87.054 268.814 86.802C268.202 86.538 267.68 86.184 267.248 85.74C266.816 85.296 266.48 84.78 266.24 84.192C266.012 83.604 265.898 82.986 265.898 82.338C265.898 81.666 266.012 81.036 266.24 80.448C266.468 79.848 266.798 79.326 267.23 78.882C267.662 78.426 268.184 78.066 268.796 77.802C269.42 77.538 270.116 77.406 270.884 77.406C271.652 77.406 272.336 77.538 272.936 77.802C273.548 78.066 274.064 78.42 274.484 78.864C274.916 79.308 275.24 79.824 275.456 80.412C275.684 81 275.798 81.612 275.798 82.248C275.798 82.404 275.792 82.554 275.78 82.698C275.78 82.842 275.768 82.962 275.744 83.058H268.454C268.49 83.43 268.58 83.76 268.724 84.048C268.868 84.336 269.054 84.582 269.282 84.786C269.51 84.99 269.768 85.146 270.056 85.254C270.344 85.362 270.644 85.416 270.956 85.416C271.436 85.416 271.886 85.302 272.306 85.074C272.738 84.834 273.032 84.522 273.188 84.138L275.258 84.714C274.91 85.434 274.352 86.028 273.584 86.496C272.828 86.952 271.922 87.18 270.866 87.18ZM273.314 81.492C273.254 80.784 272.99 80.22 272.522 79.8C272.066 79.368 271.508 79.152 270.848 79.152C270.524 79.152 270.218 79.212 269.93 79.332C269.654 79.44 269.408 79.596 269.192 79.8C268.976 80.004 268.796 80.25 268.652 80.538C268.52 80.826 268.442 81.144 268.418 81.492H273.314ZM279.697 81.132H283.441V77.568H285.835V87H283.441V83.184H279.697V87H277.303V77.568H279.697V81.132ZM294.797 83.562L299.261 77.568H301.043V87H298.649V81.168L294.239 87H292.403V77.568H294.797V83.562ZM60.1167 116H57.7227V108.656H54.2487V116H51.8547V106.568H60.1167V116ZM66.6864 116.18C65.9184 116.18 65.2284 116.048 64.6164 115.784C64.0044 115.52 63.4824 115.166 63.0504 114.722C62.6304 114.266 62.3064 113.744 62.0784 113.156C61.8504 112.568 61.7364 111.95 61.7364 111.302C61.7364 110.642 61.8504 110.018 62.0784 109.43C62.3064 108.842 62.6304 108.326 63.0504 107.882C63.4824 107.426 64.0044 107.066 64.6164 106.802C65.2284 106.538 65.9184 106.406 66.6864 106.406C67.4544 106.406 68.1384 106.538 68.7384 106.802C69.3504 107.066 69.8664 107.426 70.2864 107.882C70.7184 108.326 71.0484 108.842 71.2764 109.43C71.5044 110.018 71.6184 110.642 71.6184 111.302C71.6184 111.95 71.5044 112.568 71.2764 113.156C71.0484 113.744 70.7244 114.266 70.3044 114.722C69.8844 115.166 69.3684 115.52 68.7564 115.784C68.1444 116.048 67.4544 116.18 66.6864 116.18ZM64.2204 111.302C64.2204 111.722 64.2804 112.106 64.4004 112.454C64.5324 112.79 64.7064 113.084 64.9224 113.336C65.1504 113.588 65.4144 113.786 65.7144 113.93C66.0144 114.062 66.3384 114.128 66.6864 114.128C67.0344 114.128 67.3584 114.062 67.6584 113.93C67.9584 113.786 68.2164 113.588 68.4324 113.336C68.6604 113.084 68.8344 112.784 68.9544 112.436C69.0864 112.088 69.1524 111.704 69.1524 111.284C69.1524 110.876 69.0864 110.498 68.9544 110.15C68.8344 109.802 68.6604 109.502 68.4324 109.25C68.2164 108.998 67.9584 108.806 67.6584 108.674C67.3584 108.53 67.0344 108.458 66.6864 108.458C66.3384 108.458 66.0144 108.53 65.7144 108.674C65.4144 108.818 65.1504 109.016 64.9224 109.268C64.7064 109.52 64.5324 109.82 64.4004 110.168C64.2804 110.516 64.2204 110.894 64.2204 111.302ZM72.0141 113.912H72.5181C72.8061 113.876 73.0401 113.786 73.2201 113.642C73.4121 113.486 73.5741 113.246 73.7061 112.922C73.8501 112.586 73.9641 112.142 74.0481 111.59C74.1441 111.038 74.2401 110.336 74.3361 109.484L74.6601 106.568H81.2661V113.912H82.5261V118.7H80.3841V116H74.0841V118.7H72.0141V113.912ZM78.8721 113.912V108.584H76.7661L76.5861 110.006C76.4661 110.978 76.3161 111.77 76.1361 112.382C75.9681 112.994 75.7521 113.504 75.4881 113.912H78.8721ZM85.6565 106.568L87.6905 109.52L87.8345 109.844L88.0145 109.52L90.0305 106.568H92.5145L89.1485 111.302L92.5685 116H90.0845L87.9965 113.066L87.8345 112.76L87.6905 113.066L85.6205 116H83.1365L86.5385 111.302L83.1905 106.568H85.6565ZM97.6767 116.18C96.9087 116.18 96.2187 116.048 95.6067 115.784C94.9947 115.52 94.4727 115.166 94.0407 114.722C93.6207 114.266 93.2967 113.744 93.0687 113.156C92.8407 112.568 92.7267 111.95 92.7267 111.302C92.7267 110.642 92.8407 110.018 93.0687 109.43C93.2967 108.842 93.6207 108.326 94.0407 107.882C94.4727 107.426 94.9947 107.066 95.6067 106.802C96.2187 106.538 96.9087 106.406 97.6767 106.406C98.4447 106.406 99.1287 106.538 99.7287 106.802C100.341 107.066 100.857 107.426 101.277 107.882C101.709 108.326 102.039 108.842 102.267 109.43C102.495 110.018 102.609 110.642 102.609 111.302C102.609 111.95 102.495 112.568 102.267 113.156C102.039 113.744 101.715 114.266 101.295 114.722C100.875 115.166 100.359 115.52 99.7467 115.784C99.1347 116.048 98.4447 116.18 97.6767 116.18ZM95.2107 111.302C95.2107 111.722 95.2707 112.106 95.3907 112.454C95.5227 112.79 95.6967 113.084 95.9127 113.336C96.1407 113.588 96.4047 113.786 96.7047 113.93C97.0047 114.062 97.3287 114.128 97.6767 114.128C98.0247 114.128 98.3487 114.062 98.6487 113.93C98.9487 113.786 99.2067 113.588 99.4227 113.336C99.6507 113.084 99.8247 112.784 99.9447 112.436C100.077 112.088 100.143 111.704 100.143 111.284C100.143 110.876 100.077 110.498 99.9447 110.15C99.8247 109.802 99.6507 109.502 99.4227 109.25C99.2067 108.998 98.9487 108.806 98.6487 108.674C98.3487 108.53 98.0247 108.458 97.6767 108.458C97.3287 108.458 97.0047 108.53 96.7047 108.674C96.4047 108.818 96.1407 109.016 95.9127 109.268C95.6967 109.52 95.5227 109.82 95.3907 110.168C95.2707 110.516 95.2107 110.894 95.2107 111.302ZM103.004 113.912H103.508C103.796 113.876 104.03 113.786 104.21 113.642C104.402 113.486 104.564 113.246 104.696 112.922C104.84 112.586 104.954 112.142 105.038 111.59C105.134 111.038 105.23 110.336 105.326 109.484L105.65 106.568H112.256V113.912H113.516V118.7H111.374V116H105.074V118.7H103.004V113.912ZM109.862 113.912V108.584H107.756L107.576 110.006C107.456 110.978 107.306 111.77 107.126 112.382C106.958 112.994 106.742 113.504 106.478 113.912H109.862ZM117.583 112.562L122.047 106.568H123.829V116H121.435V110.168L117.025 116H115.189V106.568H117.583V112.562ZM130.623 116H128.229V108.656H125.277V106.568H133.557V108.656H130.623V116ZM143.841 116H141.447V108.656H138.495V106.568H146.775V108.656H143.841V116ZM152.081 116.18C151.313 116.18 150.623 116.048 150.011 115.784C149.399 115.52 148.877 115.166 148.445 114.722C148.025 114.266 147.701 113.744 147.473 113.156C147.245 112.568 147.131 111.95 147.131 111.302C147.131 110.642 147.245 110.018 147.473 109.43C147.701 108.842 148.025 108.326 148.445 107.882C148.877 107.426 149.399 107.066 150.011 106.802C150.623 106.538 151.313 106.406 152.081 106.406C152.849 106.406 153.533 106.538 154.133 106.802C154.745 107.066 155.261 107.426 155.681 107.882C156.113 108.326 156.443 108.842 156.671 109.43C156.899 110.018 157.013 110.642 157.013 111.302C157.013 111.95 156.899 112.568 156.671 113.156C156.443 113.744 156.119 114.266 155.699 114.722C155.279 115.166 154.763 115.52 154.151 115.784C153.539 116.048 152.849 116.18 152.081 116.18ZM149.615 111.302C149.615 111.722 149.675 112.106 149.795 112.454C149.927 112.79 150.101 113.084 150.317 113.336C150.545 113.588 150.809 113.786 151.109 113.93C151.409 114.062 151.733 114.128 152.081 114.128C152.429 114.128 152.753 114.062 153.053 113.93C153.353 113.786 153.611 113.588 153.827 113.336C154.055 113.084 154.229 112.784 154.349 112.436C154.481 112.088 154.547 111.704 154.547 111.284C154.547 110.876 154.481 110.498 154.349 110.15C154.229 109.802 154.055 109.502 153.827 109.25C153.611 108.998 153.353 108.806 153.053 108.674C152.753 108.53 152.429 108.458 152.081 108.458C151.733 108.458 151.409 108.53 151.109 108.674C150.809 108.818 150.545 109.016 150.317 109.268C150.101 109.52 149.927 109.82 149.795 110.168C149.675 110.516 149.615 110.894 149.615 111.302ZM157.458 113.948C157.806 113.924 158.088 113.852 158.304 113.732C158.532 113.612 158.718 113.39 158.862 113.066C159.018 112.742 159.144 112.298 159.24 111.734C159.348 111.158 159.456 110.408 159.564 109.484L159.888 106.568H166.494V116H164.1V108.584H161.994L161.814 110.006C161.67 111.194 161.496 112.178 161.292 112.958C161.088 113.726 160.824 114.338 160.5 114.794C160.188 115.25 159.798 115.574 159.33 115.766C158.862 115.946 158.286 116.048 157.602 116.072L157.458 113.948ZM168.767 106.568H171.161V109.556H172.997C173.501 109.556 173.969 109.628 174.401 109.772C174.845 109.904 175.229 110.108 175.553 110.384C175.877 110.648 176.129 110.984 176.309 111.392C176.501 111.788 176.597 112.244 176.597 112.76C176.597 113.288 176.507 113.756 176.327 114.164C176.147 114.56 175.901 114.896 175.589 115.172C175.277 115.448 174.905 115.658 174.473 115.802C174.053 115.934 173.591 116 173.087 116H168.767V106.568ZM172.817 114.11C173.237 114.11 173.567 114.002 173.807 113.786C174.047 113.558 174.167 113.228 174.167 112.796C174.167 112.364 174.041 112.034 173.789 111.806C173.537 111.566 173.219 111.446 172.835 111.446H171.161V114.11H172.817ZM183.861 106.568H186.453L182.781 111.14L186.741 116H184.005L181.089 112.364H180.459V116H178.083V106.568H180.459V110.312H180.999L183.861 106.568ZM191.755 116.18C190.987 116.18 190.297 116.048 189.685 115.784C189.073 115.52 188.551 115.166 188.119 114.722C187.699 114.266 187.375 113.744 187.147 113.156C186.919 112.568 186.805 111.95 186.805 111.302C186.805 110.642 186.919 110.018 187.147 109.43C187.375 108.842 187.699 108.326 188.119 107.882C188.551 107.426 189.073 107.066 189.685 106.802C190.297 106.538 190.987 106.406 191.755 106.406C192.523 106.406 193.207 106.538 193.807 106.802C194.419 107.066 194.935 107.426 195.355 107.882C195.787 108.326 196.117 108.842 196.345 109.43C196.573 110.018 196.687 110.642 196.687 111.302C196.687 111.95 196.573 112.568 196.345 113.156C196.117 113.744 195.793 114.266 195.373 114.722C194.953 115.166 194.437 115.52 193.825 115.784C193.213 116.048 192.523 116.18 191.755 116.18ZM189.289 111.302C189.289 111.722 189.349 112.106 189.469 112.454C189.601 112.79 189.775 113.084 189.991 113.336C190.219 113.588 190.483 113.786 190.783 113.93C191.083 114.062 191.407 114.128 191.755 114.128C192.103 114.128 192.427 114.062 192.727 113.93C193.027 113.786 193.285 113.588 193.501 113.336C193.729 113.084 193.903 112.784 194.023 112.436C194.155 112.088 194.221 111.704 194.221 111.284C194.221 110.876 194.155 110.498 194.023 110.15C193.903 109.802 193.729 109.502 193.501 109.25C193.285 108.998 193.027 108.806 192.727 108.674C192.427 108.53 192.103 108.458 191.755 108.458C191.407 108.458 191.083 108.53 190.783 108.674C190.483 108.818 190.219 109.016 189.991 109.268C189.775 109.52 189.601 109.82 189.469 110.168C189.349 110.516 189.289 110.894 189.289 111.302ZM201.811 113.912H202.315C202.603 113.876 202.837 113.786 203.017 113.642C203.209 113.486 203.371 113.246 203.503 112.922C203.647 112.586 203.761 112.142 203.845 111.59C203.941 111.038 204.037 110.336 204.133 109.484L204.457 106.568H211.063V113.912H212.323V118.7H210.181V116H203.881V118.7H201.811V113.912ZM208.669 113.912V108.584H206.563L206.383 110.006C206.263 110.978 206.113 111.77 205.933 112.382C205.765 112.994 205.549 113.504 205.285 113.912H208.669ZM213.005 113.948C213.353 113.924 213.635 113.852 213.851 113.732C214.079 113.612 214.265 113.39 214.409 113.066C214.565 112.742 214.691 112.298 214.787 111.734C214.895 111.158 215.003 110.408 215.111 109.484L215.435 106.568H222.041V116H219.647V108.584H217.541L217.361 110.006C217.217 111.194 217.043 112.178 216.839 112.958C216.635 113.726 216.371 114.338 216.047 114.794C215.735 115.25 215.345 115.574 214.877 115.766C214.409 115.946 213.833 116.048 213.149 116.072L213.005 113.948ZM225.916 112.418C225.352 112.214 224.908 111.89 224.584 111.446C224.26 111.002 224.098 110.42 224.098 109.7C224.098 109.22 224.182 108.788 224.35 108.404C224.518 108.008 224.752 107.678 225.052 107.414C225.352 107.138 225.706 106.928 226.114 106.784C226.534 106.628 226.984 106.55 227.464 106.55H231.748V116H229.372V112.814H228.094L226.132 116H223.54L225.916 112.418ZM229.372 110.978V108.458H227.752C227.44 108.458 227.158 108.572 226.906 108.8C226.654 109.016 226.528 109.328 226.528 109.736C226.528 110.12 226.642 110.426 226.87 110.654C227.11 110.87 227.392 110.978 227.716 110.978H229.372ZM244.119 106.568H246.711L243.039 111.14L246.999 116H244.263L241.347 112.364H240.717V116H238.341V106.568H240.717V110.312H241.257L244.119 106.568ZM250.494 116.18C250.038 116.18 249.612 116.108 249.216 115.964C248.82 115.808 248.478 115.598 248.19 115.334C247.902 115.058 247.674 114.74 247.506 114.38C247.35 114.02 247.272 113.624 247.272 113.192C247.272 112.748 247.368 112.34 247.56 111.968C247.764 111.584 248.04 111.26 248.388 110.996C248.748 110.732 249.174 110.528 249.666 110.384C250.158 110.228 250.698 110.15 251.286 110.15C251.706 110.15 252.114 110.186 252.51 110.258C252.918 110.33 253.278 110.432 253.59 110.564V110.024C253.59 109.4 253.41 108.92 253.05 108.584C252.702 108.248 252.18 108.08 251.484 108.08C250.98 108.08 250.488 108.17 250.008 108.35C249.528 108.53 249.036 108.794 248.532 109.142L247.794 107.612C249.006 106.808 250.314 106.406 251.718 106.406C253.074 106.406 254.124 106.742 254.868 107.414C255.624 108.074 256.002 109.034 256.002 110.294V113.228C256.002 113.48 256.044 113.66 256.128 113.768C256.224 113.876 256.374 113.936 256.578 113.948V116C256.17 116.084 255.816 116.126 255.516 116.126C255.06 116.126 254.706 116.024 254.454 115.82C254.214 115.616 254.064 115.346 254.004 115.01L253.95 114.488C253.53 115.04 253.02 115.46 252.42 115.748C251.82 116.036 251.178 116.18 250.494 116.18ZM251.178 114.416C251.586 114.416 251.97 114.344 252.33 114.2C252.702 114.056 252.99 113.864 253.194 113.624C253.458 113.42 253.59 113.192 253.59 112.94V111.86C253.302 111.752 252.99 111.668 252.654 111.608C252.318 111.536 251.994 111.5 251.682 111.5C251.058 111.5 250.548 111.644 250.152 111.932C249.756 112.208 249.558 112.562 249.558 112.994C249.558 113.402 249.714 113.744 250.026 114.02C250.338 114.284 250.722 114.416 251.178 114.416ZM264.105 106.568H266.697L263.025 111.14L266.985 116H264.249L261.333 112.364H260.703V116H258.327V106.568H260.703V110.312H261.243L264.105 106.568ZM271.999 116.18C271.231 116.18 270.541 116.048 269.929 115.784C269.317 115.52 268.795 115.166 268.363 114.722C267.943 114.266 267.619 113.744 267.391 113.156C267.163 112.568 267.049 111.95 267.049 111.302C267.049 110.642 267.163 110.018 267.391 109.43C267.619 108.842 267.943 108.326 268.363 107.882C268.795 107.426 269.317 107.066 269.929 106.802C270.541 106.538 271.231 106.406 271.999 106.406C272.767 106.406 273.451 106.538 274.051 106.802C274.663 107.066 275.179 107.426 275.599 107.882C276.031 108.326 276.361 108.842 276.589 109.43C276.817 110.018 276.931 110.642 276.931 111.302C276.931 111.95 276.817 112.568 276.589 113.156C276.361 113.744 276.037 114.266 275.617 114.722C275.197 115.166 274.681 115.52 274.069 115.784C273.457 116.048 272.767 116.18 271.999 116.18ZM269.533 111.302C269.533 111.722 269.593 112.106 269.713 112.454C269.845 112.79 270.019 113.084 270.235 113.336C270.463 113.588 270.727 113.786 271.027 113.93C271.327 114.062 271.651 114.128 271.999 114.128C272.347 114.128 272.671 114.062 272.971 113.93C273.271 113.786 273.529 113.588 273.745 113.336C273.973 113.084 274.147 112.784 274.267 112.436C274.399 112.088 274.465 111.704 274.465 111.284C274.465 110.876 274.399 110.498 274.267 110.15C274.147 109.802 273.973 109.502 273.745 109.25C273.529 108.998 273.271 108.806 272.971 108.674C272.671 108.53 272.347 108.458 271.999 108.458C271.651 108.458 271.327 108.53 271.027 108.674C270.727 108.818 270.463 109.016 270.235 109.268C270.019 109.52 269.845 109.82 269.713 110.168C269.593 110.516 269.533 110.894 269.533 111.302ZM284.931 108.566H280.989V116H278.595V106.568H284.931V108.566ZM290.14 116.18C289.372 116.18 288.682 116.048 288.07 115.784C287.458 115.52 286.936 115.166 286.504 114.722C286.084 114.266 285.76 113.744 285.532 113.156C285.304 112.568 285.19 111.95 285.19 111.302C285.19 110.642 285.304 110.018 285.532 109.43C285.76 108.842 286.084 108.326 286.504 107.882C286.936 107.426 287.458 107.066 288.07 106.802C288.682 106.538 289.372 106.406 290.14 106.406C290.908 106.406 291.592 106.538 292.192 106.802C292.804 107.066 293.32 107.426 293.74 107.882C294.172 108.326 294.502 108.842 294.73 109.43C294.958 110.018 295.072 110.642 295.072 111.302C295.072 111.95 294.958 112.568 294.73 113.156C294.502 113.744 294.178 114.266 293.758 114.722C293.338 115.166 292.822 115.52 292.21 115.784C291.598 116.048 290.908 116.18 290.14 116.18ZM287.674 111.302C287.674 111.722 287.734 112.106 287.854 112.454C287.986 112.79 288.16 113.084 288.376 113.336C288.604 113.588 288.868 113.786 289.168 113.93C289.468 114.062 289.792 114.128 290.14 114.128C290.488 114.128 290.812 114.062 291.112 113.93C291.412 113.786 291.67 113.588 291.886 113.336C292.114 113.084 292.288 112.784 292.408 112.436C292.54 112.088 292.606 111.704 292.606 111.284C292.606 110.876 292.54 110.498 292.408 110.15C292.288 109.802 292.114 109.502 291.886 109.25C291.67 108.998 291.412 108.806 291.112 108.674C290.812 108.53 290.488 108.458 290.14 108.458C289.792 108.458 289.468 108.53 289.168 108.674C288.868 108.818 288.604 109.016 288.376 109.268C288.16 109.52 287.986 109.82 287.854 110.168C287.734 110.516 287.674 110.894 287.674 111.302ZM305.578 116H303.184V108.656H300.232V106.568H308.512V108.656H305.578V116ZM313.817 116.18C313.049 116.18 312.359 116.048 311.747 115.784C311.135 115.52 310.613 115.166 310.181 114.722C309.761 114.266 309.437 113.744 309.209 113.156C308.981 112.568 308.867 111.95 308.867 111.302C308.867 110.642 308.981 110.018 309.209 109.43C309.437 108.842 309.761 108.326 310.181 107.882C310.613 107.426 311.135 107.066 311.747 106.802C312.359 106.538 313.049 106.406 313.817 106.406C314.585 106.406 315.269 106.538 315.869 106.802C316.481 107.066 316.997 107.426 317.417 107.882C317.849 108.326 318.179 108.842 318.407 109.43C318.635 110.018 318.749 110.642 318.749 111.302C318.749 111.95 318.635 112.568 318.407 113.156C318.179 113.744 317.855 114.266 317.435 114.722C317.015 115.166 316.499 115.52 315.887 115.784C315.275 116.048 314.585 116.18 313.817 116.18ZM311.351 111.302C311.351 111.722 311.411 112.106 311.531 112.454C311.663 112.79 311.837 113.084 312.053 113.336C312.281 113.588 312.545 113.786 312.845 113.93C313.145 114.062 313.469 114.128 313.817 114.128C314.165 114.128 314.489 114.062 314.789 113.93C315.089 113.786 315.347 113.588 315.563 113.336C315.791 113.084 315.965 112.784 316.085 112.436C316.217 112.088 316.283 111.704 316.283 111.284C316.283 110.876 316.217 110.498 316.085 110.15C315.965 109.802 315.791 109.502 315.563 109.25C315.347 108.998 315.089 108.806 314.789 108.674C314.489 108.53 314.165 108.458 313.817 108.458C313.469 108.458 313.145 108.53 312.845 108.674C312.545 108.818 312.281 109.016 312.053 109.268C311.837 109.52 311.663 109.82 311.531 110.168C311.411 110.516 311.351 110.894 311.351 111.302ZM93.1679 145.18C92.3999 145.18 91.7099 145.048 91.0979 144.784C90.4859 144.52 89.9639 144.166 89.5319 143.722C89.1119 143.266 88.7879 142.744 88.5599 142.156C88.3319 141.568 88.2179 140.95 88.2179 140.302C88.2179 139.642 88.3319 139.018 88.5599 138.43C88.7879 137.842 89.1119 137.326 89.5319 136.882C89.9639 136.426 90.4859 136.066 91.0979 135.802C91.7099 135.538 92.3999 135.406 93.1679 135.406C93.9359 135.406 94.6199 135.538 95.2199 135.802C95.8319 136.066 96.3479 136.426 96.7679 136.882C97.1999 137.326 97.5299 137.842 97.7579 138.43C97.9859 139.018 98.0999 139.642 98.0999 140.302C98.0999 140.95 97.9859 141.568 97.7579 142.156C97.5299 142.744 97.2059 143.266 96.7859 143.722C96.3659 144.166 95.8499 144.52 95.2379 144.784C94.6259 145.048 93.9359 145.18 93.1679 145.18ZM90.7019 140.302C90.7019 140.722 90.7619 141.106 90.8819 141.454C91.0139 141.79 91.1879 142.084 91.4039 142.336C91.6319 142.588 91.8959 142.786 92.1959 142.93C92.4959 143.062 92.8199 143.128 93.1679 143.128C93.5159 143.128 93.8399 143.062 94.1399 142.93C94.4399 142.786 94.6979 142.588 94.9139 142.336C95.1419 142.084 95.3159 141.784 95.4359 141.436C95.5679 141.088 95.6339 140.704 95.6339 140.284C95.6339 139.876 95.5679 139.498 95.4359 139.15C95.3159 138.802 95.1419 138.502 94.9139 138.25C94.6979 137.998 94.4399 137.806 94.1399 137.674C93.8399 137.53 93.5159 137.458 93.1679 137.458C92.8199 137.458 92.4959 137.53 92.1959 137.674C91.8959 137.818 91.6319 138.016 91.4039 138.268C91.1879 138.52 91.0139 138.82 90.8819 139.168C90.7619 139.516 90.7019 139.894 90.7019 140.302ZM98.4956 142.912H98.9996C99.2876 142.876 99.5216 142.786 99.7016 142.642C99.8936 142.486 100.056 142.246 100.188 141.922C100.332 141.586 100.446 141.142 100.53 140.59C100.626 140.038 100.722 139.336 100.818 138.484L101.142 135.568H107.748V142.912H109.008V147.7H106.866V145H100.566V147.7H98.4956V142.912ZM105.354 142.912V137.584H103.248L103.068 139.006C102.948 139.978 102.798 140.77 102.618 141.382C102.45 141.994 102.234 142.504 101.97 142.912H105.354ZM113.074 139.132H116.818V135.568H119.212V145H116.818V141.184H113.074V145H110.68V135.568H113.074V139.132ZM125.775 145.18C125.007 145.18 124.317 145.048 123.705 144.784C123.093 144.52 122.571 144.166 122.139 143.722C121.719 143.266 121.395 142.744 121.167 142.156C120.939 141.568 120.825 140.95 120.825 140.302C120.825 139.642 120.939 139.018 121.167 138.43C121.395 137.842 121.719 137.326 122.139 136.882C122.571 136.426 123.093 136.066 123.705 135.802C124.317 135.538 125.007 135.406 125.775 135.406C126.543 135.406 127.227 135.538 127.827 135.802C128.439 136.066 128.955 136.426 129.375 136.882C129.807 137.326 130.137 137.842 130.365 138.43C130.593 139.018 130.707 139.642 130.707 140.302C130.707 140.95 130.593 141.568 130.365 142.156C130.137 142.744 129.813 143.266 129.393 143.722C128.973 144.166 128.457 144.52 127.845 144.784C127.233 145.048 126.543 145.18 125.775 145.18ZM123.309 140.302C123.309 140.722 123.369 141.106 123.489 141.454C123.621 141.79 123.795 142.084 124.011 142.336C124.239 142.588 124.503 142.786 124.803 142.93C125.103 143.062 125.427 143.128 125.775 143.128C126.123 143.128 126.447 143.062 126.747 142.93C127.047 142.786 127.305 142.588 127.521 142.336C127.749 142.084 127.923 141.784 128.043 141.436C128.175 141.088 128.241 140.704 128.241 140.284C128.241 139.876 128.175 139.498 128.043 139.15C127.923 138.802 127.749 138.502 127.521 138.25C127.305 137.998 127.047 137.806 126.747 137.674C126.447 137.53 126.123 137.458 125.775 137.458C125.427 137.458 125.103 137.53 124.803 137.674C124.503 137.818 124.239 138.016 124.011 138.268C123.795 138.52 123.621 138.82 123.489 139.168C123.369 139.516 123.309 139.894 123.309 140.302ZM138.707 137.566H134.765V145H132.371V135.568H138.707V137.566ZM143.916 145.18C143.148 145.18 142.458 145.048 141.846 144.784C141.234 144.52 140.712 144.166 140.28 143.722C139.86 143.266 139.536 142.744 139.308 142.156C139.08 141.568 138.966 140.95 138.966 140.302C138.966 139.642 139.08 139.018 139.308 138.43C139.536 137.842 139.86 137.326 140.28 136.882C140.712 136.426 141.234 136.066 141.846 135.802C142.458 135.538 143.148 135.406 143.916 135.406C144.684 135.406 145.368 135.538 145.968 135.802C146.58 136.066 147.096 136.426 147.516 136.882C147.948 137.326 148.278 137.842 148.506 138.43C148.734 139.018 148.848 139.642 148.848 140.302C148.848 140.95 148.734 141.568 148.506 142.156C148.278 142.744 147.954 143.266 147.534 143.722C147.114 144.166 146.598 144.52 145.986 144.784C145.374 145.048 144.684 145.18 143.916 145.18ZM141.45 140.302C141.45 140.722 141.51 141.106 141.63 141.454C141.762 141.79 141.936 142.084 142.152 142.336C142.38 142.588 142.644 142.786 142.944 142.93C143.244 143.062 143.568 143.128 143.916 143.128C144.264 143.128 144.588 143.062 144.888 142.93C145.188 142.786 145.446 142.588 145.662 142.336C145.89 142.084 146.064 141.784 146.184 141.436C146.316 141.088 146.382 140.704 146.382 140.284C146.382 139.876 146.316 139.498 146.184 139.15C146.064 138.802 145.89 138.502 145.662 138.25C145.446 137.998 145.188 137.806 144.888 137.674C144.588 137.53 144.264 137.458 143.916 137.458C143.568 137.458 143.244 137.53 142.944 137.674C142.644 137.818 142.38 138.016 142.152 138.268C141.936 138.52 141.762 138.82 141.63 139.168C141.51 139.516 141.45 139.894 141.45 140.302ZM156.708 135.568L159.048 139.294H159.966V135.568H162.432V139.294H163.368L165.69 135.568H168.408L165.366 140.122L168.696 145H165.87L163.512 141.292H162.432V145H159.984V141.292H158.886L156.528 145H153.702L157.014 140.122L153.99 135.568H156.708ZM173.887 145.18C173.131 145.18 172.447 145.054 171.835 144.802C171.223 144.538 170.701 144.184 170.269 143.74C169.837 143.296 169.501 142.78 169.261 142.192C169.033 141.604 168.919 140.986 168.919 140.338C168.919 139.666 169.033 139.036 169.261 138.448C169.489 137.848 169.819 137.326 170.251 136.882C170.683 136.426 171.205 136.066 171.817 135.802C172.441 135.538 173.137 135.406 173.905 135.406C174.673 135.406 175.357 135.538 175.957 135.802C176.569 136.066 177.085 136.42 177.505 136.864C177.937 137.308 178.261 137.824 178.477 138.412C178.705 139 178.819 139.612 178.819 140.248C178.819 140.404 178.813 140.554 178.801 140.698C178.801 140.842 178.789 140.962 178.765 141.058H171.475C171.511 141.43 171.601 141.76 171.745 142.048C171.889 142.336 172.075 142.582 172.303 142.786C172.531 142.99 172.789 143.146 173.077 143.254C173.365 143.362 173.665 143.416 173.977 143.416C174.457 143.416 174.907 143.302 175.327 143.074C175.759 142.834 176.053 142.522 176.209 142.138L178.279 142.714C177.931 143.434 177.373 144.028 176.605 144.496C175.849 144.952 174.943 145.18 173.887 145.18ZM176.335 139.492C176.275 138.784 176.011 138.22 175.543 137.8C175.087 137.368 174.529 137.152 173.869 137.152C173.545 137.152 173.239 137.212 172.951 137.332C172.675 137.44 172.429 137.596 172.213 137.8C171.997 138.004 171.817 138.25 171.673 138.538C171.541 138.826 171.463 139.144 171.439 139.492H176.335ZM179.159 142.948C179.507 142.924 179.789 142.852 180.005 142.732C180.233 142.612 180.419 142.39 180.563 142.066C180.719 141.742 180.845 141.298 180.941 140.734C181.049 140.158 181.157 139.408 181.265 138.484L181.589 135.568H188.195V145H185.801V137.584H183.695L183.515 139.006C183.371 140.194 183.197 141.178 182.993 141.958C182.789 142.726 182.525 143.338 182.201 143.794C181.889 144.25 181.499 144.574 181.031 144.766C180.563 144.946 179.987 145.048 179.303 145.072L179.159 142.948ZM193.005 145.18C192.549 145.18 192.123 145.108 191.727 144.964C191.331 144.808 190.989 144.598 190.701 144.334C190.413 144.058 190.185 143.74 190.017 143.38C189.861 143.02 189.783 142.624 189.783 142.192C189.783 141.748 189.879 141.34 190.071 140.968C190.275 140.584 190.551 140.26 190.899 139.996C191.259 139.732 191.685 139.528 192.177 139.384C192.669 139.228 193.209 139.15 193.797 139.15C194.217 139.15 194.625 139.186 195.021 139.258C195.429 139.33 195.789 139.432 196.101 139.564V139.024C196.101 138.4 195.921 137.92 195.561 137.584C195.213 137.248 194.691 137.08 193.995 137.08C193.491 137.08 192.999 137.17 192.519 137.35C192.039 137.53 191.547 137.794 191.043 138.142L190.305 136.612C191.517 135.808 192.825 135.406 194.229 135.406C195.585 135.406 196.635 135.742 197.379 136.414C198.135 137.074 198.513 138.034 198.513 139.294V142.228C198.513 142.48 198.555 142.66 198.639 142.768C198.735 142.876 198.885 142.936 199.089 142.948V145C198.681 145.084 198.327 145.126 198.027 145.126C197.571 145.126 197.217 145.024 196.965 144.82C196.725 144.616 196.575 144.346 196.515 144.01L196.461 143.488C196.041 144.04 195.531 144.46 194.931 144.748C194.331 145.036 193.689 145.18 193.005 145.18ZM193.689 143.416C194.097 143.416 194.481 143.344 194.841 143.2C195.213 143.056 195.501 142.864 195.705 142.624C195.969 142.42 196.101 142.192 196.101 141.94V140.86C195.813 140.752 195.501 140.668 195.165 140.608C194.829 140.536 194.505 140.5 194.193 140.5C193.569 140.5 193.059 140.644 192.663 140.932C192.267 141.208 192.069 141.562 192.069 141.994C192.069 142.402 192.225 142.744 192.537 143.02C192.849 143.284 193.233 143.416 193.689 143.416ZM203.232 139.132H206.976V135.568H209.37V145H206.976V141.184H203.232V145H200.838V135.568H203.232V139.132ZM214.007 141.562L218.471 135.568H220.253V145H217.859V139.168L213.449 145H211.613V135.568H214.007V141.562ZM224.132 141.418C223.568 141.214 223.124 140.89 222.8 140.446C222.476 140.002 222.314 139.42 222.314 138.7C222.314 138.22 222.398 137.788 222.566 137.404C222.734 137.008 222.968 136.678 223.268 136.414C223.568 136.138 223.922 135.928 224.33 135.784C224.75 135.628 225.2 135.55 225.68 135.55H229.964V145H227.588V141.814H226.31L224.348 145H221.756L224.132 141.418ZM227.588 139.978V137.458H225.968C225.656 137.458 225.374 137.572 225.122 137.8C224.87 138.016 224.744 138.328 224.744 138.736C224.744 139.12 224.858 139.426 225.086 139.654C225.326 139.87 225.608 139.978 225.932 139.978H227.588ZM232.413 147.07L232.899 144.928H232.143V142.408H234.231V144.928L233.493 147.07H232.413ZM240.74 135.568H243.134V142.912H246.266V135.568H248.66V142.912H250.208V147.7H248.084V145H240.74V135.568ZM255.924 145.18C255.168 145.18 254.484 145.054 253.872 144.802C253.26 144.538 252.738 144.184 252.306 143.74C251.874 143.296 251.538 142.78 251.298 142.192C251.07 141.604 250.956 140.986 250.956 140.338C250.956 139.666 251.07 139.036 251.298 138.448C251.526 137.848 251.856 137.326 252.288 136.882C252.72 136.426 253.242 136.066 253.854 135.802C254.478 135.538 255.174 135.406 255.942 135.406C256.71 135.406 257.394 135.538 257.994 135.802C258.606 136.066 259.122 136.42 259.542 136.864C259.974 137.308 260.298 137.824 260.514 138.412C260.742 139 260.856 139.612 260.856 140.248C260.856 140.404 260.85 140.554 260.838 140.698C260.838 140.842 260.826 140.962 260.802 141.058H253.512C253.548 141.43 253.638 141.76 253.782 142.048C253.926 142.336 254.112 142.582 254.34 142.786C254.568 142.99 254.826 143.146 255.114 143.254C255.402 143.362 255.702 143.416 256.014 143.416C256.494 143.416 256.944 143.302 257.364 143.074C257.796 142.834 258.09 142.522 258.246 142.138L260.316 142.714C259.968 143.434 259.41 144.028 258.642 144.496C257.886 144.952 256.98 145.18 255.924 145.18ZM258.372 139.492C258.312 138.784 258.048 138.22 257.58 137.8C257.124 137.368 256.566 137.152 255.906 137.152C255.582 137.152 255.276 137.212 254.988 137.332C254.712 137.44 254.466 137.596 254.25 137.8C254.034 138.004 253.854 138.25 253.71 138.538C253.578 138.826 253.5 139.144 253.476 139.492H258.372ZM261.196 142.948C261.544 142.924 261.826 142.852 262.042 142.732C262.27 142.612 262.456 142.39 262.6 142.066C262.756 141.742 262.882 141.298 262.978 140.734C263.086 140.158 263.194 139.408 263.302 138.484L263.626 135.568H270.232V145H267.838V137.584H265.732L265.552 139.006C265.408 140.194 265.234 141.178 265.03 141.958C264.826 142.726 264.562 143.338 264.238 143.794C263.926 144.25 263.536 144.574 263.068 144.766C262.6 144.946 262.024 145.048 261.34 145.072L261.196 142.948ZM274.898 141.562L279.362 135.568H281.144V145H278.75V139.168L274.34 145H272.504V135.568H274.898V141.562Z" fill="#1C1C1C"/>
<defs>
<filter id="filter0_d_1_2278" x="0.5" y="0.5" width="377" height="293.838" filterUnits="userSpaceOnUse" color-interpolation-filters="sRGB">
<feFlood flood-opacity="0" result="BackgroundImageFix"/>
<feColorMatrix in="SourceAlpha" type="matrix" values="0 0 0 0 0 0 0 0 0 0 0 0 0 0 0 0 0 0 127 0" result="hardAlpha"/>
<feOffset dx="7" dy="7"/>
<feColorMatrix type="matrix" values="0 0 0 0 0 0 0 0 0 0 0 0 0 0 0 0 0 0 1 0"/>
<feBlend mode="normal" in2="BackgroundImageFix" result="effect1_dropShadow_1_2278"/>
<feBlend mode="normal" in="SourceGraphic" in2="effect1_dropShadow_1_2278" result="shape"/>
</filter>
</defs>
</svg>
